<?xml version="1.0" encoding="utf-8"?>
<svg width="65px" height="5px" viewBox="0 0 65 5" version="1.1" xmlns:xlink="http://www.w3.org/1999/xlink" xmlns="http://www.w3.org/2000/svg">
  <desc>Created with Lunacy</desc>
  <defs>
    <linearGradient x1="-0.10513322" y1="0.92431027" x2="1.0808896" y2="-0.1269571" id="gradient_1">
      <stop offset="0" stop-color="#FFB87D" />
      <stop offset="1" stop-color="#FF3D99" />
    </linearGradient>
  </defs>
  <path d="M1.999 0L62.001 0Q62.0992 0 62.1969 0.00962573Q62.2947 0.0192515 62.391 0.0384102Q62.4873 0.057569 62.5813 0.0860763Q62.6752 0.114584 62.766 0.152165Q62.8567 0.189746 62.9433 0.236039Q63.0299 0.282333 63.1116 0.336892Q63.1932 0.391452 63.2691 0.453752Q63.3451 0.516052 63.4145 0.585494Q63.4839 0.654935 63.5462 0.730848Q63.6085 0.806761 63.6631 0.888415Q63.7177 0.970069 63.764 1.05668Q63.8102 1.14329 63.8478 1.23402Q63.8854 1.32474 63.9139 1.41872Q63.9424 1.5127 63.9616 1.60901Q63.9807 1.70533 63.9904 1.80306Q64 1.9008 64 1.999L64 2.001Q64 2.0992 63.9904 2.19694Q63.9807 2.29467 63.9616 2.39099Q63.9424 2.4873 63.9139 2.58128Q63.8854 2.67525 63.8478 2.76598Q63.8102 2.85671 63.764 2.94332Q63.7177 3.02993 63.6631 3.11158Q63.6085 3.19324 63.5462 3.26915Q63.4839 3.34507 63.4145 3.41451Q63.3451 3.48395 63.2691 3.54625Q63.1932 3.60855 63.1116 3.66311Q63.0299 3.71767 62.9433 3.76396Q62.8567 3.81025 62.766 3.84783Q62.6753 3.88542 62.5813 3.91392Q62.4873 3.94243 62.391 3.96159Q62.2947 3.98075 62.1969 3.99037Q62.0992 4 62.001 4L1.999 4Q1.9008 4 1.80306 3.99037Q1.70533 3.98075 1.60901 3.96159Q1.5127 3.94243 1.41872 3.91392Q1.32474 3.88542 1.23402 3.84783Q1.14329 3.81025 1.05668 3.76396Q0.970069 3.71767 0.888415 3.66311Q0.806761 3.60855 0.730848 3.54625Q0.654935 3.48395 0.585494 3.41451Q0.516052 3.34507 0.453752 3.26915Q0.391452 3.19324 0.336892 3.11158Q0.282333 3.02993 0.236039 2.94332Q0.189746 2.85671 0.152165 2.76598Q0.114584 2.67525 0.0860763 2.58128Q0.057569 2.4873 0.0384102 2.39099Q0.0192515 2.29467 0.00962573 2.19694Q0 2.0992 0 2.001L0 1.999Q0 1.9008 0.00962573 1.80306Q0.0192515 1.70533 0.0384102 1.60901Q0.057569 1.5127 0.0860763 1.41872Q0.114584 1.32474 0.152165 1.23402Q0.189746 1.14329 0.236039 1.05668Q0.282333 0.970069 0.336892 0.888415Q0.391452 0.806761 0.453752 0.730848Q0.516052 0.654935 0.585494 0.585494Q0.654935 0.516052 0.730848 0.453752Q0.806761 0.391452 0.888415 0.336892Q0.970069 0.282333 1.05668 0.236039Q1.14329 0.189746 1.23402 0.152165Q1.32474 0.114584 1.41872 0.0860763Q1.5127 0.057569 1.60901 0.0384102Q1.70533 0.0192515 1.80306 0.00962573Q1.9008 0 1.999 0L1.999 0Z" transform="translate(0.5 0.5)" id="Rectangle-Copy" fill="url(#gradient_1)" fill-rule="evenodd" stroke="none" />
</svg>