<?xml version="1.0" encoding="utf-8"?>
<svg width="1920px" height="1821px" viewBox="0 0 1920 1821" version="1.1" xmlns:xlink="http://www.w3.org/1999/xlink" xmlns="http://www.w3.org/2000/svg">
  <desc>Created with Lunacy</desc>
  <defs>
    <path d="M0 0L1920 0L1920 1819L0 1819L0 0Z" id="path_1" />
    <path d="M1145.5 121.559C464.418 16.5011 0 169.921 0 169.921L0 309L13 309L13 2524L1933 2524L1933 309L2028.6 309L2036 0C2036 0 1826.59 226.616 1145.5 121.559Z" id="path_2" />
    <path d="M0 0L134.731 0L134.731 171.293L0 171.293L0 0Z" transform="translate(0.0010416238 0.0008289157)" id="path_3" />
    <path d="M0 0L1184 0L1184 1119.09L0 1119.09L0 0Z" id="path_4" />
    <path d="M0 0L1184 0L1184 1119.09L0 1119.09L0 0Z" transform="translate(0.00045019013 0.00093117706)" id="path_5" />
    <path d="M0 0L117.237 0L117.237 119.811L0 119.811L0 0Z" transform="translate(0.00067092374 0.0002906404)" id="path_6" />
    <path d="M0 0L19.4419 0L19.4419 19.442L0 19.442L0 0Z" transform="translate(5.9007092E-05 0.00054)" id="path_7" />
    <clipPath id="mask_1">
      <use xlink:href="#path_1" />
    </clipPath>
    <clipPath id="mask_2">
      <use xlink:href="#path_2" />
    </clipPath>
    <clipPath id="mask_3">
      <use xlink:href="#path_3" />
    </clipPath>
    <clipPath id="mask_4">
      <use xlink:href="#path_4" />
    </clipPath>
    <clipPath id="mask_5">
      <use xlink:href="#path_5" />
    </clipPath>
    <clipPath id="mask_6">
      <use xlink:href="#path_6" />
    </clipPath>
    <clipPath id="mask_7">
      <use xlink:href="#path_7" />
    </clipPath>
  </defs>
  <g id="Group-203" transform="translate(0 1)">
    <path d="M0 0L1920 0L1920 1819L0 1819L0 0Z" fill-opacity="0" />
    <g clip-path="url(#mask_1)">
      <path d="M0 169.921C0 169.921 464.418 16.5011 1145.5 121.559C1826.59 226.616 2036 0 2036 0L2028.6 309L0 309L0 169.921Z" transform="matrix(-1 0 0 1 2026 -9)" id="Path-5" fill="#0029A9" fill-opacity="0.1" fill-rule="evenodd" stroke="none" />
      <g id="Group-11" transform="translate(-13 -4)">
        <path d="M1145.5 121.559C464.418 16.5011 0 169.921 0 169.921L0 309L13 309L13 2524L1933 2524L1933 309L2028.6 309L2036 0C2036 0 1826.59 226.616 1145.5 121.559Z" id="Combined-Shape" fill="#0029A9" fill-rule="evenodd" stroke="none" />
        <g clip-path="url(#mask_2)">
          <g id="Group-3" transform="translate(414 517)">
            <path d="M0 0L134.731 0L134.731 171.293L0 171.293L0 0Z" transform="translate(0.0010416238 0.0008289157)" id="Clip-2" fill="none" fill-rule="evenodd" stroke="none" />
            <g clip-path="url(#mask_3)">
              <path d="M114.626 1.05049C107.704 1.05049 101.096 5.90794 97.1116 10.7074C94.1616 14.2634 91.7476 18.3603 89.4116 22.3184C87.4396 25.6672 85.3976 29.1279 83.0296 32.2778C74.5696 43.5345 62.2516 50.5948 50.3396 57.4251C43.7736 61.1883 36.9856 65.078 30.8936 69.6391C12.9436 83.0676 1.78356 102.636 1.03756 121.985C0.183558 144.086 14.2536 164.859 33.0676 169.275C51.9936 173.709 70.5836 162.25 82.8476 151.853L83.1636 152.253L82.8476 151.853C104.554 133.447 128.922 102.278 132.218 69.9997C136.444 28.5788 131.892 5.58052 118.686 1.63902C117.334 1.23493 115.972 1.05049 114.626 1.05049M41.6476 171.293C38.7376 171.293 35.7976 170.978 32.8476 170.286C13.5776 165.76 -0.834442 144.528 0.0375584 121.946C0.795558 102.282 12.1116 82.4127 30.3076 68.7957C36.4476 64.2035 43.2636 60.2972 49.8556 56.5195C61.6796 49.7389 73.9076 42.7304 82.2396 31.6437C84.5736 28.5373 86.5996 25.0994 88.5596 21.7796C90.9156 17.7822 93.3496 13.6521 96.3536 10.0318C101.542 3.77763 110.21 -1.96261 118.964 0.644326C132.704 4.74331 137.498 28.1167 133.212 70.1095C129.886 102.698 105.34 134.116 83.4796 152.653C72.9436 161.589 57.7816 171.291 41.6476 171.293" transform="translate(0.0010416238 0.00057052297)" id="Fill-1" fill="#1D39D7" fill-rule="evenodd" stroke="none" />
            </g>
          </g>
          <g id="Group-3" transform="translate(1136.0005 910.001)" opacity="0.3929734">
            <path d="M0 0L1184 0L1184 1119.09L0 1119.09L0 0Z" id="Clip-2" fill="none" fill-rule="evenodd" stroke="none" />
            <g clip-path="url(#mask_4)">
              <path d="M1184 0L1184 219.758C1167.79 237.59 1152.71 256.493 1138.71 275.535C1081.04 353.847 1028.95 451.295 945.804 499.251C797.197 584.965 591.325 508.609 456.538 616.16C375.143 681.109 340.164 796.529 253.637 854.029C203.036 887.598 137.353 899.471 99.2669 947.566C74.1463 979.226 65.7278 1021.32 47.0899 1057.44C34.7997 1081.24 18.7279 1101.58 0 1119.09L0 841.551C15.0364 823.766 30.793 803.187 47.36 779.349C111.602 687.022 243.733 682.972 300.367 585.478C343.9 510.658 309.866 387.323 380.816 339.973C464.821 283.916 601.184 322.048 685.189 357.991C769.195 393.888 868.687 436.21 946.21 387.137C1041.29 326.983 1035.39 182.418 1093.56 84.0853C1117.6 43.3929 1148.03 16.7146 1184 0" transform="matrix(0.49999997 -0.86602545 0.86602545 0.49999997 66.23633 628.32715)" id="Fill-1" fill="none" fill-rule="evenodd" stroke="#FFD5CC" stroke-opacity="0.61897784" stroke-width="1" />
            </g>
          </g>
          <g id="Group-3-Copy" transform="matrix(-0.42261833 0.90630776 -0.90630776 -0.42261833 713.01855 1145.8555)" opacity="0.3929734">
            <path d="M0 0L1184 0L1184 1119.09L0 1119.09L0 0Z" id="Clip-2" fill="none" fill-rule="evenodd" stroke="none" />
            <g clip-path="url(#mask_4)">
              <path d="M1184 0L1184 219.758C1167.79 237.59 1152.71 256.493 1138.71 275.535C1081.04 353.847 1028.95 451.295 945.804 499.251C797.197 584.965 591.325 508.609 456.538 616.16C375.143 681.109 340.164 796.529 253.637 854.029C203.036 887.598 137.353 899.471 99.2669 947.566C74.1463 979.226 65.7278 1021.32 47.0899 1057.44C34.7997 1081.24 18.7279 1101.58 0 1119.09L0 841.551C15.0364 823.766 30.793 803.187 47.36 779.349C111.602 687.022 243.733 682.972 300.367 585.478C343.9 510.658 309.866 387.323 380.816 339.973C464.821 283.916 601.184 322.048 685.189 357.991C769.195 393.888 868.687 436.21 946.21 387.137C1041.29 326.983 1035.39 182.418 1093.56 84.0853C1117.6 43.3929 1148.03 16.7146 1184 0" id="Fill-1" fill="none" fill-rule="evenodd" stroke="#FFD5CC" stroke-opacity="0.61897784" stroke-width="1" />
            </g>
          </g>
          <g id="Group-3-Copy-2" transform="translate(-270 -72)">
            <path d="M0 0L1184 0L1184 1119.09L0 1119.09L0 0Z" transform="translate(0.00045019013 0.00093117706)" id="Clip-2" fill="none" fill-rule="evenodd" stroke="none" />
            <g clip-path="url(#mask_5)">
              <path d="M1184 0L1184 219.758C1167.79 237.59 1152.71 256.493 1138.71 275.535C1081.04 353.847 1028.95 451.295 945.804 499.251C797.197 584.965 591.325 508.609 456.538 616.16C375.143 681.109 340.164 796.529 253.637 854.029C203.036 887.598 137.353 899.471 99.2669 947.566C74.1463 979.226 65.7278 1021.32 47.0899 1057.44C34.7997 1081.24 18.7279 1101.58 0 1119.09L0 841.551C15.0364 823.766 30.793 803.187 47.36 779.349C111.602 687.022 243.733 682.972 300.367 585.478C343.9 510.658 309.866 387.323 380.816 339.973C464.821 283.916 601.184 322.048 685.189 357.991C769.195 393.888 868.687 436.21 946.21 387.137C1041.29 326.983 1035.39 182.418 1093.56 84.0853C1117.6 43.3929 1148.03 16.7146 1184 0" transform="translate(0.00045019013 -92)" id="Fill-1" fill="none" fill-rule="evenodd" stroke="#FFD5CC" stroke-opacity="0.18394253" stroke-width="1" />
            </g>
          </g>
          <g id="Group-3" transform="translate(1326 155)">
            <path d="M0 0L117.237 0L117.237 119.811L0 119.811L0 0Z" transform="translate(0.00067092374 0.0002906404)" id="Clip-2" fill="none" fill-rule="evenodd" stroke="none" />
            <g clip-path="url(#mask_6)">
              <path d="M96.727 1.45238C90.5714 1.45238 83.91 3.86469 77.9116 8.42193C71.3851 13.3861 66.1903 20.1347 61.1697 26.6596L59.026 29.4352C53.539 36.492 46.9479 44.3945 38.1681 48.882C34.8304 50.588 31.2314 51.768 27.7476 52.9044C23.4715 54.3053 19.0493 55.7527 15.2003 58.1767C8.85354 62.173 4.13635 69.6744 2.25959 78.7598C0.245162 88.5137 1.82973 98.5205 6.49354 105.531C16.2201 120.147 40.7978 120.217 55.1376 115.607C71.8655 110.227 85.9834 96.3058 91.9845 79.2772C93.7714 74.2113 94.9374 68.7414 96.0696 63.4518C98.1515 53.7008 100.306 43.6156 106.411 35.7043C107.33 34.5127 108.344 33.3676 109.325 32.2603C111.559 29.7346 113.668 27.3542 114.871 24.3665C116.301 20.8265 116.13 16.7023 114.388 12.7525C112.272 7.954 108.24 4.14371 103.596 2.55681C101.427 1.81568 99.1151 1.45238 96.727 1.45238M36.6425 119.813C24.7386 119.813 12.062 116.456 5.33602 106.353C0.455877 99.0204 -1.20736 88.5922 0.888543 78.4546C2.84397 68.9798 7.79435 61.1383 14.4698 56.9327C18.4621 54.4216 22.9686 52.9451 27.3234 51.521C30.7566 50.3991 34.305 49.2366 37.5472 47.5799C46.0713 43.2232 52.5388 35.4602 57.9303 28.5255L60.0712 25.7557C65.1508 19.1553 70.4018 12.3281 77.08 7.25356C85.7671 0.647303 95.8392 -1.62551 104.04 1.17627C109.044 2.88814 113.39 6.98908 115.666 12.1479C117.571 16.4698 117.751 21.0096 116.169 24.9274C114.871 28.1506 112.578 30.7373 110.362 33.2426C109.395 34.3325 108.398 35.4573 107.507 36.6141C101.607 44.2608 99.5843 53.7328 97.4406 63.7628C96.3 69.1018 95.1228 74.6211 93.305 79.7771C87.1578 97.2213 72.6915 111.48 55.5563 116.994C50.4514 118.636 43.6804 119.813 36.6425 119.813" transform="translate(0.00067092374 -0.0003370146)" id="Fill-1" fill="#1D39D7" fill-rule="evenodd" stroke="#FFEDE9" stroke-width="0.5" />
            </g>
          </g>
          <path d="M11 22C17.0751 22 22 17.0751 22 11C22 4.92487 17.0751 0 11 0C4.92487 0 0 4.92487 0 11C0 17.0751 4.92487 22 11 22Z" transform="translate(1466 358)" id="Oval" fill="#FFE7CE" fill-rule="evenodd" stroke="none" />
          <g id="Group-3" transform="translate(302 521)">
            <path d="M0 0L19.4419 0L19.4419 19.442L0 19.442L0 0Z" transform="translate(5.9007092E-05 0.00054)" id="Clip-2" fill="none" fill-rule="evenodd" stroke="none" />
            <g clip-path="url(#mask_7)">
              <path d="M3.65445 0.185998C6.31263 -0.557703 9.07162 0.995532 9.81435 3.65455C10.5571 6.31356 9.00476 9.07133 6.34555 9.814C3.68737 10.5577 0.929406 9.00447 0.185651 6.34545C-0.557075 3.68644 0.995244 0.9297 3.65445 0.185998" transform="translate(4.721 4.72134)" id="Fill-1" fill="#FE7C77" fill-opacity="0.8178711" fill-rule="evenodd" stroke="none" />
            </g>
          </g>
          <g id="593343" transform="translate(176 272)">
            <path d="M1.0417 0C0.466354 0 0 0.47949 0 1.07105L0 1.64236C0 2.23391 0.466492 2.7134 1.0417 2.7134C1.61691 2.7134 2.08341 2.23391 2.08341 1.64236L2.08341 1.07105C2.08354 0.479633 1.61705 0 1.0417 0Z" transform="translate(43.347717 29.656963)" id="Path" fill="#FFFFFF" fill-rule="evenodd" stroke="none" />
            <path d="M1.0417 0C0.466354 0 0 0.47949 0 1.07105L0 2.32174C0 2.9133 0.466492 3.39279 1.0417 3.39279C1.61691 3.39279 2.08341 2.91316 2.08341 2.32174L2.08341 1.07105C2.08354 0.47949 1.61705 0 1.0417 0Z" transform="translate(43.347717 33.980217)" id="Path" fill="#FFFFFF" fill-rule="evenodd" stroke="none" />
            <path d="M1.0417 0C0.466354 0 0 0.47949 0 1.07105L0 2.32174C0 2.9133 0.466492 3.39279 1.0417 3.39279C1.61691 3.39279 2.08341 2.9133 2.08341 2.32174L2.08341 1.07105C2.08354 0.47949 1.61705 0 1.0417 0Z" transform="translate(43.347717 38.982998)" id="Path" fill="#FFFFFF" fill-rule="evenodd" stroke="none" />
            <path d="M1.59722 0C1.1654 0 0.795006 0.270186 0.637059 0.655004C0.262783 0.8174 0 1.19823 0 1.64221C0 2.23377 0.466354 2.71326 1.0417 2.71326L1.59736 2.71326C2.17271 2.71326 2.63906 2.23363 2.63906 1.64221L2.63906 1.07105C2.63906 0.47949 2.17257 0 1.59722 0Z" transform="translate(42.7922 43.985638)" id="Path" fill="#FFFFFF" fill-rule="evenodd" stroke="none" />
            <path d="M2.23289 0L1.0417 0C0.466354 0 0 0.47949 0 1.07105C0 1.6626 0.466354 2.14209 1.0417 2.14209L2.23289 2.14209C2.80824 2.14209 3.2746 1.66246 3.2746 1.07105C3.2746 0.479633 2.80824 0 2.23289 0Z" transform="translate(38.027573 44.556805)" id="Path" fill="#FFFFFF" fill-rule="evenodd" stroke="none" />
            <path d="M2.23289 0L1.0417 0C0.466354 0 0 0.47949 0 1.07105C0 1.6626 0.466354 2.14209 1.0417 2.14209L2.23289 2.14209C2.80824 2.14209 3.2746 1.66246 3.2746 1.07105C3.2746 0.479633 2.80824 0 2.23289 0Z" transform="translate(33.262947 44.556805)" id="Path" fill="#FFFFFF" fill-rule="evenodd" stroke="none" />
            <path d="M1.59736 0L1.0417 0C0.466354 0 0 0.47949 0 1.07105C0 1.6626 0.466354 2.14209 1.0417 2.14209L1.59736 2.14209C2.17271 2.14209 2.63906 1.66246 2.63906 1.07105C2.63906 0.479633 2.17271 0 1.59736 0Z" transform="translate(29.133852 44.556805)" id="Path" fill="#FFFFFF" fill-rule="evenodd" stroke="none" />
            <path d="M69.935 26.301L62.1568 26.301C61.5814 26.301 61.1151 26.7806 61.1151 27.372C61.1151 27.9634 61.5814 28.4431 62.1568 28.4431L68.8933 28.4431L68.8933 70.8578L27.6406 70.8578L27.6406 45.628C27.6406 45.0364 27.1743 44.5569 26.5989 44.5569L2.08341 44.5569L2.08341 2.14209L43.3361 2.14209L43.3361 27.3482C43.3361 27.3522 43.3366 27.356 43.3366 27.36C43.3366 27.364 43.3361 27.3679 43.3361 27.3719C43.3361 27.9634 43.8026 28.4429 44.3778 28.4429L57.1101 28.4429C57.6854 28.4429 58.1518 27.9634 58.1518 27.3719C58.1518 26.7803 57.6854 26.3008 57.1101 26.3008L45.4195 26.3008L45.4195 1.07105C45.4195 0.47949 44.9531 0 44.3778 0L1.0417 0C0.466353 0 0 0.47949 0 1.07105L0 45.6278C0 46.2194 0.466353 46.6989 1.0417 46.6989L25.5572 46.6989L25.5572 71.9288C25.5572 72.5204 26.0236 72.9999 26.5989 72.9999L69.935 72.9999C70.5103 72.9999 70.9767 72.5204 70.9767 71.9288L70.9767 27.372C70.9767 26.7804 70.5103 26.301 69.935 26.301Z" transform="translate(0.011648438 0)" id="Path" fill="#FFFFFF" fill-rule="evenodd" stroke="#1D39D7" stroke-width="1" />
            <path d="M1.0417 0C0.466354 0 0 0.479633 0 1.07105L0 1.64236C0 2.23391 0.466354 2.7134 1.0417 2.7134C1.61705 2.7134 2.08341 2.23391 2.08341 1.64236L2.08341 1.07105C2.08341 0.479633 1.61691 0 1.0417 0Z" transform="translate(25.568874 40.60568)" id="Path" fill="#FFFFFF" fill-rule="evenodd" stroke="none" />
            <path d="M1.0417 0C0.466354 0 0 0.47949 0 1.07105L0 2.31946C0 2.91102 0.466354 3.39051 1.0417 3.39051C1.61705 3.39051 2.08341 2.91102 2.08341 2.31946L2.08341 1.07105C2.08341 0.479633 1.61691 0 1.0417 0Z" transform="translate(25.568874 35.61174)" id="Path" fill="#FFFFFF" fill-rule="evenodd" stroke="none" />
            <path d="M1.0417 0C0.466354 0 0 0.479633 0 1.07105L0 2.31946C0 2.91102 0.466354 3.39051 1.0417 3.39051C1.61705 3.39051 2.08341 2.91102 2.08341 2.31946L2.08341 1.07105C2.08341 0.479633 1.61691 0 1.0417 0Z" transform="translate(25.568874 30.617655)" id="Path" fill="#FFFFFF" fill-rule="evenodd" stroke="none" />
            <path d="M1.59736 0L1.0417 0C0.466354 0 0 0.479633 0 1.07105L0 1.64221C0 2.23377 0.466354 2.71326 1.0417 2.71326C1.47353 2.71326 1.84392 2.44308 2.00187 2.05826C2.37628 1.89586 2.63893 1.51504 2.63893 1.07105C2.63906 0.479633 2.17271 0 1.59736 0Z" transform="translate(25.568737 26.300959)" id="Path" fill="#FFFFFF" fill-rule="evenodd" stroke="none" />
            <path d="M2.25813 0L1.0417 0C0.466354 0 0 0.479633 0 1.07105C0 1.66246 0.466354 2.14209 1.0417 2.14209L2.25813 2.14209C2.83348 2.14209 3.29984 1.6626 3.29984 1.07105C3.29984 0.47949 2.83348 0 2.25813 0Z" transform="translate(34.639263 26.300959)" id="Path" fill="#FFFFFF" fill-rule="evenodd" stroke="none" />
            <path d="M2.25813 0L1.0417 0C0.466354 0 0 0.479633 0 1.07105C0 1.66246 0.466354 2.14209 1.0417 2.14209L2.25813 2.14209C2.83348 2.14209 3.29984 1.6626 3.29984 1.07105C3.29984 0.47949 2.83348 0 2.25813 0Z" transform="translate(29.773684 26.300959)" id="Path" fill="#FFFFFF" fill-rule="evenodd" stroke="none" />
            <path d="M1.59736 0L1.0417 0C0.466354 0 0 0.479633 0 1.07105C0 1.66246 0.466354 2.14209 1.0417 2.14209L1.59736 2.14209C2.17271 2.14209 2.63906 1.6626 2.63906 1.07105C2.63906 0.47949 2.17257 0 1.59736 0Z" transform="translate(39.504982 26.300959)" id="Path" fill="#FFFFFF" fill-rule="evenodd" stroke="none" />
          </g>
          <g id="593369" transform="translate(1628 275)">
            <path d="M107.356 32.9063C107.349 32.8641 107.342 32.8221 107.332 32.7803C106.728 29.4416 105.724 26.2476 104.375 23.2527C104.338 23.1385 104.288 23.0283 104.227 22.9233C102.971 20.2022 101.43 17.6492 99.6429 15.3068C99.5766 15.1915 99.498 15.0822 99.4022 14.9828C99.3893 14.9695 99.3752 14.9581 99.3619 14.9452C97.6063 12.6976 95.622 10.6496 93.4462 8.83925C93.4339 8.82569 93.423 8.81147 93.4103 8.79813C93.312 8.69641 93.2034 8.61241 93.0888 8.54306C90.821 6.70119 88.3503 5.11634 85.7191 3.82813C85.6189 3.76447 85.5134 3.71394 85.4046 3.67566C82.5 2.28659 79.4034 1.25781 76.1674 0.648375C76.1271 0.638969 76.0866 0.631094 76.0459 0.624969C73.8286 0.214375 71.5466 0 69.2172 0C67.4258 0 65.6634 0.1295 63.936 0.374281C63.9305 0.374719 63.925 0.376031 63.9193 0.376687C47.5392 2.70769 34.387 15.6846 31.1837 32.3398C26.9793 33.2084 22.9304 34.7937 19.2181 37.0473C18.4625 37.506 18.2088 38.5129 18.6509 39.2965C19.0932 40.08 20.0644 40.3432 20.8195 39.8847C23.891 38.0201 27.2145 36.6542 30.6676 35.819C30.5153 37.2645 30.4345 38.7321 30.4345 40.2192C30.4345 42.6326 30.641 44.9971 31.0359 47.2944C31.0422 47.3395 31.05 47.3843 31.0599 47.4287C31.6476 50.7835 32.6394 53.9936 33.9784 57.0047C34.0154 57.118 34.0645 57.2276 34.1259 57.332C35.3683 60.0604 36.8961 62.6224 38.6722 64.9742C38.7393 65.093 38.8201 65.2057 38.9184 65.3076C38.9308 65.3207 38.9445 65.3317 38.9574 65.3441C40.7033 67.6008 42.6781 69.6588 44.8459 71.4798C44.8584 71.4936 44.8694 71.5081 44.8822 71.5214C44.9778 71.6205 45.0832 71.7023 45.1942 71.7708C47.4531 73.6245 49.915 75.2229 52.5388 76.5244C52.6401 76.5887 52.7466 76.6399 52.8565 76.6784C55.7449 78.078 58.8252 79.1188 62.0454 79.7458C62.0848 79.7552 62.1245 79.763 62.1643 79.7694C64.4522 80.2071 66.8092 80.4379 69.2172 80.4379C70.6516 80.4379 72.0672 80.3541 73.4615 80.1959C69.7792 96.5186 55.6284 108.712 38.7825 108.712C19.1457 108.712 3.16997 92.1443 3.16997 71.7802C3.16997 61.5116 7.13686 51.9728 14.3397 44.9205C14.9764 44.2973 15.005 43.2569 14.4043 42.5967C13.8031 41.9366 12.7999 41.9068 12.1635 42.5298C8.36304 46.2508 5.37194 50.6422 3.27375 55.5822C1.10173 60.6981 0 66.1478 0 71.7808C0 93.9579 17.3981 112 38.783 112C57.5678 112 73.274 98.0779 76.8163 79.6611C92.9705 76.3195 105.538 62.5404 107.677 45.4149C107.678 45.4048 107.68 45.395 107.681 45.3852C107.891 43.6933 108 41.9692 108 40.2192C108 37.7223 107.777 35.2785 107.356 32.9063ZM98.1072 18.6502C99.1653 20.1703 100.116 21.7757 100.945 23.4561L72.8561 52.5853C71.9892 50.937 71.0136 49.359 69.9408 47.8599L98.1072 18.6502ZM96.127 16.0538L67.9371 45.2878C66.7744 43.9134 65.5241 42.6206 64.1931 41.4214L92.3803 12.1905C93.7185 13.3814 94.9716 14.6724 96.127 16.0538ZM89.8672 10.1467L61.7007 39.3566C60.2488 38.25 58.7208 37.2446 57.1255 36.3525L85.2099 7.22772C86.8375 8.07953 88.3942 9.05581 89.8672 10.1467ZM76.3379 4.02981C78.3266 4.45025 80.2554 5.04372 82.1095 5.79316L54.1038 34.8359C52.3155 34.0353 50.4588 33.3692 48.5443 32.8525L76.3379 4.02981ZM64.8272 3.56847C66.2662 3.38406 67.7312 3.28759 69.2175 3.28759C70.2983 3.28759 71.3673 3.34053 72.4241 3.43875L44.8329 32.0519C42.861 31.7303 40.8407 31.5617 38.783 31.5617C38.4609 31.5617 38.1392 31.57 37.8177 31.5783L64.8272 3.56847ZM59.168 4.78734L35.0508 29.7979C38.4598 17.799 47.5978 8.32234 59.168 4.78734ZM33.7508 43.5448C33.6559 42.4487 33.6049 41.34 33.6049 40.2192C33.6049 38.6778 33.6979 37.1586 33.8757 35.6663L34.3885 35.1345C35.8417 34.9477 37.3089 34.8493 38.7832 34.8493C39.864 34.8493 40.9331 34.9022 41.9898 35.0004L33.7508 43.5448ZM34.3204 47.6033L45.9032 35.5915C47.8921 36.0117 49.8207 36.6052 51.6748 37.3548L36.0205 53.5892C35.2981 51.6661 34.7256 49.6659 34.3204 47.6033ZM40.219 61.6339C39.1669 60.1062 38.2255 58.4918 37.4041 56.8041L54.7756 38.7892C56.403 39.6412 57.9597 40.6173 59.4329 41.7084L40.219 61.6339ZM42.1896 64.2401L61.9458 43.7522C63.284 44.9433 64.5372 46.2341 65.6925 47.6155L45.9152 68.1253C44.5829 66.9274 43.3382 65.6278 42.1896 64.2401ZM48.4186 70.1789L67.6728 50.2119C68.731 51.732 69.6817 53.3372 70.5105 55.0176L53.0525 73.1222C51.4323 72.2623 49.8842 71.2762 48.4186 70.1789ZM61.8844 76.3617C59.9044 75.9303 57.984 75.329 56.1391 74.5708L71.9078 58.2183C72.6386 60.1315 73.2185 62.123 73.6347 64.1764L61.8844 76.3617ZM74.158 76.032L73.3168 76.9044C71.9712 77.0652 70.6037 77.1507 69.2172 77.1507C68.0558 77.1507 66.9077 77.0908 65.7743 76.9775L74.2283 68.2104C74.3375 69.3855 74.3953 70.5762 74.3953 71.7808C74.3953 73.2187 74.3131 74.6366 74.158 76.032ZM76.2659 61.4478C75.7584 59.4702 75.1089 57.5527 74.3297 55.7069L102.342 26.6571C103.073 28.5703 103.653 30.5618 104.069 32.615L76.2659 61.4478ZM78.902 75.7623L103.491 50.2622C100.134 62.5671 90.767 72.2807 78.902 75.7623ZM104.593 44.4703L77.5569 72.5073C77.5611 72.2654 77.5657 72.0237 77.5657 71.7806C77.5657 69.5669 77.3896 67.3953 77.0561 65.2778L104.663 36.6487C104.772 37.8238 104.83 39.0145 104.83 40.2192C104.83 41.657 104.747 43.0752 104.593 44.4703Z" id="Shape" fill="#FFFFFF" stroke="#0029A9" stroke-width="2" />
          </g>
          <path d="M15 32C23.2843 32 30 24.8366 30 16C30 7.16344 23.2843 0 15 0C6.71573 0 0 7.16344 0 16C0 24.8366 6.71573 32 15 32Z" transform="translate(595 276)" id="Oval" fill="#A5E0F3" fill-rule="evenodd" stroke="none" />
        </g>
      </g>
    </g>
  </g>
</svg>