<?xml version="1.0" encoding="utf-8"?>
<svg width="94px" height="95px" viewBox="0 0 94 95" version="1.1" xmlns:xlink="http://www.w3.org/1999/xlink" xmlns="http://www.w3.org/2000/svg">
  <desc>Created with Lunacy</desc>
  <g id="2261290">
    <path d="M4.99225 7.47126C5.29783 7.1058 5.42475 6.62321 5.33849 6.15469C5.01464 4.37655 5.62936 2.55697 6.96522 1.33954C7.42398 0.921175 7.95468 0.589297 8.53165 0.359949C6.70864 -0.361068 4.63417 0.019023 3.18522 1.33954C1.84936 2.55697 1.23464 4.37655 1.55849 6.15469C1.64484 6.62297 1.51821 7.10538 1.213 7.47088C0.91309 7.83085 0.468528 8.03865 0 8.03788L3.78 8.03788C4.2482 8.03852 4.69243 7.83088 4.99225 7.47126L4.99225 7.47126Z" transform="translate(33.009605 50.58311)" id="Path" fill="#D4E1F4" fill-rule="evenodd" stroke="none" />
    <path d="M3.78002 28.5762L3.78002 3.47439C3.77332 1.5653 5.31321 0.011035 7.22228 0L3.44228 0C1.53321 0.011035 -0.00667982 1.5653 2.17913e-05 3.47439L2.17913e-05 28.5762C-0.00667982 30.4853 1.53321 32.0396 3.44228 32.0506L7.22228 32.0506C5.31321 32.0396 3.77332 30.4853 3.78002 28.5762L3.78002 28.5762Z" transform="translate(23.746506 58.62213)" id="Path" fill="#D4E1F4" fill-rule="evenodd" stroke="none" />
    <path d="M11.6486 32.0569L11.7201 22.7218C11.7234 22.249 11.5161 21.7993 11.1544 21.4948C10.7927 21.1903 10.3143 21.0626 9.84897 21.1465C9.54232 21.2014 9.23118 21.2274 8.91966 21.2241C6.9444 21.2111 5.14611 20.083 4.27477 18.3103C3.40343 16.5375 3.60869 14.4246 4.80494 12.8527C6.00118 11.2808 7.98299 10.5199 9.92382 10.8873C10.389 10.978 10.8703 10.857 11.2372 10.5571C11.6042 10.2572 11.8186 9.80953 11.8223 9.33566L11.894 0.030429L8.11395 0L8.04213 9.33566C8.03841 9.80953 7.82398 10.2572 7.45706 10.5571C7.09013 10.857 6.60877 10.978 6.14363 10.8873C4.21017 10.5355 2.24322 11.3014 1.05679 12.8681C-0.12965 14.4347 -0.333741 16.5356 0.528973 18.3014C1.39169 20.0671 3.17444 21.1972 5.13947 21.2241C5.45099 21.2274 5.76213 21.2014 6.06878 21.1465C6.53408 21.0626 7.01254 21.1903 7.37422 21.4948C7.73589 21.7993 7.94322 22.249 7.93988 22.7218L7.86844 32.0569L36.2322 32.2778L36.2595 32.2778C36.3945 32.277 36.5295 32.2682 36.6635 32.2515L11.6486 32.0569Z" transform="translate(50.827396 58.631203)" id="Path" fill="#D4E1F4" fill-rule="evenodd" stroke="none" />
    <path d="M11.0911 0C9.19291 0.0136332 7.65858 1.55107 7.6488 3.44925L7.62253 7.05216C7.62253 7.06766 7.62045 7.08278 7.6197 7.09808C7.6197 7.11793 7.61837 7.13796 7.61648 7.15762C7.61459 7.17728 7.61157 7.19372 7.60874 7.21186C7.6059 7.23001 7.60325 7.2508 7.59929 7.26989C7.59532 7.28897 7.59097 7.30485 7.58662 7.32224C7.58228 7.33963 7.57736 7.36004 7.57169 7.37894C7.56602 7.39784 7.55978 7.41277 7.55279 7.42978C7.5458 7.44679 7.54013 7.4655 7.53389 7.4827C7.52765 7.4999 7.51877 7.5154 7.51102 7.53146C7.50327 7.54753 7.49534 7.56529 7.48645 7.58174C7.47757 7.59818 7.46869 7.61216 7.45943 7.62728C7.45016 7.6424 7.44053 7.6596 7.43013 7.6751C7.41974 7.6906 7.40972 7.70307 7.39932 7.71706C7.38893 7.73104 7.37702 7.74787 7.36511 7.76261C7.35321 7.77735 7.34281 7.78774 7.33147 7.80041C7.32013 7.81307 7.30577 7.82951 7.29216 7.84331C7.27855 7.85711 7.26816 7.86561 7.25625 7.87657C7.24151 7.89018 7.22714 7.90398 7.21184 7.91664C7.19955 7.92685 7.18632 7.93554 7.17404 7.94575C7.15797 7.95803 7.14209 7.97051 7.12527 7.98204C7.11204 7.99111 7.09787 7.99905 7.08426 8.00755C7.06706 8.01814 7.05024 8.0291 7.03247 8.03874C7.01792 8.04667 7.00261 8.05367 6.98768 8.06104C6.96878 8.06973 6.95215 8.0788 6.93401 8.08655C6.91586 8.0943 6.90131 8.09903 6.88487 8.10545C6.86842 8.11188 6.84896 8.11925 6.83062 8.12435C6.81229 8.12946 6.79433 8.13418 6.77638 8.13891C6.75842 8.14363 6.74085 8.14892 6.7227 8.1527C6.70456 8.15648 6.68301 8.15932 6.66317 8.16234C6.64332 8.16537 6.62858 8.16839 6.611 8.17028C6.59002 8.17255 6.56905 8.17312 6.54788 8.17425C6.53219 8.17425 6.51688 8.1769 6.50101 8.17708L5.17668 8.19107C2.31402 8.21184 0.00337601 10.5366 3.69541e-06 13.3993C-0.00336862 16.262 2.30179 18.5922 5.1644 18.6197L6.41539 18.6386C6.43429 18.6386 6.45187 18.6411 6.4702 18.6422C6.48853 18.6433 6.508 18.6437 6.5269 18.6458C6.5458 18.6479 6.56583 18.652 6.58549 18.6552C6.60514 18.6585 6.62159 18.6603 6.63917 18.6643C6.65674 18.6683 6.67697 18.6741 6.69587 18.6794C6.71477 18.6847 6.73007 18.6879 6.7469 18.6934C6.76372 18.6989 6.7847 18.707 6.80246 18.714C6.82023 18.721 6.83497 18.7257 6.85066 18.7329C6.86634 18.7401 6.88638 18.7503 6.90395 18.7592C6.92153 18.7681 6.93457 18.7736 6.94931 18.7817C6.96406 18.7898 6.98315 18.8025 7.00015 18.8132C7.01414 18.8219 7.02851 18.8301 7.04211 18.8395C7.05572 18.849 7.07368 18.8633 7.08936 18.8754C7.10505 18.8875 7.11601 18.8943 7.12867 18.9057C7.14134 18.917 7.15684 18.9318 7.17101 18.9448C7.18519 18.9578 7.19653 18.9677 7.20881 18.9799C7.2211 18.9922 7.23376 19.0075 7.24661 19.0215C7.25946 19.0355 7.27061 19.0476 7.28176 19.0612C7.29292 19.0748 7.30312 19.0903 7.31371 19.1051C7.32429 19.1198 7.33601 19.1342 7.34603 19.1495C7.35604 19.1648 7.36493 19.1799 7.37324 19.195C7.38156 19.2101 7.39214 19.227 7.40178 19.2436C7.41142 19.2602 7.41671 19.2752 7.42427 19.291C7.43183 19.3069 7.44109 19.3254 7.44846 19.3434C7.45583 19.3613 7.46018 19.3757 7.46585 19.3918C7.47152 19.4078 7.47965 19.4296 7.48475 19.4485C7.48948 19.4647 7.49307 19.4819 7.49723 19.4986C7.50138 19.5152 7.50762 19.5364 7.5114 19.5573C7.51461 19.5742 7.5165 19.5916 7.51877 19.6087C7.52179 19.6292 7.52539 19.6494 7.52728 19.6702C7.52879 19.6868 7.52879 19.7036 7.52954 19.7204C7.52954 19.7407 7.53238 19.7605 7.53219 19.7809L7.44903 31.9639L11.229 31.9639L11.3122 19.7809C11.3122 19.7605 11.3105 19.7407 11.3095 19.7204C11.3095 19.7036 11.3095 19.6868 11.3073 19.6702C11.3054 19.6494 11.3018 19.6292 11.2988 19.6087C11.2965 19.5916 11.2946 19.5742 11.2914 19.5573C11.2876 19.5373 11.2819 19.518 11.2772 19.4986C11.2725 19.4791 11.2695 19.4647 11.2648 19.4485C11.2589 19.4296 11.2517 19.4107 11.2459 19.3918C11.24 19.3729 11.2351 19.3593 11.2285 19.3434C11.2218 19.3275 11.2124 19.3084 11.2043 19.291C11.1961 19.2737 11.1899 19.2591 11.1818 19.2436C11.1737 19.2281 11.1629 19.2113 11.1532 19.195C11.1436 19.1788 11.1359 19.1642 11.126 19.1495C11.1162 19.1347 11.1047 19.1198 11.0937 19.1051C11.0827 19.0903 11.0729 19.0754 11.0618 19.0612C11.0506 19.047 11.0383 19.0348 11.0266 19.0215C11.0149 19.0083 11.0022 18.9932 10.9888 18.9799C10.9754 18.9667 10.9637 18.9565 10.951 18.9448C10.9383 18.9331 10.9234 18.9181 10.9087 18.9057C10.8939 18.8932 10.8824 18.8854 10.8694 18.8754C10.8563 18.8654 10.8384 18.8509 10.8221 18.8395C10.8059 18.8282 10.7941 18.8219 10.7802 18.8132C10.7631 18.8025 10.7467 18.7915 10.7293 18.7817C10.7119 18.7719 10.6991 18.7668 10.684 18.7592C10.6688 18.7516 10.649 18.7403 10.6307 18.7329C10.6123 18.7256 10.5985 18.7206 10.5825 18.714C10.5664 18.7074 10.5458 18.6995 10.5269 18.6934C10.508 18.6874 10.4931 18.684 10.4759 18.6794C10.4587 18.6749 10.4381 18.6685 10.4192 18.6643C10.4003 18.6602 10.3834 18.6583 10.3655 18.6552C10.3475 18.6522 10.3277 18.6481 10.3069 18.6458C10.2861 18.6435 10.2691 18.6433 10.2502 18.6422C10.2313 18.6411 10.2139 18.6388 10.1954 18.6386L8.9444 18.6197C6.08179 18.5922 3.77663 16.262 3.78 13.3993C3.78338 10.5366 6.09402 8.21184 8.95668 8.19107L10.281 8.17708C10.2969 8.17708 10.3122 8.17501 10.3279 8.17425C10.349 8.17312 10.37 8.17255 10.391 8.17028C10.4086 8.16839 10.4258 8.16499 10.4432 8.16234C10.4606 8.1597 10.4832 8.15667 10.5027 8.1527C10.5222 8.14874 10.5384 8.14363 10.5564 8.13891C10.5743 8.13418 10.5929 8.13002 10.6106 8.12435C10.6284 8.11868 10.6467 8.11131 10.6649 8.10545C10.683 8.0996 10.6979 8.09374 10.714 8.08655C10.7301 8.07937 10.7497 8.06973 10.7677 8.06104C10.7826 8.05367 10.7979 8.04667 10.8125 8.03874C10.8302 8.0291 10.8471 8.01814 10.8643 8.00755C10.8779 7.99905 10.892 7.99111 10.9053 7.98204C10.9221 7.97051 10.938 7.95803 10.954 7.94575C10.9667 7.93611 10.9799 7.92685 10.9918 7.91664C11.0071 7.90398 11.0215 7.89018 11.0363 7.87657C11.0482 7.86561 11.0606 7.85484 11.0722 7.84331C11.0837 7.83178 11.0986 7.81477 11.1115 7.80041C11.1243 7.78604 11.1343 7.77565 11.1451 7.76261C11.1559 7.74957 11.168 7.73237 11.1793 7.71706C11.1907 7.70175 11.2003 7.68965 11.2101 7.6751C11.22 7.66055 11.229 7.64335 11.2394 7.62728C11.2498 7.61122 11.2583 7.59723 11.2665 7.58174C11.2746 7.56624 11.2829 7.54828 11.291 7.53146C11.2991 7.51464 11.3069 7.49933 11.3139 7.4827C11.3209 7.46607 11.3273 7.44755 11.3328 7.42978C11.3383 7.41201 11.3455 7.39614 11.3517 7.37894C11.3579 7.36174 11.3617 7.34114 11.3666 7.32224C11.3715 7.30334 11.3759 7.28765 11.3793 7.26989C11.3827 7.25212 11.3857 7.23114 11.3887 7.21186C11.3918 7.19258 11.3946 7.17595 11.3965 7.15762C11.3984 7.13929 11.3989 7.11793 11.3997 7.09808C11.3997 7.08278 11.4023 7.06766 11.4025 7.05216L11.4288 3.44925C11.4386 1.55107 12.9729 0.0136332 14.8711 0L11.0911 0Z" transform="translate(51.5099 24.3999)" id="Path" fill="#D4E1F4" fill-rule="evenodd" stroke="none" />
    <g id="Group" transform="translate(21.357 22.113)">
      <path d="M65.7998 0L41.1232 0C37.9801 0.0168921 35.4349 2.55797 35.4129 5.701L35.394 8.1888L35.1954 8.19088C31.0836 8.215 27.7617 11.5526 27.757 15.6645C27.7522 19.7764 31.0665 23.1216 35.1782 23.1551L35.2876 23.1568L35.212 34.2217L25.5919 34.2217C25.637 33.6072 25.6071 32.9894 25.5031 32.3821C24.9423 29.076 22.2405 26.5529 18.9038 26.2192C16.8166 26.006 14.7376 26.6947 13.1905 28.1119C11.6275 29.5357 10.7364 31.5519 10.7358 33.6662C10.7358 33.8512 10.7427 34.0363 10.7566 34.2217L5.71027 34.2217C2.54923 34.2342 -0.00521929 36.803 1.60413e-05 39.9641L1.60413e-05 65.0665C-0.00521929 68.2275 2.54923 70.7963 5.71027 70.8089L35.2411 70.8089L65.5641 71.0451L65.6097 71.0451C67.1066 71.048 68.5438 70.4576 69.6063 69.4031C70.6975 68.3321 71.3142 66.8686 71.3186 65.3396L71.5031 36.5872L71.5102 36.5872L71.5102 5.74239C71.5155 2.58125 68.9609 0.0123972 65.7998 0L65.7998 0ZM30.0259 15.673C30.0186 12.8026 32.338 10.4689 35.2084 10.4587L36.5328 10.4447C36.5486 10.4447 36.564 10.4426 36.5796 10.4419C36.6008 10.4407 36.6218 10.4402 36.6428 10.4379C36.6603 10.436 36.6775 10.4326 36.6949 10.43C36.7123 10.4273 36.735 10.4243 36.7545 10.4203C36.7739 10.4164 36.7902 10.4113 36.8081 10.4065C36.8261 10.4018 36.8446 10.3976 36.8624 10.392C36.8802 10.3863 36.8985 10.3789 36.9166 10.3731C36.9348 10.3672 36.9497 10.3614 36.9658 10.3542C36.9818 10.347 37.0015 10.3374 37.0194 10.3287C37.0344 10.3213 37.0497 10.3143 37.0642 10.3064C37.082 10.2967 37.0988 10.2858 37.116 10.2752C37.1296 10.2667 37.1438 10.2587 37.157 10.2497C37.1739 10.2381 37.1897 10.2257 37.2058 10.2134C37.2185 10.2037 37.2317 10.1945 37.2436 10.1843C37.2589 10.1716 37.2733 10.1578 37.288 10.1442C37.2999 10.1332 37.3124 10.1225 37.3239 10.1109C37.3355 10.0994 37.3504 10.0824 37.3632 10.068C37.3761 10.0537 37.3861 10.0433 37.3969 10.0302C37.4076 10.0172 37.4197 9.99999 37.4311 9.98468C37.4424 9.96937 37.4521 9.95728 37.4619 9.94272C37.4717 9.92817 37.4808 9.91097 37.4912 9.89491C37.5016 9.87884 37.5101 9.86485 37.5182 9.84936C37.5263 9.83386 37.5347 9.8159 37.5428 9.79908C37.5509 9.78226 37.5587 9.76695 37.5657 9.75032C37.5726 9.73369 37.5791 9.71517 37.5846 9.6974C37.59 9.67964 37.5972 9.66376 37.6035 9.64656C37.6097 9.62936 37.6135 9.60876 37.6184 9.58986C37.6233 9.57096 37.6276 9.55527 37.6311 9.53751C37.6345 9.51974 37.6375 9.49876 37.6405 9.47948C37.6435 9.46021 37.6464 9.44357 37.6482 9.42524C37.6501 9.40691 37.6507 9.38555 37.6515 9.36571C37.6515 9.3504 37.6541 9.33528 37.6543 9.31978L37.6806 5.71687C37.6903 3.81869 39.2247 2.28126 41.1228 2.26762L65.7998 2.26762C67.7093 2.27866 69.2494 3.83346 69.2422 5.74295L69.2422 34.3198L61.1239 34.3198C60.6554 34.319 60.2108 34.5268 59.9109 34.8868C59.6059 35.2523 59.4793 35.7345 59.5654 36.2028C59.8893 37.981 59.2746 39.8006 57.9387 41.0181C56.8631 42.0024 55.4182 42.4804 53.9678 42.3316C51.6498 42.0977 49.7743 40.343 49.3868 38.0457C49.2817 37.4356 49.2843 36.8118 49.3946 36.2026C49.4805 35.7356 49.3552 35.2546 49.0523 34.889C48.7539 34.5281 48.311 34.3179 47.8427 34.3148L37.4799 34.2315L37.563 22.0485C37.563 22.0281 37.5613 22.0083 37.5604 21.9881C37.5604 21.9712 37.5604 21.9544 37.5581 21.9378C37.5562 21.917 37.5526 21.8968 37.5496 21.8764C37.5473 21.8592 37.5454 21.8418 37.5422 21.825C37.5384 21.8049 37.5328 21.7857 37.528 21.7662C37.5233 21.7467 37.5203 21.7324 37.5156 21.7161C37.5097 21.6972 37.5025 21.6783 37.4967 21.6594C37.4908 21.6405 37.4859 21.6269 37.4793 21.611C37.4727 21.5951 37.4632 21.5761 37.4551 21.5587C37.447 21.5413 37.4407 21.5267 37.4326 21.5112C37.4245 21.4957 37.4137 21.4789 37.4041 21.4627C37.3944 21.4464 37.3867 21.4318 37.3768 21.4171C37.367 21.4024 37.3555 21.3874 37.3445 21.3727C37.3336 21.3579 37.3237 21.343 37.3126 21.3288C37.3014 21.3147 37.2891 21.3024 37.2774 21.2891C37.2657 21.2759 37.253 21.2608 37.2396 21.2476C37.2262 21.2343 37.2145 21.2241 37.2018 21.2124C37.1892 21.2007 37.1742 21.1858 37.1595 21.1733C37.1448 21.1608 37.1332 21.1531 37.1202 21.1431C37.1071 21.133 37.0892 21.1185 37.0729 21.1071C37.0567 21.0958 37.045 21.0896 37.031 21.0809C37.014 21.0701 36.9975 21.0591 36.9801 21.0493C36.9627 21.0395 36.9499 21.0344 36.9348 21.0268C36.9197 21.0193 36.8998 21.0079 36.8815 21.0005C36.8631 20.9932 36.8493 20.9883 36.8333 20.9816C36.8172 20.975 36.7966 20.9671 36.7777 20.961C36.7588 20.955 36.7439 20.9516 36.7267 20.9471C36.7095 20.9425 36.6889 20.9361 36.67 20.9319C36.6511 20.9278 36.6343 20.9259 36.6163 20.9229C36.5984 20.9198 36.5785 20.9157 36.5577 20.9134C36.5369 20.9111 36.5199 20.911 36.501 20.9098C36.4821 20.9087 36.4647 20.9064 36.4462 20.9062L35.1952 20.8873C32.3294 20.8718 30.0169 18.5395 30.0259 15.6736L30.0259 15.673ZM2.26877 65.0665L2.26877 39.9646C2.26207 38.0555 3.80196 36.5013 5.71103 36.4902L11.5311 36.4902C11.9996 36.491 12.4442 36.2832 12.7441 35.9232C13.0499 35.5576 13.1768 35.0747 13.0903 34.6059C12.7665 32.8278 13.3812 31.0082 14.7171 29.7907C15.7929 28.8067 17.2377 28.3287 18.6881 28.477C21.0061 28.711 22.8816 30.4658 23.2689 32.7631C23.374 33.3719 23.3716 33.9944 23.2619 34.6023C23.1759 35.0714 23.3029 35.5544 23.6086 35.9204C23.9095 36.2817 24.3555 36.4904 24.8257 36.4899L35.1971 36.4899L35.1313 45.0516C31.0934 44.7223 27.5357 47.688 27.1329 51.7193C26.9139 53.8284 27.5927 55.9323 29.0028 57.5159C30.3972 59.073 32.3824 59.9716 34.4725 59.9918C34.6532 59.9929 34.8352 59.9878 35.0166 59.9759L34.951 68.5412L5.71273 68.5412C3.80285 68.5311 2.26186 66.9764 2.26877 65.0665ZM69.0506 65.3252C69.0483 66.2518 68.6748 67.1389 68.0137 67.7883C67.3746 68.423 66.5099 68.7786 65.6091 68.7771L65.5819 68.7771L37.2183 68.5564L37.2897 59.2213C37.293 58.7485 37.0857 58.2988 36.724 57.9943C36.3624 57.6898 35.8839 57.5621 35.4186 57.6459C35.112 57.7009 34.8008 57.7269 34.4893 57.7236C32.514 57.7106 30.7157 56.5825 29.8444 54.8097C28.9731 53.037 29.1783 50.9241 30.3746 49.3522C31.5708 47.7803 33.5526 47.0194 35.4935 47.3868C35.9586 47.4775 36.44 47.3565 36.8069 47.0566C37.1738 46.7567 37.3882 46.309 37.392 45.8351L37.4638 36.4995L47.0625 36.5768C47.0162 37.1948 47.0458 37.8161 47.1504 38.4269C47.7113 41.7329 50.4131 44.256 53.7497 44.5896C53.9981 44.6135 54.245 44.6254 54.4904 44.6254C56.3312 44.6297 58.1063 43.9415 59.4632 42.6976C61.0262 41.2737 61.9172 39.2574 61.9177 37.143C61.9177 36.9584 61.9109 36.7728 61.8971 36.5878L69.2343 36.5878L69.0506 65.3252Z" transform="translate(0.12075496 0.0189)" id="Shape" fill="#0635C9" stroke="none" />
      <path d="M1.134 4.62256C1.76029 4.62256 2.268 4.11485 2.268 3.48856L2.268 1.134C2.268 0.507709 1.76029 0 1.134 0C0.507709 0 0 0.507709 0 1.134L0 3.48856C0 4.11485 0.507709 4.62256 1.134 4.62256Z" transform="translate(62.5401 24.809086)" id="Path" fill="#0635C9" fill-rule="evenodd" stroke="none" />
      <path d="M1.134 14.597C1.76029 14.597 2.268 14.0893 2.268 13.463L2.268 1.134C2.268 0.507709 1.76029 0 1.134 0C0.507709 0 0 0.507709 0 1.134L0 13.463C0 14.0893 0.507709 14.597 1.134 14.597L1.134 14.597Z" transform="translate(62.5401 6.797763)" id="Path" fill="#0635C9" fill-rule="evenodd" stroke="none" />
      <path d="M1.134 4.62256C1.76029 4.62256 2.268 4.11485 2.268 3.48856L2.268 1.134C2.268 0.507709 1.76029 0 1.134 0C0.507709 0 0 0.507709 0 1.134L0 3.48856C0 4.11485 0.507709 4.62256 1.134 4.62256L1.134 4.62256Z" transform="translate(62.97329 60.58017)" id="Path" fill="#0635C9" fill-rule="evenodd" stroke="none" />
      <path d="M1.134 14.5963C1.76029 14.5963 2.268 14.0886 2.268 13.4623L2.268 1.134C2.268 0.507709 1.76029 0 1.134 0C0.507709 0 0 0.507709 0 1.134L0 13.4623C0 14.0886 0.507709 14.5963 1.134 14.5963Z" transform="translate(62.97329 42.568848)" id="Path" fill="#0635C9" fill-rule="evenodd" stroke="none" />
    </g>
    <path d="M43.8718 15.0642L38.6255 11.8446C40.979 8.5435 40.2863 3.97016 37.0608 1.51406C35.3899 0.233776 33.2498 -0.267694 31.184 0.137011C29.1168 0.537752 27.3155 1.79416 26.2254 3.59571C26.1313 3.75107 26.0431 3.91002 25.9608 4.07256L21.6573 1.43109C20.3634 0.637427 18.8062 0.393395 17.3316 0.753227C15.857 1.11306 14.5872 2.04695 13.8043 3.34736L0.830984 24.7813C-0.80289 27.4877 0.0458574 31.005 2.73421 32.6684L6.45336 34.951C6.81767 35.1741 7.25938 35.2328 7.66928 35.1123C8.07918 34.9919 8.41901 34.7037 8.60474 34.319C9.36724 32.7386 10.9621 31.7294 12.7168 31.7169C14.4714 31.7044 16.0805 32.6908 16.8654 34.2602C17.6503 35.8296 17.4744 37.7087 16.412 39.1052C16.1517 39.4449 16.0475 39.879 16.1254 40.2999C16.2032 40.7207 16.4558 41.0888 16.8204 41.3129L24.785 46.2008C25.6754 46.7486 26.7005 47.0382 27.7459 47.0374C29.73 47.04 31.5734 46.0127 32.6149 44.3239L35.3354 39.906C35.5736 39.5204 35.6363 39.0516 35.5078 38.617C35.3794 38.1823 35.0719 37.8229 34.6624 37.6287C32.0557 36.4042 30.9279 33.304 32.1385 30.6908C33.3491 28.0777 36.4433 26.9334 39.0628 28.13C39.429 28.3034 39.7741 28.5183 40.0914 28.7703C40.4473 29.0556 40.9085 29.1745 41.3581 29.097C41.8076 29.0195 42.2023 28.7529 42.4422 28.3649L45.7521 22.9898C47.42 20.2819 46.5784 16.7348 43.8718 15.065L43.8718 15.0642ZM43.8207 21.7998L40.8912 26.5564C40.6162 26.3795 40.3301 26.2204 40.0347 26.0803C36.8685 24.5952 33.0956 25.5111 30.9627 28.2825C29.6619 29.9736 29.1387 32.1369 29.5229 34.2355C29.9071 36.3342 31.1628 38.1718 32.9784 39.2923C32.9954 39.3029 33.0124 39.3131 33.0294 39.3235L30.6835 43.1332C29.6928 44.7438 27.5866 45.2507 25.9716 44.2672L18.6773 39.7909C20.5643 36.5645 19.5259 32.4215 16.3402 30.4665C13.1546 28.5115 8.99049 29.4618 6.96838 32.6053L3.92057 30.7342C2.2924 29.7251 1.77984 27.5934 2.77126 25.9544L15.7437 4.52162C16.2138 3.73797 16.9777 3.17477 17.8653 2.95736C18.753 2.73994 19.6907 2.88635 20.4698 3.364L25.4405 6.4137C25.841 6.66072 26.3311 6.71557 26.7763 6.5632C27.2269 6.40985 27.5854 6.06329 27.7538 5.6182C28.391 3.93913 29.8507 2.70868 31.6134 2.36494C33.0489 2.08466 34.5356 2.43425 35.6958 3.32487C36.8533 4.20966 37.5901 5.53648 37.7293 6.98676C37.8685 8.43703 37.3976 9.87978 36.4295 10.9686C36.118 11.3184 35.978 11.7885 36.0474 12.2517C36.1161 12.7201 36.3892 13.1338 36.793 13.381L42.6865 16.9981C44.3248 18.0117 44.8329 20.1605 43.8221 21.8006L43.8207 21.7998Z" transform="translate(0.0021278877 0.18561237)" id="Shape" fill="#1AE5BE" stroke="none" />
  </g>
</svg>