<?xml version="1.0" encoding="utf-8"?>
<svg width="75px" height="97px" viewBox="0 0 75 97" version="1.1" xmlns:xlink="http://www.w3.org/1999/xlink" xmlns="http://www.w3.org/2000/svg">
  <desc>Created with Lunacy</desc>
  <g id="2261245">
    <path d="M5.88002 14.2566C5.88002 7.39665 10.8404 1.63268 17.4058 0.294001C16.4309 0.0980846 15.4389 -0.000399917 14.4444 1.22045e-06L14.3639 1.22045e-06C6.44372 0.0413572 1.95083e-05 6.43684 1.95083e-05 14.2566C-0.00819483 19.208 2.5782 23.8017 6.81592 26.3624L12.6959 26.3624C8.4582 23.8017 5.87181 19.208 5.88002 14.2566L5.88002 14.2566Z" transform="translate(22.76342 15.245075)" id="Path" fill="#D4E1F4" fill-rule="evenodd" stroke="none" />
    <path d="M31.7197 23.5719C32.3691 23.5719 32.8957 23.0454 32.8957 22.3959L32.8974 1.5876C32.8953 0.710006 32.1831 -0.000218768 31.3055 5.05496e-08L1.59191 5.05496e-08C0.714315 -0.000218768 0.00216154 0.710006 0 1.5876L0.002744 22.4006C0.002744 23.0501 0.529257 23.5766 1.17874 23.5766C1.82823 23.5766 2.35474 23.0501 2.35474 22.4006L2.35298 2.35239L30.5456 2.35239L30.5439 22.3957C30.5438 22.7076 30.6677 23.0068 30.8882 23.2274C31.1087 23.4479 31.4078 23.5719 31.7197 23.5719L31.7197 23.5719Z" transform="translate(21.06902 72.855354)" id="Path" fill="#1AE5BE" fill-rule="evenodd" stroke="none" />
    <path d="M16.5118 12.8758C16.5118 13.5253 17.0383 14.0518 17.6878 14.0518C18.3373 14.0518 18.8638 13.5253 18.8638 12.8758L18.8556 1.39807C18.854 0.625538 18.2273 0.000106376 17.4548 0L1.40081 0C0.62828 0.000106376 0.00162114 0.625538 0 1.39807L0 12.8758C0 13.5253 0.526513 14.0518 1.176 14.0518C1.82549 14.0518 2.352 13.5253 2.352 12.8758L2.352 2.35063L16.5042 2.35063L16.5118 12.8758Z" transform="translate(28.089935 82.38017)" id="Path" fill="#1AE5BE" fill-rule="evenodd" stroke="none" />
    <g id="Group">
      <path d="M9.57068 20.8201L9.57068 29.5119C9.56337 30.0032 9.16036 30.3961 8.66908 30.391L2.76438 30.3861L2.76242 32.7381L8.6681 32.743C10.4585 32.7478 11.9149 31.3023 11.9237 29.5119L11.9237 20.8201C11.915 19.0304 10.4598 17.5852 8.67006 17.5888L5.61246 17.5861L5.61579 1.176C5.61579 0.526513 5.08928 0 4.43979 0C3.79031 0 3.26379 0.526513 3.26379 1.176L3.25791 17.5845L0.00196 17.5812L0 19.9332L8.66712 19.9408C9.15919 19.9347 9.56337 20.328 9.57068 20.8201L9.57068 20.8201Z" transform="translate(54.812183 5.570655E-15)" id="Path" fill="#0635C9" fill-rule="evenodd" stroke="none" />
      <path d="M3.25693 15.16L9.54657 15.1543L9.54422 12.8023L3.25576 12.808C2.76369 12.8142 2.35942 12.421 2.352 11.929L2.352 3.23714C2.35942 2.74474 2.76413 2.35134 3.25654 2.35788L12.3027 2.352L12.3012 0L3.25576 0.00588C1.46528 0.00121114 0.00885556 1.44667 0 3.23714L0 11.929C0.00907138 13.7198 1.46611 15.1652 3.25693 15.16L3.25693 15.16Z" transform="translate(6.896848 17.582964)" id="Path" fill="#0635C9" fill-rule="evenodd" stroke="none" />
      <path d="M0 1.176L0 6.80002C0 7.44951 0.526513 7.97602 1.176 7.97602C1.82549 7.97602 2.352 7.44951 2.352 6.80002L2.352 1.176C2.352 0.526513 1.82549 0 1.176 0C0.526513 0 0 0.526513 0 1.176L0 1.176Z" transform="translate(7.936432 39.886)" id="Path" fill="#0635C9" fill-rule="evenodd" stroke="none" />
      <path d="M6.86764 2.352C7.51713 2.352 8.04364 1.82549 8.04364 1.176C8.04364 0.526513 7.51713 0 6.86764 0L1.176 0C0.526513 0 0 0.526513 0 1.176C0 1.82549 0.526513 2.352 1.176 2.352L6.86764 2.352Z" transform="translate(57.442112 39.895603)" id="Path" fill="#0635C9" fill-rule="evenodd" stroke="none" />
      <path d="M2.06398 21.7024C0.37218 24.8867 -0.30408 28.5128 0.126129 32.0929L2.08005 51.9218C2.07751 51.9536 2.07535 51.9855 2.07535 52.0181C2.07556 52.1272 2.09107 52.2357 2.12141 52.3405L2.7982 59.2097L2.80114 59.236C2.89956 60.0338 3.57758 60.633 4.38149 60.6325L70.0626 60.6325C70.8585 60.6311 71.5318 60.0436 71.6408 59.2552L74.6443 36.7873C75.5291 30.0818 73.7364 23.2976 69.6546 17.9045L69.6168 5.28658C69.5998 2.35475 67.2129 -0.0101421 64.281 6.5631e-05L56.1625 6.5631e-05L56.1625 2.35207L64.2808 2.35207C65.9155 2.34087 67.2505 3.65549 67.2644 5.29011L67.294 15.1916C65.8812 13.777 64.3092 12.5308 62.6096 11.478C57.4893 8.3087 52.9332 6.05941 52.888 6.03706L51.8492 8.14739C51.886 8.16562 54.963 9.68541 58.8761 11.9766C54.3121 17.9835 46.0293 21.8078 37.3795 21.8078C28.1326 21.8078 20.1854 18.2226 15.852 12.1646C19.4629 9.76929 22.2541 8.28009 22.3022 8.25461L21.2008 6.17701C20.8514 6.36203 12.5674 10.7805 5.79837 16.9025C5.78112 16.9182 5.76466 16.9343 5.74741 16.9499L5.74271 5.28795C5.75812 3.65484 7.09229 2.34224 8.72543 2.35344L17.8637 2.35971L17.8653 0.00770963L8.72622 0.00143763C5.79428 -0.00866106 3.40744 2.35643 3.39071 5.28834L3.39659 19.572C2.93195 20.209 2.51052 20.8764 2.13513 21.5697C2.10861 21.6123 2.08485 21.6567 2.06398 21.7024L2.06398 21.7024ZM2.46559 31.8491L2.46265 31.8224C2.11194 28.9267 2.59619 25.991 3.85836 23.3613L5.63785 23.3613C6.12987 23.3552 6.53408 23.7484 6.5416 24.2404L6.5416 32.3065C6.53387 32.7994 6.12838 33.1929 5.63549 33.1858L2.59749 33.1923L2.46559 31.8491ZM4.56867 53.1925L15.9437 53.1845L16.1529 58.2805L5.07003 58.2805L4.56867 53.1925ZM69.398 58.2805L58.8475 58.2805L58.9861 53.0535L70.0972 53.051L69.398 58.2805ZM72.5144 33.194L68.508 33.1864C68.0159 33.1925 67.6117 32.7992 67.6044 32.3071L67.6044 24.241C67.6118 23.7488 68.0162 23.3556 68.5084 23.3619L70.2349 23.3619C71.7029 26.4338 72.4809 29.7896 72.5144 33.194L72.5144 33.194ZM7.37735 18.6457C9.44842 16.796 11.6301 15.074 13.9104 13.4894C18.6805 20.1926 27.3478 24.1592 37.3808 24.1592C42.3251 24.1723 47.2042 23.0314 51.63 20.8272C55.4324 18.909 58.6155 16.282 60.9059 13.1907C61.0608 13.2853 61.2162 13.3809 61.3722 13.4776C64.4386 15.3754 67.0278 17.9525 68.94 21.0099L68.5074 21.0099C66.717 21.0051 65.2606 22.4506 65.2518 24.241L65.2518 32.3071C65.2604 34.0969 66.7157 35.5422 68.5054 35.5384L72.4166 35.5458C72.388 35.8555 72.3543 36.1656 72.3127 36.4757L70.4115 50.699L59.0484 50.7015L59.4153 36.8779L59.4153 36.8467C59.4128 35.7207 59.0392 34.6269 58.3524 33.7346L57.0908 32.0992C56.6913 31.5942 55.9599 31.5044 55.4501 31.8977C54.9403 32.2911 54.8416 33.0213 55.2288 33.5359L56.4906 35.1713C56.8577 35.6478 57.0589 36.2311 57.0637 36.8326L56.4946 58.2805L18.507 58.2805L17.5995 36.2205C17.6035 35.9524 17.6921 35.6925 17.8526 35.4778L19.4472 33.3295C19.7037 32.9925 19.7592 32.5436 19.5926 32.1543C19.4259 31.765 19.0627 31.4954 18.6418 31.4484C18.221 31.4015 17.8073 31.5845 17.559 31.9275L15.9639 34.076C15.4972 34.7011 15.2458 35.4606 15.2473 36.2407L15.8471 50.8325L4.33699 50.8397L2.82975 35.5445L5.63785 35.5384C7.42837 35.5432 8.88485 34.0976 8.8936 32.3071L8.8936 24.241C8.88485 22.4506 7.42858 21.0052 5.63824 21.0099L5.258 21.0099C5.87999 20.15 6.59032 19.3577 7.37735 18.6457Z" transform="translate(0.0012705614 35.79953)" id="Shape" fill="#0635C9" stroke="none" />
    </g>
    <path d="M21.8762 43.2611C33.9386 43.2611 43.7521 33.5577 43.7521 21.6306C43.7521 9.70337 33.9386 0 21.8762 0C9.81372 0 0 9.70337 0 21.6306C0 33.5577 9.81352 43.2611 21.8762 43.2611ZM21.8761 2.352C32.6418 2.352 41.4001 11.0003 41.4001 21.6306C41.4001 32.2608 32.6418 40.9091 21.8761 40.9091C11.1105 40.9091 2.352 32.2608 2.352 21.6306C2.352 11.0003 11.1097 2.352 21.8761 2.352Z" transform="translate(15.134728 7.556192)" id="Shape" fill="#1AE5BE" stroke="none" />
    <path d="M8.13191 30.8361C8.38466 30.9867 8.67343 31.0662 8.96765 31.066L24.6208 31.066C24.9149 31.0662 25.2035 30.9868 25.4562 30.8363C30.6042 27.7773 33.7087 22.1856 33.5829 16.1986C33.4908 11.8319 31.6633 7.68158 28.5043 4.66521C25.3538 1.65127 21.1558 -0.0212461 16.7959 0.000411537L16.7036 0.000411537C7.49314 0.0484315 6.11303e-05 7.49898 6.11303e-05 16.6091C-0.0112061 22.4598 3.08488 27.8766 8.13191 30.8361L8.13191 30.8361ZM16.7167 2.35163L16.7973 2.35163C24.7078 2.35163 31.0422 8.44468 31.2325 16.2563C31.337 21.3243 28.7438 26.0671 24.4207 28.7142L9.16796 28.7142C4.93024 26.1535 2.34385 21.5598 2.35206 16.6085C2.35206 8.78846 8.79576 2.39298 16.7159 2.35163L16.7167 2.35163Z" transform="translate(20.411379 12.893449)" id="Shape" fill="#1AE5BE" stroke="none" />
  </g>
</svg>