<?xml version="1.0" encoding="utf-8"?>
<svg width="79px" height="85px" viewBox="0 0 79 85" version="1.1" xmlns:xlink="http://www.w3.org/1999/xlink" xmlns="http://www.w3.org/2000/svg">
  <desc>Created with Lunacy</desc>
  <g id="1955756">
    <path d="M7.78446 0L4.18446 0C1.87454 0.00247999 0.00257936 1.87436 0 4.18428L0 41.0798L3.6 41.0798L3.6 4.18428C3.60258 1.87436 5.47455 0.00247999 7.78446 0Z" transform="translate(2.21616 16.15374)" id="Path" fill="#D4E1F4" fill-rule="evenodd" stroke="none" />
    <path d="M3.6 3.726L3.6 0L0 0L0 3.726C0.00257917 6.03594 1.87452 7.90788 4.18446 7.91046L7.78446 7.91046C5.47452 7.90788 3.60258 6.03594 3.6 3.726L3.6 3.726Z" transform="translate(2.21616 59.39388)" id="Path" fill="#D4E1F4" fill-rule="evenodd" stroke="none" />
    <path d="M72.0232 1.53477e-14L52.6284 1.53477e-14C52.0319 1.27898e-14 51.5484 0.483532 51.5484 1.08C51.5484 1.67647 52.0319 2.16 52.6284 2.16L72.0232 2.16C74.3331 2.16248 76.2051 4.03436 76.2077 6.34428L76.2077 43.2398L2.16 43.2398L2.16 6.34428C2.16258 4.03436 4.03454 2.16248 6.34446 2.16L25.7395 2.16C26.3359 2.16 26.8195 1.67647 26.8195 1.08C26.8195 0.483532 26.3359 1.27898e-14 25.7395 1.27898e-14L6.34446 1.27898e-14C2.84223 0.00396764 0.004067 2.84205 0 6.34428L0 49.1261C0.00396802 52.6284 2.84219 55.4665 6.34446 55.4704L28.0332 55.4704L28.0332 68.4L23.0038 68.4C22.4074 68.4 21.9238 68.8835 21.9238 69.48C21.9238 70.0765 22.4074 70.56 23.0038 70.56L56.3112 70.56C56.9077 70.56 57.3912 70.0765 57.3912 69.48C57.3912 68.8835 56.9077 68.4 56.3112 68.4L50.3352 68.4L50.3352 55.4704L72.0232 55.4704C75.5255 55.4665 78.3637 52.6284 78.3677 49.1261L78.3677 6.34428C78.3636 2.84205 75.5255 0.00396764 72.0232 0L72.0232 1.53477e-14ZM48.1745 68.4L30.1925 68.4L30.1925 55.4704L48.1745 55.4704L48.1745 68.4ZM72.0232 53.3104L6.34446 53.3104C4.03454 53.3079 2.16258 51.4361 2.16 49.1261L2.16 45.4001L76.2077 45.4001L76.2077 49.1261C76.2051 51.4361 74.3331 53.3079 72.0232 53.3104L72.0232 53.3104Z" transform="translate(0.05616 13.99392)" id="Shape" fill="#0635C9" stroke="none" />
    <g id="Group" transform="translate(11.16 0)">
      <path d="M50.832 0.21816C48.3402 0.201767 46.1722 1.92029 45.6194 4.35006L33.4517 4.35006L33.4517 1.08C33.4517 0.483532 32.9682 0 32.3717 0L23.6718 0C23.0753 0 22.5918 0.483532 22.5918 1.08L22.5918 4.35006L10.3158 4.35006C9.83958 1.90137 7.70618 0.125793 5.21172 0.10206C2.33802 0.10152 0 2.49192 0 5.43006C0 8.3682 2.33802 10.7581 5.2119 10.7581C7.70638 10.7344 9.83982 8.95879 10.316 6.51006L20.232 6.51006C15.6057 9.26473 12.7763 14.2562 12.789 19.6405C12.789 20.237 13.2725 20.7205 13.869 20.7205C14.4655 20.7205 14.949 20.237 14.949 19.6405C14.9357 14.508 17.9239 9.84161 22.5913 7.70652L22.5913 9.77994C22.5913 10.3764 23.0748 10.8599 23.6713 10.8599L32.3712 10.8599C32.9677 10.8599 33.4512 10.3764 33.4512 9.77994L33.4512 7.65306C38.1856 9.75718 41.2291 14.4602 41.2092 19.6411C41.2092 20.2375 41.6927 20.7211 42.2892 20.7211C42.8857 20.7211 43.3692 20.2375 43.3692 19.6411C43.3787 16.342 42.312 13.1299 40.331 10.4918C39.1295 8.89039 37.628 7.538 35.91 6.51006L45.6192 6.51006C46.172 8.9399 48.3401 10.6584 50.832 10.642C53.7703 10.642 56.16 8.30394 56.16 5.43006C56.16 2.55618 53.7698 0.21816 50.832 0.21816L50.832 0.21816ZM5.2119 8.59842C3.52908 8.59842 2.16 7.17642 2.16 5.43042C2.16 3.68442 3.52908 2.26242 5.2119 2.26242C6.89472 2.26242 8.26362 3.68442 8.26362 5.43042C8.26362 7.17642 6.894 8.59842 5.2119 8.59842ZM24.7518 8.69994L24.7518 6.4539C24.8265 6.23507 24.8287 5.998 24.7581 5.77782C24.7563 5.77224 24.7538 5.76684 24.7518 5.76126L24.7518 2.16L31.2917 2.16L31.2917 5.70114C31.2862 5.7168 31.2793 5.73192 31.2737 5.74794C31.2038 5.97342 31.2102 6.21564 31.2917 6.43716L31.2917 8.69994L24.7518 8.69994ZM50.832 8.48196C49.0849 8.48196 47.664 7.1127 47.664 5.43006C47.664 3.74742 49.086 2.37816 50.832 2.37816C52.578 2.37816 54 3.74724 54 5.43006C54 7.11288 52.578 8.48196 50.832 8.48196Z" transform="translate(-1.0231816E-14 0.04608)" id="Shape" fill="#1AE5BE" stroke="none" />
      <path d="M3.23784 3.87669C2.7422 2.90814 2.36953 1.88145 2.1285 0.820474C1.98704 0.249548 1.41471 -0.103194 0.841116 0.0270178C0.267519 0.157229 -0.0964072 0.722508 0.0225017 1.29855C0.303446 2.53527 0.737916 3.73202 1.3158 4.86093C1.48912 5.20881 1.83599 5.43673 2.22408 5.45775C2.61217 5.47876 2.98163 5.28962 3.19149 4.96249C3.40136 4.63536 3.41926 4.2207 3.23838 3.87669L3.23784 3.87669Z" transform="translate(13.145938 21.783926)" id="Path" fill="#1AE5BE" fill-rule="evenodd" stroke="none" />
      <path d="M2.83285 0.0471746C2.26233 -0.126652 1.65891 0.194881 1.48501 0.765375C1.16765 1.80613 0.72145 2.80314 0.156788 3.73321C-0.0434342 4.06305 -0.0524825 4.47465 0.133052 4.81296C0.318586 5.15128 0.670515 5.36491 1.05627 5.37339C1.44203 5.38187 1.80301 5.18391 2.00323 4.85407C2.66121 3.76999 3.18123 2.60798 3.55123 1.39501C3.72504 0.824444 3.40341 0.221001 2.83285 0.0471746Z" transform="translate(39.15737 22.754684)" id="Path" fill="#1AE5BE" fill-rule="evenodd" stroke="none" />
      <path d="M21.3987 13.1697C21.8165 12.8377 22.2166 12.4841 22.5975 12.1104C22.8775 11.8407 22.991 11.4413 22.8946 11.0646C22.7981 10.688 22.5067 10.3923 22.1315 10.2903C21.7564 10.1883 21.3554 10.2959 21.0816 10.5719C20.7916 10.8576 20.4867 11.1299 20.1708 11.3879L12.6448 0.467257C12.4418 0.172603 12.106 -0.00236615 11.7482 4.88569e-05C11.3903 0.00246387 11.0569 0.181949 10.8579 0.479317L3.55837 11.3843C2.99884 10.927 2.47774 10.4246 2.00029 9.88216C1.60653 9.43411 0.924101 9.39011 0.476055 9.78388C0.0280083 10.1776 -0.0159931 10.8601 0.377775 11.3081C0.979062 11.9914 1.63979 12.62 2.35219 13.1864L0.182475 16.4279C-0.0281772 16.7426 -0.058571 17.1447 0.102375 17.4875L5.15497 28.2567C4.86177 28.4606 4.68906 28.7968 4.69418 29.1539L4.76401 34.8662C4.77131 35.4574 5.25271 35.9329 5.84402 35.9328L5.85104 35.9328L18.2223 35.8553C18.5098 35.8535 18.7847 35.7371 18.9862 35.5319C19.1876 35.3267 19.2989 35.0496 19.2954 34.7621L19.2254 29.0498C19.2209 28.6866 19.0338 28.35 18.7277 28.1543L23.637 17.3397C23.7937 16.9946 23.7579 16.5925 23.5427 16.2804L21.3987 13.1697ZM11.8558 17.0739L11.8699 17.0739C13.0793 17.0803 14.0574 18.0604 14.0613 19.2698C14.0651 20.4793 13.0933 21.4657 11.8839 21.4797L11.8697 21.4797C10.6603 21.4733 9.68223 20.4931 9.67842 19.2837C9.67462 18.0743 10.6465 17.0879 11.8558 17.0739L11.8558 17.0739ZM6.91087 33.7662L6.86786 30.2627C6.95454 30.2562 7.04012 30.2393 7.12274 30.2123L16.7783 30.1516C16.8757 30.1826 16.9769 30.1994 17.0791 30.2016L17.1219 33.7021L6.91087 33.7662ZM16.4282 27.9938L7.44403 28.0503L2.31691 17.1225L10.6977 4.60222L10.7632 15.0563C8.64087 15.6125 7.26174 17.6584 7.5422 19.8344C7.82266 22.0105 9.67546 23.6398 11.8695 23.6397L11.8972 23.6397C14.0964 23.6261 15.9417 21.9778 16.2023 19.794C16.463 17.6103 15.0575 15.5739 12.9232 15.0431L12.8577 4.5826L19.0306 13.5392L21.4167 17.0013L16.4282 27.9938Z" transform="translate(16.213366 18.468742)" id="Shape" fill="#1AE5BE" stroke="none" />
    </g>
  </g>
</svg>