<?xml version="1.0" encoding="utf-8"?>
<svg width="38px" height="38px" viewBox="0 0 38 38" version="1.1" xmlns:xlink="http://www.w3.org/1999/xlink" xmlns="http://www.w3.org/2000/svg">
  <desc>Created with Lunacy</desc>
  <g id="747991">
    <path d="M5.45587 0L32.2929 0C35.3013 0 37.7487 2.44747 37.7487 5.45587C37.7487 8.46427 35.3013 10.9117 32.2929 10.9117L5.45587 10.9117C2.44747 10.9117 0 8.46427 0 5.45587C0 2.44747 2.44747 0 5.45587 0ZM5.45587 7.96262L32.2929 7.96262C33.6751 7.96262 34.7996 6.83812 34.7996 5.45587C34.7996 4.07362 33.6751 2.94912 32.2929 2.94912L5.45587 2.94912C4.07362 2.94912 2.94912 4.07362 2.94912 5.45587C2.94912 6.83812 4.07362 7.96262 5.45587 7.96262Z" id="Shape" fill="#FFFFFF" fill-rule="evenodd" stroke="none" />
    <path d="M5.45587 0L32.2929 0C35.3013 0 37.7487 2.44747 37.7487 5.45587C37.7487 8.46427 35.3013 10.9117 32.2929 10.9117L5.45587 10.9117C2.44747 10.9117 0 8.46427 0 5.45587C0 2.44747 2.44747 0 5.45587 0ZM5.45587 7.96262L32.2929 7.96262C33.6751 7.96262 34.7996 6.83812 34.7996 5.45587C34.7996 4.07362 33.6751 2.94912 32.2929 2.94912L5.45587 2.94912C4.07362 2.94912 2.94912 4.07362 2.94912 5.45587C2.94912 6.83812 4.07362 7.96262 5.45587 7.96262Z" transform="translate(0 13.418496)" id="Shape" fill="#FFFFFF" fill-rule="evenodd" stroke="none" />
    <path d="M32.2929 0L5.45587 0C2.44747 0 0 2.44747 0 5.45587C0 8.46427 2.44747 10.9117 5.45587 10.9117L24.9201 10.9117C25.7345 10.9117 26.3946 10.2516 26.3946 9.43719C26.3946 8.62279 25.7345 7.96262 24.9201 7.96262L5.45587 7.96262C4.07362 7.96262 2.94912 6.83813 2.94912 5.45587C2.94912 4.07362 4.07362 2.94912 5.45587 2.94912L32.2929 2.94912C33.6751 2.94912 34.7996 4.07362 34.7996 5.45587C34.7996 6.83813 33.6751 7.96262 32.2929 7.96262C31.4785 7.96262 30.8183 8.62279 30.8183 9.43719C30.8183 10.2516 31.4785 10.9117 32.2929 10.9117C35.3013 10.9117 37.7487 8.46427 37.7487 5.45587C37.7487 2.44747 35.3013 0 32.2929 0Z" transform="translate(0 26.836992)" id="Path" fill="#FFFFFF" stroke="none" />
  </g>
</svg>