<?xml version="1.0" encoding="utf-8"?>
<svg width="36px" height="39px" viewBox="0 0 36 39" version="1.1" xmlns:xlink="http://www.w3.org/1999/xlink" xmlns="http://www.w3.org/2000/svg">
  <desc>Created with Lunacy</desc>
  <g id="" fill="#FFFFFF">
    <path d="M32.625 5.05078L3.375 5.05078C1.51172 5.05078 0 6.5625 0 8.42578L0 33.1758C0 35.0391 1.51172 36.5508 3.375 36.5508L32.625 36.5508C34.4883 36.5508 36 35.0391 36 33.1758L36 8.42578C36 6.5625 34.4883 5.05078 32.625 5.05078ZM13.8726 7.86328L22.1203 7.86328L22.1203 14.6133L13.8726 14.6133L13.8726 7.86328ZM13.8726 17.4258L22.1203 17.4258L22.1203 24.1758L13.8726 24.1758L13.8726 17.4258ZM11.0601 33.7383L3.65625 33.7383C3.19221 33.7383 2.8125 33.3586 2.8125 32.8945L2.8125 26.9883L11.0601 26.9883L11.0601 33.7383ZM11.0601 24.1758L2.8125 24.1758L2.8125 17.4258L11.0601 17.4258L11.0601 24.1758ZM11.0601 14.6133L2.8125 14.6133L2.8125 8.70703C2.8125 8.243 3.19221 7.86328 3.65625 7.86328L11.0601 7.86328L11.0601 14.6133ZM22.1274 33.7383L13.8726 33.7383L13.8726 26.9883L22.1203 26.9883L22.1203 33.7383L22.1274 33.7383ZM33.1875 33.7383L24.9399 33.7383L24.9399 26.9883L33.1875 26.9883L33.1875 33.7383ZM33.1875 24.1758L24.9399 24.1758L24.9399 17.4258L33.1875 17.4258L33.1875 24.1758ZM33.1875 14.6133L24.9399 14.6133L24.9399 7.86328L33.1875 7.86328L33.1875 14.6133Z" />
  </g>
</svg>