<?xml version="1.0" encoding="utf-8"?>
<svg width="32px" height="45px" viewBox="0 0 32 45" version="1.1" xmlns:xlink="http://www.w3.org/1999/xlink" xmlns="http://www.w3.org/2000/svg">
  <desc>Created with Lunacy</desc>
  <path d="M45 30.9375Q45 31.5 44.4375 31.5L0.5625 31.5Q0 31.5 0 30.9375L0 29.8125Q0 29.25 0.5625 29.25L1.125 29.25L1.125 2.25L0.5625 2.25Q0 2.25 0 1.6875L0 0.5625Q0 0 0.5625 0L44.4375 0Q45 0 45 0.5625L45 1.6875Q45 2.25 44.4375 2.25L43.875 2.25L43.875 29.25L44.4375 29.25Q45 29.25 45 29.8125L45 30.9375ZM41.625 29.25L3.375 29.25L3.375 2.25L41.625 2.25L41.625 29.25ZM10.125 24.1875Q10.125 24.75 9.5625 24.75L8.4375 24.75Q7.875 24.75 7.875 24.1875L7.875 7.3125Q7.875 6.75 8.4375 6.75L9.5625 6.75Q10.125 6.75 10.125 7.3125L10.125 24.1875ZM16.3125 24.75Q16.875 24.75 16.875 24.1875L16.875 7.3125Q16.875 6.75 16.3125 6.75L15.1875 6.75Q14.625 6.75 14.625 7.3125L14.625 24.1875Q14.625 24.75 15.1875 24.75L16.3125 24.75ZM23.625 24.1875Q23.625 24.75 23.0625 24.75L21.9375 24.75Q21.375 24.75 21.375 24.1875L21.375 7.3125Q21.375 6.75 21.9375 6.75L23.0625 6.75Q23.625 6.75 23.625 7.3125L23.625 24.1875ZM29.8125 24.75Q30.375 24.75 30.375 24.1875L30.375 7.3125Q30.375 6.75 29.8125 6.75L28.6875 6.75Q28.125 6.75 28.125 7.3125L28.125 24.1875Q28.125 24.75 28.6875 24.75L29.8125 24.75ZM37.125 24.1875Q37.125 24.75 36.5625 24.75L35.4375 24.75Q34.875 24.75 34.875 24.1875L34.875 7.3125Q34.875 6.75 35.4375 6.75L36.5625 6.75Q37.125 6.75 37.125 7.3125L37.125 24.1875Z" transform="matrix(-4.371139E-08 -1 1 -4.371139E-08 0 45)" id="" fill="#FFFFFF" fill-rule="evenodd" stroke="none" />
</svg>