<?xml version="1.0" encoding="utf-8"?>
<svg width="36px" height="39px" viewBox="0 0 36 39" version="1.1" xmlns:xlink="http://www.w3.org/1999/xlink" xmlns="http://www.w3.org/2000/svg">
  <desc>Created with Lunacy</desc>
  <g id="ï—" fill="#FFFFFF">
    <path d="M35.8791 34.1503L30.7441 13.61C30.477 12.5419 29.5882 11.8015 28.5736 11.8015L22.4747 11.8015C23.1869 10.8586 23.625 9.69772 23.625 8.42578C23.625 5.3194 21.1064 2.80078 18 2.80078C14.8936 2.80078 12.375 5.3194 12.375 8.42578C12.375 9.69772 12.8131 10.8586 13.5253 11.8008L7.42641 11.8008C6.41183 11.8008 5.52235 12.5419 5.25586 13.6092L0.120918 34.1503C-0.46479 36.4924 1.15171 38.8008 3.37713 38.8008L32.6236 38.8008C34.8483 38.8008 36.4648 36.4924 35.8791 34.1503ZM14.625 8.42578C14.625 6.56463 16.1388 5.05078 18 5.05078C19.8612 5.05078 21.375 6.56463 21.375 8.42578C21.375 10.2869 19.8612 11.8008 18 11.8008C16.1388 11.8008 14.625 10.2869 14.625 8.42578ZM33.4174 36.1233C33.2648 36.3181 33.004 36.5508 32.6229 36.5508L3.37713 36.5508C2.99604 36.5508 2.73518 36.3188 2.58261 36.1233C2.28097 35.7372 2.17687 35.2036 2.30411 34.6959L7.43905 14.1556C7.45381 14.0972 7.47565 14.0627 7.46933 14.0515L28.5145 14.0515C28.5286 14.0697 28.5476 14.1021 28.561 14.1556L33.6959 34.6959C33.8231 35.2036 33.719 35.7372 33.4174 36.1233Z" />
  </g>
</svg>