<?xml version="1.0" encoding="utf-8"?>
<svg width="40px" height="39px" viewBox="0 0 40 39" version="1.1" xmlns:xlink="http://www.w3.org/1999/xlink" xmlns="http://www.w3.org/2000/svg">
  <desc>Created with Lunacy</desc>
  <g id="" fill="#FFFFFF">
    <path d="M39.375 14.0508C39.2344 14.0508 39.0938 14.0789 38.9531 14.1352L27 18.5508L26.2758 18.2977C27.9141 15.8438 29.25 13.2914 29.25 11.4492C29.25 6.66797 25.2211 2.80078 20.25 2.80078C15.2789 2.80078 11.25 6.67497 11.25 11.4492C11.25 12.2789 11.5313 13.2633 11.9813 14.3039L1.41325 17.9883C0.5625 18.3258 0 19.1554 0 20.0766L0 37.6758C0 38.3227 0.527344 38.8008 1.125 38.8008C1.26563 38.8008 1.40625 38.7726 1.54688 38.7164L13.5 34.3008L25.5938 38.5688C26.5078 38.8711 27.4922 38.8781 28.4063 38.5828L39.0867 34.8633C39.9445 34.5187 40.5 33.6961 40.5 32.775L40.5 15.1758C40.5 14.5289 39.9727 14.0508 39.375 14.0508ZM12.375 32.318L2.243 36.0586L2.15154 20.1047L12.375 16.5539L12.375 32.318ZM20.25 5.05078C23.9696 5.05078 27 7.91952 27 11.4492C27 13.3477 24.3211 17.7 20.25 22.4742C16.1789 17.7 13.5 13.3477 13.5 11.4492C13.5 7.91952 16.5304 5.05078 20.25 5.05078ZM25.875 36.2836L14.625 32.311L14.625 18.8883C16.3407 21.3703 18.2883 23.6695 19.3852 24.9141C19.6102 25.1742 19.9336 25.3008 20.25 25.3008C20.5664 25.3008 20.8828 25.1742 21.1148 24.9141C22.0148 23.8945 23.4844 22.1649 24.9328 20.2101L25.875 20.5406L25.875 36.2836ZM28.125 36.2977L28.125 20.5336L38.257 16.793L38.3485 32.7469L28.125 36.2977ZM21.9375 11.8008C21.9375 10.8656 21.1781 10.1133 20.25 10.1133C19.3219 10.1133 18.5625 10.8656 18.5625 11.8008C18.5625 12.7289 19.3219 13.4883 20.25 13.4883C21.1781 13.4883 21.9375 12.7359 21.9375 11.8008Z" />
  </g>
</svg>