<?xml version="1.0" encoding="utf-8"?>
<svg width="37px" height="37px" viewBox="0 0 37 37" version="1.1" xmlns:xlink="http://www.w3.org/1999/xlink" xmlns="http://www.w3.org/2000/svg">
  <desc>Created with Lunacy</desc>
  <g id="847454">
    <path d="M1.3608 0L15.5131 0C16.2616 0 16.8739 0.61236 16.8739 1.3608L16.8739 15.5131C16.8739 16.2616 16.2616 16.8739 15.5131 16.8739L1.3608 16.8739C0.61236 16.8739 0 16.2616 0 15.5131L0 1.3608C0 0.61236 0.61236 0 1.3608 0ZM2.7216 14.1523L14.1523 14.1523L14.1523 2.7216L2.7216 2.7216L2.7216 14.1523Z" id="Shape" fill="#FFFFFF" fill-rule="evenodd" stroke="none" />
    <path d="M1.3608 0L15.5131 0C16.2616 0 16.8739 0.61236 16.8739 1.3608L16.8739 15.5131C16.8739 16.2616 16.2616 16.8739 15.5131 16.8739L1.3608 16.8739C0.61236 16.8739 0 16.2616 0 15.5131L0 1.3608C0 0.61236 0.61236 0 1.3608 0ZM2.7216 14.1523L14.1523 14.1523L14.1523 2.7216L2.7216 2.7216L2.7216 14.1523Z" transform="translate(19.86768 0)" id="Shape" fill="#FFFFFF" fill-rule="evenodd" stroke="none" />
    <path d="M1.3608 0L15.5131 0C16.2616 0 16.8739 0.61236 16.8739 1.3608L16.8739 15.5131C16.8739 16.2616 16.2616 16.8739 15.5131 16.8739L1.3608 16.8739C0.61236 16.8739 0 16.2616 0 15.5131L0 1.3608C0 0.61236 0.61236 0 1.3608 0ZM2.7216 14.1523L14.1523 14.1523L14.1523 2.7216L2.7216 2.7216L2.7216 14.1523Z" transform="translate(0 19.86768)" id="Shape" fill="#FFFFFF" fill-rule="evenodd" stroke="none" />
    <path d="M1.3608 0L15.5131 0C16.2616 0 16.8739 0.61236 16.8739 1.3608L16.8739 15.5131C16.8739 16.2616 16.2616 16.8739 15.5131 16.8739L1.3608 16.8739C0.61236 16.8739 0 16.2616 0 15.5131L0 1.3608C0 0.61236 0.61236 0 1.3608 0ZM2.7216 14.1523L14.1523 14.1523L14.1523 2.7216L2.7216 2.7216L2.7216 14.1523Z" transform="translate(19.86768 19.86768)" id="Shape" fill="#FFFFFF" fill-rule="evenodd" stroke="none" />
  </g>
</svg>