<?xml version="1.0" encoding="utf-8"?>
<svg width="45px" height="39px" viewBox="0 0 45 39" version="1.1" xmlns:xlink="http://www.w3.org/1999/xlink" xmlns="http://www.w3.org/2000/svg">
  <desc>Created with Lunacy</desc>
  <g id="" fill="#FFFFFF">
    <path d="M22.5 11.8008C24.904 11.8008 27.1638 12.7366 28.864 14.4368C30.5642 16.1369 31.5 18.3968 31.5 20.8008C31.5 23.2048 30.5642 25.4646 28.864 27.1647C27.1638 28.865 24.904 29.8008 22.5 29.8008C20.096 29.8008 17.8362 28.865 16.136 27.1647C14.4358 25.4646 13.5 23.2048 13.5 20.8008C13.5 18.3968 14.4358 16.1369 16.136 14.4368C17.8362 12.7366 20.096 11.8008 22.5 11.8008ZM22.5 9.55078C16.2865 9.55078 11.25 14.5873 11.25 20.8008C11.25 27.0143 16.2865 32.0508 22.5 32.0508C28.7135 32.0508 33.75 27.0143 33.75 20.8008C33.75 14.5873 28.7135 9.55078 22.5 9.55078ZM44.1563 19.6758L35.9529 19.6758C35.9838 20.0484 36 20.4232 36 20.8008C36 21.1784 35.9838 21.5531 35.9529 21.9258L44.1563 21.9258C44.6224 21.9258 45 21.5482 45 21.082L45 20.5195C45 20.0534 44.6224 19.6758 44.1563 19.6758ZM9 20.8008C9 20.4232 9.0162 20.0484 9.0471 19.6758L0.84375 19.6758C0.377586 19.6758 0 20.0534 0 20.5195L0 21.082C0 21.5482 0.377586 21.9258 0.84375 21.9258L9.0471 21.9258C9.0162 21.5531 9 21.1784 9 20.8008Z" />
  </g>
</svg>