<?xml version="1.0" encoding="utf-8"?>
<svg width="32px" height="39px" viewBox="0 0 32 39" version="1.1" xmlns:xlink="http://www.w3.org/1999/xlink" xmlns="http://www.w3.org/2000/svg">
  <desc>Created with Lunacy</desc>
  <g id="" fill="#FFFFFF">
    <path d="M15.757 12.7148C11.2852 12.7148 7.67814 16.3219 7.67814 20.7938C7.67814 25.2656 11.2852 28.8726 15.757 28.8726C20.2289 28.8726 23.8359 25.2656 23.8359 20.7938C23.8359 16.3219 20.2289 12.7148 15.757 12.7148ZM15.757 26.0461C12.8672 26.0461 10.5047 23.6906 10.5047 20.7938C10.5047 17.8969 12.8602 15.5414 15.757 15.5414C18.6539 15.5414 21.0094 17.8969 21.0094 20.7938C21.0094 23.6906 18.6469 26.0461 15.757 26.0461ZM26.0508 12.3844C26.0508 11.3438 25.207 10.5 24.1664 10.5C23.1258 10.5 22.2821 11.3438 22.2821 12.3844C22.2821 13.425 23.1187 14.2687 24.1664 14.2687C25.207 14.2687 26.0508 13.432 26.0508 12.3844ZM31.4015 14.2969C31.2821 11.7726 30.7055 9.53671 28.8563 7.6945C27.0141 5.85237 24.7782 5.27579 22.2539 5.14925C19.6523 5.00155 11.8547 5.00155 9.2531 5.14925C6.73592 5.26872 4.5 5.8453 2.65079 7.6875C0.80159 9.5297 0.232018 11.7656 0.105469 14.2899C-0.04216 16.8914 -0.04216 24.689 0.105469 27.2906C0.225014 29.8149 0.80159 32.0508 2.65079 33.893C4.5 35.7352 6.72892 36.3117 9.2531 36.4383C11.8547 36.5859 19.6523 36.5859 22.2539 36.4383C24.7782 36.3188 27.0141 35.7422 28.8563 33.893C30.6984 32.0508 31.275 29.8149 31.4015 27.2906C31.5492 24.689 31.5492 16.8984 31.4015 14.2969ZM28.0406 30.082C27.4922 31.4601 26.4305 32.5219 25.0453 33.0773C22.9711 33.9 18.0492 33.7101 15.757 33.7101C13.4648 33.7101 8.53596 33.893 6.46875 33.0773C5.09065 32.5289 4.02889 31.4672 3.47346 30.082C2.65079 28.0078 2.84065 23.0859 2.84065 20.7938C2.84065 18.5015 2.6578 13.5727 3.47346 11.5055C4.02189 10.1274 5.08358 9.0656 6.46875 8.51017C8.54297 7.6875 13.4648 7.87736 15.757 7.87736C18.0492 7.87736 22.9781 7.6945 25.0453 8.51017C26.4234 9.05859 27.4852 10.1203 28.0406 11.5055C28.8633 13.5797 28.6734 18.5015 28.6734 20.7938C28.6734 23.0859 28.8633 28.0148 28.0406 30.082Z" />
  </g>
</svg>