<?xml version="1.0" encoding="utf-8"?>
<svg width="36px" height="39px" viewBox="0 0 36 39" version="1.1" xmlns:xlink="http://www.w3.org/1999/xlink" xmlns="http://www.w3.org/2000/svg">
  <desc>Created with Lunacy</desc>
  <g id="" fill="#FFFFFF">
    <path d="M34.875 36.5508L1.125 36.5508C0.503998 36.5508 0 37.0548 0 37.6758C0 38.2968 0.503998 38.8008 1.125 38.8008L34.875 38.8008C35.496 38.8008 36 38.2968 36 37.6758C36 37.0548 35.496 36.5508 34.875 36.5508ZM1.125 27.5508L5.65034 27.5508C5.22256 26.995 4.7579 25.987 4.61323 25.3008L1.125 25.3008C0.503998 25.3008 0 25.8048 0 26.4258C0 27.0468 0.503998 27.5508 1.125 27.5508ZM34.875 25.3008L15.6368 25.3008C15.4921 25.987 15.0274 26.995 14.5997 27.5508L34.875 27.5508C35.496 27.5508 36 27.0468 36 26.4258C36 25.8048 35.496 25.3008 34.875 25.3008ZM34.875 2.80078L1.125 2.80078C0.503998 2.80078 0 3.30478 0 3.92578L0 8.42578C0 9.04678 0.503998 9.55078 1.125 9.55078L9 9.55078L9 14.0508L1.125 14.0508C0.503998 14.0508 0 14.5548 0 15.1758C0 15.7968 0.503998 16.3008 1.125 16.3008L9 16.3008L9 21.0075C7.758 21.4466 6.75 22.8721 6.75 24.1895C6.75 26.0525 8.26199 27.5645 10.125 27.5645C11.988 27.5645 13.5 26.0525 13.5 24.1895C13.5 22.8721 12.492 21.4466 11.25 21.0075L11.25 9.55078L34.875 9.55078C35.496 9.55078 36 9.04678 36 8.42578L36 3.92578C36 3.30478 35.496 2.80078 34.875 2.80078ZM10.125 25.3008C9.504 25.3008 9 24.7968 9 24.1758C9 23.5548 9.504 23.0508 10.125 23.0508C10.746 23.0508 11.25 23.5548 11.25 24.1758C11.25 24.7968 10.746 25.3008 10.125 25.3008ZM33.75 7.30078L2.25 7.30078L2.25 5.05078L33.75 5.05078L33.75 7.30078ZM34.875 14.0508L13.5 14.0508L13.5 16.3008L34.875 16.3008C35.496 16.3008 36 15.7968 36 15.1758C36 14.5548 35.496 14.0508 34.875 14.0508Z" />
  </g>
</svg>