<?xml version="1.0" encoding="utf-8"?>
<svg width="36px" height="39px" viewBox="0 0 36 39" version="1.1" xmlns:xlink="http://www.w3.org/1999/xlink" xmlns="http://www.w3.org/2000/svg">
  <desc>Created with Lunacy</desc>
  <g id="ï¥" fill="#FFFFFF">
    <path d="M33.75 5.05078C33.75 3.80878 32.742 2.80078 31.5 2.80078L4.5 2.80078C3.258 2.80078 2.25 3.80878 2.25 5.05078L2.25 20.8008L33.75 20.8008L33.75 5.05078ZM16.875 18.5508L4.5 18.5508L4.5 5.05078L16.875 5.05078L16.875 18.5508ZM31.5 18.5508L19.125 18.5508L19.125 5.05078L31.5 5.05078L31.5 18.5508ZM34.875 32.0508L33.75 32.0508L33.75 23.0508L31.5 23.0508L31.5 32.0508L4.5 32.0508L4.5 23.0508L2.25 23.0508L2.25 32.0508L1.125 32.0508C0.503998 32.0508 0 32.5548 0 33.1758L0 37.6758C0 38.2968 0.503998 38.8008 1.125 38.8008L34.875 38.8008C35.496 38.8008 36 38.2968 36 37.6758L36 33.1758C36 32.5548 35.496 32.0508 34.875 32.0508ZM33.75 36.5508L2.25 36.5508L2.25 34.3008L33.75 34.3008L33.75 36.5508Z" />
  </g>
</svg>