<?xml version="1.0" encoding="utf-8"?>
<svg width="45px" height="39px" viewBox="0 0 45 39" version="1.1" xmlns:xlink="http://www.w3.org/1999/xlink" xmlns="http://www.w3.org/2000/svg">
  <desc>Created with Lunacy</desc>
  <g id="" fill="#FFFFFF">
    <path d="M43.875 5.05078L19.125 5.05078C18.504 5.05078 18 5.55478 18 6.17578L18 11.2383C18 11.5488 18.252 11.8008 18.5625 11.8008L19.6875 11.8008C19.998 11.8008 20.25 11.5488 20.25 11.2383L20.25 7.30078L30.375 7.30078L30.375 34.3008L25.3125 34.3008C25.002 34.3008 24.75 34.5528 24.75 34.8633L24.75 35.9883C24.75 36.2988 25.002 36.5508 25.3125 36.5508L37.6875 36.5508C37.998 36.5508 38.25 36.2988 38.25 35.9883L38.25 34.8633C38.25 34.5528 37.998 34.3008 37.6875 34.3008L32.625 34.3008L32.625 7.30078L42.75 7.30078L42.75 11.2383C42.75 11.5488 43.002 11.8008 43.3125 11.8008L44.4375 11.8008C44.748 11.8008 45 11.5488 45 11.2383L45 6.17578C45 5.55478 44.496 5.05078 43.875 5.05078ZM21.375 18.5508L1.125 18.5508C0.503998 18.5508 0 19.0548 0 19.6758L0 23.6133C0 23.9238 0.251999 24.1758 0.5625 24.1758L1.6875 24.1758C1.998 24.1758 2.25 23.9238 2.25 23.6133L2.25 20.8008L10.125 20.8008L10.125 34.3008L6.1875 34.3008C5.877 34.3008 5.625 34.5528 5.625 34.8633L5.625 35.9883C5.625 36.2988 5.877 36.5508 6.1875 36.5508L16.3125 36.5508C16.623 36.5508 16.875 36.2988 16.875 35.9883L16.875 34.8633C16.875 34.5528 16.623 34.3008 16.3125 34.3008L12.375 34.3008L12.375 20.8008L20.25 20.8008L20.25 23.6133C20.25 23.9238 20.502 24.1758 20.8125 24.1758L21.9375 24.1758C22.248 24.1758 22.5 23.9238 22.5 23.6133L22.5 19.6758C22.5 19.0548 21.996 18.5508 21.375 18.5508Z" />
  </g>
</svg>