<?xml version="1.0" encoding="utf-8"?>
<svg width="36px" height="39px" viewBox="0 0 36 39" version="1.1" xmlns:xlink="http://www.w3.org/1999/xlink" xmlns="http://www.w3.org/2000/svg">
  <desc>Created with Lunacy</desc>
  <g id="ï" fill="#FFFFFF">
    <path d="M15.75 14.0508C16.9945 14.0508 18 13.0453 18 11.8008C18 10.5562 16.9945 9.55078 15.75 9.55078C14.5055 9.55078 13.5 10.5562 13.5 11.8008C13.5 13.0453 14.5055 14.0508 15.75 14.0508ZM24.75 11.8008C24.75 10.5562 23.7445 9.55078 22.5 9.55078C21.2555 9.55078 20.25 10.5562 20.25 11.8008C20.25 13.0453 21.2555 14.0508 22.5 14.0508C23.7445 14.0508 24.75 13.0453 24.75 11.8008ZM31.5 11.8008C31.5 10.5562 30.4945 9.55078 29.25 9.55078C28.0055 9.55078 27 10.5562 27 11.8008C27 13.0453 28.0055 14.0508 29.25 14.0508C30.4945 14.0508 31.5 13.0453 31.5 11.8008ZM36 8.42578C36 6.5625 34.4883 5.05078 32.625 5.05078L3.375 5.05078C1.51172 5.05078 0 6.5625 0 8.42578L0 33.1758C0 35.0391 1.51172 36.5508 3.375 36.5508L32.625 36.5508C34.4883 36.5508 36 35.0391 36 33.1758L36 8.42578ZM33.75 18.5508L33.75 33.1758C33.75 33.7945 33.2437 34.3008 32.625 34.3008L3.375 34.3008C2.75626 34.3008 2.25 33.7945 2.25 33.1758L2.25 18.5508L33.75 18.5508ZM33.75 16.3008L2.25 16.3008L2.25 8.42578C2.25 7.80704 2.75626 7.30078 3.375 7.30078L32.625 7.30078C33.2437 7.30078 33.75 7.80704 33.75 8.42578L33.75 16.3008Z" />
  </g>
</svg>