<?xml version="1.0" encoding="utf-8"?>
<svg width="45px" height="37px" viewBox="0 0 45 37" version="1.1" xmlns:xlink="http://www.w3.org/1999/xlink" xmlns="http://www.w3.org/2000/svg">
  <desc>Created with Lunacy</desc>
  <g id="2809290">
    <path d="M1.381 11.0596C1.11742 11.0596 0.852003 10.9841 0.616074 10.8274C-0.0198301 10.4035 -0.191248 9.54638 0.232688 8.91047L2.48692 5.53005L0.232688 2.14962C-0.189404 1.51371 -0.0198301 0.656624 0.616074 0.232688C1.25198 -0.191248 2.11091 -0.0198301 2.533 0.616074L5.2978 4.76327C5.60746 5.22776 5.60746 5.83233 5.2978 6.29682L2.533 10.444C2.26574 10.844 1.82706 11.0596 1.381 11.0596L1.381 11.0596Z" transform="translate(38.70676 12.90195)" id="Path" fill="#FFFFFF" stroke="none" />
    <path d="M4.14904 11.0596C3.70299 11.0596 3.26431 10.844 2.99704 10.444L0.232243 6.29682C-0.0774144 5.83233 -0.0774144 5.22776 0.232243 4.76327L2.99704 0.616074C3.42098 -0.0198301 4.27807 -0.191248 4.91397 0.232688C5.54988 0.656624 5.72129 1.51371 5.29736 2.14962L3.04312 5.53005L5.29736 8.91047C5.71945 9.54638 5.54988 10.4035 4.91397 10.8274C4.67804 10.9841 4.41262 11.0596 4.14904 11.0596L4.14904 11.0596Z" transform="translate(0 12.90195)" id="Path" fill="#FFFFFF" stroke="none" />
    <path d="M5.0688 36.864L20.736 36.864C23.5321 36.864 25.8048 34.5913 25.8048 31.7952L25.8048 5.0688C25.8048 2.27267 23.5321 0 20.736 0L5.0688 0C2.27267 0 0 2.27267 0 5.0688L0 31.7952C0 34.5913 2.27267 36.864 5.0688 36.864ZM2.7648 5.0688C2.7648 3.79884 3.79884 2.7648 5.0688 2.7648L20.736 2.7648C22.006 2.7648 23.04 3.79884 23.04 5.0688L23.04 31.7952C23.04 33.0652 22.006 34.0992 20.736 34.0992L5.0688 34.0992C3.79884 34.0992 2.7648 33.0652 2.7648 31.7952L2.7648 5.0688Z" transform="translate(9.216 0)" id="Shape" fill="#FFFFFF" fill-rule="evenodd" stroke="none" />
  </g>
</svg>