<?xml version="1.0" encoding="utf-8"?>
<svg width="61px" height="31px" viewBox="0 0 61 31" version="1.1" xmlns:xlink="http://www.w3.org/1999/xlink" xmlns="http://www.w3.org/2000/svg">
  <desc>Created with Lunacy</desc>
  <g id="Group">
    <path d="M41.6395 30.7934L28.4403 30.7934L28.4341 30.7933L1.40125 30.7933C0.633067 30.7933 -0.0072934 30.1461 0.000126596 29.3775L0.000126596 1.4C0.000126596 0.62692 0.626907 0 1.40013 0L15.2293 0C16.0025 0 16.6293 0.62692 16.6293 1.4C16.6293 2.17308 16.0025 2.8 15.2293 2.8L2.80013 2.8L2.80013 24.8982L13.7593 9.01026C14.0206 8.63142 14.4513 8.40518 14.9117 8.40518C15.372 8.40518 15.8028 8.63142 16.0641 9.01026L23.9347 20.4205L29.3917 12.5103C29.653 12.1314 30.0839 11.9053 30.5441 11.9053C31.0042 11.9053 31.435 12.1316 31.6964 12.5104L40.2406 24.8979L40.2406 2.8L27.8114 2.8C27.0382 2.8 26.4114 2.17308 26.4114 1.4C26.4114 0.62692 27.0382 0 27.8114 0L41.6406 0C42.4138 0 43.0406 0.62692 43.0406 1.4L43.0406 29.3773C43.0466 30.1459 42.4088 30.7934 41.6395 30.7934ZM25.7566 27.9934L14.9115 12.2709L4.06643 27.9934L25.7566 27.9934ZM30.5438 15.7709L38.9742 27.9934L29.1579 27.9934L25.6351 22.8862L30.5438 15.7709Z" transform="translate(8.577673 0.01456)" id="Shape" fill="#FFFFFF" fill-rule="evenodd" stroke="none" />
    <path d="M1.39986 2.8L1.40784 2.8C2.18106 2.8 2.80392 2.17308 2.80392 1.4C2.80392 0.62692 2.17322 0 1.4 0C0.62678 0 0 0.62692 0 1.4C0 2.17308 0.62664 2.8 1.39986 2.8Z" transform="translate(28.69818 0.01456)" id="Path" fill="#FFFFFF" stroke="none" />
    <path d="M2.5274 0.569916C2.0689 -0.0526636 1.1925 -0.185664 0.569917 0.272696C-0.0526636 0.731196 -0.185664 1.6076 0.272696 2.23018L1.917 4.46304L0.273256 6.6924C-0.185524 7.3147 -0.0530836 8.19124 0.569217 8.65002C0.819397 8.8344 1.11032 8.9233 1.399 8.9233C1.82852 8.9233 2.25244 8.72632 2.52698 8.35406L4.78294 5.2945C5.14694 4.80086 5.14722 4.12746 4.78336 3.63354L2.5274 0.569916Z" transform="translate(55.1092 11.99914)" id="Path" fill="#FFFFFF" stroke="none" />
    <path d="M4.78278 6.6924L3.13905 4.46304L4.78335 2.23018C5.24185 1.6076 5.10885 0.731196 4.48612 0.272696C3.8634 -0.185664 2.987 -0.0526636 2.52865 0.569916L0.272685 3.63354C-0.091035 4.12746 -0.090895 4.80086 0.273105 5.2945L2.52907 8.35406C2.8036 8.72632 3.22739 8.9233 3.65704 8.9233C3.94559 8.9233 4.23678 8.83426 4.48682 8.65002C5.10913 8.19124 5.24156 7.3147 4.78278 6.6924L4.78278 6.6924Z" transform="translate(0.03475496 11.99928)" id="Path" fill="#FFFFFF" stroke="none" />
  </g>
</svg>