<?xml version="1.0" encoding="utf-8"?>
<svg width="49px" height="49px" viewBox="0 0 49 49" version="1.1" xmlns:xlink="http://www.w3.org/1999/xlink" xmlns="http://www.w3.org/2000/svg">
  <desc>Created with Lunacy</desc>
  <g id="3094371">
    <path d="M15.6984 0L45.1122 0C46.7764 0 48.1304 1.35278 48.1304 3.01555L48.1304 45.1507C48.1304 46.815 46.7764 48.169 45.1122 48.169L3.01555 48.169C1.35278 48.169 0 46.815 0 45.1507L0 3.01555C0 1.35278 1.35278 0 3.01555 0L7.25028 0C7.76988 0 8.19107 0.421196 8.19107 0.9408C8.19107 1.4604 7.76988 1.8816 7.25028 1.8816L3.01555 1.8816C2.39029 1.8816 1.8816 2.39029 1.8816 3.01555L1.8816 9.8991L46.2488 9.8991L46.2488 3.01555C46.2488 2.39029 45.739 1.8816 45.1122 1.8816L15.6984 1.8816C15.1788 1.8816 14.7576 1.4604 14.7576 0.9408C14.7576 0.421196 15.1788 0 15.6984 0ZM3.01555 46.2874L45.1122 46.2874C45.7389 46.2874 46.2488 45.7774 46.2488 45.1507L46.2488 11.7807L1.8816 11.7807L1.8816 45.1507C1.8816 45.7774 2.39029 46.2874 3.01555 46.2874Z" transform="translate(0.0192864 0)" id="Shape" fill="#FFFFFF" fill-rule="evenodd" stroke="none" />
    <path d="M0 3.91956C0 1.75826 1.75836 0 3.91956 0C6.07936 0 7.83639 1.75836 7.83639 3.91956C7.83639 6.07936 6.07936 7.83649 3.91956 7.83649C1.75826 7.83649 0 6.07936 0 3.91956ZM1.8816 3.91966C1.8816 5.04194 2.79587 5.95498 3.91956 5.95498C5.04184 5.95498 5.95479 5.04194 5.95479 3.91966C5.95479 2.79596 5.04175 1.88169 3.91956 1.88169C2.79578 1.88169 1.8816 2.79596 1.8816 3.91966Z" transform="translate(4.891313 35.99623)" id="Shape" fill="#FFFFFF" fill-rule="evenodd" stroke="none" />
    <path d="M0 3.91956C0 1.75826 1.75704 0 3.91683 0C6.07663 0 7.83367 1.75836 7.83367 3.91956C7.83367 6.07936 6.07653 7.83649 3.91683 7.83649C1.75713 7.83649 0 6.07936 0 3.91956ZM1.8816 3.91966C1.8816 5.04194 2.79455 5.95498 3.91683 5.95498C5.03911 5.95498 5.95206 5.04194 5.95206 3.91966C5.95206 2.79596 5.03902 1.88169 3.91683 1.88169C2.79465 1.88169 1.8816 2.79596 1.8816 3.91966Z" transform="translate(15.075567 35.99623)" id="Shape" fill="#FFFFFF" fill-rule="evenodd" stroke="none" />
    <path d="M0 3.91956C0 1.75826 1.75704 0 3.91683 0C6.07804 0 7.8363 1.75836 7.83639 3.91956C7.83639 6.07936 6.07804 7.83649 3.91683 7.83649C1.75713 7.83649 0 6.07936 0 3.91956ZM1.8816 3.91966C1.8816 5.04194 2.79455 5.95498 3.91683 5.95498C5.04052 5.95498 5.9547 5.04194 5.95479 3.91966C5.95479 2.79596 5.04052 1.88169 3.91683 1.88169C2.79465 1.88169 1.8816 2.79596 1.8816 3.91966Z" transform="translate(25.257093 35.99623)" id="Shape" fill="#FFFFFF" fill-rule="evenodd" stroke="none" />
    <path d="M0 3.91956C0 1.75826 1.75836 0 3.91956 0C6.07926 0 7.83639 1.75836 7.83639 3.91956C7.83639 6.07936 6.07936 7.83649 3.91956 7.83649C1.75826 7.83649 0 6.07936 0 3.91956ZM1.8816 3.91966C1.8816 5.04194 2.79587 5.95498 3.91956 5.95498C5.04175 5.95498 5.95479 5.04194 5.95479 3.91966C5.95479 2.79596 5.04184 1.88169 3.91956 1.88169C2.79578 1.88169 1.8816 2.79596 1.8816 3.91966Z" transform="translate(35.438526 35.99623)" id="Shape" fill="#FFFFFF" fill-rule="evenodd" stroke="none" />
    <path d="M0.942117 17.805C0.452807 17.805 0.0371616 17.4167 0.0032928 16.9303C0.00216384 16.9082 0.00112896 16.8862 0 16.8641L0 0.9408C0 0.421196 0.421196 0 0.9408 0L21.9998 0C22.5194 0 22.9406 0.421196 22.9406 0.9408L22.9406 16.8642C22.9406 17.3767 22.5118 17.805 21.9984 17.805L0.942117 17.805ZM21.059 13.6259L21.059 1.8816L1.88151 1.8816L1.88151 13.6265L7.21857 5.21824C7.39121 4.94635 7.69085 4.78162 8.01289 4.78162L8.01298 4.78162C8.33502 4.78171 8.63476 4.94644 8.8073 5.21843L12.7328 11.4051L15.3975 7.20766C15.5701 6.93577 15.8698 6.77103 16.1918 6.77103C16.5138 6.77103 16.8135 6.93577 16.986 7.20775L21.059 13.6259ZM13.3712 15.9234L2.65221 15.9234L8.0127 7.47814L13.3712 15.9234ZM13.8468 13.1609L15.5996 15.9234L20.2885 15.9234L16.1915 9.46736L13.8468 13.1609Z" transform="translate(4.8914075 14.480605)" id="Shape" fill="#FFFFFF" fill-rule="evenodd" stroke="none" />
    <path d="M0.9408 1.8816L11.4343 1.8816C11.9539 1.8816 12.3751 1.4604 12.3751 0.9408C12.3751 0.421196 11.9539 0 11.4343 0L0.9408 0C0.421196 0 0 0.421196 0 0.9408C0 1.4604 0.421196 1.8816 0.9408 1.8816Z" transform="translate(30.862474 14.480605)" id="Path" fill="#FFFFFF" stroke="none" />
    <path d="M0.9408 1.8816L11.4343 1.8816C11.9539 1.8816 12.3751 1.4604 12.3751 0.9408C12.3751 0.421196 11.9539 0 11.4343 0L0.9408 0C0.421196 0 0 0.421196 0 0.9408C0 1.4604 0.421196 1.8816 0.9408 1.8816Z" transform="translate(30.862474 19.694143)" id="Path" fill="#FFFFFF" stroke="none" />
    <path d="M0.9408 1.8816L11.4343 1.8816C11.9539 1.8816 12.3751 1.4604 12.3751 0.9408C12.3751 0.421196 11.9539 0 11.4343 0L0.9408 0C0.421196 0 0 0.421196 0 0.9408C0 1.4604 0.421196 1.8816 0.9408 1.8816Z" transform="translate(30.862474 24.90514)" id="Path" fill="#FFFFFF" stroke="none" />
    <path d="M0.9408 1.8816L11.4343 1.8816C11.9539 1.8816 12.3751 1.4604 12.3751 0.9408C12.3751 0.421196 11.9539 0 11.4343 0L0.9408 0C0.421196 0 0 0.421196 0 0.9408C0 1.4604 0.421196 1.8816 0.9408 1.8816Z" transform="translate(30.862474 30.11595)" id="Path" fill="#FFFFFF" stroke="none" />
    <path d="M0.940706 1.8816L0.946069 1.8816C1.46567 1.8816 1.88423 1.4604 1.88423 0.9408C1.88423 0.421196 1.4604 0 0.9408 0C0.421196 0 0 0.421196 0 0.9408C0 1.4604 0.421196 1.8816 0.940706 1.8816L0.940706 1.8816Z" transform="translate(10.552859 0)" id="Path" fill="#FFFFFF" stroke="none" />
  </g>
</svg>