<?xml version="1.0" encoding="utf-8"?>
<svg width="53px" height="30px" viewBox="0 0 53 30" version="1.1" xmlns:xlink="http://www.w3.org/1999/xlink" xmlns="http://www.w3.org/2000/svg">
  <desc>Created with Lunacy</desc>
  <g id="1415372">
    <path d="M12.408 2.64082L1.32 2.64082C0.5907 2.64082 0 2.05012 0 1.32041C0 0.591112 0.5907 0 1.32 0L12.408 0C13.1373 0 13.728 0.591112 13.728 1.32041C13.728 2.05012 13.1373 2.64082 12.408 2.64082L12.408 2.64082Z" transform="translate(0.1746249 15.92085)" id="Path" fill="#FFFFFF" stroke="none" />
    <path d="M12.408 2.64124L1.32 2.64124C0.5907 2.64124 0 2.04971 0 1.32082C0 0.591525 0.5907 0 1.32 0L12.408 0C13.1373 0 13.728 0.591525 13.728 1.32082C13.728 2.04971 13.1373 2.64124 12.408 2.64124Z" transform="translate(0.1746249 21.22684)" id="Path" fill="#FFFFFF" stroke="none" />
    <path d="M12.408 2.64041L1.32 2.64041C0.5907 2.64041 0 2.04971 0 1.32041C0 0.591113 0.5907 0 1.32 0L12.408 0C13.1373 0 13.728 0.591113 13.728 1.32041C13.728 2.04971 13.1373 2.64041 12.408 2.64041Z" transform="translate(0.1746249 26.53324)" id="Path" fill="#FFFFFF" stroke="none" />
    <path d="M0 6.33806C0 9.83276 2.84212 12.6753 6.336 12.6753C9.82987 12.6753 12.672 9.83276 12.672 6.33806C12.672 2.84295 9.82987 0 6.336 0C2.84212 0 0 2.84295 0 6.33806ZM2.64 6.33806C2.64 4.29908 4.29825 2.64083 6.336 2.64083C8.37416 2.64083 10.032 4.29908 10.032 6.33806C10.032 8.37622 8.37375 10.0349 6.336 10.0349C4.29825 10.0349 2.64 8.37622 2.64 6.33806Z" transform="translate(0.702625 0.8089125)" id="Shape" fill="#FFFFFF" fill-rule="evenodd" stroke="none" />
    <path d="M12.408 2.64082L1.32 2.64082C0.5907 2.64082 0 2.05012 0 1.32041C0 0.591112 0.5907 0 1.32 0L12.408 0C13.1373 0 13.728 0.591112 13.728 1.32041C13.728 2.05012 13.1373 2.64082 12.408 2.64082L12.408 2.64082Z" transform="translate(19.228 15.92085)" id="Path" fill="#FFFFFF" stroke="none" />
    <path d="M12.408 2.64124L1.32 2.64124C0.5907 2.64124 0 2.04971 0 1.32082C0 0.591525 0.5907 0 1.32 0L12.408 0C13.1373 0 13.728 0.591525 13.728 1.32082C13.728 2.04971 13.1373 2.64124 12.408 2.64124Z" transform="translate(19.228 21.22684)" id="Path" fill="#FFFFFF" stroke="none" />
    <path d="M12.408 2.64041L1.32 2.64041C0.5907 2.64041 0 2.04971 0 1.32041C0 0.591113 0.5907 0 1.32 0L12.408 0C13.1373 0 13.728 0.591113 13.728 1.32041C13.728 2.04971 13.1373 2.64041 12.408 2.64041Z" transform="translate(19.228 26.53324)" id="Path" fill="#FFFFFF" stroke="none" />
    <path d="M0 6.33806C0 9.83276 2.84212 12.6753 6.336 12.6753C9.82987 12.6753 12.672 9.83276 12.672 6.33806C12.672 2.84295 9.82987 0 6.336 0C2.84212 0 0 2.84295 0 6.33806ZM2.64 6.33806C2.64 4.29908 4.29825 2.64083 6.336 2.64083C8.37375 2.64083 10.032 4.29908 10.032 6.33806C10.032 8.37622 8.37375 10.0349 6.336 10.0349C4.29825 10.0349 2.64 8.37622 2.64 6.33806Z" transform="translate(19.756 0.8089125)" id="Shape" fill="#FFFFFF" fill-rule="evenodd" stroke="none" />
    <path d="M12.408 2.64082L1.32 2.64082C0.5907 2.64082 0 2.05012 0 1.32041C0 0.591112 0.5907 0 1.32 0L12.408 0C13.1369 0 13.728 0.591112 13.728 1.32041C13.728 2.05012 13.1369 2.64082 12.408 2.64082L12.408 2.64082Z" transform="translate(38.29293 15.92085)" id="Path" fill="#FFFFFF" stroke="none" />
    <path d="M12.408 2.64124L1.32 2.64124C0.5907 2.64124 0 2.04971 0 1.32082C0 0.591525 0.5907 0 1.32 0L12.408 0C13.1369 0 13.728 0.591525 13.728 1.32082C13.728 2.04971 13.1369 2.64124 12.408 2.64124Z" transform="translate(38.29293 21.22684)" id="Path" fill="#FFFFFF" stroke="none" />
    <path d="M12.408 2.64041L1.32 2.64041C0.5907 2.64041 0 2.04971 0 1.32041C0 0.591113 0.5907 0 1.32 0L12.408 0C13.1369 0 13.728 0.591113 13.728 1.32041C13.728 2.04971 13.1369 2.64041 12.408 2.64041Z" transform="translate(38.29293 26.53324)" id="Path" fill="#FFFFFF" stroke="none" />
    <path d="M0 6.33806C0 9.83276 2.84212 12.6753 6.336 12.6753C9.82987 12.6753 12.672 9.83276 12.672 6.33806C12.672 2.84295 9.82987 0 6.336 0C2.84212 0 0 2.84295 0 6.33806ZM2.64 6.33806C2.64 4.29908 4.29825 2.64083 6.336 2.64083C8.37375 2.64083 10.032 4.29908 10.032 6.33806C10.032 8.37622 8.37375 10.0349 6.336 10.0349C4.29825 10.0349 2.64 8.37622 2.64 6.33806Z" transform="translate(38.82093 0.8089125)" id="Shape" fill="#FFFFFF" fill-rule="evenodd" stroke="none" />
  </g>
</svg>