<?xml version="1.0" encoding="utf-8"?>
<svg width="36px" height="39px" viewBox="0 0 36 39" version="1.1" xmlns:xlink="http://www.w3.org/1999/xlink" xmlns="http://www.w3.org/2000/svg">
  <desc>Created with Lunacy</desc>
  <g id="" fill="#FFFFFF">
    <path d="M35.4375 24.1758L20.8125 24.1758C20.502 24.1758 20.25 24.4278 20.25 24.7383L20.25 25.8633C20.25 26.1738 20.502 26.4258 20.8125 26.4258L35.4375 26.4258C35.748 26.4258 36 26.1738 36 25.8633L36 24.7383C36 24.4278 35.748 24.1758 35.4375 24.1758ZM35.4375 33.1758L20.8125 33.1758C20.502 33.1758 20.25 33.4278 20.25 33.7383L20.25 34.8633C20.25 35.1738 20.502 35.4258 20.8125 35.4258L35.4375 35.4258C35.748 35.4258 36 35.1738 36 34.8633L36 33.7383C36 33.4278 35.748 33.1758 35.4375 33.1758ZM35.4375 15.1758L20.8125 15.1758C20.502 15.1758 20.25 15.4278 20.25 15.7383L20.25 16.8633C20.25 17.1738 20.502 17.4258 20.8125 17.4258L35.4375 17.4258C35.748 17.4258 36 17.1738 36 16.8633L36 15.7383C36 15.4278 35.748 15.1758 35.4375 15.1758ZM35.4375 6.17578L20.8125 6.17578C20.502 6.17578 20.25 6.42778 20.25 6.73828L20.25 7.86328C20.25 8.17378 20.502 8.42578 20.8125 8.42578L35.4375 8.42578C35.748 8.42578 36 8.17378 36 7.86328L36 6.73828C36 6.42778 35.748 6.17578 35.4375 6.17578ZM15.1875 33.1758L0.5625 33.1758C0.251999 33.1758 0 33.4278 0 33.7383L0 34.8633C0 35.1738 0.251999 35.4258 0.5625 35.4258L15.1875 35.4258C15.498 35.4258 15.75 35.1738 15.75 34.8633L15.75 33.7383C15.75 33.4278 15.498 33.1758 15.1875 33.1758ZM15.1875 24.1758L0.5625 24.1758C0.251999 24.1758 0 24.4278 0 24.7383L0 25.8633C0 26.1738 0.251999 26.4258 0.5625 26.4258L15.1875 26.4258C15.498 26.4258 15.75 26.1738 15.75 25.8633L15.75 24.7383C15.75 24.4278 15.498 24.1758 15.1875 24.1758ZM15.1875 6.17578L0.5625 6.17578C0.251999 6.17578 0 6.42778 0 6.73828L0 7.86328C0 8.17378 0.251999 8.42578 0.5625 8.42578L15.1875 8.42578C15.498 8.42578 15.75 8.17378 15.75 7.86328L15.75 6.73828C15.75 6.42778 15.498 6.17578 15.1875 6.17578ZM15.1875 15.1758L0.5625 15.1758C0.251999 15.1758 0 15.4278 0 15.7383L0 16.8633C0 17.1738 0.251999 17.4258 0.5625 17.4258L15.1875 17.4258C15.498 17.4258 15.75 17.1738 15.75 16.8633L15.75 15.7383C15.75 15.4278 15.498 15.1758 15.1875 15.1758Z" />
  </g>
</svg>