<?xml version="1.0" encoding="utf-8"?>
<svg width="45px" height="39px" viewBox="0 0 45 39" version="1.1" xmlns:xlink="http://www.w3.org/1999/xlink" xmlns="http://www.w3.org/2000/svg">
  <desc>Created with Lunacy</desc>
  <g id="" fill="#1D39D7">
    <path d="M43.875 18.5508L33.75 18.5508L33.75 3.92578C33.75 3.30704 33.2437 2.80078 32.625 2.80078L12.375 2.80078C11.7563 2.80078 11.25 3.30704 11.25 3.92578L11.25 18.5508L1.125 18.5508C0.506264 18.5508 0 19.057 0 19.6758L0 37.6758C0 38.2945 0.506264 38.8008 1.125 38.8008L43.875 38.8008C44.4937 38.8008 45 38.2945 45 37.6758L45 19.6758C45 19.057 44.4937 18.5508 43.875 18.5508ZM36 20.8008L36 25.3008L31.5 25.3008L31.5 20.8008L36 20.8008ZM20.25 5.05078L24.75 5.05078L24.75 9.55078L20.25 9.55078L20.25 5.05078ZM13.5 5.05078L18 5.05078L18 9.55078C18 10.7953 19.0055 11.8008 20.25 11.8008L24.75 11.8008C25.9945 11.8008 27 10.7953 27 9.55078L27 5.05078L31.5 5.05078L31.5 18.5508L13.5 18.5508L13.5 5.05078ZM9 20.8008L13.5 20.8008L13.5 25.3008L9 25.3008L9 20.8008ZM21.375 36.5508L2.25 36.5508L2.25 20.8008L6.75 20.8008L6.75 25.3008C6.75 26.5453 7.75546 27.5508 9 27.5508L13.5 27.5508C14.7445 27.5508 15.75 26.5453 15.75 25.3008L15.75 20.8008L21.375 20.8008L21.375 36.5508ZM42.75 36.5508L23.625 36.5508L23.625 20.8008L29.25 20.8008L29.25 25.3008C29.25 26.5453 30.2555 27.5508 31.5 27.5508L36 27.5508C37.2445 27.5508 38.25 26.5453 38.25 25.3008L38.25 20.8008L42.75 20.8008L42.75 36.5508Z" />
  </g>
</svg>