<?xml version="1.0" encoding="utf-8"?>
<svg width="59px" height="39px" viewBox="0 0 59 39" version="1.1" xmlns:xlink="http://www.w3.org/1999/xlink" xmlns="http://www.w3.org/2000/svg">
  <desc>Created with Lunacy</desc>
  <g id="3126558">
    <path d="M55.8071 3.26046C54.2918 2.40769 52.4869 2.7784 51.5251 3.72313C45.3204 9.8194 45.3572 9.90513 44.616 10.1799C43.6947 10.5217 42.7424 10.3331 41.9853 9.72369C30.5784 0.139466 31.3091 0.748197 31.2079 0.677889C29.6463 -0.404287 27.6812 -0.0915296 26.6304 0.91739C15.4356 11.658 16.0688 11.1085 15.6122 11.3535C14.3228 12.0445 13.0277 11.588 12.0938 10.5115C6.25634 3.78233 6.68726 4.26723 6.55435 4.15224C3.6901 1.67331 -0.427797 4.31644 0.0360092 8.39283C1.30382 21.1321 2.16283 29.7639 2.16396 29.7752C2.57481 33.9034 2.44179 32.6165 2.47252 32.8731C2.86352 36.2198 5.31138 38.8944 8.42296 38.8944L49.5902 38.8944C52.7955 38.8944 55.2276 36.0429 55.5437 32.8445L58.0266 7.97019C58.2517 5.9942 57.3817 4.14668 55.8071 3.26046L55.8071 3.26046ZM3.93584 6.64205C4.02622 6.59431 4.1099 6.56596 4.25596 6.66802L9.52396 12.7407C12.1531 15.7714 16.1143 15.7412 18.5741 13.3615L28.8987 3.45562C29.0121 3.3852 29.112 3.38225 29.2247 3.44553C40.3632 12.8043 39.8112 12.3407 39.8337 12.3591C41.5195 13.7231 43.7238 14.1389 45.7987 13.3697C47.4026 12.7751 47.6158 12.3333 53.8217 6.23585C53.9526 6.15103 54.0326 6.16554 54.1384 6.22508C54.4398 6.39472 54.727 6.89448 54.6457 7.59087C54.6429 7.61513 54.7174 6.87021 52.6188 27.8946L5.39552 27.8946C3.39991 7.84205 3.4193 8.03494 3.4168 8.01408C3.32824 7.256 3.67876 6.77824 3.93584 6.64205L3.93584 6.64205ZM49.5902 35.4924L8.42285 35.4924C7.16104 35.4924 6.058 34.2035 5.85298 32.4918L5.73402 31.2966L52.2792 31.2966L52.1599 32.4915C51.9551 34.2032 50.8521 35.4924 49.5902 35.4924Z" transform="translate(5.204907E-05 0.058076594)" id="Shape" fill="#F8E71C" stroke="none" />
  </g>
</svg>