<?xml version="1.0" encoding="utf-8"?>
<svg width="161px" height="162px" viewBox="0 0 161 162" version="1.1" xmlns:xlink="http://www.w3.org/1999/xlink" xmlns="http://www.w3.org/2000/svg">
  <desc>Created with Lunacy</desc>
  <defs>
    <path d="M0 0L13.8618 0L13.8618 10.6327L0 10.6327L0 0Z" transform="translate(-0.00064034027 0.5186028)" id="path_1" />
    <path d="M0 0L14.1226 0L14.1226 13.6845L0 13.6845L0 0Z" transform="translate(0.220192 0.4024926)" id="path_2" />
    <path d="M0 0L13.6919 0L13.6919 10.1038L0 10.1038L0 0Z" transform="translate(0 0.45413628)" id="path_3" />
    <clipPath id="mask_1">
      <use xlink:href="#path_1" />
    </clipPath>
    <clipPath id="mask_2">
      <use xlink:href="#path_2" />
    </clipPath>
    <clipPath id="mask_3">
      <use xlink:href="#path_3" />
    </clipPath>
  </defs>
  <g id="Group-202">
    <path d="M0 0L11.1111 0L11.1111 10.75L0 10.75L0 0ZM8.74721e-14 18.8125C-1.33092e-07 27.4539 4.76497 35.4388 12.5 39.7595C20.235 44.0802 29.765 44.0802 37.5 39.7595C45.235 35.4388 50 27.4539 50 18.8125L38.8889 18.8125C38.8889 26.2338 32.6706 32.25 25 32.25C17.3294 32.25 11.1111 26.2338 11.1111 18.8125L8.74721e-14 18.8125ZM44.4444 10.75C46.4293 10.75 48.2633 9.72553 49.2557 8.0625C50.2481 6.39947 50.2481 4.35053 49.2557 2.6875C48.2633 1.02447 46.4293 -2.86147e-08 44.4444 -1.0888e-14C41.3762 4.42345e-08 38.8889 2.40647 38.8889 5.375C38.8889 8.34353 41.3762 10.75 44.4444 10.75Z" transform="translate(55 64.850464)" id="Mask" fill="#1D39D7" stroke="none" />
    <g id="Group-74">
      <path d="M2.97864 0L0 13.0721L1.85584 13.5009L4.38368 2.40774L4.606 2.45958L5.36368 14.3101L8.14744 14.9525L13.9602 4.61714L14.1831 4.66842L11.6547 15.7616L13.5111 16.1899L16.4903 3.11716L13.1494 2.34632L7.30968 12.7149L7.0868 12.6636L6.31904 0.770838L2.97864 0Z" transform="translate(88.53711 0)" id="Fill-1" fill="#1D39D7" fill-rule="evenodd" stroke="none" />
      <g id="Group-73" transform="translate(0 0.32641602)">
        <path d="M11.3182 7.74931C12.7529 4.61694 11.7651 1.92182 8.89398 0.590322C5.95398 -0.773295 3.34494 0.252799 1.90966 3.38574L0.6659 6.10001C-0.76938 9.23295 0.15014 11.8954 3.09014 13.259C6.03014 14.6232 8.63918 13.5965 10.0745 10.4642L11.3182 7.74931ZM3.82374 11.6582C1.81726 10.7279 1.3911 9.09546 2.3795 6.93734L3.65518 4.1532C4.64358 1.99507 6.15446 1.26086 8.16038 2.19173C10.1669 3.12203 10.593 4.75443 9.60462 6.91255L8.32894 9.69669C7.34054 11.8548 5.82966 12.589 3.82374 11.6582Z" transform="translate(105.04639 5.7335205)" id="Fill-2" fill="#1D39D7" fill-rule="evenodd" stroke="none" />
        <path d="M5.8436 1.16809L2.11512 12.76L2.30328 12.8901L11.6889 5.19189L13.3862 6.35998L2.48304 15.1023L0 13.3939L4.14624 0L5.8436 1.16809Z" transform="translate(116.75488 10.06543)" id="Fill-4" fill="#1D39D7" fill-rule="evenodd" stroke="none" />
        <path d="M15.3619 5.90863L14.1562 7.18717L9.35088 2.59707L6.58504 5.52885L11.0034 9.7493L9.79776 11.0278L5.3788 6.80738L2.5872 9.76677L7.44744 14.4093L6.24176 15.6872L0 9.72563L9.1756 0L15.3619 5.90863Z" transform="translate(123.42139 18.58789)" id="Fill-6" fill="#1D39D7" fill-rule="evenodd" stroke="none" />
        <path d="M6.10624 13.3037L15.0954 2.55143L13.477 0L0 3.68008L1.08584 5.39192L4.30472 4.4836L7.19376 9.03706L5.0204 11.5924L6.10624 13.3037ZM12.9354 2.27983L8.39328 7.6526L6.05752 3.97083L12.8128 2.086L12.9354 2.27983Z" transform="translate(133.62451 35.220703)" id="Fill-8" fill="#1D39D7" fill-rule="evenodd" stroke="none" />
        <path d="M11.1989 10.8486C14.3931 9.49799 15.1911 6.95839 13.8785 3.81475L12.2858 0L0 5.19471L1.59264 9.00889C2.90528 12.1525 5.2668 13.3567 8.46104 12.0066L11.1989 10.8486ZM3.19256 8.29102L2.352 6.27771L11.4083 2.44888L12.2489 4.46218C13.1488 6.61692 12.6728 8.1479 10.4261 9.09736L7.7588 10.2254C5.51208 11.1749 4.09192 10.4452 3.19256 8.29102Z" transform="translate(140.1997 44.43347)" id="Fill-10" fill="#1D39D7" fill-rule="evenodd" stroke="none" />
        <path d="M10.094 10.5094C13.4686 9.71944 14.6798 7.35114 13.9121 4.03L12.9797 0L0 3.0394L0.9324 7.0694C1.70016 10.3905 3.82648 11.9773 7.20104 11.1867L10.094 10.5094ZM2.6292 6.6327L2.13752 4.50557L11.7051 2.26518L12.1974 4.39175C12.7238 6.6682 11.9986 8.09718 9.62528 8.65277L6.8068 9.3126C4.43352 9.86819 3.15616 8.90859 2.6292 6.6327Z" transform="translate(144.38867 57.099854)" id="Fill-12" fill="#1D39D7" fill-rule="evenodd" stroke="none" />
        <path d="M1.6324 0L2.08992 5.65225L0.45808 5.78636L0 0.133544L1.6324 0Z" transform="translate(150.6626 71.040405)" id="Fill-14" fill="#1D39D7" fill-rule="evenodd" stroke="none" />
        <g id="Group-18" transform="translate(146.72021 78.97449)">
          <path d="M0 0L13.8618 0L13.8618 10.6327L0 10.6327L0 0Z" transform="translate(-0.00064034027 0.5186028)" id="Clip-17" fill="none" fill-rule="evenodd" stroke="none" />
          <g clip-path="url(#mask_1)">
            <path d="M8.07074 10.6142C11.4901 10.8418 13.6366 8.94969 13.8455 5.77674C14.0588 2.52717 12.1733 0.443987 8.75394 0.216342L5.79098 0.0191244C2.37218 -0.208521 0.230184 1.60757 0.0162643 4.85658C-0.196536 8.1056 1.68842 10.1893 5.10778 10.417L8.07074 10.6142ZM1.76458 4.97266C1.90962 2.75594 3.2721 1.77154 5.62746 1.92819L8.66658 2.13048C11.0219 2.28712 12.2433 3.44338 12.0977 5.66067C11.9521 7.87795 10.5902 8.86235 8.23426 8.70514L5.19514 8.50285C2.83978 8.3462 1.61842 7.18995 1.76458 4.97266Z" transform="translate(-0.00064034027 0.5186028)" id="Fill-16" fill="#1D39D7" fill-rule="evenodd" stroke="none" />
          </g>
        </g>
        <path d="M14.4463 6.64172L2.15656 7.88531L2.10224 8.10901L13.3946 10.9191L12.9377 12.7791L0 9.55884L0.85008 6.09965L13.1118 4.88874L13.1667 4.6656L1.89224 1.85948L2.3492 0L15.2874 3.21971L14.4463 6.64172Z" transform="translate(144.02197 91.30115)" id="Fill-19" fill="#1D39D7" fill-rule="evenodd" stroke="none" />
        <path d="M8.792 13.6559L7.24304 12.8321L10.2351 7.1404L6.68304 5.25049L3.85168 10.6368L2.30328 9.81241L5.13464 4.42612L0 1.69382L0.8904 0L12.6739 6.27095L8.792 13.6559Z" transform="translate(140.25537 108.02136)" id="Fill-21" fill="#1D39D7" fill-rule="evenodd" stroke="none" />
        <path d="M4.80343 11.4716C7.54127 13.5452 10.367 13.144 12.2677 10.6039C14.2148 8.00173 13.7702 5.21984 11.0323 3.14568L8.65959 1.34875C5.92175 -0.725416 3.14191 -0.385075 1.19535 2.2165C-0.751212 4.81808 -0.307132 7.59997 2.43071 9.67413L4.80343 11.4716ZM2.59479 3.27641C3.92255 1.50089 5.59807 1.42707 7.48415 2.85605L9.91791 4.69919C11.804 6.12817 12.1971 7.76845 10.8688 9.54397C9.54047 11.3195 7.86495 11.3927 5.97887 9.96433L3.54511 8.12062C1.65959 6.69221 1.26591 5.05136 2.59479 3.27641Z" transform="translate(132.32568 117.927246)" id="Fill-23" fill="#1D39D7" fill-rule="evenodd" stroke="none" />
        <path d="M0 6.51606L5.94832 8.51078C4.81096 10.0896 4.86024 12.0432 6.27032 13.5494C7.90272 15.2928 10.1931 15.2798 11.9672 13.5984L16.0138 9.76226L6.87456 0L5.48856 1.31403L9.22264 5.30233L7.30968 7.11504L1.52432 5.07074L0 6.51606ZM7.9156 8.96325L10.4238 6.58537L13.4271 9.79269L10.9183 12.1711C9.76808 13.2615 8.62288 13.2677 7.65688 12.2354C6.69032 11.2036 6.7928 10.0271 7.9156 8.96325Z" transform="translate(122.52588 125.745605)" id="Fill-25" fill="#1D39D7" fill-rule="evenodd" stroke="none" />
        <path d="M6.62816 15.9019L5.76576 14.367L11.5349 11.0847L9.5564 7.56526L4.25208 10.5838L3.38968 9.0489L8.694 6.03091L6.6976 2.47818L0.8624 5.79819L0 4.26328L7.4928 0L14.0549 11.6764L6.62816 15.9019Z" transform="translate(109.14307 136.48987)" id="Fill-27" fill="#FE7C77" fill-rule="evenodd" stroke="none" />
        <path d="M10.8752 13.2141L6.7452 2.33055L0.62496 4.68138L0 3.03489L7.8988 0L12.6543 12.5306L10.8752 13.2141Z" transform="translate(99.71875 141.40369)" id="Fill-29" fill="#FE7C77" fill-rule="evenodd" stroke="none" />
        <path d="M2.90976 14.9282L2.5368 13.2062L9.01096 11.788L8.15584 7.83854L2.20304 9.14243L1.83064 7.42044L7.78344 6.11655L6.92048 2.12995L0.3724 3.56456L0 1.84201L8.4084 0L11.2437 13.1026L2.90976 14.9282Z" transform="translate(90.069336 144.75208)" id="Fill-31" fill="#FE7C77" fill-rule="evenodd" stroke="none" />
        <g id="Group-35" transform="translate(74.47998 146.59192)">
          <path d="M0 0L14.1226 0L14.1226 13.6845L0 13.6845L0 0Z" transform="translate(0.220192 0.4024926)" id="Clip-34" fill="none" fill-rule="evenodd" stroke="none" />
          <g clip-path="url(#mask_2)">
            <path d="M10.696 13.4773L7.08288 2.12713L6.85496 2.1322L3.68984 13.6165L0.2632 13.6846L0 0.274977L1.904 0.237224L2.12688 11.6161L2.35536 11.6116L5.502 0.165663L8.35744 0.108751L11.951 11.4211L12.1789 11.4166L11.956 0.037753L13.8594 0L14.1226 13.4091L10.696 13.4773Z" transform="translate(0.220192 0.4024926)" id="Fill-33" fill="#FE7C77" fill-rule="evenodd" stroke="none" />
          </g>
        </g>
        <path d="M0 13.2237L0.30296 11.4876L6.82976 12.6394L7.52416 8.65728L1.52208 7.59794L1.82448 5.86187L7.82656 6.92121L8.52768 2.90135L1.92528 1.73608L2.22824 0L10.7055 1.49604L8.4028 14.7068L0 13.2237Z" transform="translate(61.899902 145.32886)" id="Fill-36" fill="#FE7C77" fill-rule="evenodd" stroke="none" />
        <path d="M5.92144 14.753L5.89904 2.32435L5.684 2.24772L1.79424 13.2795L0 12.6394L4.45592 0L7.79352 1.19176L7.78624 13.5894L8.00184 13.666L11.8849 2.65173L13.6797 3.29241L9.2232 15.9312L5.92144 14.753Z" transform="translate(48.878418 141.64587)" id="Fill-38" fill="#FE7C77" fill-rule="evenodd" stroke="none" />
        <path d="M0 9.57631L0.8568 8.03914L4.6088 10.1573L10.2721 0L11.9325 0.937628L6.2692 11.0949L10.0218 13.213L9.16496 14.7496L0 9.57631Z" transform="translate(36.53125 138.11389)" id="Fill-40" fill="#FE7C77" fill-rule="evenodd" stroke="none" />
        <path d="M1.42396 4.66012C-0.715802 7.35467 -0.398842 10.2093 2.07076 12.1949C4.59972 14.228 7.37732 13.8612 9.51652 11.1666L11.3707 8.83155C13.5104 6.137 13.2528 3.33031 10.7239 1.29728C8.19492 -0.735745 5.41732 -0.368921 3.27812 2.32507L1.42396 4.66012ZM9.6302 2.67442C11.3561 4.06171 11.3808 5.74932 9.90684 7.60542L8.00508 10.0002C6.53116 11.8569 4.89036 12.2051 3.16388 10.8178C1.43852 9.42996 1.41332 7.74234 2.8878 5.88625L4.78956 3.49147C6.26348 1.63537 7.90428 1.28714 9.6302 2.67442Z" transform="translate(28.029297 130.94507)" id="Fill-42" fill="#FE7C77" fill-rule="evenodd" stroke="none" />
        <path d="M8.54761 0L6.39609 5.9261C4.86001 4.7366 2.91849 4.7304 1.38185 6.10585C-0.396154 7.69767 -0.449354 10.0012 1.17017 11.8336L4.86561 16.014L14.8246 7.10095L13.5596 5.66915L9.49009 9.31091L7.74401 7.33536L9.93976 1.57492L8.54761 0ZM5.89097 7.89095L8.18137 10.4824L4.90929 13.4113L2.61833 10.8199C1.56777 9.63153 1.59465 8.47978 2.64745 7.53765C3.70025 6.59551 4.86561 6.73187 5.89097 7.89095Z" transform="translate(18.483887 120.83887)" id="Fill-44" fill="#FE7C77" fill-rule="evenodd" stroke="none" />
        <path d="M2.70144 5.76776L0 0.789996L1.43752 0L4.13896 4.97833L2.70144 5.76776Z" transform="translate(15.300781 111.50183)" id="Fill-46" fill="#1D39D7" fill-rule="evenodd" stroke="none" />
        <path d="M2.9258 0.176424C0.597877 0.83682 -0.468363 2.89183 0.193557 5.25224L1.59972 10.2689L14.4299 6.62769L13.913 4.78342L8.7806 6.23945L7.89188 3.06763C7.24564 0.762441 5.25372 -0.484536 2.9258 0.176424ZM6.26228 3.74888L7.09444 6.71841L2.769 7.94623L1.93684 4.9767C1.50732 3.44572 2.04996 2.41625 3.44268 2.02069C4.83596 1.62513 5.8434 2.25509 6.26228 3.74888Z" transform="translate(2.6582031 95.625)" id="Fill-48" fill="#1D39D7" fill-rule="evenodd" stroke="none" />
        <path d="M0 1.65888L1.73936 1.45096L2.52168 8.07239L6.51168 7.59513L5.79264 1.50618L7.53256 1.29825L8.2516 7.3872L12.2791 6.90543L11.4884 0.207924L13.2278 0L14.2436 8.60037L1.00688 10.1832L0 1.65888Z" transform="translate(0.13769531 83.28381)" id="Fill-50" fill="#1D39D7" fill-rule="evenodd" stroke="none" />
        <g id="Group-54" transform="translate(0 71.085815)">
          <path d="M0 0L13.6919 0L13.6919 10.1038L0 10.1038L0 0Z" transform="translate(0 0.45413628)" id="Clip-53" fill="none" fill-rule="evenodd" stroke="none" />
          <g clip-path="url(#mask_3)">
            <path d="M13.692 0.61033L8.05728 3.37475C7.77168 1.44597 6.37784 0.0862956 4.32376 0.00402782C1.946 -0.0917635 0.31976 1.52936 0.22232 3.97937L0 9.56794L13.3146 10.1038L13.3907 8.18968L7.95088 7.97105L8.0556 5.33002L13.6086 2.71605L13.692 0.61033ZM6.33864 4.43635L6.20088 7.90061L1.82616 7.72481L1.96392 4.26054C2.02664 2.6721 2.84032 1.86125 4.2476 1.9176C5.65488 1.97451 6.39968 2.88622 6.33864 4.43635Z" transform="translate(-0.000112 0.45413628)" id="Fill-52" fill="#1D39D7" fill-rule="evenodd" stroke="none" />
          </g>
        </g>
        <path d="M1.61336 0L3.332 0.342595L2.0888 6.6575L6.03008 7.44299L7.20664 1.46673L8.92528 1.80877L7.74872 7.78558L13.4456 8.92155L13.0754 10.8008L0 8.19467L1.61336 0Z" transform="translate(0.9267578 59.554077)" id="Fill-55" fill="#1D39D7" fill-rule="evenodd" stroke="none" />
        <path d="M2.88624 0L4.53488 0.596723L2.29264 6.87105L6.0732 8.23862L8.13512 2.46916L9.78376 3.06532L7.72184 8.83534L11.5388 10.2159L13.8062 3.86941L15.4549 4.46613L12.5429 12.6157L0 8.07746L2.88624 0Z" transform="translate(3.4707031 48.277588)" id="Fill-57" fill="#1D39D7" fill-rule="evenodd" stroke="none" />
        <path d="M0.804122 2.75684C2.35868 -0.055482 4.92572 -0.679253 7.42108 0.717047L7.72068 0.884963L6.79556 2.55906L6.5626 2.42833C4.94868 1.52507 3.37116 1.73863 2.3346 3.61389C1.29804 5.48858 1.8558 7.15929 3.88524 8.29583L6.61412 9.82286C8.64412 10.9588 10.3488 10.5537 11.3853 8.679C12.4219 6.8043 11.7863 5.35222 10.1561 4.43995L9.92316 4.30978L10.8488 2.63569L11.0818 2.76585C13.6768 4.2185 14.4704 6.72316 12.9158 9.53548C11.3243 12.4149 8.65028 13.1541 5.62236 11.4592L3.02676 10.0066C-0.00115847 8.31217 -0.787398 5.63621 0.804122 2.75684" transform="translate(9.227051 37.675537)" id="Fill-59" fill="#1D39D7" fill-rule="evenodd" stroke="none" />
        <path d="M6.51392 0L7.88816 1.09258L5.22088 4.48923L14.3024 11.7085L13.1225 13.2113L4.04096 5.99203L1.37424 9.38867L0 8.29609L6.51392 0Z" transform="translate(14.095215 25.745361)" id="Fill-61" fill="#1D39D7" fill-rule="evenodd" stroke="none" />
        <path d="M9.78488 1.61865C8.29808 -0.299996 6.00544 -0.517499 4.08352 0.990369L0 4.19431L8.19448 14.7685L9.69584 13.5909L6.41816 9.3614L9.00032 7.33513C10.8774 5.86277 11.2717 3.53673 9.78488 1.61865ZM7.75824 6.07463L5.34128 7.9713L2.57824 4.40617L4.99576 2.50951C6.24176 1.53187 7.39424 1.64795 8.28352 2.79632C9.17336 3.94469 8.97456 5.12066 7.75824 6.07463Z" transform="translate(27.714355 14.622925)" id="Fill-63" fill="#FE7C77" fill-rule="evenodd" stroke="none" />
        <path d="M1.62344 0L8.58592 11.4352L6.96248 12.436L0 1.00074L1.62344 0Z" transform="translate(37.63965 10.539917)" id="Fill-65" fill="#FE7C77" fill-rule="evenodd" stroke="none" />
        <path d="M2.00536 3.6581L7.04872 7.16068L7.25592 7.06433L7.88312 0.930866L9.88792 0L9.01096 7.60019L9.10672 7.80868L15.5378 12.1435L13.5156 13.0823L8.37256 9.49968L8.1648 9.59604L7.53424 15.858L5.51152 16.7962L6.41032 9.06017L6.31456 8.85112L0 4.5884L2.00536 3.6581Z" transform="translate(41.805664 4.2840576)" id="Fill-67" fill="#FE7C77" fill-rule="evenodd" stroke="none" />
        <path d="M8.21912 0L8.68672 1.69832L2.30272 3.47835L3.37512 7.37368L9.2456 5.73677L9.71376 7.43453L3.84328 9.072L4.92576 13.004L11.3837 11.2031L11.8513 12.9014L3.55936 15.2139L0 2.29167L8.21912 0Z" transform="translate(55.00244 0.89697266)" id="Fill-69" fill="#FE7C77" fill-rule="evenodd" stroke="none" />
        <path d="M1.89 0L3.27712 11.5631L9.77928 10.7737L9.98928 12.5239L1.59712 13.5426L0 0.229899L1.89 0Z" transform="translate(66.89746 0)" id="Fill-71" fill="#FE7C77" fill-rule="evenodd" stroke="none" />
      </g>
    </g>
  </g>
</svg>