<?xml version="1.0" encoding="utf-8"?>
<svg width="89px" height="95px" viewBox="0 0 89 95" version="1.1" xmlns:xlink="http://www.w3.org/1999/xlink" xmlns="http://www.w3.org/2000/svg">
  <desc>Created with Lunacy</desc>
  <g id="Group-64">
    <path d="M40.5891 12.7226C48.1061 18.1861 58.1493 23.215 61.0452 31.1619C64.0027 39.1709 59.8129 50.0979 52.2959 58.914C44.7789 67.668 33.9348 74.3732 24.6926 72.759C15.512 71.1448 7.87184 61.2112 3.99012 52.3951C0.0467931 43.579 -0.13805 35.8804 0.0467931 28.4302C0.231637 20.9799 0.909396 13.778 4.79111 8.25246C8.73444 2.78896 15.8817 -0.874074 21.9816 0.181375C28.0814 1.29891 33.0722 7.19701 40.5891 12.7226Z" transform="translate(27 0)" id="Path" fill="#E9F0F9" fill-rule="evenodd" stroke="none" />
    <g id="2261352" transform="translate(0 24)">
      <path d="M4.32003 21.5602C4.31287 17.419 5.51061 13.3653 7.76725 9.89299C9.36433 10.8238 11.3925 10.5292 12.6587 9.18237C13.9249 7.83557 14.094 5.79306 13.0664 4.2564C16.2061 1.91615 19.9268 0.480605 23.8247 0.105597C23.1188 0.0363807 22.4036 0.00124469 21.6791 0.000188694C17.0208 -0.0193199 12.482 1.47436 8.74573 4.25654C9.18264 4.90631 9.41569 5.6717 9.41504 6.4547C9.40913 7.87339 8.64924 9.1819 7.41998 9.89016C6.19072 10.5984 4.67757 10.5995 3.44725 9.89313C1.19061 13.3654 -0.00712527 17.4192 3.18892e-05 21.5603C3.18892e-05 33.4485 9.72507 43.1203 21.6788 43.1203C22.4077 43.1203 23.1277 43.0847 23.8388 43.0136C12.8948 41.9318 4.32003 32.7235 4.32003 21.5602L4.32003 21.5602Z" transform="translate(13.7452 14.045859)" id="Path" fill="#E9F0F9" fill-rule="evenodd" stroke="none" />
      <g id="Group" transform="translate(5.184 0)">
        <path d="M7.43808e-05 23.2881C7.43808e-05 36.1291 10.5003 46.576 23.4068 46.576C36.3134 46.576 46.8136 36.1291 46.8136 23.2881C46.8175 18.2116 45.1484 13.2753 42.0646 9.24287C42.2094 8.94039 42.2848 8.60938 42.2852 8.27404C42.2846 7.53059 41.921 6.83429 41.3113 6.40883C40.7017 5.98338 39.9227 5.88236 39.2247 6.13823C30.8567 -1.501 18.2265 -2.07329 9.20196 4.77786C7.59908 3.80721 5.53573 4.08954 4.25252 5.45511C2.9693 6.82067 2.81569 8.89757 3.88404 10.4371C1.34378 14.2408 -0.0081563 18.714 7.43808e-05 23.2881L7.43808e-05 23.2881ZM37.9408 7.30492C37.796 7.6075 37.7207 7.93862 37.7204 8.27404C37.7211 9.01779 38.085 9.71433 38.6951 10.1397C39.3052 10.5651 40.0846 10.6657 40.7827 10.4093C43.5792 14.1202 45.0898 18.6415 45.0859 23.2881C45.0859 35.1763 35.3609 44.848 23.4071 44.848C11.4534 44.848 1.72807 35.1763 1.72807 23.2881C1.72092 19.1469 2.91866 15.0932 5.17529 11.6209C6.77237 12.5517 8.80057 12.2571 10.0668 10.9103C11.333 9.56346 11.502 7.52096 10.4745 5.98429C18.7821 -0.152853 30.2602 0.399033 37.9408 7.30492L37.9408 7.30492ZM7.15918 5.94297C8.39378 5.95225 9.38797 6.95898 9.38179 8.1936C9.37561 9.42822 8.37139 10.4249 7.13676 10.4219C5.90213 10.4188 4.90288 9.41709 4.90284 8.18245C4.90879 6.94151 5.91823 5.93962 7.15918 5.94297Z" transform="translate(6.8331575 12.317962)" id="Shape" fill="#0635C9" stroke="none" />
        <path d="M1.10808 2.21386C1.72006 2.21386 2.21616 1.71827 2.21616 1.10693C2.21616 0.495589 1.72006 0 1.10808 0C0.496104 0 0 0.495589 0 1.10693C0 1.71827 0.496104 2.21386 1.10808 2.21386Z" transform="translate(43.839504 35.046)" id="Oval" fill="#0635C9" fill-rule="evenodd" stroke="none" />
        <path d="M6.24017e-07 1.06978C-0.000465429 1.50303 0.260162 1.89388 0.660303 2.06001C1.06044 2.22613 1.52126 2.13479 1.82778 1.8286C2.1343 1.5224 2.22614 1.06169 2.06045 0.661368C1.89476 0.261048 1.50418 2.50667e-07 1.07093 0C0.480085 0.000396064 0.0010326 0.478933 6.24017e-07 1.06978L6.24017e-07 1.06978Z" transform="translate(6.4185114 15.463728)" id="Path" fill="#0635C9" fill-rule="evenodd" stroke="none" />
        <path d="M1.05912 2.11651C1.64348 2.11603 2.11686 1.642 2.11651 1.05763C2.11617 0.473267 1.64224 -0.000211844 1.05787 7.11075e-08C0.473507 0.000211986 -7.93215e-05 0.474035 0 1.0584C0.000952656 1.64278 0.474742 2.11612 1.05912 2.11651L1.05912 2.11651Z" transform="translate(0.086688 63.78955)" id="Path" fill="#0635C9" fill-rule="evenodd" stroke="none" />
        <path d="M1.71677 3.42489C2.66196 3.42251 3.42648 2.65476 3.42489 1.70957C3.42331 0.764375 2.65621 -0.000792197 1.71101 6.15535e-07C0.765816 0.000793428 3.00764e-06 0.767247 0 1.71244C0.00230251 2.65893 0.770275 3.42497 1.71677 3.42489L1.71677 3.42489Z" transform="translate(3.611232 -0.00013856408)" id="Path" fill="#0635C9" fill-rule="evenodd" stroke="none" />
        <path d="M1.71677 3.42489C2.66196 3.42251 3.42648 2.65476 3.42489 1.70957C3.42331 0.764375 2.65621 -0.000792197 1.71101 6.15535e-07C0.765816 0.000793428 3.00764e-06 0.767247 0 1.71244C0.00230251 2.65893 0.770275 3.42497 1.71677 3.42489L1.71677 3.42489Z" transform="translate(60.58152 6.107909)" id="Path" fill="#0635C9" fill-rule="evenodd" stroke="none" />
      </g>
      <path d="M35.4243 0.000346905C26.0346 -0.029084 17.0205 3.68525 10.3773 10.3211C-1.95033 22.5564 -3.479 41.9667 6.78129 55.9809C5.31958 57.6539 5.36459 60.1625 6.88536 61.782C8.40613 63.4014 10.9071 63.6038 12.6684 62.25C26.7574 73.9834 47.4582 73.08 60.4714 60.1638C67.113 53.5713 70.8483 44.6004 70.8483 35.2423C70.8483 25.8843 67.113 16.9134 60.4714 10.3208C53.8281 3.68506 44.814 -0.0291603 35.4243 0.000346905L35.4243 0.000346905ZM7.42554 58.8308C7.41813 57.7756 8.04806 56.8202 9.0208 56.4113C9.99354 56.0023 11.1169 56.2207 11.8657 56.9642C12.6144 57.7077 12.8407 58.8295 12.4386 59.8051C12.0365 60.7807 11.0856 61.4173 10.0304 61.4174C8.59747 61.4208 7.43221 60.2637 7.42554 58.8308L7.42554 58.8308ZM59.2527 58.9387C46.8822 71.2154 27.2092 72.0848 13.8039 60.9473C14.171 60.3023 14.3638 59.5727 14.3632 58.8305C14.3565 57.3456 13.5901 55.9675 12.3323 55.1783C11.0744 54.3892 9.50008 54.2989 8.16023 54.9391C-1.57934 41.6143 -0.119157 23.172 11.5959 11.546C24.7848 -1.54431 46.0638 -1.54431 59.2527 11.546C65.5683 17.8142 69.1203 26.3442 69.1203 35.2423C69.1203 44.1405 65.5683 52.6705 59.2527 58.9387Z" transform="translate(-0.00032571005 0.3636851)" id="Shape" fill="#FE7C77" stroke="none" />
      <path d="M21.1578 10.798L21.1825 10.0437L21.1825 10.0149C21.1825 4.49267 16.6679 1.10671e-05 11.119 1.10671e-05C5.7067 -0.00561506 1.26173 4.27543 1.06409 9.68416C0.277789 10.1772 -0.129134 11.0993 0.0365715 12.0125C0.202277 12.9257 0.907227 13.646 1.81663 13.8314C3.19874 17.1411 6.23478 19.4677 9.79008 19.9417C13.3454 20.4156 16.8849 18.9655 19.0857 16.1333C20.4824 16.446 21.8979 15.6909 22.4161 14.3567C22.9342 13.0226 22.3995 11.51 21.1578 10.798L21.1578 10.798ZM11.1195 18.3021C7.87818 18.3031 4.92934 16.4277 3.55586 13.4918C4.30853 12.9894 4.69084 12.0879 4.52881 11.1976C4.36678 10.3073 3.69136 9.59828 2.80994 9.39328C3.15446 5.061 6.77351 1.72267 11.1195 1.7283C15.7112 1.7283 19.4476 5.43817 19.4549 10.0014L19.4412 10.419C18.3402 10.512 17.3887 11.2251 16.9904 12.2558C16.5922 13.2865 16.8169 14.4541 17.5692 15.2633C15.9778 17.1845 13.6142 18.2982 11.1195 18.3021L11.1195 18.3021ZM19.704 14.4727C19.5596 14.4725 19.4165 14.4458 19.2817 14.394C19.2108 14.3431 19.1326 14.3033 19.0498 14.2759C18.6161 13.9918 18.422 13.4554 18.5734 12.9595C18.7249 12.4636 19.1855 12.1272 19.704 12.1339C19.7972 12.1342 19.89 12.1455 19.9805 12.1676C20.0157 12.1803 20.0517 12.1907 20.0882 12.1987C20.6328 12.3815 20.9635 12.9334 20.8678 13.4999C20.7721 14.0663 20.2785 14.479 19.704 14.4727L19.704 14.4727Z" transform="translate(24.304539 25.590805)" id="Shape" fill="#FE7C77" stroke="none" />
      <path d="M2.26786 7.61224e-07C1.01227 0.00405365 -0.00268902 1.02448 1.07256e-05 2.28008C0.00271047 3.53568 1.02205 4.55173 2.27765 4.55039C3.53325 4.54904 4.5504 3.5308 4.55041 2.2752C4.54707 1.01716 3.52591 -0.000718368 2.26786 7.61224e-07L2.26786 7.61224e-07ZM2.26786 2.82168C1.96664 2.81764 1.72534 2.57089 1.72803 2.26965C1.73071 1.96841 1.97638 1.72601 2.27762 1.72734C2.57887 1.72866 2.82238 1.97323 2.82241 2.27448C2.82019 2.57864 2.57202 2.82352 2.26786 2.82168L2.26786 2.82168Z" transform="translate(62.17214 51.665184)" id="Shape" fill="#0635C9" stroke="none" />
    </g>
  </g>
</svg>