<?xml version="1.0" encoding="utf-8"?>
<svg width="92px" height="93px" viewBox="0 0 92 93" version="1.1" xmlns:xlink="http://www.w3.org/1999/xlink" xmlns="http://www.w3.org/2000/svg">
  <desc>Created with Lunacy</desc>
  <g id="Group-61">
    <path d="M49.6648 9.32588C58.0504 16.2626 64.2814 26.8134 63.9902 37.131C63.6408 47.3903 56.8275 57.2998 48.4419 63.8285C39.998 70.3572 30.0983 73.4466 22.2368 71.3481C14.4335 69.2496 8.66844 61.9632 6.45557 55.4345C4.2427 48.9059 5.52383 43.135 4.068 35.9651C2.61216 28.737 -1.58064 20.1098 0.632226 13.1731C2.8451 6.29472 11.4636 1.10677 21.1304 0.174104C30.7389 -0.816853 41.2792 2.44748 49.6648 9.32588Z" transform="translate(28 0)" id="Path" fill="#E9F0F9" fill-rule="evenodd" stroke="none" />
    <g id="2261342" transform="translate(0 21)">
      <path d="M7.61468 10.0577C5.27336 8.2933 3.98703 5.46161 4.19856 2.53757C4.38087 2.51266 4.56389 2.48933 4.74778 2.46874L10.0421 1.87632L9.76488 0L0.571779 1.02874C0.387891 1.04933 0.204867 1.07194 0.0225627 1.09757C-0.188966 4.02161 1.09736 6.8533 3.43867 8.61768C4.80813 9.68394 6.46041 10.3248 8.19067 10.4609C7.99599 10.3337 7.80317 10.2014 7.61468 10.0577L7.61468 10.0577Z" transform="translate(46.702126 1.747872)" id="Path" fill="#E9F0F9" fill-rule="evenodd" stroke="none" />
      <path d="M3.14957 4.48632L4.61866 2.31106L1.58803 0L0 2.0399L3.14957 4.48632Z" transform="translate(12.147264 41.838913)" id="Path" fill="#D4E1F4" fill-rule="evenodd" stroke="none" />
      <path d="M4.176 36.6432L26.61 7.39771C28.4483 5.36706 30.7068 3.7612 33.2286 2.69179C33.0193 1.81053 32.9287 0.905259 32.9592 0C28.7765 0.910656 25.0989 2.9808 22.434 5.95771L0 35.2032L20.5021 50.8375L21.3461 49.7376L4.176 36.6432Z" transform="translate(12.018672 3.1536)" id="Path" fill="#E9F0F9" fill-rule="evenodd" stroke="none" />
      <g id="Group" transform="translate(0 18.576)">
        <path d="M15.6866 1.99916C11.433 -1.2443 5.30523 -0.457626 2.02707 3.75308C0.448972 5.77749 -0.251926 8.34993 0.08113 10.8951C0.414186 13.4402 1.75341 15.7457 3.79927 17.2958C8.06794 20.5376 14.1476 19.7569 17.4588 15.5419C19.0371 13.5175 19.7381 10.9449 19.4051 8.39963C19.072 5.85436 17.7327 3.54877 15.6866 1.99858L15.6866 1.99916ZM16.0953 14.4811C13.3678 17.9511 8.36144 18.5926 4.84716 15.9224C3.16797 14.6519 2.06839 12.7611 1.79462 10.6733C1.52085 8.5855 2.09575 6.47512 3.3906 4.81465C6.11817 1.34467 11.1245 0.703126 14.6389 3.37321C16.318 4.64376 17.4176 6.53461 17.6913 8.62243C17.965 10.7102 17.39 12.8206 16.0951 14.4811L16.0953 14.4811Z" transform="translate(26.212053 0.070554346)" id="Shape" fill="#FE7C77" stroke="none" />
        <path d="M8.53756 1.088C6.21466 -0.676005 2.90627 -0.250855 1.10486 2.04315C0.244866 3.14635 -0.137183 4.54816 0.044127 5.93516C0.225437 7.32215 0.954985 8.57865 2.06966 9.42373C4.39255 11.1877 7.70094 10.7626 9.50236 8.46857C10.3623 7.36537 10.7444 5.96356 10.5631 4.57656C10.3818 3.18957 9.65223 1.93307 8.53756 1.088L8.53756 1.088ZM8.13897 7.407C6.92121 8.95581 4.68635 9.2418 3.11783 8.04953C2.36998 7.48422 1.88017 6.64252 1.75815 5.71301C1.63612 4.78351 1.89208 3.84391 2.46868 3.10472C3.68644 1.55593 5.92123 1.26989 7.48982 2.46204C8.23775 3.02732 8.72765 3.86903 8.84973 4.79857C8.97181 5.72811 8.71587 6.66777 8.13926 7.407L8.13897 7.407Z" transform="translate(30.651321 4.4624834)" id="Shape" fill="#FE7C77" stroke="none" />
        <path d="M11.2406 0.182245C10.8641 -0.110849 10.3213 -0.0432196 10.0282 0.333301L0.189354 12.9713C-0.00518826 13.2145 -0.0538238 13.5435 0.062052 13.8326C0.177928 14.1216 0.440384 14.3259 0.749022 14.3674C1.05766 14.4088 1.36472 14.281 1.55275 14.0327L11.3917 1.39472C11.6848 1.01819 11.6172 0.475354 11.2406 0.182245L11.2406 0.182245Z" transform="translate(0.06495014 24.795275)" id="Path" fill="#FE7C77" fill-rule="evenodd" stroke="none" />
        <path d="M0.332852 14.1882C0.709324 14.4812 1.25204 14.4137 1.54519 14.0373L11.3841 1.39927C11.5762 1.15589 11.6232 0.828241 11.5071 0.540715C11.3911 0.25319 11.1299 0.0498743 10.8227 0.00795054C10.5155 -0.0339732 10.2094 0.0919237 10.0206 0.337848L0.182516 12.9757C-0.11074 13.3521 -0.0434366 13.8949 0.332852 14.1882L0.332852 14.1882Z" transform="translate(16.967884 37.901497)" id="Path" fill="#FE7C77" fill-rule="evenodd" stroke="none" />
        <path d="M0.862815 6.91822C1.1296 6.91861 1.38155 6.79553 1.54523 6.58486L5.58227 1.39927C5.77435 1.15589 5.82129 0.828241 5.70527 0.540715C5.58925 0.25319 5.32807 0.0498743 5.02087 0.00795054C4.71367 -0.0339732 4.40755 0.0919237 4.21873 0.337848L0.182271 5.52343C-0.0204332 5.78378 -0.057155 6.13685 0.0876326 6.43335C0.23242 6.72984 0.533433 6.91798 0.863391 6.91822L0.862815 6.91822Z" transform="translate(18.004929 37.862473)" id="Path" fill="#FE7C77" fill-rule="evenodd" stroke="none" />
        <path d="M0.333301 3.03411C0.709834 3.3272 1.25267 3.25957 1.54578 2.88305L2.708 1.3902C2.99723 1.0135 2.92819 0.473984 2.55342 0.182254C2.17866 -0.109476 1.63869 -0.0440317 1.34447 0.32878L0.182245 1.82163C-0.110849 2.19816 -0.0432196 2.741 0.333301 3.03411L0.333301 3.03411Z" transform="translate(15.007019 45.41426)" id="Path" fill="#FE7C77" fill-rule="evenodd" stroke="none" />
        <path d="M8.00325 0.32878L0.185779 10.3702C-0.00630002 10.6136 -0.0532405 10.9412 0.062777 11.2287C0.178794 11.5163 0.43998 11.7196 0.747182 11.7615C1.05438 11.8034 1.3605 11.6775 1.54931 11.4316L9.36679 1.3902C9.65601 1.0135 9.58697 0.473984 9.2122 0.182254C8.83744 -0.109476 8.29747 -0.0440317 8.00325 0.32878Z" transform="translate(9.331182 34.143234)" id="Path" fill="#FE7C77" fill-rule="evenodd" stroke="none" />
        <path d="M0.333301 2.19663C0.709834 2.48973 1.25267 2.4221 1.54578 2.04558L2.04532 1.40377C2.23986 1.16061 2.28849 0.831567 2.17262 0.54252C2.05674 0.253473 1.79429 0.0491461 1.48565 0.00770158C1.17701 -0.033743 0.869948 0.0941077 0.681925 0.342347L0.182245 0.984155C-0.110849 1.36069 -0.0432196 1.90352 0.333301 2.19663L0.333301 2.19663Z" transform="translate(11.26662 30.022646)" id="Path" fill="#FE7C77" fill-rule="evenodd" stroke="none" />
        <path d="M0.333211 2.04973C0.514002 2.19056 0.743335 2.25379 0.970751 2.22551C1.19817 2.19724 1.40503 2.07977 1.54583 1.89896L1.93867 1.39496C2.23185 1.01843 2.16428 0.475524 1.78775 0.182341C1.41122 -0.110843 0.868315 -0.0432774 0.575131 0.333253L0.182299 0.837253C-0.110827 1.21375 -0.043263 1.75658 0.333211 2.04973L0.333211 2.04973Z" transform="translate(8.096117 34.241867)" id="Path" fill="#FE7C77" fill-rule="evenodd" stroke="none" />
        <path d="M2.27433 0.182299C1.89783 -0.110827 1.355 -0.043263 1.06185 0.333211L0.189354 1.45411C-0.00518826 1.69727 -0.0538238 2.02631 0.062052 2.31536C0.177928 2.6044 0.440384 2.80873 0.749022 2.85018C1.05766 2.89162 1.36472 2.76377 1.55275 2.51553L2.42539 1.39463C2.71838 1.01813 2.65076 0.475399 2.27433 0.182299L2.27433 0.182299Z" transform="translate(4.7452383 37.9201)" id="Path" fill="#FE7C77" fill-rule="evenodd" stroke="none" />
      </g>
      <path d="M55.781 1.29505C55.6448 0.492214 54.9123 -0.0695782 54.1016 0.00697331L44.7156 1.05731C44.2893 1.10512 43.867 1.16488 43.4484 1.234L43.446 1.234C38.4028 2.06675 33.94 4.43411 30.7759 7.98241L19.5547 22.6092L1.30986 20.0935C0.792581 20.0221 0.292042 20.3079 0.0907574 20.7898C-0.113919 21.2698 0.0362167 21.8276 0.454213 22.1401L12.7317 31.5025L7.22653 38.678L9.99493 40.7892L7.34533 44.1927L25.7256 58.2087L28.3752 54.8055L30.4766 56.4079L35.9832 49.2332L47.2785 57.8466C47.6939 58.1625 48.2697 58.1601 48.6824 57.8407C49.0967 57.5254 49.2425 56.9682 49.0356 56.4904L42.4217 40.8444L52.8886 27.2067L52.9189 27.1647C56.4567 21.9341 57.8569 15.3437 56.8615 8.60737L55.781 1.29505ZM44.9077 2.77465L54.1008 1.74592L55.152 8.85952C55.3012 9.86841 55.3937 10.8849 55.4291 11.9041C52.8149 12.6506 50.0567 12.1033 47.7746 10.3633C45.4334 8.59898 44.1471 5.76743 44.3585 2.84349C44.5408 2.81857 44.7238 2.79525 44.9077 2.77465L44.9077 2.77465ZM3.26063 22.1069L18.3443 24.1867L13.7836 30.1313L3.26063 22.1069ZM25.4133 55.798L9.78109 43.8769L11.3691 41.837L27.0012 53.7576L25.4133 55.798ZM46.5938 55.1511L37.0357 47.8624L41.2117 42.4204L46.5938 55.1511ZM51.5022 26.1754L30.1546 53.9891L9.6525 38.3549L32.0865 9.10936C34.7514 6.13245 38.429 4.0623 42.6117 3.15165C42.5117 6.51118 44.0454 9.711 46.7267 11.7375C48.569 13.159 50.8277 13.9352 53.1546 13.9463C53.9207 13.9459 54.6842 13.8583 55.4305 13.6852C55.2803 18.2456 53.939 22.5628 51.5019 26.1754L51.5022 26.1754Z" transform="translate(2.3661706 0.0019546896)" id="Shape" fill="#0635C9" stroke="none" />
    </g>
  </g>
</svg>