<?xml version="1.0" encoding="utf-8"?>
<svg width="85px" height="99px" viewBox="0 0 85 99" version="1.1" xmlns:xlink="http://www.w3.org/1999/xlink" xmlns="http://www.w3.org/2000/svg">
  <desc>Created with Lunacy</desc>
  <g id="Group-60">
    <path d="M40.5891 12.7226C48.1061 18.1861 58.1493 23.215 61.0452 31.1619C64.0027 39.1709 59.8129 50.0979 52.2959 58.914C44.7789 67.668 33.9348 74.3732 24.6926 72.759C15.512 71.1448 7.87184 61.2112 3.99012 52.3951C0.0467931 43.579 -0.13805 35.8804 0.0467931 28.4302C0.231637 20.9799 0.909396 13.778 4.79111 8.25246C8.73444 2.78896 15.8817 -0.874074 21.9816 0.181375C28.0814 1.29891 33.0722 7.19701 40.5891 12.7226Z" transform="translate(23 0)" id="Path" fill="#E9F0F9" fill-rule="evenodd" stroke="none" />
    <g id="1955756" transform="translate(0 31)">
      <path d="M6.22757 0L3.34757 0C1.49964 0.00198399 0.00206349 1.49949 0 3.34742L0 32.8638L2.88 32.8638L2.88 3.34742C2.88206 1.49949 4.37964 0.00198399 6.22757 0Z" transform="translate(1.772928 12.922992)" id="Path" fill="#E9F0F9" fill-rule="evenodd" stroke="none" />
      <path d="M2.88 2.9808L2.88 0L0 0L0 2.9808C0.00206334 4.82876 1.49961 6.3263 3.34757 6.32837L6.22757 6.32837C4.37961 6.3263 2.88206 4.82876 2.88 2.9808L2.88 2.9808Z" transform="translate(1.772928 47.515102)" id="Path" fill="#E9F0F9" fill-rule="evenodd" stroke="none" />
      <path d="M57.6186 1.22782e-14L42.1027 1.22782e-14C41.6255 1.02318e-14 41.2387 0.386826 41.2387 0.864C41.2387 1.34117 41.6255 1.728 42.1027 1.728L57.6186 1.728C59.4665 1.72998 60.9641 3.22749 60.9661 5.07542L60.9661 34.5918L1.728 34.5918L1.728 5.07542C1.73006 3.22749 3.22764 1.72998 5.07557 1.728L20.5916 1.728C21.0687 1.728 21.4556 1.34117 21.4556 0.864C21.4556 0.386826 21.0687 1.02318e-14 20.5916 1.02318e-14L5.07557 1.02318e-14C2.27378 0.00317411 0.0032536 2.27364 0 5.07542L0 39.3009C0.00317442 42.1027 2.27375 44.3732 5.07557 44.3763L22.4266 44.3763L22.4266 54.72L18.4031 54.72C17.9259 54.72 17.5391 55.1068 17.5391 55.584C17.5391 56.0612 17.9259 56.448 18.4031 56.448L45.049 56.448C45.5261 56.448 45.913 56.0612 45.913 55.584C45.913 55.1068 45.5261 54.72 45.049 54.72L40.2682 54.72L40.2682 44.3763L57.6186 44.3763C60.4204 44.3732 62.691 42.1027 62.6941 39.3009L62.6941 5.07542C62.6909 2.27364 60.4204 0.00317411 57.6186 0L57.6186 1.22782e-14ZM38.5396 54.72L24.154 54.72L24.154 44.3763L38.5396 44.3763L38.5396 54.72ZM57.6186 42.6483L5.07557 42.6483C3.22764 42.6464 1.73006 41.1488 1.728 39.3009L1.728 36.3201L60.9661 36.3201L60.9661 39.3009C60.9641 41.1488 59.4665 42.6464 57.6186 42.6483L57.6186 42.6483Z" transform="translate(0.044928 11.195136)" id="Shape" fill="#0635C9" stroke="none" />
      <g id="Group" transform="translate(8.928 0)">
        <path d="M40.6656 0.174528C38.6722 0.161414 36.9377 1.53623 36.4955 3.48005L26.7614 3.48005L26.7614 0.864C26.7614 0.386826 26.3746 0 25.8974 0L18.9374 0C18.4603 0 18.0734 0.386826 18.0734 0.864L18.0734 3.48005L8.25264 3.48005C7.87166 1.52109 6.16494 0.100635 4.16938 0.081648C1.87042 0.081216 0 1.99354 0 4.34405C0 6.69456 1.87042 8.60645 4.16952 8.60645C6.16511 8.58752 7.87186 7.16703 8.25278 5.20805L16.1856 5.20805C12.4845 7.41179 10.221 11.4049 10.2312 15.7124C10.2312 16.1896 10.618 16.5764 11.0952 16.5764C11.5724 16.5764 11.9592 16.1896 11.9592 15.7124C11.9485 11.6064 14.3391 7.87329 18.073 6.16522L18.073 7.82395C18.073 8.30113 18.4598 8.68795 18.937 8.68795L25.897 8.68795C26.3741 8.68795 26.761 8.30113 26.761 7.82395L26.761 6.12245C30.5484 7.80574 32.9833 11.5682 32.9674 15.7128C32.9674 16.19 33.3542 16.5768 33.8314 16.5768C34.3085 16.5768 34.6954 16.19 34.6954 15.7128C34.7029 13.0736 33.8496 10.5039 32.2648 8.39347C31.3036 7.11231 30.1024 6.0304 28.728 5.20805L36.4954 5.20805C36.9376 7.15192 38.6721 8.52675 40.6656 8.51357C43.0163 8.51357 44.928 6.64315 44.928 4.34405C44.928 2.04494 43.0158 0.174528 40.6656 0.174528L40.6656 0.174528ZM4.16952 6.87874C2.82326 6.87874 1.728 5.74114 1.728 4.34434C1.728 2.94754 2.82326 1.80994 4.16952 1.80994C5.51578 1.80994 6.6109 2.94754 6.6109 4.34434C6.6109 5.74114 5.5152 6.87874 4.16952 6.87874ZM19.8014 6.95995L19.8014 5.16312C19.8612 4.98806 19.863 4.7984 19.8065 4.62226C19.805 4.61779 19.803 4.61347 19.8014 4.60901L19.8014 1.728L25.0334 1.728L25.0334 4.56091C25.0289 4.57344 25.0235 4.58554 25.019 4.59835C24.9631 4.77873 24.9681 4.97251 25.0334 5.14973L25.0334 6.95995L19.8014 6.95995ZM40.6656 6.78557C39.2679 6.78557 38.1312 5.69016 38.1312 4.34405C38.1312 2.99794 39.2688 1.90253 40.6656 1.90253C42.0624 1.90253 43.2 2.99779 43.2 4.34405C43.2 5.6903 42.0624 6.78557 40.6656 6.78557Z" transform="translate(-8.185452E-15 0.036864)" id="Shape" fill="#FE7C77" stroke="none" />
        <path d="M2.59027 3.10136C2.19376 2.32651 1.89563 1.50516 1.7028 0.656379C1.58963 0.199638 1.13177 -0.082555 0.672893 0.0216142C0.214015 0.125783 -0.0771258 0.578006 0.0180013 1.03884C0.242757 2.02822 0.590333 2.98561 1.05264 3.88875C1.1913 4.16705 1.46879 4.34939 1.77927 4.3662C2.08974 4.38301 2.3853 4.2317 2.55319 3.96999C2.72109 3.70829 2.73541 3.37656 2.59071 3.10136L2.59027 3.10136Z" transform="translate(10.51675 17.427141)" id="Path" fill="#FE7C77" fill-rule="evenodd" stroke="none" />
        <path d="M2.26628 0.0377397C1.80986 -0.101322 1.32713 0.155905 1.18801 0.6123C0.934119 1.4449 0.57716 2.24251 0.125431 2.98657C-0.0347474 3.25044 -0.041986 3.57972 0.106441 3.85037C0.254868 4.12102 0.536412 4.29193 0.845017 4.29871C1.15362 4.3055 1.4424 4.14713 1.60258 3.88326C2.12897 3.01599 2.54499 2.08638 2.84098 1.11601C2.98003 0.659556 2.72273 0.176801 2.26628 0.0377397Z" transform="translate(31.325897 18.203749)" id="Path" fill="#FE7C77" fill-rule="evenodd" stroke="none" />
        <path d="M17.119 10.5357C17.4532 10.2701 17.7733 9.98727 18.078 9.6883C18.302 9.47254 18.3928 9.15302 18.3156 8.85172C18.2385 8.55041 18.0054 8.31382 17.7052 8.23225C17.4051 8.15068 17.0843 8.23672 16.8652 8.45753C16.6333 8.68606 16.3893 8.90393 16.1366 9.11029L10.1158 0.373806C9.9534 0.138082 9.68478 -0.00189292 9.39852 3.90855e-05C9.11227 0.00197109 8.84555 0.145559 8.68633 0.383454L2.8467 9.1074C2.39907 8.74158 1.98219 8.33967 1.60024 7.90573C1.28522 7.54729 0.739281 7.51209 0.380844 7.8271C0.0224067 8.14212 -0.0127945 8.68806 0.30222 9.04649C0.783249 9.59311 1.31183 10.096 1.88176 10.5491L0.14598 13.1423C-0.0225418 13.3941 -0.0468568 13.7157 0.0818999 13.99L4.12398 22.6054C3.88942 22.7684 3.75125 23.0374 3.75534 23.3231L3.81121 27.8929C3.81705 28.3659 4.20217 28.7463 4.67521 28.7463L4.68083 28.7463L14.5778 28.6842C14.8078 28.6828 15.0278 28.5897 15.1889 28.4255C15.3501 28.2614 15.4391 28.0397 15.4363 27.8097L15.3803 23.2399C15.3767 22.9492 15.227 22.68 14.9822 22.5235L18.9096 13.8718C19.0349 13.5956 19.0063 13.274 18.8342 13.0243L17.119 10.5357ZM9.48467 13.6591L9.4959 13.6591C10.4634 13.6642 11.2459 14.4483 11.249 15.4159C11.2521 16.3834 10.4746 17.1725 9.50713 17.1838L9.49576 17.1838C8.52824 17.1786 7.74578 16.3945 7.74274 15.4269C7.7397 14.4594 8.51721 13.6703 9.48467 13.6591L9.48467 13.6591ZM5.5287 27.0129L5.49428 24.2101C5.56363 24.205 5.63209 24.1914 5.69819 24.1698L13.4226 24.1213C13.5005 24.146 13.5816 24.1595 13.6633 24.1613L13.6975 26.9617L5.5287 27.0129ZM13.1426 22.395L5.95523 22.4402L1.85353 13.698L8.55817 3.68177L8.61059 12.045C6.9127 12.49 5.80939 14.1267 6.03376 15.8675C6.25813 17.6084 7.74037 18.9118 9.49561 18.9118L9.51779 18.9118C11.2772 18.9009 12.7534 17.5822 12.9619 15.8352C13.1704 14.0882 12.046 12.4591 10.3386 12.0345L10.2862 3.66608L15.2245 10.8314L17.1334 13.6011L13.1426 22.395Z" transform="translate(12.970692 14.774994)" id="Shape" fill="#FE7C77" stroke="none" />
      </g>
    </g>
  </g>
</svg>