<?xml version="1.0" encoding="utf-8"?>
<svg width="22px" height="38px" viewBox="0 0 22 38" version="1.1" xmlns:xlink="http://www.w3.org/1999/xlink" xmlns="http://www.w3.org/2000/svg">
  <desc>Created with Lunacy</desc>
  <path d="M12.7266 36L12.7266 20.25L18 20.25L18.9844 13.7109L12.7266 13.7109L12.7266 9.49219C12.7266 8.50781 13.0195 7.67578 13.6055 6.99609C14.1914 6.31641 15.1406 5.97656 16.4531 5.97656L16.4531 5.97656L19.2656 5.97656L19.2656 0.421875L18.5625 0.351563C18.0938 0.257813 17.4375 0.175781 16.5938 0.105469C15.75 0.0351563 14.9531 0 14.2031 0C12.5156 0 11.0273 0.339844 9.73828 1.01953C8.44922 1.69922 7.45313 2.69531 6.75 4.00781C6.04688 5.32031 5.69531 6.91406 5.69531 8.78906L5.69531 8.78906L5.69531 13.7109L0 13.7109L0 20.25L5.69531 20.25L5.69531 36L12.7266 36Z" transform="translate(1 1)" id="" fill="none" stroke="#FFFFFF" stroke-width="2" />
</svg>