<?xml version="1.0" encoding="utf-8"?>
<svg width="36px" height="39px" viewBox="0 0 36 39" version="1.1" xmlns:xlink="http://www.w3.org/1999/xlink" xmlns="http://www.w3.org/2000/svg">
  <desc>Created with Lunacy</desc>
  <g id="ï‰" fill="#FFFFFF">
    <path d="M32.625 2.80078L10.125 2.80078C8.26103 2.80078 6.75 4.31181 6.75 6.17578L6.75 9.55078L3.375 9.55078C1.51103 9.55078 0 11.0618 0 12.9258L0 35.4258C0 37.2897 1.51103 38.8008 3.375 38.8008L25.875 38.8008C27.739 38.8008 29.25 37.2897 29.25 35.4258L29.25 32.0508L32.625 32.0508C34.489 32.0508 36 30.5397 36 28.6758L36 6.17578C36 4.31181 34.489 2.80078 32.625 2.80078ZM27 35.4258C27 36.046 26.4952 36.5508 25.875 36.5508L3.375 36.5508C2.75482 36.5508 2.25 36.046 2.25 35.4258L2.25 12.9258C2.25 12.3056 2.75482 11.8008 3.375 11.8008L6.75 11.8008L6.75 28.6758C6.75 30.5397 8.26103 32.0508 10.125 32.0508L27 32.0508L27 35.4258ZM33.75 28.6758C33.75 29.296 33.2452 29.8008 32.625 29.8008L10.125 29.8008C9.50482 29.8008 9 29.296 9 28.6758L9 6.17578C9 5.5556 9.50482 5.05078 10.125 5.05078L32.625 5.05078C33.2452 5.05078 33.75 5.5556 33.75 6.17578L33.75 28.6758Z" />
  </g>
</svg>