<?xml version="1.0" encoding="utf-8"?>
<svg width="32px" height="39px" viewBox="0 0 32 39" version="1.1" xmlns:xlink="http://www.w3.org/1999/xlink" xmlns="http://www.w3.org/2000/svg">
  <desc>Created with Lunacy</desc>
  <g id="ïŠ" fill="#FFFFFF">
    <path d="M24.75 11.8008C24.75 6.83819 20.7126 2.80078 15.75 2.80078C10.7873 2.80078 6.75 6.83819 6.75 11.8008L0 11.8008L0 33.1758C0 36.2824 2.51841 38.8008 5.625 38.8008L25.875 38.8008C28.9816 38.8008 31.5 36.2824 31.5 33.1758L31.5 11.8008L24.75 11.8008ZM15.75 5.05078C19.472 5.05078 22.5 8.07882 22.5 11.8008L9 11.8008C9 8.07882 12.028 5.05078 15.75 5.05078ZM29.25 33.1758C29.25 35.0367 27.7359 36.5508 25.875 36.5508L5.625 36.5508C3.76405 36.5508 2.25 35.0367 2.25 33.1758L2.25 14.0508L6.75 14.0508L6.75 17.4258C6.75 18.0471 7.25372 18.5508 7.875 18.5508C8.49628 18.5508 9 18.0471 9 17.4258L9 14.0508L22.5 14.0508L22.5 17.4258C22.5 18.0471 23.0037 18.5508 23.625 18.5508C24.2463 18.5508 24.75 18.0471 24.75 17.4258L24.75 14.0508L29.25 14.0508L29.25 33.1758Z" />
  </g>
</svg>