<?xml version="1.0" encoding="utf-8"?>
<svg width="52px" height="46px" viewBox="0 0 52 46" version="1.1" xmlns:xlink="http://www.w3.org/1999/xlink" xmlns="http://www.w3.org/2000/svg">
  <desc>Created with Lunacy</desc>
  <g id="775525">
    <path d="M2.15057 40.8578L15.053 40.8578L15.053 43.0082C15.0545 44.1953 16.0164 45.157 17.2034 45.1587L34.4066 45.1587C35.5936 45.1571 36.5554 44.1953 36.557 43.0082L36.557 40.8578L49.4594 40.8578C50.6465 40.8563 51.6082 39.8944 51.6099 38.7073L51.6099 6.45133C51.6083 5.26428 50.6465 4.30252 49.4594 4.30088L36.557 4.30088L36.557 2.15044C36.5555 0.963396 35.5936 0.001638 34.4066 0L17.2033 0C16.0162 0.001512 15.0545 0.963396 15.0528 2.15044L15.0528 4.30101L2.15044 4.30101C0.963396 4.30252 0.001638 5.26441 0 6.45145L0 38.7075C0.001638 39.8944 0.963522 40.8563 2.15057 40.8578ZM17.2035 2.15057L34.4064 2.15057L34.4067 5.37529L34.4064 5.37617L34.4067 5.37705L34.4072 15.04L34.4066 15.0531L34.4072 15.0662L34.4077 24.7241L34.4066 24.7299L34.4077 24.7357L34.4081 33.3157L34.4066 33.3314L34.4082 33.3473L34.4086 39.773L34.4067 39.7826L34.4086 39.7922L34.4088 43.0082L17.2035 43.0082L17.2035 2.15057ZM15.053 6.45145L2.15057 6.45145L2.15057 38.7075L15.053 38.7075L15.053 36.3589C14.7087 36.4863 14.345 36.5534 13.9778 36.557L7.52661 36.557C5.74522 36.557 4.30101 35.1128 4.30101 33.3314C4.30101 31.55 5.74522 30.1058 7.52661 30.1058L13.9778 30.1058C14.3448 30.1093 14.7086 30.1764 15.053 30.3039L15.053 25.8049L10.7522 25.8049C10.1584 25.8049 9.67705 25.3236 9.67705 24.7298C9.67705 24.1359 10.1584 23.6546 10.7522 23.6546L15.053 23.6546L15.053 19.8479C12.4702 22.1727 8.51004 22.034 6.09626 19.5342C3.68248 17.0343 3.68248 13.0717 6.09626 10.5719C8.51004 8.07206 12.4701 7.93334 15.053 10.2582L15.053 6.45145ZM37.632 36.557C37.265 36.5534 36.9012 36.4863 36.5569 36.3588L36.5569 38.7075L49.4593 38.7075L49.4593 6.45145L36.5569 6.45145L36.5569 10.2582C39.1396 7.93334 43.0998 8.07206 45.5136 10.5719C47.9274 13.0717 47.9274 17.0343 45.5136 19.5342C43.0998 22.034 39.1396 22.1727 36.5569 19.8479L36.5569 23.6546C37.1507 23.6546 37.632 24.1359 37.632 24.7298C37.632 25.3236 37.1507 25.8049 36.5569 25.8049L36.5569 30.3039C36.9011 30.1765 37.2649 30.1095 37.632 30.1058L44.0832 30.1058C45.8646 30.1058 47.3088 31.55 47.3088 33.3314C47.3088 35.1128 45.8646 36.557 44.0832 36.557L37.632 36.557ZM15.053 15.053C15.053 17.4282 13.1274 19.3537 10.7522 19.3537C8.37698 19.3537 6.45133 17.4283 6.45133 15.053C6.45133 12.6776 8.37686 10.7522 10.7521 10.7522C13.1264 10.7546 15.0506 12.6787 15.053 15.053ZM40.8576 10.7522C38.4824 10.7522 36.5569 12.6777 36.5569 15.053C36.5593 17.4273 38.4834 19.3515 40.8576 19.3537C43.2329 19.3537 45.1584 17.4282 45.1584 15.053C45.1584 12.6777 43.2329 10.7522 40.8576 10.7522ZM13.9778 34.4066C14.5714 34.4062 15.0526 33.925 15.053 33.3314C15.0525 32.7378 14.5714 32.2566 13.9778 32.2563L7.52661 32.2563C6.93277 32.2563 6.45145 32.7376 6.45145 33.3314C6.45145 33.9252 6.93277 34.4066 7.52661 34.4066L13.9778 34.4066ZM36.5569 33.3314C36.5573 32.7378 37.0385 32.2566 37.632 32.2563L44.0832 32.2563C44.6771 32.2563 45.1584 32.7376 45.1584 33.3314C45.1584 33.9252 44.6771 34.4066 44.0832 34.4066L37.632 34.4066C37.0385 34.4062 36.5574 33.925 36.5569 33.3314Z" transform="translate(0.025074 0.05859)" id="Shape" fill="#FFFFFF" fill-rule="evenodd" stroke="none" />
    <path d="M2.06721 11.654L2.6143 8.29924L0.3056 5.93258C0.0242416 5.64417 -0.0722744 5.2227 0.0556156 4.84067C0.183506 4.45864 0.51413 4.18018 0.912416 4.11919L4.06027 3.63825L5.47777 0.618408C5.65493 0.241038 6.03419 0 6.45112 0C6.86806 0 7.24732 0.241038 7.42447 0.618408L8.84197 3.63825L11.9898 4.11919C12.388 4.18018 12.7187 4.45864 12.8466 4.84067C12.9744 5.2227 12.878 5.64417 12.5966 5.93258L10.2877 8.29924L10.8348 11.654C10.9007 12.0603 10.7291 12.4687 10.3928 12.7061C10.0562 12.9435 9.61372 12.9675 9.25349 12.7681L6.451 11.2193L3.64851 12.7681C3.28827 12.9672 2.84576 12.9431 2.50921 12.706C2.17254 12.4688 2.00093 12.0603 2.06721 11.654ZM5.76316 5.0715C5.61096 5.39595 5.30692 5.62325 4.95261 5.67731L3.30604 5.92931L4.5324 7.18616C4.77066 7.43047 4.87902 7.77332 4.82434 8.11012L4.54613 9.81527L5.93112 9.04982C6.25444 8.87065 6.64731 8.87065 6.97062 9.04982L8.35561 9.81527L8.07741 8.11012C8.02272 7.77332 8.13108 7.43047 8.36935 7.18616L9.59571 5.92931L7.94926 5.67731C7.59495 5.62325 7.29091 5.39608 7.13871 5.0715L6.451 3.60574L5.76316 5.0715Z" transform="translate(19.379002 4.3596)" id="Shape" fill="#FFFFFF" fill-rule="evenodd" stroke="none" />
    <path d="M1.07516 2.15032L2.15032 2.15032C2.74415 2.15032 3.22547 1.669 3.22547 1.07516C3.22547 0.48132 2.74415 0 2.15032 0L1.07516 0C0.48132 0 0 0.481446 0 1.07516C0 1.66887 0.481446 2.15032 1.07516 2.15032Z" transform="translate(19.3788 19.412441)" id="Path" fill="#FFFFFF" stroke="none" />
    <path d="M10.5429 0L1.75708 0C0.7866 0 0 0.481446 0 1.07516C0 1.66887 0.7866 2.15032 1.75708 2.15032L10.5429 2.15032C11.5134 2.15032 12.3 1.669 12.3 1.07516C12.3 0.48132 11.5134 0 10.5429 0Z" transform="translate(19.9812 19.412441)" id="Path" fill="#FFFFFF" stroke="none" />
    <path d="M1.07516 2.15032L2.15032 2.15032C2.74415 2.15032 3.22547 1.669 3.22547 1.07516C3.22547 0.48132 2.74415 0 2.15032 0L1.07516 0C0.48132 0 0 0.48132 0 1.07516C0 1.669 0.481446 2.15032 1.07516 2.15032Z" transform="translate(19.3788 23.713326)" id="Path" fill="#FFFFFF" stroke="none" />
    <path d="M10.5429 0L1.75708 0C0.7866 0 0 0.48132 0 1.07516C0 1.669 0.7866 2.15032 1.75708 2.15032L10.5429 2.15032C11.5134 2.15032 12.3 1.669 12.3 1.07516C12.3 0.48132 11.5134 0 10.5429 0Z" transform="translate(19.9812 23.7132)" id="Path" fill="#FFFFFF" stroke="none" />
    <path d="M1.07516 2.15032L2.15032 2.15032C2.74415 2.15032 3.22547 1.669 3.22547 1.07516C3.22547 0.48132 2.74415 0 2.15032 0L1.07516 0C0.48132 0 0 0.48132 0 1.07516C0 1.669 0.481446 2.15032 1.07516 2.15032Z" transform="translate(19.3788 28.014084)" id="Path" fill="#FFFFFF" stroke="none" />
    <path d="M10.5429 0L1.75708 0C0.7866 0 0 0.48132 0 1.07516C0 1.669 0.7866 2.15032 1.75708 2.15032L10.5429 2.15032C11.5134 2.15032 12.3 1.669 12.3 1.07516C12.3 0.48132 11.5134 0 10.5429 0Z" transform="translate(19.9812 28.013958)" id="Path" fill="#FFFFFF" stroke="none" />
    <path d="M1.07516 2.15032L2.15032 2.15032C2.74415 2.15032 3.22547 1.669 3.22547 1.07516C3.22547 0.48132 2.74415 0 2.15032 0L1.07516 0C0.48132 0 0 0.48132 0 1.07516C0 1.669 0.48132 2.15032 1.07516 2.15032Z" transform="translate(4.326084 23.713326)" id="Path" fill="#FFFFFF" stroke="none" />
    <path d="M6.4512 0L1.07516 0C0.48132 0 0 0.48132 0 1.07516C0 1.669 0.48132 2.15032 1.07516 2.15032L6.4512 2.15032C7.04504 2.15032 7.52636 1.669 7.52636 1.07516C7.52636 0.48132 7.04504 0 6.4512 0Z" transform="translate(39.807556 23.7132)" id="Path" fill="#FFFFFF" stroke="none" />
  </g>
</svg>