<?xml version="1.0" encoding="utf-8"?>
<svg width="35px" height="35px" viewBox="0 0 35 35" version="1.1" xmlns:xlink="http://www.w3.org/1999/xlink" xmlns="http://www.w3.org/2000/svg">
  <desc>Created with Lunacy</desc>
  <g id="Group">
    <path d="M1.50408e-15 33.6669C1.50408e-15 34.2514 0.473846 34.7253 1.0584 34.7253L11.0698 34.7253C11.6544 34.7253 12.1282 34.2514 12.1282 33.6669L12.1282 1.0584C12.1282 0.473846 11.6544 0 11.0698 0L1.0584 0C0.473846 0 0 0.473846 0 1.0584L0 12.6089C0 13.1935 0.473846 13.6673 1.0584 13.6673C1.64295 13.6673 2.1168 13.1935 2.1168 12.6089L2.1168 2.1168L10.0114 2.1168L10.0114 32.6085L2.1168 32.6085L2.1168 22.1134C2.1168 21.5288 1.64295 21.055 1.0584 21.055C0.473846 21.055 0 21.5288 0 22.1134L1.50408e-15 33.6669Z" transform="translate(0.1009714 0.1009714)" id="Path" fill="#FFFFFF" stroke="none" />
    <path d="M18.3631 0C18.9477 0 19.4215 0.473846 19.4215 1.0584L19.4215 12.7679C19.4215 13.3525 18.9477 13.8263 18.3631 13.8263L1.0584 13.8263C0.473846 13.8263 0 13.3525 0 12.7679L0 1.0584C0 0.473846 0.473846 0 1.0584 0L18.3631 0ZM2.1168 11.7095L17.3047 11.7095L17.3047 2.1168L2.1168 2.1168L2.1168 11.7095Z" transform="translate(15.40469 0.1009714)" id="Shape" fill="#FFFFFF" fill-rule="evenodd" stroke="none" />
    <path d="M18.3631 0C18.9477 0 19.4215 0.473846 19.4215 1.0584L19.4215 6.41359C19.4215 6.99814 18.9477 7.47199 18.3631 7.47199L1.0584 7.47199C0.473846 7.47199 0 6.99814 0 6.41359L0 1.0584C0 0.473846 0.473846 0 1.0584 0L18.3631 0ZM2.1168 5.35519L17.3047 5.35519L17.3047 2.1168L2.1168 2.1168L2.1168 5.35519Z" transform="translate(15.40469 16.90476)" id="Shape" fill="#FFFFFF" fill-rule="evenodd" stroke="none" />
    <path d="M1.0584 0L18.3631 0C18.9477 0 19.4215 0.473846 19.4215 1.0584L19.4215 6.41369C19.4215 6.99825 18.9477 7.47209 18.3631 7.47209L1.0584 7.47209C0.473846 7.47209 0 6.99825 0 6.41369L0 1.0584C0 0.473846 0.473846 0 1.0584 0ZM2.1168 5.35529L17.3047 5.35529L17.3047 2.1168L2.1168 2.1168L2.1168 5.35529Z" transform="translate(15.40469 27.35414)" id="Shape" fill="#FFFFFF" fill-rule="evenodd" stroke="none" />
    <path d="M1.0584 2.11976C1.64295 2.11976 2.1168 1.64295 2.1168 1.0584C2.1168 0.473846 1.64295 0 1.0584 0C0.473846 0 0 0.473846 0 1.0584L0 1.06443C0 1.64888 0.473846 2.11976 1.0584 2.11976Z" transform="translate(0.1009714 16.40372)" id="Path" fill="#FFFFFF" stroke="none" />
  </g>
</svg>