<?xml version="1.0" encoding="utf-8"?>
<svg width="45px" height="39px" viewBox="0 0 45 39" version="1.1" xmlns:xlink="http://www.w3.org/1999/xlink" xmlns="http://www.w3.org/2000/svg">
  <desc>Created with Lunacy</desc>
  <g id="" fill="#FFFFFF">
    <path d="M44.8805 19.6617L41.2594 12.4336C41.0625 12.0399 40.6617 11.8008 40.2328 11.8008C40.1625 11.8008 40.5352 11.7515 36.2742 12.293L38.1164 7.24454C38.5383 6.07732 37.9406 4.78361 36.7734 4.36173L32.857 2.9344C31.6969 2.51253 30.4032 3.11018 29.9742 4.27734L26.9648 12.5531C26.768 7.13908 22.3383 2.80078 16.875 2.80078C11.5805 2.80078 7.29142 6.87891 6.84139 12.0539C4.76717 11.7867 4.85156 11.8008 4.76717 11.8008C4.33829 11.8008 3.9375 12.0469 3.74064 12.4336L0.119545 19.6617C-0.203934 20.3086 0.140625 21.082 0.829674 21.2789L4.5 22.3266L4.5 32.6836C4.5 33.7172 5.20313 34.6172 6.20158 34.8633L21.4032 38.6672C22.3594 38.9063 23.161 38.7726 23.5828 38.6672L38.7984 34.8633C39.7969 34.6102 40.5 33.7101 40.5 32.6836L40.5 22.3266L44.1633 21.2789C44.8594 21.082 45.1969 20.3086 44.8805 19.6617ZM32.0907 5.05078L36 6.47111L33.7641 12.6094L29.1235 13.2L32.0907 5.05078ZM2.72811 19.4859L5.39999 14.1422L18.7875 15.8508L14.5617 22.868L2.72811 19.4859ZM21.375 36.3398L6.75 32.6836L6.75 22.9735C15.4195 25.4484 14.8359 25.3008 15.068 25.3008C15.4617 25.3008 15.8414 25.0968 16.0523 24.7453L21.375 15.9141L21.375 36.3398ZM22.5 14.0508C15.7711 13.193 11.6297 12.6656 9.06331 12.3351C9.36564 8.27108 12.7336 5.05078 16.875 5.05078C21.2203 5.05078 24.75 8.58048 24.75 12.9258C24.75 13.214 24.7078 13.4953 24.6727 13.7765L22.5 14.0508ZM38.25 32.6836L23.625 36.3398L23.625 15.9141L28.9477 24.7383C29.1586 25.0898 29.5383 25.2938 29.932 25.2938C30.1641 25.2938 29.5664 25.4414 38.25 22.9664L38.25 32.6836ZM30.4383 22.8609L26.2125 15.8438L39.6 14.1352L42.2719 19.4789L30.4383 22.8609Z" />
  </g>
</svg>