<?xml version="1.0" encoding="utf-8"?>
<svg width="45px" height="39px" viewBox="0 0 45 39" version="1.1" xmlns:xlink="http://www.w3.org/1999/xlink" xmlns="http://www.w3.org/2000/svg">
  <desc>Created with Lunacy</desc>
  <g id="" fill="#FFFFFF">
    <path d="M3.375 36.5508C2.754 36.5508 2.25 36.0468 2.25 35.4258L2.25 32.5008C2.25268 28.5291 5.47833 25.3035 9.45003 25.3008C10.8281 25.3008 12.1992 26.4258 15.75 26.4258C19.3008 26.4258 20.6719 25.3008 22.05 25.3008C22.2398 25.3008 22.4227 25.3429 22.6055 25.357C22.7317 24.7066 23.1443 23.7396 23.5265 23.1984C23.1204 23.1248 22.4557 23.0586 22.043 23.0508C20.025 23.0508 19.0547 24.1758 15.743 24.1758C12.4312 24.1758 11.4679 23.0508 9.44296 23.0508C4.23283 23.0508 0 27.2836 0 32.5008L0 35.4258C0 37.2888 1.51199 38.8008 3.375 38.8008L23.6532 38.8008C23.2225 38.2461 22.7563 37.2381 22.6125 36.5508L3.375 36.5508ZM15.75 20.8008C20.718 20.8008 24.75 16.7688 24.75 11.8008C24.75 6.83276 20.718 2.80078 15.75 2.80078C10.782 2.80078 6.75 6.83276 6.75 11.8008C6.75 16.7688 10.782 20.8008 15.75 20.8008ZM15.75 5.05078C19.476 5.05078 22.5 8.07477 22.5 11.8008C22.5 15.5268 19.476 18.5508 15.75 18.5508C12.024 18.5508 9 15.5268 9 11.8008C9.00577 8.0806 12.0298 5.05655 15.75 5.05078ZM34.875 28.6758C33.633 28.6758 32.625 29.6838 32.625 30.9258C32.625 32.1678 33.633 33.1758 34.875 33.1758C36.117 33.1758 37.125 32.1678 37.125 30.9258C37.125 29.6838 36.117 28.6758 34.875 28.6758ZM41.625 23.0508L40.5 23.0508L40.5 19.6758C40.5 16.5708 37.98 14.0508 34.875 14.0508C31.77 14.0508 29.25 16.5708 29.25 19.6758L29.25 23.0508L28.125 23.0508C26.262 23.0508 24.75 24.5628 24.75 26.4258L24.75 35.4258C24.75 37.2888 26.262 38.8008 28.125 38.8008L41.625 38.8008C43.488 38.8008 45 37.2888 45 35.4258L45 26.4258C45 24.5628 43.488 23.0508 41.625 23.0508ZM31.5 19.6758C31.5 17.8128 33.012 16.3008 34.875 16.3008C36.738 16.3008 38.25 17.8128 38.25 19.6758L38.25 23.0508L31.5 23.0508L31.5 19.6758ZM42.75 35.4258C42.75 36.0468 42.246 36.5508 41.625 36.5508L28.125 36.5508C27.504 36.5508 27 36.0468 27 35.4258L27 26.4258C27 25.8048 27.504 25.3008 28.125 25.3008L41.625 25.3008C42.246 25.3008 42.75 25.8048 42.75 26.4258L42.75 35.4258Z" />
  </g>
</svg>