<?xml version="1.0" encoding="utf-8"?>
<svg width="42px" height="21px" viewBox="0 0 42 21" version="1.1" xmlns:xlink="http://www.w3.org/1999/xlink" xmlns="http://www.w3.org/2000/svg">
  <desc>Created with Lunacy</desc>
  <g id="2089764">
    <path d="M31.104 20.7361L10.368 20.7361C4.64181 20.7361 0 16.0942 0 10.368C0 4.64204 4.64181 7.5249e-05 10.368 0L31.104 0C36.8303 0 41.4721 4.64204 41.4721 10.368C41.4721 16.0943 36.8302 20.7361 31.104 20.7361ZM31.104 2.59203L10.368 2.59203C6.07342 2.59203 2.59203 6.07342 2.59203 10.368C2.59203 14.6627 6.07342 18.144 10.368 18.144L31.104 18.144C35.3987 18.144 38.88 14.6627 38.88 10.368C38.88 6.07342 35.3987 2.59203 31.104 2.59203Z" transform="translate(0 0.05884475)" id="Shape" fill="#FFFFFF" fill-rule="evenodd" stroke="none" />
    <path d="M10.368 5.18398C10.368 8.04713 8.04698 10.368 5.18398 10.368C2.32098 10.368 -7.5249e-05 8.04713 0 5.18398C0 2.32098 2.32098 0 5.18398 0C8.04698 0 10.368 2.32098 10.368 5.18398ZM7.77601 5.18398C7.77601 3.75252 6.61559 2.59195 5.18398 2.59195C3.75237 2.59195 2.59195 3.75259 2.59195 5.18398C2.59195 6.61559 3.75237 7.77601 5.18398 7.77601C6.61559 7.77601 7.77601 6.61559 7.77601 5.18398Z" transform="translate(25.92006 5.242901)" id="Shape" fill="#FFFFFF" fill-rule="evenodd" stroke="none" />
  </g>
</svg>