<?xml version="1.0" encoding="utf-8"?>
<svg width="38px" height="32px" viewBox="0 0 38 32" version="1.1" xmlns:xlink="http://www.w3.org/1999/xlink" xmlns="http://www.w3.org/2000/svg">
  <desc>Created with Lunacy</desc>
  <path d="M11.3203 29.25C14.6016 29.25 17.6016 28.6172 20.3203 27.3516C23.0391 26.0859 25.2539 24.4336 26.9648 22.3945C28.6758 20.3555 30 18.1055 30.9375 15.6445C31.875 13.1836 32.3438 10.7109 32.3438 8.22656C32.3438 7.80469 32.3203 7.5 32.2734 7.3125C33.7266 6.23438 34.9688 4.94531 36 3.44531C34.5938 4.05469 33.1875 4.45313 31.7813 4.64063C33.375 3.65625 34.4531 2.29688 35.0156 0.5625C33.5625 1.40625 31.9922 1.99219 30.3047 2.32031C28.8516 0.773438 27.0469 0 24.8906 0C22.875 0 21.1523 0.726563 19.7227 2.17969C18.293 3.63281 17.5781 5.36719 17.5781 7.38281C17.5781 7.94531 17.625 8.50781 17.7188 9.07031C14.7188 8.92969 11.8945 8.17969 9.24609 6.82031C6.59766 5.46094 4.35938 3.63281 2.53125 1.33594C1.82813 2.50781 1.47656 3.75 1.47656 5.0625C1.47656 7.6875 2.57813 9.75 4.78125 11.25C3.60938 11.2031 2.50781 10.875 1.47656 10.2656L1.47656 10.2656L1.47656 10.4063C1.47656 11.5781 1.73438 12.668 2.25 13.6758C2.76563 14.6836 3.46875 15.5391 4.35938 16.2422C5.25 16.9453 6.25781 17.4141 7.38281 17.6484C6.72656 17.7891 6.07031 17.8594 5.41406 17.8594C4.99219 17.8594 4.54688 17.8359 4.07813 17.7891C4.54688 19.2422 5.40234 20.4492 6.64453 21.4102C7.88672 22.3711 9.32813 22.8516 10.9688 22.8516C8.25 24.9609 5.17969 26.0156 1.75781 26.0156C1.10156 26.0156 0.515625 25.9922 0 25.9453C3.42188 28.1484 7.19531 29.25 11.3203 29.25Z" transform="translate(1 1)" id="" fill="none" stroke="#FFFFFF" stroke-width="2" stroke-linejoin="round" />
</svg>