<?xml version="1.0" encoding="utf-8"?>
<svg width="1920px" height="1264px" viewBox="0 0 1920 1264" version="1.1" xmlns:xlink="http://www.w3.org/1999/xlink" xmlns="http://www.w3.org/2000/svg">
  <desc>Created with Lunacy</desc>
  <defs>
    <linearGradient x1="0.6424785" y1="0.031316273" x2="0.29018852" y2="0.9473325" id="gradient_1">
      <stop offset="0" stop-color="#F6F7FB" />
      <stop offset="1" stop-color="#EEF0F8" />
    </linearGradient>
    <path d="M0 0L1920 0L1920 1262L0 1262L0 0Z" id="path_1" />
    <path d="M1145.5 121.559C464.418 16.5011 0 169.921 0 169.921L0 309L13 309L13 2524L1933 2524L1933 309L2028.6 309L2036 0C2036 0 1826.59 226.616 1145.5 121.559Z" id="path_2" />
    <path d="M0 0L1184 0L1184 1119.09L0 1119.09L0 0Z" id="path_3" />
    <clipPath id="mask_1">
      <use xlink:href="#path_1" />
    </clipPath>
    <clipPath id="mask_2">
      <use xlink:href="#path_2" />
    </clipPath>
    <clipPath id="mask_3">
      <use xlink:href="#path_3" />
    </clipPath>
  </defs>
  <g id="Group-203" transform="translate(0 1)">
    <path d="M0 0L1920 0L1920 1262L0 1262L0 0Z" id="Mask" fill="#D3D3D3" fill-opacity="0" fill-rule="evenodd" stroke="none" />
    <g clip-path="url(#mask_1)">
      <g id="Group-11" transform="translate(-13 -1822)">
        <path d="M1145.5 121.559C464.418 16.5011 0 169.921 0 169.921L0 309L13 309L13 2524L1933 2524L1933 309L2028.6 309L2036 0C2036 0 1826.59 226.616 1145.5 121.559Z" id="Combined-Shape" fill="#0029A9" fill-rule="evenodd" stroke="none" />
        <g clip-path="url(#mask_2)">
          <path d="M368 736C571.241 736 736 571.241 736 368C736 164.759 571.241 0 368 0C164.759 0 0 164.759 0 368C0 571.241 164.759 736 368 736Z" transform="translate(1698 2094)" id="Oval" fill="url(#gradient_1)" fill-opacity="0.027966" fill-rule="evenodd" stroke="none" />
          <g id="Group-3" transform="translate(1136.0005 910.001)" opacity="0.3929734">
            <path d="M0 0L1184 0L1184 1119.09L0 1119.09L0 0Z" id="Clip-2" fill="none" fill-rule="evenodd" stroke="none" />
            <g clip-path="url(#mask_3)">
              <path d="M1184 0L1184 219.758C1167.79 237.59 1152.71 256.493 1138.71 275.535C1081.04 353.847 1028.95 451.295 945.804 499.251C797.197 584.965 591.325 508.609 456.538 616.16C375.143 681.109 340.164 796.529 253.637 854.029C203.036 887.598 137.353 899.471 99.2669 947.566C74.1463 979.226 65.7278 1021.32 47.0899 1057.44C34.7997 1081.24 18.7279 1101.58 0 1119.09L0 841.551C15.0364 823.766 30.793 803.187 47.36 779.349C111.602 687.022 243.733 682.972 300.367 585.478C343.9 510.658 309.866 387.323 380.816 339.973C464.821 283.916 601.184 322.048 685.189 357.991C769.195 393.888 868.687 436.21 946.21 387.137C1041.29 326.983 1035.39 182.418 1093.56 84.0853C1117.6 43.3929 1148.03 16.7146 1184 0" transform="matrix(0.49999997 -0.86602545 0.86602545 0.49999997 66.23633 628.32715)" id="Fill-1" fill="none" fill-rule="evenodd" stroke="#FFD5CC" stroke-opacity="0.61897784" stroke-width="1" />
            </g>
          </g>
          <g id="Group-3-Copy" transform="matrix(-0.42261833 0.90630776 -0.90630776 -0.42261833 713.01855 1145.8555)" opacity="0.3929734">
            <path d="M0 0L1184 0L1184 1119.09L0 1119.09L0 0Z" id="Clip-2" fill="none" fill-rule="evenodd" stroke="none" />
            <g clip-path="url(#mask_3)">
              <path d="M1184 0L1184 219.758C1167.79 237.59 1152.71 256.493 1138.71 275.535C1081.04 353.847 1028.95 451.295 945.804 499.251C797.197 584.965 591.325 508.609 456.538 616.16C375.143 681.109 340.164 796.529 253.637 854.029C203.036 887.598 137.353 899.471 99.2669 947.566C74.1463 979.226 65.7278 1021.32 47.0899 1057.44C34.7997 1081.24 18.7279 1101.58 0 1119.09L0 841.551C15.0364 823.766 30.793 803.187 47.36 779.349C111.602 687.022 243.733 682.972 300.367 585.478C343.9 510.658 309.866 387.323 380.816 339.973C464.821 283.916 601.184 322.048 685.189 357.991C769.195 393.888 868.687 436.21 946.21 387.137C1041.29 326.983 1035.39 182.418 1093.56 84.0853C1117.6 43.3929 1148.03 16.7146 1184 0" id="Fill-1" fill="none" fill-rule="evenodd" stroke="#FFD5CC" stroke-opacity="0.61897784" stroke-width="1" />
            </g>
          </g>
          <path d="M96.727 1.45238C90.5714 1.45238 83.91 3.86469 77.9116 8.42193C71.3851 13.3861 66.1903 20.1347 61.1697 26.6596L59.026 29.4352C53.539 36.492 46.9479 44.3945 38.1681 48.882C34.8304 50.588 31.2314 51.768 27.7476 52.9044C23.4715 54.3053 19.0493 55.7527 15.2003 58.1767C8.85354 62.173 4.13635 69.6744 2.25959 78.7598C0.245162 88.5137 1.82973 98.5205 6.49354 105.531C16.2201 120.147 40.7978 120.217 55.1376 115.607C71.8655 110.227 85.9834 96.3058 91.9845 79.2772C93.7714 74.2113 94.9374 68.7414 96.0696 63.4518C98.1515 53.7008 100.306 43.6156 106.411 35.7043C107.33 34.5127 108.344 33.3676 109.325 32.2603C111.559 29.7346 113.668 27.3542 114.871 24.3665C116.301 20.8265 116.13 16.7023 114.388 12.7525C112.272 7.954 108.24 4.14371 103.596 2.55681C101.427 1.81568 99.1151 1.45238 96.727 1.45238M36.6425 119.813C24.7386 119.813 12.062 116.456 5.33602 106.353C0.455877 99.0204 -1.20736 88.5922 0.888543 78.4546C2.84397 68.9798 7.79435 61.1383 14.4698 56.9327C18.4621 54.4216 22.9686 52.9451 27.3234 51.521C30.7566 50.3991 34.305 49.2366 37.5472 47.5799C46.0713 43.2232 52.5388 35.4602 57.9303 28.5255L60.0712 25.7557C65.1508 19.1553 70.4018 12.3281 77.08 7.25356C85.7671 0.647303 95.8392 -1.62551 104.04 1.17627C109.044 2.88814 113.39 6.98908 115.666 12.1479C117.571 16.4698 117.751 21.0096 116.169 24.9274C114.871 28.1506 112.578 30.7373 110.362 33.2426C109.395 34.3325 108.398 35.4573 107.507 36.6141C101.607 44.2608 99.5843 53.7328 97.4406 63.7628C96.3 69.1018 95.1228 74.6211 93.305 79.7771C87.1578 97.2213 72.6915 111.48 55.5563 116.994C50.4514 118.636 43.6804 119.813 36.6425 119.813" transform="translate(1537 1867)" id="Fill-1-Copy" fill="#1D39D7" fill-rule="evenodd" stroke="#0029A9" stroke-width="0.5" />
        </g>
      </g>
    </g>
  </g>
</svg>