<?xml version="1.0" encoding="utf-8"?>
<svg width="45px" height="39px" viewBox="0 0 45 39" version="1.1" xmlns:xlink="http://www.w3.org/1999/xlink" xmlns="http://www.w3.org/2000/svg">
  <desc>Created with Lunacy</desc>
  <g id="" fill="#FFFFFF">
    <path d="M44.8776 3.89275L44.1773 3.01309C43.984 2.77057 43.6303 2.72978 43.387 2.92314L26.2202 16.4885L23.0252 12.4751C22.6751 12.0356 22.0015 12.0546 21.6766 12.5124L18.258 17.3351C16.252 17.3576 10.7205 17.6845 7.14798 20.5252C2.72674 24.0393 0 38.7579 0 38.7579C1.0814 38.805 15.1249 39.2374 19.3817 35.854C22.9627 33.0078 24.5369 27.6823 25.0059 25.7444L30.4531 23.5458C30.9762 23.3348 31.1484 22.6795 30.7976 22.238L27.6216 18.2478L44.7877 4.68233C44.9049 4.58929 45 4.39229 45 4.2426C45 4.13425 44.9452 3.97749 44.8776 3.89275ZM17.981 34.1334C16.1037 35.6255 10.286 36.5522 2.79842 36.5522L2.75626 36.5522C3.0417 35.3041 3.38626 33.9633 3.76872 32.6203L8.60552 28.7756C8.95427 28.4986 8.69135 27.9403 8.25609 28.0324L5.02316 28.7151C6.07853 25.7873 7.29705 23.2793 8.54929 22.2843C10.9118 20.4063 14.8556 19.666 17.9642 19.5858L22.7292 25.5715C22.2237 27.5079 20.8188 31.8778 17.981 34.1334ZM24.1052 23.666L20.1016 18.6365L22.0985 15.791C22.2602 15.5604 22.5985 15.5499 22.7742 15.7706L27.528 21.7422C27.7053 21.9644 27.6159 22.2942 27.3516 22.3983L24.1052 23.666Z" />
  </g>
</svg>