<?xml version="1.0" encoding="utf-8"?>
<svg width="45px" height="39px" viewBox="0 0 45 39" version="1.1" xmlns:xlink="http://www.w3.org/1999/xlink" xmlns="http://www.w3.org/2000/svg">
  <desc>Created with Lunacy</desc>
  <g id="" fill="#FFFFFF">
    <path d="M3.375 32.0508C2.75482 32.0508 2.25 31.546 2.25 30.9258L2.25 20.8008L13.5 20.8008L13.5 23.6133C13.5 24.5449 14.2559 25.3008 15.1875 25.3008L20.8125 25.3008C21.7441 25.3008 22.5 24.5449 22.5 23.6133L22.5 20.8008L25.3287 20.8008C26.036 19.9436 26.8622 19.1906 27.7734 18.5508L2.25 18.5508L2.25 12.9258C2.25 12.3056 2.75482 11.8008 3.375 11.8008L32.625 11.8008C33.2452 11.8008 33.75 12.3056 33.75 12.9258L33.75 16.3577C34.1213 16.324 34.4953 16.3008 34.875 16.3008C35.2547 16.3008 35.6287 16.324 36 16.3577L36 12.9258C36 11.0618 34.489 9.55078 32.625 9.55078L24.75 9.55078L24.75 4.48828C24.75 3.55595 23.9948 2.80078 23.0625 2.80078L12.9375 2.80078C12.0052 2.80078 11.25 3.55595 11.25 4.48828L11.25 9.55078L3.375 9.55078C1.51103 9.55078 0 11.0618 0 12.9258L0 30.9258C0 32.7897 1.51103 34.3008 3.375 34.3008L23.862 34.3008C23.5565 33.7039 23.1606 32.6959 22.9781 32.0508L3.375 32.0508ZM15.75 20.8008L20.25 20.8008L20.25 23.0508L15.75 23.0508L15.75 20.8008ZM13.5 5.05078L22.5 5.05078L22.5 9.55078L13.5 9.55078L13.5 5.05078ZM38.6923 27.5508L36 27.5508L36 23.7335C36 23.3581 35.6927 23.0508 35.3173 23.0508L34.4334 23.0508C34.058 23.0508 33.7507 23.3581 33.7507 23.7335L33.7507 29.1174C33.7507 29.4928 34.058 29.8001 34.4334 29.8001L38.6923 29.8001C39.0677 29.8001 39.375 29.4928 39.375 29.1174L39.375 28.2335C39.375 27.8581 39.0677 27.5508 38.6923 27.5508ZM34.875 18.5508C29.2788 18.5508 24.75 23.0796 24.75 28.6758C24.75 34.2719 29.2788 38.8008 34.875 38.8008C40.4712 38.8008 45 34.2719 45 28.6758C45 23.0796 40.4712 18.5508 34.875 18.5508ZM34.875 36.5508C30.5325 36.5508 27 33.0183 27 28.6758C27 24.3333 30.5325 20.8008 34.875 20.8008C39.2175 20.8008 42.75 24.3333 42.75 28.6758C42.75 33.0183 39.2175 36.5508 34.875 36.5508Z" />
  </g>
</svg>