<?xml version="1.0" encoding="utf-8"?>
<svg width="22px" height="39px" viewBox="0 0 22 39" version="1.1" xmlns:xlink="http://www.w3.org/1999/xlink" xmlns="http://www.w3.org/2000/svg">
  <desc>Created with Lunacy</desc>
  <g id="" fill="#FFFFFF">
    <path d="M10.8386 37.1441C11.4025 38.5147 12.9334 39.1577 14.2718 38.6003L16.803 37.5455C18.1699 36.976 18.8156 35.3796 18.2427 33.987L15.2326 26.6719L19.8528 26.6719C22.1921 26.6719 23.3609 23.8063 21.765 22.0952L4.55582 3.64247C2.91103 1.87868 0 3.07125 0 5.51207L0 31.875C0 34.3562 2.98347 35.5203 4.60169 33.6942L7.89148 29.9817L10.8386 37.1441ZM8.59982 25.7899L2.91776 32.202C2.66727 32.4846 2.25 32.2811 2.25 31.875L2.25 5.51207C2.25 5.11258 2.65677 4.90535 2.91035 5.17699L20.1195 23.6298C20.3886 23.9184 20.205 24.4219 19.8528 24.4219L11.8738 24.4219L16.1618 34.8432C16.2614 35.0851 16.1566 35.3774 15.9377 35.4687L13.4065 36.5234C13.209 36.6057 13.0026 36.4903 12.9195 36.288L8.59982 25.7899Z" />
  </g>
</svg>