<?xml version="1.0" encoding="utf-8"?>
<svg width="36px" height="39px" viewBox="0 0 36 39" version="1.1" xmlns:xlink="http://www.w3.org/1999/xlink" xmlns="http://www.w3.org/2000/svg">
  <desc>Created with Lunacy</desc>
  <g id="" fill="#FFFFFF">
    <path d="M32.625 5.05078L3.375 5.05078C1.51103 5.05078 0 6.56181 0 8.42578L0 33.1758C0 35.0397 1.51103 36.5508 3.375 36.5508L32.625 36.5508C34.489 36.5508 36 35.0397 36 33.1758L36 8.42578C36 6.56181 34.489 5.05078 32.625 5.05078ZM11.25 34.3008L3.375 34.3008C2.75365 34.3008 2.25 33.7971 2.25 33.1758L2.25 27.5508L11.25 27.5508L11.25 34.3008ZM11.25 25.3008L2.25 25.3008L2.25 18.5508L11.25 18.5508L11.25 25.3008ZM11.25 16.3008L2.25 16.3008L2.25 9.55078L11.25 9.55078L11.25 16.3008ZM22.5 34.3008L13.5 34.3008L13.5 27.5508L22.5 27.5508L22.5 34.3008ZM22.5 25.3008L13.5 25.3008L13.5 18.5508L22.5 18.5508L22.5 25.3008ZM22.5 16.3008L13.5 16.3008L13.5 9.55078L22.5 9.55078L22.5 16.3008ZM33.75 27.5508L33.75 33.1758C33.75 33.7971 33.2463 34.3008 32.625 34.3008L24.75 34.3008L24.75 27.5508L33.75 27.5508ZM33.75 25.3008L24.75 25.3008L24.75 18.5508L33.75 18.5508L33.75 25.3008ZM33.75 16.3008L24.75 16.3008L24.75 9.55078L33.75 9.55078L33.75 16.3008Z" />
  </g>
</svg>