<?xml version="1.0" encoding="utf-8"?>
<svg width="32px" height="39px" viewBox="0 0 32 39" version="1.1" xmlns:xlink="http://www.w3.org/1999/xlink" xmlns="http://www.w3.org/2000/svg">
  <desc>Created with Lunacy</desc>
  <g id="" fill="#FFFFFF">
    <path d="M31.5 6.17578C31.5 5.55478 30.996 5.05078 30.375 5.05078L1.125 5.05078C0.503998 5.05078 0 5.55478 0 6.17578L0 11.2383C0 11.5488 0.251999 11.8008 0.5625 11.8008L1.6875 11.8008C1.998 11.8008 2.25 11.5488 2.25 11.2383L2.25 7.30078L14.625 7.30078L14.625 34.3008L9.5625 34.3008C9.252 34.3008 9 34.5528 9 34.8633L9 35.9883C9 36.2988 9.252 36.5508 9.5625 36.5508L21.9375 36.5508C22.248 36.5508 22.5 36.2988 22.5 35.9883L22.5 34.8633C22.5 34.5528 22.248 34.3008 21.9375 34.3008L16.875 34.3008L16.875 7.30078L29.25 7.30078L29.25 11.2383C29.25 11.5488 29.502 11.8008 29.8125 11.8008L30.9375 11.8008C31.248 11.8008 31.5 11.5488 31.5 11.2383L31.5 6.17578Z" />
  </g>
</svg>