<?xml version="1.0" encoding="utf-8"?>
<svg width="27px" height="39px" viewBox="0 0 27 39" version="1.1" xmlns:xlink="http://www.w3.org/1999/xlink" xmlns="http://www.w3.org/2000/svg">
  <desc>Created with Lunacy</desc>
  <g id="" fill="#FFFFFF">
    <path d="M14.0866 2.80078C8.72102 2.80078 4.90505 5.02256 1.98248 9.36106C0.983139 10.8446 1.31747 12.8538 2.74356 13.9352L5.69909 16.1762C7.15519 17.2803 9.23909 17.0315 10.3875 15.5778C11.8973 13.6667 12.3823 13.3306 13.6311 13.3306C14.3496 13.3306 15.4093 13.8227 15.4093 14.6133C15.4093 16.4225 7.72408 16.0719 7.72408 23.2091L7.72408 24.1758C7.72408 25.3013 8.2784 26.2992 9.12778 26.9126C7.67381 28.1517 6.75 29.9952 6.75 32.0508C6.75 35.7727 9.77804 38.8008 13.5 38.8008C17.222 38.8008 20.25 35.7727 20.25 32.0508C20.25 29.9952 19.3262 28.1517 17.8722 26.9126C18.7216 26.2991 19.2759 25.3013 19.2759 24.1758L19.2759 23.845C21.0609 22.5097 26.6085 20.7158 26.6085 14.0418C26.6085 7.63779 20.2747 2.80078 14.0866 2.80078ZM13.5 36.5508C11.0187 36.5508 9 34.5321 9 32.0508C9 29.5695 11.0187 27.5508 13.5 27.5508C15.9813 27.5508 18 29.5695 18 32.0508C18 34.5321 15.9813 36.5508 13.5 36.5508ZM17.0259 23.4441L17.0259 24.1758C17.0259 24.7971 16.5223 25.3008 15.9009 25.3008L11.0991 25.3008C10.4778 25.3008 9.97408 24.7971 9.97408 24.1758L9.97408 23.2091C9.97408 17.1072 17.6593 19.1783 17.6593 14.6133C17.6593 12.3633 15.4318 11.0806 13.6311 11.0806C11.2558 11.0806 10.1741 12.2183 8.62193 14.183C8.24201 14.664 7.54726 14.7539 7.05851 14.3833L4.10298 12.1423C3.62789 11.782 3.51542 11.1126 3.84851 10.6181C6.24909 7.05462 9.30645 5.05078 14.0866 5.05078C19.0551 5.05078 24.3585 8.92909 24.3585 14.0418C24.3585 20.8308 17.0259 20.9353 17.0259 23.4441Z" />
  </g>
</svg>