<?xml version="1.0" encoding="utf-8"?>
<svg width="27px" height="39px" viewBox="0 0 27 39" version="1.1" xmlns:xlink="http://www.w3.org/1999/xlink" xmlns="http://www.w3.org/2000/svg">
  <desc>Created with Lunacy</desc>
  <g id="" fill="#FFFFFF">
    <path d="M11.1797 26.4258L8.40234 23.6484C8.07186 23.318 7.53751 23.318 7.20703 23.6484L4.46484 26.3906L4.42969 34.3008L22.4297 34.3008L22.4297 24.1758L18.5273 20.2734C18.1969 19.943 17.6625 19.943 17.332 20.2734L11.1797 26.4258ZM17.9297 22.8609L20.1797 25.1109L20.1797 32.0508L6.68669 32.0508L6.70784 27.3258L7.80469 26.2289L11.1797 29.6039C12.607 28.1766 16.643 24.1476 17.9297 22.8609ZM8.92969 20.8008C11.4117 20.8008 13.4297 18.7828 13.4297 16.3008C13.4297 13.8188 11.4117 11.8008 8.92969 11.8008C6.44767 11.8008 4.42969 13.8188 4.42969 16.3008C4.42969 18.7828 6.44767 20.8008 8.92969 20.8008ZM8.92969 14.0508C10.1672 14.0508 11.1797 15.0633 11.1797 16.3008C11.1797 17.5383 10.1672 18.5508 8.92969 18.5508C7.69221 18.5508 6.67969 17.5383 6.67969 16.3008C6.67969 15.0633 7.69221 14.0508 8.92969 14.0508ZM26.0086 9.6844L20.1094 3.78516C19.4766 3.15234 18.6187 2.79378 17.7258 2.79378L3.375 2.79378C1.51172 2.80078 0 4.3125 0 6.17578L0 35.4258C0 37.2891 1.51172 38.8008 3.375 38.8008L23.625 38.8008C25.4883 38.8008 27 37.2891 27 35.4258L27 12.075C27 11.182 26.6414 10.3172 26.0086 9.6844ZM18 5.08594C18.1969 5.13517 18.3726 5.23357 18.5203 5.38126L24.4195 11.2804C24.5672 11.4281 24.6656 11.6039 24.7148 11.8008L18 11.8008L18 5.08594ZM24.75 35.4258C24.75 36.0445 24.2437 36.5508 23.625 36.5508L3.375 36.5508C2.75626 36.5508 2.25 36.0445 2.25 35.4258L2.25 6.17578C2.25 5.55704 2.75626 5.05078 3.375 5.05078L15.75 5.05078L15.75 12.3633C15.75 13.2984 16.5024 14.0508 17.4375 14.0508L24.75 14.0508L24.75 35.4258Z" />
  </g>
</svg>