<?xml version="1.0" encoding="utf-8"?>
<svg width="32px" height="39px" viewBox="0 0 32 39" version="1.1" xmlns:xlink="http://www.w3.org/1999/xlink" xmlns="http://www.w3.org/2000/svg">
  <desc>Created with Lunacy</desc>
  <g id="" fill="#FFFFFF">
    <path d="M28.125 5.05078L3.375 5.05078C1.51103 5.05078 0 6.56181 0 8.42578L0 33.1758C0 35.0397 1.51103 36.5508 3.375 36.5508L28.125 36.5508C29.989 36.5508 31.5 35.0397 31.5 33.1758L31.5 8.42578C31.5 6.56181 29.989 5.05078 28.125 5.05078ZM29.25 33.1758C29.25 33.7961 28.7453 34.3008 28.125 34.3008L3.375 34.3008C2.75468 34.3008 2.25 33.7961 2.25 33.1758L2.25 8.42578C2.25 7.80547 2.75468 7.30078 3.375 7.30078L28.125 7.30078C28.7453 7.30078 29.25 7.80547 29.25 8.42578L29.25 33.1758ZM15.75 26.707C14.6627 26.707 13.7813 27.5885 13.7813 28.6758C13.7813 29.7631 14.6627 30.6445 15.75 30.6445C16.8373 30.6445 17.7188 29.7631 17.7188 28.6758C17.7188 27.5885 16.8373 26.707 15.75 26.707ZM16.2893 25.0195C16.7552 25.0195 17.133 24.6417 17.133 24.1758L17.133 24.149C17.133 21.0862 22.5781 21.3369 22.5781 16.5969C22.5781 13.0489 19.4056 10.957 15.7268 10.957C12.5748 10.957 10.8041 12.1885 9.3116 14.1029C9.01524 14.483 9.1021 15.0351 9.49761 15.3106L10.4211 15.954C10.7863 16.2084 11.2887 16.1371 11.5635 15.787C12.6144 14.448 13.6776 13.7695 15.7268 13.7695C18.5167 13.7695 19.7656 15.1895 19.7656 16.5969C19.7656 19.6758 14.3205 19.203 14.3205 24.149L14.3205 24.1758C14.3205 24.6417 14.6983 25.0195 15.1643 25.0195L16.2893 25.0195Z" />
  </g>
</svg>