<?xml version="1.0" encoding="utf-8"?>
<svg width="36px" height="39px" viewBox="0 0 36 39" version="1.1" xmlns:xlink="http://www.w3.org/1999/xlink" xmlns="http://www.w3.org/2000/svg">
  <desc>Created with Lunacy</desc>
  <g id="" fill="#FFFFFF">
    <path d="M29.25 7.30078L33.1875 7.30078C33.498 7.30078 33.75 7.04878 33.75 6.73828L33.75 5.61328C33.75 5.30278 33.498 5.05078 33.1875 5.05078L23.0625 5.05078C22.752 5.05078 22.5 5.30278 22.5 5.61328L22.5 6.73828C22.5 7.04878 22.752 7.30078 23.0625 7.30078L27 7.30078L27 19.6758L9 19.6758L9 7.30078L12.9375 7.30078C13.248 7.30078 13.5 7.04878 13.5 6.73828L13.5 5.61328C13.5 5.30278 13.248 5.05078 12.9375 5.05078L2.8125 5.05078C2.502 5.05078 2.25 5.30278 2.25 5.61328L2.25 6.73828C2.25 7.04878 2.502 7.30078 2.8125 7.30078L6.75 7.30078L6.75 34.3008L2.8125 34.3008C2.502 34.3008 2.25 34.5528 2.25 34.8633L2.25 35.9883C2.25 36.2988 2.502 36.5508 2.8125 36.5508L12.9375 36.5508C13.248 36.5508 13.5 36.2988 13.5 35.9883L13.5 34.8633C13.5 34.5528 13.248 34.3008 12.9375 34.3008L9 34.3008L9 21.9258L27 21.9258L27 34.3008L23.0625 34.3008C22.752 34.3008 22.5 34.5528 22.5 34.8633L22.5 35.9883C22.5 36.2988 22.752 36.5508 23.0625 36.5508L33.1875 36.5508C33.498 36.5508 33.75 36.2988 33.75 35.9883L33.75 34.8633C33.75 34.5528 33.498 34.3008 33.1875 34.3008L29.25 34.3008L29.25 7.30078Z" />
  </g>
</svg>