<?xml version="1.0" encoding="utf-8"?>
<svg width="32px" height="39px" viewBox="0 0 32 39" version="1.1" xmlns:xlink="http://www.w3.org/1999/xlink" xmlns="http://www.w3.org/2000/svg">
  <desc>Created with Lunacy</desc>
  <g id="" fill="#FFFFFF">
    <path d="M30.375 5.05078L1.125 5.05078C0.503998 5.05078 0 5.55478 0 6.17578L0 35.4258C0 36.0468 0.503998 36.5508 1.125 36.5508L30.375 36.5508C30.996 36.5508 31.5 36.0468 31.5 35.4258L31.5 6.17578C31.5 5.55478 30.996 5.05078 30.375 5.05078ZM2.25 7.30078L14.625 7.30078L14.625 19.6758L2.25 19.6758L2.25 7.30078ZM2.25 34.3008L2.25 21.9258L14.625 21.9258L14.625 34.3008L2.25 34.3008ZM29.25 34.3008L16.875 34.3008L16.875 21.9258L29.25 21.9258L29.25 34.3008ZM29.25 19.6758L16.875 19.6758L16.875 7.30078L29.25 7.30078L29.25 19.6758Z" />
  </g>
</svg>