<?xml version="1.0" encoding="utf-8"?>
<svg width="45px" height="39px" viewBox="0 0 45 39" version="1.1" xmlns:xlink="http://www.w3.org/1999/xlink" xmlns="http://www.w3.org/2000/svg">
  <desc>Created with Lunacy</desc>
  <g id="" fill="#FFFFFF">
    <path d="M28.125 23.0508C29.3674 23.0508 30.375 22.0432 30.375 20.8008C30.375 19.5584 29.3674 18.5508 28.125 18.5508C26.8826 18.5508 25.875 19.5584 25.875 20.8008C25.875 22.0432 26.8826 23.0508 28.125 23.0508ZM44.4375 36.5508L36 36.5508L36 5.05078C36 3.80836 34.9924 2.80078 33.75 2.80078L11.25 2.80078C10.0076 2.80078 9 3.80836 9 5.05078L9 36.5508L0.5625 36.5508C0.251724 36.5508 0 36.8025 0 37.1133L0 38.2383C0 38.5491 0.251724 38.8008 0.5625 38.8008L44.4375 38.8008C44.7483 38.8008 45 38.5491 45 38.2383L45 37.1133C45 36.8025 44.7483 36.5508 44.4375 36.5508ZM33.75 36.5508L11.25 36.5508L11.25 5.05078L33.75 5.05078L33.75 36.5508Z" />
  </g>
</svg>