<?xml version="1.0" encoding="utf-8"?>
<svg width="32px" height="15px" viewBox="0 0 32 15" version="1.1" xmlns:xlink="http://www.w3.org/1999/xlink" xmlns="http://www.w3.org/2000/svg">
  <desc>Created with Lunacy</desc>
  <g id="Group-4">
    <path d="M2.25 12.282L29.25 12.282L29.25 2.25L2.25 2.25L2.25 12.282ZM31.5 1.345L31.5 1.345L31.5 0.562C31.5 0.188 31.312 0 30.938 0L0.563 0C0.187 0 0 0.188 0 0.562L0 1.345L0 13.187L0 13.188L0 13.97C0 14.346 0.187 14.532 0.563 14.532L30.938 14.532C31.312 14.532 31.5 14.346 31.5 13.97L31.5 13.187L31.5 1.345Z" id="Fill-1" fill="#263DDC" fill-rule="evenodd" stroke="none" />
    <path d="M5.309 0.316C5.098 0.105 4.828 0 4.5 0L1.125 0C0.797 0 0.528 0.105 0.317 0.316C0.106 0.527 0 0.796 0 1.125L0 4.5C0 4.828 0.106 5.097 0.317 5.308C0.528 5.519 0.797 5.625 1.125 5.625L4.5 5.625C4.828 5.625 5.098 5.519 5.309 5.308C5.52 5.097 5.625 4.828 5.625 4.5L5.625 1.125C5.625 0.796 5.52 0.527 5.309 0.316" transform="translate(4.886963 4.45459)" id="Fill-3" fill="#263DDC" fill-rule="evenodd" stroke="none" />
  </g>
</svg>