<?xml version="1.0" encoding="utf-8"?>
<svg width="36px" height="39px" viewBox="0 0 36 39" version="1.1" xmlns:xlink="http://www.w3.org/1999/xlink" xmlns="http://www.w3.org/2000/svg">
  <desc>Created with Lunacy</desc>
  <g id="" fill="#FFFFFF">
    <path d="M32.625 7.30078C33.2454 7.30078 33.75 7.80547 33.75 8.42578L33.75 33.1758C33.75 33.7961 33.2454 34.3008 32.625 34.3008L3.375 34.3008C2.75462 34.3008 2.25 33.7961 2.25 33.1758L2.25 8.42578C2.25 7.80547 2.75462 7.30078 3.375 7.30078L32.625 7.30078ZM32.625 5.05078L3.375 5.05078C1.51103 5.05078 0 6.56181 0 8.42578L0 33.1758C0 35.0397 1.51103 36.5508 3.375 36.5508L32.625 36.5508C34.489 36.5508 36 35.0397 36 33.1758L36 8.42578C36 6.56181 34.489 5.05078 32.625 5.05078ZM9 11.8008C7.75738 11.8008 6.75 12.8082 6.75 14.0508C6.75 15.2934 7.75738 16.3008 9 16.3008C10.2426 16.3008 11.25 15.2934 11.25 14.0508C11.25 12.8082 10.2426 11.8008 9 11.8008ZM9 18.5508C7.75738 18.5508 6.75 19.5582 6.75 20.8008C6.75 22.0434 7.75738 23.0508 9 23.0508C10.2426 23.0508 11.25 22.0434 11.25 20.8008C11.25 19.5582 10.2426 18.5508 9 18.5508ZM9 25.3008C7.75738 25.3008 6.75 26.3082 6.75 27.5508C6.75 28.7934 7.75738 29.8008 9 29.8008C10.2426 29.8008 11.25 28.7934 11.25 27.5508C11.25 26.3082 10.2426 25.3008 9 25.3008ZM29.25 14.8945L29.25 13.207C29.25 12.9742 29.061 12.7852 28.8281 12.7852L13.9219 12.7852C13.689 12.7852 13.5 12.9742 13.5 13.207L13.5 14.8945C13.5 15.1274 13.689 15.3164 13.9219 15.3164L28.8281 15.3164C29.061 15.3164 29.25 15.1274 29.25 14.8945ZM29.25 21.6445L29.25 19.957C29.25 19.7242 29.061 19.5352 28.8281 19.5352L13.9219 19.5352C13.689 19.5352 13.5 19.7242 13.5 19.957L13.5 21.6445C13.5 21.8774 13.689 22.0664 13.9219 22.0664L28.8281 22.0664C29.061 22.0664 29.25 21.8774 29.25 21.6445ZM29.25 28.3945L29.25 26.707C29.25 26.4742 29.061 26.2852 28.8281 26.2852L13.9219 26.2852C13.689 26.2852 13.5 26.4742 13.5 26.707L13.5 28.3945C13.5 28.6274 13.689 28.8164 13.9219 28.8164L28.8281 28.8164C29.061 28.8164 29.25 28.6274 29.25 28.3945Z" />
  </g>
</svg>