<?xml version="1.0" encoding="utf-8"?>
<svg width="36px" height="39px" viewBox="0 0 36 39" version="1.1" xmlns:xlink="http://www.w3.org/1999/xlink" xmlns="http://www.w3.org/2000/svg">
  <desc>Created with Lunacy</desc>
  <g id="" fill="#FFFFFF">
    <path d="M6.1875 6.73828L2.8125 6.73828C2.1915 6.73828 1.6875 7.24228 1.6875 7.86328L1.6875 11.2383C1.6875 11.8593 2.1915 12.3633 2.8125 12.3633L6.1875 12.3633C6.8085 12.3633 7.3125 11.8593 7.3125 11.2383L7.3125 7.86328C7.3125 7.24228 6.8085 6.73828 6.1875 6.73828ZM6.1875 17.9883L2.8125 17.9883C2.1915 17.9883 1.6875 18.4923 1.6875 19.1133L1.6875 22.4883C1.6875 23.1093 2.1915 23.6133 2.8125 23.6133L6.1875 23.6133C6.8085 23.6133 7.3125 23.1093 7.3125 22.4883L7.3125 19.1133C7.3125 18.4923 6.8085 17.9883 6.1875 17.9883ZM6.1875 29.2383L2.8125 29.2383C2.1915 29.2383 1.6875 29.7423 1.6875 30.3633L1.6875 33.7383C1.6875 34.3593 2.1915 34.8633 2.8125 34.8633L6.1875 34.8633C6.8085 34.8633 7.3125 34.3593 7.3125 33.7383L7.3125 30.3633C7.3125 29.7423 6.8085 29.2383 6.1875 29.2383ZM35.4375 30.9258L11.8125 30.9258C11.502 30.9258 11.25 31.1778 11.25 31.4883L11.25 32.6133C11.25 32.9238 11.502 33.1758 11.8125 33.1758L35.4375 33.1758C35.748 33.1758 36 32.9238 36 32.6133L36 31.4883C36 31.1778 35.748 30.9258 35.4375 30.9258ZM35.4375 8.42578L11.8125 8.42578C11.502 8.42578 11.25 8.67778 11.25 8.98828L11.25 10.1133C11.25 10.4238 11.502 10.6758 11.8125 10.6758L35.4375 10.6758C35.748 10.6758 36 10.4238 36 10.1133L36 8.98828C36 8.67778 35.748 8.42578 35.4375 8.42578ZM35.4375 19.6758L11.8125 19.6758C11.502 19.6758 11.25 19.9278 11.25 20.2383L11.25 21.3633C11.25 21.6738 11.502 21.9258 11.8125 21.9258L35.4375 21.9258C35.748 21.9258 36 21.6738 36 21.3633L36 20.2383C36 19.9278 35.748 19.6758 35.4375 19.6758Z" />
  </g>
</svg>