<?xml version="1.0" encoding="utf-8"?>
<svg width="45px" height="39px" viewBox="0 0 45 39" version="1.1" xmlns:xlink="http://www.w3.org/1999/xlink" xmlns="http://www.w3.org/2000/svg">
  <desc>Created with Lunacy</desc>
  <g id="" fill="#FFFFFF">
    <path d="M42.75 2.80078L11.25 2.80078C10.0076 2.80078 9 3.72398 9 4.86305L9 11.8008L18 11.8008L18 5.05078L36 5.05078L36 25.3008L33.75 25.3008L33.75 27.5508L42.75 27.5508C43.9924 27.5508 45 26.6276 45 25.4885L45 4.86305C45 3.72398 43.9924 2.80078 42.75 2.80078ZM15.75 9.55078L11.25 9.55078L11.25 5.05078L15.75 5.05078L15.75 9.55078ZM42.75 25.3008L38.25 25.3008L38.25 20.8008L42.75 20.8008L42.75 25.3008ZM42.75 18.5508L38.25 18.5508L38.25 11.8008L42.75 11.8008L42.75 18.5508ZM42.75 9.55078L38.25 9.55078L38.25 5.05078L42.75 5.05078L42.75 9.55078ZM29.25 14.0508L2.25 14.0508C1.008 14.0508 0 15.0588 0 16.3008L0 36.5508C0 37.7928 1.008 38.8008 2.25 38.8008L29.25 38.8008C30.492 38.8008 31.5 37.7928 31.5 36.5508L31.5 16.3008C31.5 15.0588 30.492 14.0508 29.25 14.0508ZM29.25 36.5508L2.25 36.5508L2.25 34.8633L7.99386 30.556L13.6189 33.3685L22.5373 26.6789L29.25 31.1529L29.25 36.5508ZM29.25 28.4486L22.4627 23.9234L13.3811 30.7338L7.75614 27.9213L2.25 32.0508L2.25 16.3008L29.25 16.3008L29.25 28.4486ZM7.875 25.3008C9.73801 25.3008 11.25 23.7888 11.25 21.9258C11.25 20.0628 9.73801 18.5508 7.875 18.5508C6.01199 18.5508 4.5 20.0628 4.5 21.9258C4.5 23.7888 6.01199 25.3008 7.875 25.3008ZM7.875 20.8008C8.496 20.8008 9 21.3048 9 21.9258C9 22.5468 8.496 23.0508 7.875 23.0508C7.254 23.0508 6.75 22.5468 6.75 21.9258C6.75 21.3048 7.254 20.8008 7.875 20.8008Z" />
  </g>
</svg>