<?xml version="1.0" encoding="utf-8"?>
<svg width="35px" height="42px" viewBox="0 0 35 42" version="1.1" xmlns:xlink="http://www.w3.org/1999/xlink" xmlns="http://www.w3.org/2000/svg">
  <desc>Created with Lunacy</desc>
  <g id="2911229">
    <path d="M4.3008 41.2877L30.1056 41.2877C32.4762 41.2877 34.4064 39.3575 34.4064 36.9869L34.4064 4.3008C34.4064 1.9302 32.4762 0 30.1056 0L4.3008 0C1.9302 0 0 1.9302 0 4.3008L0 36.9869C0 39.3575 1.9302 41.2877 4.3008 41.2877ZM1.72032 4.3008C1.72032 2.8781 2.8781 1.72032 4.3008 1.72032L30.1056 1.72032C31.5283 1.72032 32.6861 2.8781 32.6861 4.3008L32.6861 36.9869C32.6861 38.4096 31.5283 39.5674 30.1056 39.5674L4.3008 39.5674C2.8781 39.5674 1.72032 38.4096 1.72032 36.9869L1.72032 4.3008Z" id="Shape" fill="#263DDC" fill-rule="evenodd" stroke="none" />
    <path d="M0.86016 22.3642L23.2243 22.3642C23.6991 22.3642 24.0845 21.9788 24.0845 21.504L24.0845 0.86016C24.0845 0.385352 23.6991 0 23.2243 0L0.86016 0C0.385352 0 0 0.385352 0 0.86016L0 21.504C0 21.9788 0.385352 22.3642 0.86016 22.3642ZM22.3642 20.6438L1.72032 20.6438L1.72032 1.72032L22.3642 1.72032L22.3642 20.6438Z" transform="translate(5.16096 13.76256)" id="Shape" fill="#263DDC" fill-rule="evenodd" stroke="none" />
    <path d="M0.86016 22.3642C0.385352 22.3642 0 21.9788 0 21.504L0 0.86016C0 0.385352 0.385352 0 0.86016 0C1.33497 0 1.72032 0.385352 1.72032 0.86016L1.72032 21.504C1.72032 21.9788 1.33497 22.3642 0.86016 22.3642Z" transform="translate(12.04224 13.76256)" id="Path" fill="#263DDC" stroke="none" />
    <path d="M23.2243 1.72032L0.86016 1.72032C0.385352 1.72032 0 1.33497 0 0.86016C0 0.385352 0.385352 0 0.86016 0L23.2243 0C23.6991 0 24.0845 0.385352 24.0845 0.86016C24.0845 1.33497 23.6991 1.72032 23.2243 1.72032Z" transform="translate(5.16096 18.92352)" id="Path" fill="#263DDC" stroke="none" />
    <path d="M23.2243 1.72032L0.86016 1.72032C0.385352 1.72032 0 1.33497 0 0.86016C0 0.385352 0.385352 0 0.86016 0L23.2243 0C23.6991 0 24.0845 0.385352 24.0845 0.86016C24.0845 1.33497 23.6991 1.72032 23.2243 1.72032Z" transform="translate(5.16096 24.08448)" id="Path" fill="#263DDC" stroke="none" />
    <path d="M23.2243 1.72032L0.86016 1.72032C0.385352 1.72032 0 1.33497 0 0.86016C0 0.385352 0.385352 0 0.86016 0L23.2243 0C23.6991 0 24.0845 0.385352 24.0845 0.86016C24.0845 1.33497 23.6991 1.72032 23.2243 1.72032Z" transform="translate(5.16096 29.24544)" id="Path" fill="#263DDC" stroke="none" />
  </g>
</svg>