<?xml version="1.0" encoding="utf-8"?>
<svg width="45px" height="39px" viewBox="0 0 45 39" version="1.1" xmlns:xlink="http://www.w3.org/1999/xlink" xmlns="http://www.w3.org/2000/svg">
  <desc>Created with Lunacy</desc>
  <g id="" fill="#FFFFFF">
    <path d="M38.25 18.5508C35.1422 18.5508 32.625 21.068 32.625 24.1758C32.625 27.2836 35.1422 29.8008 38.25 29.8008C41.3578 29.8008 43.875 27.2836 43.875 24.1758C43.875 21.068 41.3578 18.5508 38.25 18.5508ZM38.25 27.5508C36.3867 27.5508 34.875 26.0391 34.875 24.1758C34.875 22.3125 36.3867 20.8008 38.25 20.8008C40.1133 20.8008 41.625 22.3125 41.625 24.1758C41.625 26.0391 40.1133 27.5508 38.25 27.5508ZM16.875 24.1758C16.875 27.2836 19.3922 29.8008 22.5 29.8008C25.6078 29.8008 28.125 27.2836 28.125 24.1758C28.125 21.068 25.6078 18.5508 22.5 18.5508C19.3922 18.5508 16.875 21.068 16.875 24.1758ZM25.875 24.1758C25.875 26.0391 24.3633 27.5508 22.5 27.5508C20.6367 27.5508 19.125 26.0391 19.125 24.1758C19.125 22.3125 20.6367 20.8008 22.5 20.8008C24.3633 20.8008 25.875 22.3125 25.875 24.1758ZM6.75 29.8008C9.85783 29.8008 12.375 27.2836 12.375 24.1758C12.375 21.068 9.85783 18.5508 6.75 18.5508C3.64217 18.5508 1.125 21.068 1.125 24.1758C1.125 27.2836 3.64217 29.8008 6.75 29.8008ZM6.75 20.8008C8.61328 20.8008 10.125 22.3125 10.125 24.1758C10.125 26.0391 8.61328 27.5508 6.75 27.5508C4.88672 27.5508 3.375 26.0391 3.375 24.1758C3.375 22.3125 4.88672 20.8008 6.75 20.8008ZM39.6563 32.0508L36.8438 32.0508C33.8976 32.0508 31.5 34.575 31.5 37.6758C31.5 38.2945 32.0063 38.8008 32.625 38.8008C33.2437 38.8008 33.75 38.2945 33.75 37.6758C33.75 35.8125 35.1422 34.3008 36.8438 34.3008L39.6563 34.3008C41.3578 34.3008 42.75 35.8125 42.75 37.6758C42.75 38.2945 43.2563 38.8008 43.875 38.8008C44.4937 38.8008 45 38.2945 45 37.6758C45 34.575 42.6024 32.0508 39.6563 32.0508ZM8.15625 32.0508L5.34375 32.0508C2.39763 32.0508 0 34.575 0 37.6758C0 38.2945 0.506264 38.8008 1.125 38.8008C1.74374 38.8008 2.25 38.2945 2.25 37.6758C2.25 35.8125 3.64217 34.3008 5.34375 34.3008L8.15625 34.3008C9.85783 34.3008 11.25 35.8125 11.25 37.6758C11.25 38.2945 11.7563 38.8008 12.375 38.8008C12.9937 38.8008 13.5 38.2945 13.5 37.6758C13.5 34.575 11.1024 32.0508 8.15625 32.0508ZM23.9063 32.0508L21.0938 32.0508C18.1476 32.0508 15.75 34.575 15.75 37.6758C15.75 38.2945 16.2563 38.8008 16.875 38.8008C17.4937 38.8008 18 38.2945 18 37.6758C18 35.8125 19.3922 34.3008 21.0938 34.3008L23.9063 34.3008C25.6078 34.3008 27 35.8125 27 37.6758C27 38.2945 27.5063 38.8008 28.125 38.8008C28.7437 38.8008 29.25 38.2945 29.25 37.6758C29.25 34.575 26.8524 32.0508 23.9063 32.0508ZM4.5 6.17578C4.5 5.55492 5.00558 5.05078 5.625 5.05078L39.375 5.05078C39.9944 5.05078 40.5 5.55492 40.5 6.17578L40.5 16.6678C41.3093 16.9111 42.0729 17.2556 42.75 17.7302L42.75 6.17578C42.75 4.31463 41.2362 2.80078 39.375 2.80078L5.625 2.80078C3.76385 2.80078 2.25 4.31463 2.25 6.17578L2.25 17.7302C2.9271 17.2556 3.69072 16.9118 4.5 16.6678L4.5 6.17578Z" />
  </g>
</svg>