<?xml version="1.0" encoding="utf-8"?>
<svg width="36px" height="39px" viewBox="0 0 36 39" version="1.1" xmlns:xlink="http://www.w3.org/1999/xlink" xmlns="http://www.w3.org/2000/svg">
  <desc>Created with Lunacy</desc>
  <g id="ïª" fill="#FFFFFF">
    <path d="M18 5.61328C26.3405 5.61328 33.1875 12.3686 33.1875 20.8008C33.1875 29.1884 26.3946 35.9883 18 35.9883C9.61565 35.9883 2.8125 29.1988 2.8125 20.8008C2.8125 12.4193 9.6048 5.61328 18 5.61328ZM18 3.36328C8.37021 3.36328 0.5625 11.1738 0.5625 20.8008C0.5625 30.4334 8.37021 38.2383 18 38.2383C27.6298 38.2383 35.4375 30.4334 35.4375 20.8008C35.4375 11.1738 27.6298 3.36328 18 3.36328ZM17.1921 11.8008C16.7123 11.8008 16.3292 12.2003 16.349 12.6797L16.8412 24.4922C16.8601 24.9441 17.232 25.3008 17.6843 25.3008L18.3157 25.3008C18.768 25.3008 19.1398 24.9441 19.1586 24.4922L19.6508 12.6797C19.6708 12.2003 19.2875 11.8008 18.8078 11.8008L17.1921 11.8008ZM18 26.707C16.9127 26.707 16.0313 27.5885 16.0313 28.6758C16.0313 29.7631 16.9127 30.6445 18 30.6445C19.0873 30.6445 19.9688 29.7631 19.9688 28.6758C19.9688 27.5885 19.0873 26.707 18 26.707Z" />
  </g>
</svg>