<?xml version="1.0" encoding="utf-8"?>
<svg width="135px" height="117px" viewBox="0 0 135 117" version="1.1" xmlns:xlink="http://www.w3.org/1999/xlink" xmlns="http://www.w3.org/2000/svg">
  <desc>Created with Lunacy</desc>
  <g id="Group-5">
    <path d="M72.3613 0.139991C81.2457 1.36463 88.1744 10.9947 86.8334 19.6785C85.4365 28.3623 75.7698 36.0442 68.5617 42.1117C61.3537 48.1792 56.66 52.5768 49.5078 58.9226C42.3556 65.3242 32.689 73.6183 26.5426 71.7257C20.3403 69.8331 17.6582 57.698 12.5176 47.6226C7.37694 37.4915 -0.110517 29.3643 0.00123655 21.5712C0.168866 13.778 7.99158 6.26318 16.2613 4.92721C24.531 3.59125 33.3036 8.43413 43.082 7.26516C52.8046 6.09619 63.5329 -1.08465 72.3613 0.139991Z" id="Path" fill="#E9F0F9" fill-rule="evenodd" stroke="none" />
    <g id="1336790" transform="translate(23.126465 20)">
      <path d="M64.3302 51.3932L13.687 51.3932C9.72945 51.3884 6.52252 48.1815 6.51713 44.2253L6.51713 0C2.82825 0.3402 0.00405009 3.43305 0 7.1388L0 50.7418C0.00472504 54.6986 3.21165 57.9055 7.1685 57.9103L62.6035 57.9103L64.3302 51.3932Z" transform="translate(11.873047 0.9112549)" id="Path" fill="#E9F0F9" fill-rule="evenodd" stroke="none" />
      <path d="M4.91127e-15 0L3.02198 0L3.02198 0.459675L0 0.459675L4.91127e-15 0Z" transform="translate(43.174805 59.441162)" id="Path" fill="#0635C9" fill-rule="evenodd" stroke="none" />
      <g id="Group" transform="translate(0 5.381836)">
        <path d="M83.5434 16.3026L80.2899 16.3026L80.2899 13.0579C80.2879 10.3228 78.0698 8.10472 75.334 8.10203L46.197 8.10203L46.197 0L43.175 0L43.175 8.10203L14.0387 8.10203C11.3022 8.10472 9.0855 10.3228 9.08212 13.0579L9.08212 16.3026L5.82862 16.3026C2.61157 16.306 0.00337496 18.9135 0 22.1312L0 31.0392C0.00337496 34.2563 2.61157 36.8644 5.82862 36.8678L15.0599 36.8678C18.2777 36.8644 20.8852 34.2563 20.8885 31.0392L20.8885 22.1312C20.8852 18.9135 18.2777 16.306 15.0599 16.3026L12.1041 16.3026L12.1041 13.0579C12.1061 11.9907 12.9708 11.1253 14.0387 11.1247L43.175 11.1247L43.175 16.3026L40.0707 16.3026C36.853 16.306 34.2454 18.9135 34.2421 22.1312L34.2421 31.0392C34.2454 34.2563 36.853 36.8644 40.0707 36.8678L49.302 36.8678C52.5191 36.8644 55.1273 34.2563 55.1306 31.0392L55.1306 22.1312C55.1273 18.9135 52.5191 16.306 49.302 16.3026L46.197 16.3026L46.197 11.1247L75.334 11.1247C76.4019 11.1253 77.2673 11.9907 77.2679 13.0579L77.2679 16.3026L74.3135 16.3026C71.095 16.306 68.4882 18.9135 68.4848 22.1312L68.4848 31.0392C68.4882 34.2563 71.095 36.8644 74.3135 36.8678L83.5434 36.8678C86.7611 36.8644 89.3686 34.2563 89.372 31.0392L89.372 22.1312C89.3686 18.9135 86.7611 16.306 83.5434 16.3026L83.5434 16.3026ZM15.0599 19.3252C16.609 19.3265 17.8645 20.5827 17.8659 22.1312L17.8659 31.0391C17.8645 32.5876 16.609 33.8438 15.0599 33.8451L5.82862 33.8451C4.2795 33.8438 3.024 32.5876 3.02197 31.0391L3.02197 22.1312C3.024 20.5827 4.2795 19.3265 5.82862 19.3252L15.0599 19.3252ZM49.3019 19.3252C50.851 19.3265 52.1065 20.5827 52.1086 22.1312L52.1086 31.0391C52.1065 32.5876 50.851 33.8438 49.3019 33.8451L40.0706 33.8451C38.5215 33.8438 37.266 32.5876 37.2646 31.0391L37.2646 22.1312C37.266 20.5827 38.5215 19.3265 40.0706 19.3252L49.3019 19.3252ZM86.3501 31.0391C86.3487 32.5876 85.0932 33.8438 83.5434 33.8451L74.3135 33.8451C72.763 33.8438 71.5075 32.5876 71.5068 31.0391L71.5068 22.1312C71.5075 20.5827 72.763 19.3265 74.3135 19.3252L83.5434 19.3252C85.0932 19.3265 86.3487 20.5827 86.3501 22.1312L86.3501 31.0391Z" transform="translate(0 54.519043)" id="Shape" fill="#FE7C77" stroke="none" />
        <path d="M9.52156 0.429743L4.76686 5.07239L2.59674 2.95492C2.21401 2.56072 1.64769 2.40344 1.11646 2.54789C0.585912 2.69099 0.174837 3.11219 0.0438867 3.64544C-0.0877384 4.17937 0.0816867 4.74299 0.485337 5.11627L3.71116 8.26582C4.29774 8.83889 5.23464 8.83889 5.82189 8.26582L11.6336 2.59244C12.2303 2.00992 12.2425 1.05277 11.6593 0.455393C11.0761 -0.141982 10.1196 -0.152782 9.52156 0.429743L9.52156 0.429743Z" transform="translate(72.86865 76.75647)" id="Path" fill="#FE7C77" fill-rule="evenodd" stroke="none" />
        <path d="M0.485458 5.11627L3.71061 8.26582C4.29786 8.83889 5.23543 8.83889 5.82268 8.26582L11.6331 2.59244C12.2311 2.00992 12.2419 1.05277 11.6594 0.455393C11.0769 -0.141982 10.1197 -0.152782 9.52236 0.429743L4.76631 5.07239L2.59686 2.95492C2.21413 2.56072 1.64713 2.40344 1.11726 2.54789C0.586033 2.69099 0.174958 3.11219 0.0433329 3.64544C-0.086942 4.17937 0.0811329 4.74299 0.485458 5.11627L0.485458 5.11627Z" transform="translate(38.626465 76.75647)" id="Path" fill="#FE7C77" fill-rule="evenodd" stroke="none" />
        <path d="M3.9096 4.88578e-06C1.75365 -0.00337007 0.00270489 1.74218 4.88577e-06 3.8988C-0.00337007 6.05475 1.74218 7.8057 3.8988 7.80908L3.91163 7.80908C6.06758 7.8111 7.81853 6.06556 7.8219 3.90961C7.82393 1.75365 6.07838 0.00337984 3.92243 4.88578e-06L3.9096 4.88578e-06ZM4.7926 3.9056C4.7926 4.39228 4.39772 4.78648 3.91172 4.78648L3.907 4.78648C3.67345 4.7858 3.44935 4.69198 3.28465 4.52593C3.11995 4.35988 3.02747 4.13511 3.02882 3.90088C3.03017 3.41556 3.42437 3.02271 3.9097 3.02271L3.91375 3.02271C4.40042 3.02338 4.79327 3.41893 4.7926 3.9056Z" transform="translate(36.93164 0.068847656)" id="Shape" fill="#FE7C77" stroke="none" />
        <path d="M3.92311 4.88766e-06L3.91028 4.88766e-06C1.75433 -0.00337007 0.00338199 1.7415 7.03303e-06 3.89745C-0.00404288 6.05408 1.74151 7.80435 3.89746 7.8084L3.91028 7.8084C6.06218 7.80975 7.80976 6.06825 7.81583 3.91635L7.81583 3.90353C7.81246 1.75298 6.07298 0.00945497 3.92311 4.88766e-06ZM4.53192 4.5306C4.36654 4.6953 4.14312 4.7871 3.91024 4.78642L3.90889 4.78642C3.42154 4.78575 3.02667 4.3902 3.02734 3.90352C3.02802 3.41617 3.42357 3.0213 3.91024 3.02197L3.91294 3.02197C4.39962 3.02467 4.79314 3.42022 4.79314 3.90757C4.79382 4.14247 4.69932 4.36725 4.53192 4.5306Z" transform="translate(26.180176 0.034423828)" id="Shape" fill="#FE7C77" stroke="none" />
        <path d="M3.91096 4.88578e-06C1.75501 -0.00337007 0.00338199 1.74218 7.03303e-06 3.89813C-0.00404288 6.05543 1.74151 7.80705 3.89813 7.81043L3.91096 7.81043C6.06826 7.81381 7.81921 6.06825 7.82258 3.91163C7.82596 1.755 6.08041 0.00337984 3.92446 4.88578e-06L3.91096 4.88578e-06ZM4.79382 3.90757C4.79247 4.39357 4.39759 4.7871 3.91092 4.78777L3.90957 4.78777C3.42087 4.7871 3.02667 4.39155 3.02734 3.9042C3.02802 3.41685 3.42357 3.0213 3.91092 3.02197L3.91362 3.02197C4.14784 3.024 4.37127 3.11715 4.53732 3.28387C4.70269 3.44857 4.79584 3.67335 4.79382 3.90757Z" transform="translate(15.428711 0)" id="Shape" fill="#FE7C77" stroke="none" />
        <path d="M0.486004 5.11627L3.71048 8.26582C4.29773 8.83889 5.2353 8.83889 5.82188 8.26582L11.633 2.59244C12.231 2.00992 12.2425 1.05277 11.6593 0.455393C11.0761 -0.141982 10.1196 -0.152782 9.52223 0.429743L4.76618 5.07239L2.59673 2.95492C2.21468 2.56072 1.647 2.40344 1.11645 2.54789C0.585229 2.69099 0.174829 3.11219 0.0438791 3.64544C-0.087746 4.17937 0.0816791 4.74299 0.486004 5.11627L0.486004 5.11627Z" transform="translate(4.3847656 76.75647)" id="Path" fill="#FE7C77" fill-rule="evenodd" stroke="none" />
      </g>
      <path d="M67.7842 5.82862L67.7842 54.0722C67.7808 57.2899 65.174 59.8975 61.9555 59.9008L35.4031 59.9008L35.4031 59.4412L32.3811 59.4412L32.3811 59.9008L5.82862 59.9008C2.61158 59.8975 0.00337513 57.2899 0 54.0722L0 5.82862C0.00337513 2.6109 2.61158 0.00337499 5.82862 0L61.9555 0C65.174 0.00337499 67.7808 2.6109 67.7842 5.82862ZM64.7622 54.0722L64.7622 18.5153L3.02197 18.5153L3.02197 54.0722C3.024 55.6214 4.2795 56.8769 5.82862 56.8789L61.9555 56.8789C63.506 56.8769 64.7615 55.6214 64.7622 54.0722L64.7622 54.0722ZM64.7622 15.4933L64.7622 5.82862C64.7615 4.2795 63.506 3.024 61.9555 3.02197L5.82862 3.02197C4.2795 3.024 3.024 4.2795 3.02197 5.82862L3.02197 15.4933L64.7622 15.4933Z" transform="translate(10.793457 0)" id="Shape" fill="#0635C9" stroke="none" />
    </g>
  </g>
</svg>