<?xml version="1.0" encoding="utf-8"?>
<svg width="114px" height="91px" viewBox="0 0 114 91" version="1.1" xmlns:xlink="http://www.w3.org/1999/xlink" xmlns="http://www.w3.org/2000/svg">
  <desc>Created with Lunacy</desc>
  <g id="1336830">
    <path d="M12.376 49.9929C8.79814 49.9886 5.89778 47.0882 5.89348 43.5104L5.89348 0.563243C5.89348 0.374062 5.9033 0.18611 5.91927 0C2.57237 0.295442 0.00368526 3.09753 0 6.45672L0 49.4039C0.00429945 52.9817 2.90466 55.8821 6.48252 55.8864L56.1118 55.8864L50.2183 49.9929L12.376 49.9929Z" transform="translate(30.55371 17.946411)" id="Path" fill="#E9F0F9" fill-rule="evenodd" stroke="none" />
    <g id="Group-2">
      <path d="M51.0638 15.8597C60.5206 22.6703 73.1555 28.9392 76.7988 38.8457C80.5195 48.8295 75.2485 62.4508 65.7916 73.4408C56.3348 84.3533 42.6921 92.7119 31.0649 90.6996C19.5151 88.6874 9.90328 76.3043 5.01983 65.3144C0.0588687 54.3245 -0.173676 44.7276 0.0588687 35.4403C0.291414 26.1531 1.14408 17.1754 6.02753 10.2873C10.9885 3.47664 19.9802 -1.0896 27.6542 0.226098C35.3282 1.61919 41.6069 8.97161 51.0638 15.8597Z" id="Path" fill="#E9F0F9" fill-rule="evenodd" stroke="none" />
      <g id="Group" transform="translate(32.717285 20.503418)">
        <path d="M6.56014 19.7663L7.75419 20.9315L7.48332 22.5168L6.02147 31.0349C5.93364 31.5508 6.14493 32.0723 6.56874 32.3806C6.99256 32.6884 7.55396 32.7283 8.0177 32.4844L17.0898 27.715L26.1637 32.4844C26.6274 32.7283 27.1888 32.6884 27.6127 32.3806C28.0365 32.0723 28.249 31.5508 28.1599 31.0349L26.4247 20.9315L33.7666 13.7764C34.1419 13.411 34.2758 12.8643 34.1148 12.3662C33.9527 11.8693 33.5221 11.5063 33.0043 11.4313L22.8598 9.95779L18.422 0.963717L18.3238 0.765937C18.0916 0.296056 17.6137 0 17.091 0C16.5677 0 16.0898 0.296056 15.8576 0.765937L15.6715 1.14246L11.3204 9.95779L1.17709 11.4313C0.659297 11.5063 0.228726 11.8693 0.067185 12.3662C-0.0943559 12.8643 0.0407733 13.411 0.414835 13.7764L6.56014 19.7663ZM12.4321 12.5744C12.8799 12.5093 13.2675 12.2274 13.4677 11.8213L17.0898 4.48015L20.7149 11.8238C20.9152 12.2292 21.3027 12.5093 21.7499 12.5744L29.8509 13.7531L23.9894 19.4678C23.6644 19.7829 23.5164 20.2374 23.5926 20.6834L24.9776 28.7537L17.7304 24.9449C17.3306 24.7329 16.8508 24.7329 16.451 24.9449L9.20376 28.7537L10.5876 20.6834C10.6644 20.2381 10.5164 19.7829 10.192 19.4678L4.33051 13.7531L12.4321 12.5744Z" transform="translate(46.40436 33.45492)" id="Shape" fill="#FE7C77" stroke="none" />
        <path d="M3.86225 1.18178e-05L3.85119 1.18178e-05C1.72844 -0.0036736 0.00431142 1.71431 1.18178e-05 3.83707C-0.0036736 5.95982 1.71431 7.68395 3.83707 7.68763L3.85119 7.68763C5.97334 7.69071 7.69685 5.97272 7.69992 3.84997C7.70299 1.72721 5.98501 0.00369708 3.86225 1.18178e-05ZM4.62082 4.61897C4.41628 4.8229 4.13927 4.93714 3.85119 4.93714L3.84689 4.93714C3.24311 4.93591 2.75419 4.44576 2.75603 3.84137C2.75665 3.2382 3.2468 2.74989 3.85119 2.75051L3.85242 2.75051C4.4562 2.75296 4.94451 3.24311 4.94267 3.84689C4.94267 4.13681 4.8272 4.41505 4.62082 4.61897Z" transform="translate(22.239183 0.1811842)" id="Shape" fill="#FE7C77" stroke="none" />
        <path d="M3.86409 8.21185e-06L3.84996 8.21185e-06C1.72721 -0.00306302 0.00369363 1.71492 8.21101e-06 3.83768C-0.00306287 5.95982 1.71492 7.68333 3.83768 7.68763L3.8518 7.68763C5.97395 7.6907 7.69746 5.9721 7.70176 3.84996C7.70483 1.72659 5.98623 0.00369347 3.86409 8.21185e-06ZM4.62204 4.61836C4.41812 4.82351 4.13926 4.93837 3.84996 4.93714L3.84751 4.93714C3.40588 4.9353 3.00725 4.66872 2.83956 4.25965C2.67127 3.85058 2.76647 3.38008 3.07973 3.06867C3.28365 2.86352 3.56066 2.74927 3.84996 2.74989L3.85365 2.74989C4.29589 2.75173 4.69391 3.01892 4.8622 3.42738C5.0305 3.83645 4.9353 4.30633 4.62204 4.61836Z" transform="translate(11.150608 0.1461771)" id="Shape" fill="#FE7C77" stroke="none" />
        <path d="M3.86102 8.21101e-06L3.84935 8.21101e-06C1.72721 -0.00306287 0.00307929 1.71492 8.20892e-06 3.83768C-0.00306303 5.96043 1.71553 7.68395 3.83829 7.68763L3.84935 7.68763C5.97211 7.6907 7.69562 5.97272 7.69869 3.84996C7.70237 1.72659 5.98439 0.00307929 3.86102 8.21101e-06ZM4.6202 4.6202C4.41505 4.82473 4.13803 4.93837 3.84935 4.93714L3.84566 4.93714C3.2425 4.93407 2.75603 4.44392 2.75726 3.84075C2.75603 3.55084 2.87273 3.27198 3.07973 3.06867C3.28365 2.86475 3.56066 2.7505 3.84935 2.7505L3.85303 2.7505C4.29589 2.75173 4.69452 3.01953 4.8622 3.42983C5.02989 3.83952 4.93468 4.31002 4.6202 4.6202Z" transform="translate(0.06325687 0.11055205)" id="Shape" fill="#FE7C77" stroke="none" />
      </g>
    </g>
    <path d="M69.5436 9.23362L69.5436 39.8594L69.4454 39.6616C69.2132 39.1918 68.7353 38.8957 68.2126 38.8957C67.6893 38.8957 67.2114 39.1918 66.9792 39.6616L66.7931 40.0382L66.7931 18.7314L2.75049 18.7314L2.75049 52.1789C2.75418 55.758 5.65393 58.6584 9.23301 58.662L57.6817 58.662L58.8758 59.8272L58.6049 61.4125L9.23301 61.4125C4.13618 61.407 0.005528 57.2764 0 52.1789L0 9.23362C0.00614224 4.13618 4.13618 0.00552797 9.23301 0L60.31 0C65.4074 0.00614216 69.5363 4.13618 69.5436 9.23362ZM66.7931 15.9809L66.7931 9.23362C66.7882 5.65516 63.8885 2.75479 60.31 2.75049L9.23301 2.75049C5.65454 2.75418 2.75479 5.65454 2.75049 9.23362L2.75049 15.9809L66.7931 15.9809Z" transform="translate(28 15.062622)" id="Shape" fill="#1D39D7" stroke="none" />
  </g>
</svg>