<?xml version="1.0" encoding="utf-8"?>
<svg width="88px" height="83px" viewBox="0 0 88 83" version="1.1" xmlns:xlink="http://www.w3.org/1999/xlink" xmlns="http://www.w3.org/2000/svg">
  <desc>Created with Lunacy</desc>
  <g id="Group-62">
    <path d="M54.8948 0.106937C61.6347 1.04243 66.8909 8.39876 65.8736 15.0322C64.8139 21.6657 57.4806 27.5337 52.0124 32.1687C46.5442 36.8036 42.9835 40.1628 37.5577 45.0104C32.1319 49.9004 24.7986 56.2362 20.1358 54.7905C15.4306 53.3447 13.3959 44.0749 9.4961 36.3784C5.5963 28.6393 -0.0838401 22.4311 0.000938075 16.478C0.128105 10.5249 6.06258 4.78438 12.3362 3.76384C18.6098 2.74331 25.2648 6.44274 32.6829 5.54978C40.0586 4.65681 48.1973 -0.828551 54.8948 0.106937Z" transform="translate(22 0)" id="Path" fill="#E9F0F9" fill-rule="evenodd" stroke="none" />
    <g id="2799209" transform="translate(0 13)">
      <path d="M4.32 30.5207L4.32 0.626257C4.32019 0.459947 4.38645 0.300527 4.5042 0.183077C4.62194 0.0656275 4.78153 -0.000228694 4.94784 5.9674e-07L0.62784 5.9674e-07C0.461531 -0.000228694 0.301944 0.0656275 0.184197 0.183077C0.0664499 0.300527 0.000190827 0.459947 0 0.626257L0 30.5207C0.000190846 30.687 0.0664453 30.8464 0.184188 30.9639C0.301931 31.0814 0.461517 31.1472 0.62784 31.1471L4.94784 31.1471C4.78152 31.1472 4.62193 31.0814 4.50419 30.9639C4.38645 30.8464 4.32019 30.687 4.32 30.5207Z" transform="translate(11.20896 23.934383)" id="Path" fill="#E9F0F9" fill-rule="evenodd" stroke="none" />
      <path d="M1.72757 31.1463L1.72757 1.728L6.07032 1.728L6.07032 0L1.49198 0C0.668958 0.000316235 0.00150862 0.666799 0 1.48982L0 31.3842C0.00135 32.2074 0.668846 32.874 1.49198 32.8743L50.747 32.8743C51.5701 32.874 52.2375 32.2075 52.239 31.3845L52.239 1.49011C52.2375 0.667087 51.5701 0.000604235 50.747 0.000288L46.4102 0.000288L46.4102 1.72829L50.511 1.72829L50.511 31.1463L1.72757 31.1463Z" transform="translate(10.344816 23.07096)" id="Path" fill="#0635C9" fill-rule="evenodd" stroke="none" />
      <path d="M68.3677 42.6157L68.3677 4.33944C68.3619 1.9408 66.4155 -0.00048334 64.0168 9.03427e-08L56.6453 9.03427e-08L56.6453 1.728L64.0168 1.728C65.4613 1.72688 66.6344 2.89479 66.6396 4.3393L66.6396 42.5465L46.1925 42.5465C44.7547 42.5465 43.5883 43.7104 43.5851 45.1482C43.5833 45.6323 43.1898 46.0234 42.7057 46.0224L28.7587 46.0224C28.2749 46.0234 27.8815 45.6326 27.8793 45.1488C27.8764 43.7111 26.7103 42.547 25.2726 42.5465L6.28983 42.5465L6.28983 4.33944C6.29499 2.89488 7.46808 1.72688 8.91264 1.728L16.5261 1.728L16.5261 9.03427e-08L8.91264 9.03427e-08C6.51405 -0.000483522 4.5677 1.94071 4.56183 4.3393L4.56183 42.5506C1.98901 42.6307 -0.0424134 44.7624 0.00136743 47.3361C0.0451483 49.9098 2.14789 51.9712 4.72196 51.9638L67.5673 51.9638C70.0166 51.9709 72.062 50.0985 72.2709 47.6582C72.4799 45.2178 70.7825 43.025 68.3677 42.6157L68.3677 42.6157ZM69.686 49.3608C69.1247 49.9233 68.362 50.2383 67.5673 50.2358L4.72195 50.2358C3.65702 50.2358 2.67298 49.6677 2.14051 48.7454C1.60804 47.8232 1.60804 46.6869 2.14051 45.7646C2.67298 44.8424 3.65702 44.2742 4.72195 44.2742L25.2726 44.2742C25.7565 44.2732 26.1499 44.664 26.152 45.1479C26.1548 46.5857 27.3209 47.7499 28.7587 47.7504L42.7057 47.7504C44.1435 47.7503 45.3099 46.5865 45.3131 45.1488C45.3153 44.6649 45.7086 44.2741 46.1925 44.2751L67.5673 44.2751C69.2147 44.2737 70.5531 45.6049 70.5606 47.2523C70.5633 48.0439 70.2482 48.8035 69.686 49.3608L69.686 49.3608Z" transform="translate(-0.0006269115 17.0496)" id="Shape" fill="#0635C9" stroke="none" />
      <g id="Group" transform="translate(14.544 0)">
        <path d="M35.1955 0L0.864 0C0.386826 0 0 0.386826 0 0.864C0 1.34117 0.386826 1.728 0.864 1.728L35.1955 1.728C35.6726 1.728 36.0595 1.34117 36.0595 0.864C36.0595 0.386826 35.6726 0 35.1955 0Z" transform="translate(7.683696 44.506226)" id="Path" fill="#FE7C77" fill-rule="evenodd" stroke="none" />
        <path d="M4.89154 0L0.864 0C0.386826 0 0 0.386826 0 0.864C0 1.34117 0.386826 1.728 0.864 1.728L4.89154 1.728C5.36871 1.728 5.75554 1.34117 5.75554 0.864C5.75554 0.386826 5.36871 0 4.89154 0Z" transform="translate(0.063648 44.506226)" id="Path" fill="#FE7C77" fill-rule="evenodd" stroke="none" />
        <path d="M35.1955 0L0.864 0C0.386826 0 0 0.386826 0 0.864C0 1.34117 0.386826 1.728 0.864 1.728L35.1955 1.728C35.6726 1.728 36.0595 1.34117 36.0595 0.864C36.0595 0.386826 35.6726 0 35.1955 0Z" transform="translate(7.683696 49.50043)" id="Path" fill="#FE7C77" fill-rule="evenodd" stroke="none" />
        <path d="M4.89154 0L0.864 0C0.386826 0 0 0.386826 0 0.864C0 1.34117 0.386826 1.728 0.864 1.728L4.89154 1.728C5.36871 1.728 5.75554 1.34117 5.75554 0.864C5.75554 0.386826 5.36871 0 4.89154 0Z" transform="translate(0.063648 49.50043)" id="Path" fill="#FE7C77" fill-rule="evenodd" stroke="none" />
        <path d="M0.8928 0L0.864 0C0.386826 0 0 0.386826 0 0.864C0 1.34117 0.386826 1.728 0.864 1.728L0.8928 1.728C1.36997 1.728 1.7568 1.34117 1.7568 0.864C1.7568 0.386826 1.36997 0 0.8928 0Z" transform="translate(15.771744 20.431152)" id="Path" fill="#FE7C77" fill-rule="evenodd" stroke="none" />
        <path d="M42.4081 21.1887C42.4081 9.5053 32.8961 0 21.204 0C9.51192 0 0 9.5053 0 21.1887C0 32.8722 9.51206 42.3773 21.204 42.3773C32.8959 42.3773 42.4081 32.872 42.4081 21.1887ZM5.93755 33.2584C3.39272 30.0593 1.92617 26.1367 1.74816 22.0527L8.74382 22.0527C8.80055 24.733 9.23634 27.3918 10.0382 29.95C8.53884 30.8776 7.16127 31.989 5.93755 33.2584L5.93755 33.2584ZM10.0384 12.4276C9.2365 14.9858 8.80065 17.6445 8.74382 20.3247L1.74816 20.3247C1.92614 16.2408 3.3927 12.318 5.93755 9.11894C7.16134 10.3884 8.53896 11.4999 10.0384 12.4276L10.0384 12.4276ZM10.4723 22.0527L12.6658 22.0527C13.143 22.0527 13.5298 21.6659 13.5298 21.1887C13.5298 20.7116 13.143 20.3247 12.6658 20.3247L10.4723 20.3247C10.5267 17.942 10.8986 15.5771 11.578 13.2926C14.2998 14.6768 17.2889 15.4555 20.34 15.5752L20.34 20.3242L18.9743 20.3242C18.4971 20.3242 18.1103 20.711 18.1103 21.1882C18.1103 21.6653 18.4971 22.0522 18.9743 22.0522L20.34 22.0522L20.34 26.8011C17.2888 26.9214 14.2997 27.7003 11.5779 29.0844C10.8985 26.8 10.5267 24.4353 10.4723 22.0527L10.4723 22.0527ZM36.4735 9.12269C39.0166 12.3211 40.482 16.2424 40.6598 20.3247L33.6629 20.3247C33.647 19.7398 33.6165 19.1576 33.5687 18.5859C33.4872 17.606 33.3564 16.6307 33.1769 15.6639C32.9751 14.5767 32.7068 13.5029 32.3735 12.4485C33.875 11.5173 35.2526 10.3998 36.4735 9.12269L36.4735 9.12269ZM32.3695 29.9262C32.5931 29.2241 32.7899 28.5023 32.9599 27.7608C33.1882 26.7506 33.3612 25.7288 33.4783 24.6999C33.5773 23.8337 33.6391 22.9467 33.6633 22.0527L40.6591 22.0527C40.4814 26.135 39.0162 30.0563 36.4735 33.2548C35.2518 31.9765 33.8731 30.8581 32.3703 29.9262L32.3695 29.9262ZM22.0671 28.5271C24.9277 28.6362 27.7278 29.3827 30.2629 30.7123C28.5962 35.0204 25.7672 38.3664 22.0671 40.3638L22.0671 28.5271ZM22.0671 26.7975L22.0671 22.0527L31.9347 22.0527C31.9108 22.8807 31.8531 23.7021 31.7619 24.5036C31.6521 25.4699 31.4896 26.4295 31.2751 27.378C31.1447 27.9517 30.9966 28.5124 30.8307 29.0602C28.1098 27.676 25.119 26.9037 22.068 26.7975L22.0671 26.7975ZM31.4775 15.981C31.6464 16.8905 31.7694 17.808 31.846 18.7299C31.8892 19.2541 31.918 19.788 31.9334 20.3247L22.068 20.3247L22.068 15.5789C25.1191 15.472 28.11 14.6997 30.8314 13.3161C31.0949 14.1921 31.3108 15.0817 31.4784 15.981L31.4775 15.981ZM22.0671 13.8498L22.0671 2.0147C25.7887 4.0199 28.6063 7.35581 30.2671 11.6646C27.7309 12.9945 24.9297 13.7411 22.068 13.8499L22.0671 13.8498ZM20.3391 13.8462C17.4804 13.7222 14.684 12.9696 12.1493 11.6418C13.8031 7.38662 16.6154 4.02422 20.3391 2.0147L20.3391 13.8462ZM20.3391 28.531L20.3391 40.3635C16.6149 38.3528 13.8015 34.99 12.1484 30.7341C14.6837 29.4062 17.4807 28.654 20.34 28.5312L20.3391 28.531ZM25.5061 40.1704C28.2335 38.029 30.3674 35.1092 31.7726 31.5952C33.076 32.438 34.2725 33.4357 35.3359 34.5665C32.6858 37.3657 29.2649 39.3159 25.5061 40.1704ZM35.3359 7.81099C34.2738 8.94059 33.0789 9.9375 31.7772 10.78C30.3769 7.26466 28.2492 4.35082 25.5132 2.20853C29.2693 3.06373 32.6876 5.01337 35.3359 7.81099L35.3359 7.81099ZM16.9088 2.20594C14.1654 4.35758 12.0357 7.28078 10.6384 10.7607C9.3374 9.92215 8.14125 8.93112 7.07544 7.80869C9.72657 5.00918 13.1488 3.0593 16.9088 2.20594L16.9088 2.20594ZM7.07544 34.5688C8.1411 33.4464 9.33705 32.4554 10.6379 31.6168C12.0347 35.0958 14.1643 38.02 16.9072 40.1718C13.1477 39.3181 9.72611 37.3681 7.07544 34.5688L7.07544 34.5688Z" transform="translate(0.836928 0.106416)" id="Shape" fill="#FE7C77" stroke="none" />
      </g>
    </g>
  </g>
</svg>