<?xml version="1.0" encoding="utf-8"?>
<svg width="104px" height="79px" viewBox="0 0 104 79" version="1.1" xmlns:xlink="http://www.w3.org/1999/xlink" xmlns="http://www.w3.org/2000/svg">
  <desc>Created with Lunacy</desc>
  <g id="Group-65">
    <path d="M40.5891 12.7226C48.1061 18.1861 58.1493 23.215 61.0452 31.1619C64.0027 39.1709 59.8129 50.0979 52.2959 58.914C44.7789 67.668 33.9348 74.3732 24.6926 72.759C15.512 71.1448 7.87184 61.2112 3.99012 52.3951C0.0467931 43.579 -0.13805 35.8804 0.0467931 28.4302C0.231637 20.9799 0.909396 13.778 4.79111 8.25246C8.73444 2.78896 15.8817 -0.874074 21.9816 0.181375C28.0814 1.29891 33.0722 7.19701 40.5891 12.7226Z" transform="matrix(0.25881907 -0.9659258 0.9659258 0.25881907 16.691406 59.887695)" id="Path" fill="#E9F0F9" fill-rule="evenodd" stroke="none" />
    <g id="2260988" transform="translate(0 4.9814453)">
      <path d="M12.4096 0L0 0L0.345888 2.88L13.2742 2.88L12.4096 0Z" transform="translate(4.5859375 62.63965)" id="Path" fill="#D4E1F4" fill-rule="evenodd" stroke="none" />
      <path d="M52.4585 3.27418e-14L34.0154 12.8601C31.3192 14.1962 28.2642 14.6278 25.3034 14.0908L12.9679 11.784C11.6219 11.4462 10.1974 11.642 8.99237 12.3303C8.97883 12.3379 8.96558 12.346 8.95248 12.3545L3.222 16.0335L0 5.30064L4.08643 18.9132L9.81763 15.2342C9.83074 15.2257 9.84398 15.2176 9.85752 15.21C11.0625 14.5217 12.487 14.3259 13.8331 14.6637L26.1685 16.9705C29.1293 17.5075 32.1844 17.0759 34.8805 15.7398L55.4943 1.3657C54.7243 0.497097 53.6192 -6.68633e-05 52.4585 0L52.4585 3.27418e-14Z" transform="translate(13.275879 38.936523)" id="Path" fill="#E9F0F9" fill-rule="evenodd" stroke="none" />
      <path d="M62.9694 2.35171L62.5694 2.57088C61.1177 0.749279 58.5721 0.0377752 56.6366 1.0344C56.6301 1.03786 56.6236 1.04117 56.6173 1.04477L55.6813 1.55669C53.5796 -0.190465 50.5664 -0.514897 48.2744 0.827615L43.6285 3.39326L37.4498 3.39326C36.1059 3.39106 34.7802 3.08247 33.5734 2.49096L32.7253 2.07451C27.8211 -0.351499 21.9631 0.229191 17.6306 3.57082C17.6117 3.58522 17.5935 3.60048 17.5757 3.61632L15.5279 5.46787C14.7386 6.18272 13.7992 6.71167 12.7787 7.01587L11.5957 3.07546C11.486 2.71005 11.1497 2.45984 10.7681 2.45986L0.863969 2.45986C0.616892 2.45987 0.381641 2.56565 0.217675 2.75048C0.053709 2.93531 -0.0232821 3.1815 0.00616126 3.42682L3.30751 30.9199C3.35962 31.3541 3.72798 31.6809 4.16531 31.6809L19.0215 31.6809C19.2947 31.6809 19.5517 31.5518 19.7148 31.3326C19.8778 31.1135 19.9276 30.8301 19.8491 30.5685L17.8789 24.0057L24.0048 20.0719C24.8264 19.609 25.7951 19.4813 26.7087 19.7155C26.7268 19.7201 26.7451 19.7242 26.7635 19.7276L39.1276 22.0398C42.48 22.6485 45.9394 22.1526 48.9857 20.6266C49.0225 20.6082 49.058 20.5871 49.0917 20.5635L70.4777 5.6509C70.8489 5.39213 70.9576 4.89085 70.7269 4.50163C69.1513 1.8007 65.7105 0.847113 62.9694 2.35171ZM57.4358 2.56642C58.5494 1.99978 60.0566 2.40254 61.02 3.41976L52.8137 7.91587L52.2844 8.19941C52.021 7.41311 51.622 6.67904 51.1053 6.03048L57.4358 2.56642ZM49.1194 2.33486L49.14 2.3232C50.6145 1.45517 52.5126 1.54805 54.0063 2.47325L49.8071 4.77091C48.9705 4.14431 48.0026 3.71593 46.9762 3.51811L49.1194 2.33486ZM4.93183 29.9529L1.83799 4.18786L10.1255 4.18786L17.8601 29.9529L4.93183 29.9529ZM48.1554 19.1097C45.4593 20.4459 42.4042 20.8775 39.4434 20.3405L27.108 18.0336C25.7619 17.6959 24.3374 17.8916 23.1324 18.5799C23.1189 18.5876 23.1056 18.5956 23.0925 18.6041L17.3613 22.2832L13.2749 8.67058C14.5411 8.29259 15.7067 7.63614 16.6863 6.74933L18.7073 4.92197C22.5178 1.99927 27.6582 1.49636 31.9629 3.6251L32.8111 4.04155C34.2549 4.74945 35.8412 5.11882 37.4492 5.12155L45.6745 5.12155C48.2665 5.12155 50.4253 7.04294 50.8501 9.56021L44.8135 9.28286C42.6487 9.18396 40.4795 9.28573 38.3335 9.58685C38.0243 9.62582 37.7601 9.82825 37.642 10.1166C37.5239 10.405 37.5702 10.7346 37.7632 10.9792C37.9563 11.2239 38.266 11.3456 38.574 11.2979C40.614 11.0116 42.6762 10.9149 44.7341 11.009L51.7501 11.3314C51.7634 11.332 51.7766 11.3323 51.7899 11.3323C52.267 11.3323 52.6539 10.9454 52.6539 10.4683C52.6539 10.3012 52.6461 10.1361 52.6347 9.97176L53.6359 9.43565L63.7992 3.86731C65.4549 2.95836 67.5195 3.31943 68.7685 4.73635L48.1554 19.1097Z" transform="translate(0 35.567383)" id="Shape" fill="#0635C9" stroke="none" />
      <path d="M5.12841e-05 2.87568C0.0169479 4.44285 1.29811 5.7012 2.86533 5.68994C4.43256 5.67868 5.69551 4.40205 5.68988 2.8348C5.68426 1.26755 4.41218 1.17569e-05 2.84492 0C1.26602 0.0103869 -0.00657267 1.29677 5.12841e-05 2.87568L5.12841e-05 2.87568ZM2.84492 1.728C3.31196 1.71528 3.74012 1.98685 3.92769 2.41476C4.11526 2.84267 4.02482 3.34157 3.69897 3.6764C3.37313 4.01124 2.87688 4.11522 2.44402 3.93937C2.01117 3.76351 1.72805 3.34289 1.72805 2.87568C1.72028 2.25064 2.21989 1.73724 2.84492 1.728L2.84492 1.728Z" transform="translate(7.970215 58.698242)" id="Shape" fill="#0635C9" stroke="none" />
      <g id="Group" transform="translate(24.768066 0)">
        <path d="M29.3975 22.3876C28.2908 18.537 25.7476 15.5486 22.1782 13.8641C22.7217 12.842 22.4577 11.5776 21.5506 10.8584C22.078 9.65935 22.7092 8.50877 23.437 7.41977C24.2066 6.27929 24.9042 5.72835 25.6428 5.14457C25.9308 4.91705 26.229 4.68176 26.53 4.41161C27.0102 3.98746 27.2034 3.3249 27.0266 2.7091C26.8073 1.98089 26.1504 1.55336 25.3537 1.61945C24.658 1.67849 23.7187 1.12323 23.0332 0.718446C22.7303 0.527982 22.4145 0.358853 22.088 0.212286C20.3973 -0.47589 19.3077 0.686622 18.8426 1.18299C18.683 1.3532 18.1211 1.66525 17.8527 1.77109C17.8189 1.78433 17.7846 1.79657 17.7505 1.80665C16.9533 2.04238 16.537 2.00523 15.7885 1.32569C14.6628 0.304302 13.3418 0.121134 12.2547 0.836094C11.8312 1.11445 11.626 1.57222 11.4091 2.05678C11.3188 2.26862 11.2173 2.47555 11.1051 2.6767C11.072 2.74149 11.0297 2.80119 10.9796 2.85397C10.9686 2.85765 10.9573 2.8603 10.9459 2.86189C10.7977 2.88637 10.7667 2.89169 10.4642 2.66792L10.345 2.57864C9.67035 2.06198 8.93564 1.62894 8.15689 1.28897C8.12521 1.27457 8.08964 1.25729 8.05061 1.23843C7.93167 1.18083 7.78364 1.10969 7.6166 1.04417C6.91978 0.770574 5.38705 0.70923 4.6358 0.924654C4.43158 0.975024 4.23798 1.06143 4.06412 1.17982C3.73239 1.42835 3.49358 1.78093 3.38588 2.1812C3.13874 3.07048 3.49064 4.01793 4.25837 4.53027C5.36584 5.27248 6.32681 6.21271 7.09301 7.30371C7.79354 8.31322 8.3413 9.42055 8.71863 10.5899C8.09869 10.8995 7.6427 11.4618 7.46784 12.1323C7.29298 12.8029 7.4163 13.5162 7.8061 14.0891C5.79413 15.1004 2.26311 17.1824 0.703303 21.5249C0.623239 21.7481 0.547207 21.9757 0.477367 22.2017C-0.537646 25.5274 0.085943 29.1375 2.15779 31.93C4.22964 34.7225 7.50385 36.366 10.981 36.3589L18.842 36.3589C22.2686 36.3704 25.5028 34.7762 27.5808 32.0516C29.6466 29.3916 30.3474 25.9177 29.4744 22.6649C29.4497 22.5728 29.4241 22.4803 29.3975 22.3876L29.3975 22.3876ZM9.79676 13.4175C9.42186 13.4175 9.11794 13.1136 9.11794 12.7387C9.11794 12.3638 9.42186 12.0599 9.79676 12.0599L20.053 12.0599C20.4279 12.0599 20.7318 12.3638 20.7318 12.7387C20.7318 13.1136 20.4279 13.4175 20.053 13.4175L9.79676 13.4175ZM5.23426 3.10438C5.08382 3.01124 5.00819 2.83357 5.04533 2.66057C5.05147 2.63911 5.05942 2.6182 5.06909 2.59808C5.08076 2.59448 5.09458 2.5903 5.11071 2.58569C5.49735 2.47496 6.63596 2.51542 6.98473 2.65237C7.09143 2.69427 7.20231 2.74769 7.29994 2.79493C7.35005 2.81897 7.39585 2.84101 7.43689 2.85987C8.10234 3.14832 8.72984 3.51742 9.30529 3.95888L9.43633 4.05694C9.8869 4.39016 10.3971 4.70422 11.2275 4.56656C11.9869 4.44099 12.3581 3.95672 12.5967 3.54862C12.7405 3.29407 12.8703 3.03184 12.9855 2.7631C13.057 2.58935 13.1408 2.42092 13.2363 2.2591C13.643 2.01301 14.0982 2.12648 14.6265 2.606C15.7641 3.63819 16.811 3.8876 18.2409 3.46409C18.321 3.44033 18.4034 3.41182 18.4857 3.37928C18.7091 3.29115 19.6377 2.86088 20.103 2.36509C20.6925 1.73566 20.967 1.62219 21.4358 1.81328C21.6827 1.93041 21.9224 2.06182 22.154 2.20683C22.9491 2.67641 24.0081 3.30123 25.1174 3.34933C24.9398 3.49793 24.7591 3.64078 24.5713 3.78896C23.799 4.3988 22.9239 5.09 22.0041 6.45296C21.1848 7.67916 20.4789 8.9774 19.895 10.3316L17.5574 10.3316C17.598 9.61419 17.7878 8.55089 18.4887 7.73729C18.7725 7.40988 19.1123 7.1356 19.4923 6.92729C19.7624 6.77774 19.9322 6.49545 19.9377 6.18677C19.9432 5.87808 19.7836 5.5899 19.5191 5.43077C19.2545 5.27164 18.9252 5.26574 18.6551 5.41529C18.0961 5.72257 17.5963 6.12695 17.1792 6.60949C16.1306 7.82744 15.8714 9.34376 15.8273 10.3313L14.9345 10.3313C14.5745 9.23461 13.8388 7.35411 13.3819 6.62115C13.1295 6.21619 12.5966 6.09253 12.1916 6.34496C11.7867 6.59738 11.663 7.1303 11.9154 7.53526C12.2178 8.02011 12.7581 9.3596 13.1089 10.3313L10.4507 10.3313C10.0185 8.89338 9.36061 7.53324 8.50162 6.30176C7.61551 5.04656 6.50835 3.96311 5.23426 3.10438L5.23426 3.10438ZM26.2109 30.9985C24.4586 33.2961 21.7315 34.6404 18.842 34.6309L10.981 34.6309C8.03181 34.6446 5.25526 33.2418 3.51649 30.8597C1.77315 28.524 1.25696 25.4934 2.12876 22.7123C2.19097 22.5107 2.25836 22.3078 2.33036 22.1089C3.83444 17.9218 7.45791 16.1718 9.19916 15.3307C9.34906 15.2587 9.48082 15.1945 9.59861 15.1354C9.66442 15.1408 9.73037 15.1455 9.79748 15.1455L20.053 15.1455C20.2447 15.1448 20.4356 15.121 20.6217 15.0748C24.2149 16.4759 26.6743 19.166 27.7374 22.8652C27.7608 22.9469 27.7835 23.0284 27.8051 23.11C28.5377 25.8441 27.9477 28.7635 26.2109 30.9985L26.2109 30.9985Z" transform="translate(0.020585367 0.14238577)" id="Shape" fill="#FE7C77" stroke="none" />
        <path d="M7.00834 0C3.14395 0 0 3.09456 0 6.89832C0 10.7021 3.14395 13.7966 7.00834 13.7966C10.8727 13.7966 14.017 10.7021 14.017 6.89904C14.017 3.096 10.8729 0 7.00834 0ZM7.00834 12.0686C4.0968 12.0686 1.728 9.74923 1.728 6.89904C1.728 4.04885 4.0968 1.72944 7.00834 1.72944C9.91987 1.72944 12.289 4.04885 12.289 6.89976C12.289 9.75067 9.92016 12.0686 7.00834 12.0686Z" transform="translate(8.219664 18.14472)" id="Shape" fill="#FE7C77" stroke="none" />
        <path d="M3.31109 0.90576L3.31109 0.864C3.31109 0.386826 2.92426 0 2.44709 0C1.96991 0 1.58309 0.386826 1.58309 0.864L1.58309 0.91656C1.31759 1.01532 1.07554 1.16822 0.872304 1.36555C0.423003 1.82824 0.179041 2.45242 0.195504 3.09715C0.209904 4.10515 0.956832 4.95173 2.01278 5.15736L2.25629 5.20488C2.27832 5.21006 2.30496 5.21827 2.32901 5.22562C2.33621 5.22864 2.34341 5.23152 2.3509 5.23426L2.45328 5.27342C2.48554 5.29013 2.49806 5.29747 2.52182 5.3113L2.57496 5.34211C2.58317 5.34744 2.59123 5.35234 2.59872 5.35651C2.78318 5.46826 3.06096 5.71493 3.07018 5.93597C3.08126 6.20035 2.99501 6.28646 2.96275 6.31886C2.7842 6.45893 2.56058 6.52885 2.33405 6.51542C2.16931 6.50837 1.74739 6.32261 1.72277 6.10128C1.66976 5.62705 1.24235 5.28558 0.76812 5.33858C0.293889 5.39159 -0.0475821 5.819 0.00542399 6.29323C0.111984 7.24766 0.865536 7.84843 1.58395 8.10245C1.60242 8.56909 1.98835 8.93661 2.45534 8.93225C2.92233 8.92789 3.30134 8.55323 3.31109 8.08632L3.31109 8.07912C3.63849 7.96705 3.93679 7.78341 4.1843 7.54157C4.62085 7.09693 4.8441 6.48543 4.79674 5.86411C4.74893 4.72579 3.78773 4.05706 3.49267 3.87835L3.44947 3.85186L3.39187 3.81859C3.3373 3.78677 3.31094 3.77136 3.22598 3.72816C3.17858 3.7042 3.12999 3.68266 3.0804 3.66365L2.98248 3.62606C2.9354 3.60646 2.88733 3.5893 2.83848 3.57466C2.75731 3.54881 2.67482 3.52728 2.59138 3.51014L2.3424 3.46147C2.0364 3.40186 1.9248 3.21466 1.92336 3.07267C1.91641 2.90269 1.97153 2.73599 2.07845 2.60366C2.19802 2.51425 2.34836 2.4763 2.49605 2.49826C2.81556 2.48365 3.10377 2.68901 3.1943 2.99578L3.18955 2.97734L4.87061 2.57674C4.65866 1.79635 4.07501 1.17098 3.31109 0.90576L3.31109 0.90576Z" transform="translate(12.874512 20.45448)" id="Path" fill="#FE7C77" fill-rule="evenodd" stroke="none" />
      </g>
    </g>
  </g>
</svg>