<?xml version="1.0" encoding="utf-8"?>
<svg width="98px" height="96px" viewBox="0 0 98 96" version="1.1" xmlns:xlink="http://www.w3.org/1999/xlink" xmlns="http://www.w3.org/2000/svg">
  <desc>Created with Lunacy</desc>
  <g id="Group-63">
    <path d="M49.6648 9.32588C58.0504 16.2626 64.2814 26.8134 63.9902 37.131C63.6408 47.3903 56.8275 57.2998 48.4419 63.8285C39.998 70.3572 30.0983 73.4466 22.2368 71.3481C14.4335 69.2496 8.66844 61.9632 6.45557 55.4345C4.2427 48.9059 5.52383 43.135 4.068 35.9651C2.61216 28.737 -1.58064 20.1098 0.632226 13.1731C2.8451 6.29472 11.4636 1.10677 21.1304 0.174104C30.7389 -0.816853 41.2792 2.44748 49.6648 9.32588Z" transform="translate(34 0)" id="Path" fill="#E9F0F9" fill-rule="evenodd" stroke="none" />
    <g id="1336748" transform="translate(0 24)">
      <path d="M40.0506 48.3244C40.0517 47.5712 40.0939 46.818 40.1771 46.0699L11.4064 46.0699C8.10844 46.0665 5.43544 43.3941 5.4315 40.0961L5.4315 0C2.35744 0.2835 0.00393754 2.86088 0 5.94844L0 45.5271C0.0045 48.825 2.67638 51.4974 5.97431 51.5019L40.3009 51.5019C40.1344 50.4501 40.0506 49.3886 40.0506 48.3244Z" transform="translate(2.3225625 2.403)" id="Path" fill="#E9F0F9" fill-rule="evenodd" stroke="none" />
      <path d="M63.6896 8.45606L63.6896 30.4538C63.2869 30.4284 62.8802 30.4161 62.4696 30.4161C62.0325 30.4161 61.6011 30.4307 61.1707 30.4594L61.1707 17.1529L2.51888 17.1529L2.51888 47.7866C2.52281 51.0649 5.17894 53.7204 8.45606 53.7238L42.5677 53.7238C42.6718 54.3915 42.8102 55.053 42.9812 55.7066C43.0284 55.8866 43.0791 56.0666 43.1308 56.2427L8.45606 56.2427C3.78787 56.2382 0.005625 52.4548 0 47.7866L0 8.45606C0.00506249 3.78787 3.78787 0.00506246 8.45606 0L55.2336 0C59.9017 0.00562507 63.684 3.78787 63.6896 8.45606L63.6896 8.45606ZM61.1707 14.634L61.1707 8.45606C61.1668 5.17894 58.5107 2.52281 55.2336 2.51887L8.45606 2.51887C5.17838 2.52225 2.52225 5.17837 2.51888 8.45606L2.51888 14.634L61.1707 14.634Z" transform="translate(4.092726E-15 0.03375)" id="Shape" fill="#0635C9" stroke="none" />
      <g id="Group" transform="translate(4.32 5.04)">
        <path d="M21.366 0.0376875C20.9633 0.0123751 20.5566 0 20.1459 0C19.7089 0 19.2774 0.0146251 18.8471 0.0433125C12.8413 0.441563 7.32657 3.49988 3.80757 8.38406C0.288572 13.2677 -0.866241 19.467 0.657572 25.2906C0.704822 25.4706 0.755447 25.6506 0.807197 25.8266C3.68776 35.6456 13.4696 41.7465 23.5547 40.0146C33.6398 38.2832 40.8257 29.2686 40.266 19.0513C39.7069 8.83462 31.5799 0.658688 21.366 0.0376875L21.366 0.0376875ZM20.1459 37.782C12.1404 37.7831 5.13788 32.391 3.09432 24.6504C3.06563 24.5385 3.03638 24.4277 3.00938 24.3135C1.73926 19.0643 2.94301 13.5231 6.27638 9.27337C9.61032 5.02425 14.7054 2.53575 20.1066 2.51888L20.1459 2.51888C29.8839 2.51888 37.7775 10.413 37.7775 20.1504C37.7775 29.8884 29.8839 37.782 20.1459 37.782L20.1459 37.782Z" transform="translate(38.003616 25.409813)" id="Shape" fill="#FE7C77" stroke="none" />
        <path d="M12.9952 9.70256L8.81583 13.5922L8.81583 1.25944C8.81583 0.563625 8.2522 0 7.55639 0C6.86114 0 6.29695 0.563625 6.29695 1.25944L6.29695 13.5922L2.11758 9.70256C1.60852 9.22894 0.812017 9.25706 0.337267 9.76669C-0.136358 10.2758 -0.107671 11.0728 0.401392 11.5464L7.55639 18.2053L14.7114 11.5464C15.221 11.0728 15.2497 10.2758 14.7755 9.76669C14.3019 9.25706 13.5048 9.22894 12.9952 9.70256L12.9952 9.70256Z" transform="translate(50.59317 36.689064)" id="Path" fill="#FE7C77" fill-rule="evenodd" stroke="none" />
        <path d="M3.51451 7.0397L3.5252 7.0397C5.46301 7.03745 7.03633 5.47032 7.04364 3.53138L7.04364 3.51957C7.04251 1.58007 5.47426 0.00731998 3.53533 7.51956e-06L3.5252 7.51956e-06C1.5812 -0.00280494 0.00282718 1.57051 1.47167e-05 3.51451C-0.00392282 5.45851 1.56995 7.03688 3.51451 7.0397ZM2.81814 2.81026C3.00489 2.62238 3.26026 2.51776 3.5252 2.51832L3.52633 2.51832C4.00445 2.52001 4.41452 2.85863 4.50676 3.32776C4.59789 3.79632 4.34645 4.26432 3.90433 4.44545C3.46333 4.6277 2.95426 4.47188 2.68989 4.07363C2.42608 3.67594 2.47895 3.14663 2.81814 2.81026Z" transform="translate(20.369236 0.14118002)" id="Shape" fill="#FE7C77" stroke="none" />
        <path d="M3.53194 0L3.519 0C2.09756 0.000562464 0.815626 0.856125 0.269439 2.169C-0.275624 3.48187 0.0213762 4.99388 1.02375 6.00187C1.67906 6.66675 2.57456 7.04081 3.50775 7.03969L3.52069 7.03969C5.46469 7.04362 7.04306 5.46975 7.04644 3.52519C7.04925 1.58119 5.47594 0.00281261 3.53194 0ZM3.519 4.52138L3.51731 4.52138C2.96381 4.52138 2.51663 4.07194 2.51719 3.519C2.51775 2.96663 2.96606 2.51831 3.519 2.51888L3.52294 2.51888C4.07588 2.52 4.52306 2.96888 4.52194 3.52181C4.52138 4.07475 4.0725 4.5225 3.519 4.52138Z" transform="translate(10.218936 0.10856246)" id="Shape" fill="#FE7C77" stroke="none" />
        <path d="M7.04588 3.5297C7.04982 1.58626 5.47876 0.00732328 3.53588 1.08188e-05L3.52519 1.08188e-05C1.58119 -0.00336425 0.00281998 1.57051 7.51956e-06 3.51507C-0.00280494 5.45907 1.57051 7.03745 3.51451 7.04026L3.52519 7.04026C5.46413 7.03745 7.03688 5.46864 7.04588 3.5297ZM3.5252 4.52139L3.52182 4.52139C2.96832 4.5197 2.52057 4.07082 2.52226 3.51845C2.52282 2.96551 2.97226 2.51776 3.5252 2.51889L3.52857 2.51889C4.08151 2.51945 4.52926 2.96889 4.52813 3.52182C4.52701 4.07476 4.07813 4.52195 3.5252 4.52139Z" transform="translate(0.05849248 0.078176714)" id="Shape" fill="#FE7C77" stroke="none" />
      </g>
    </g>
  </g>
</svg>