<?xml version="1.0" encoding="utf-8"?>
<svg width="51px" height="45px" viewBox="0 0 51 45" version="1.1" xmlns:xlink="http://www.w3.org/1999/xlink" xmlns="http://www.w3.org/2000/svg">
  <desc>Created with Lunacy</desc>
  <g id="1336791">
    <path d="M49.4323 39.5473L10.3132 39.5473C7.23778 39.5448 4.74504 37.052 4.74171 33.9758L4.74171 0.774603C4.74208 0.515291 4.7606 0.256719 4.79691 0C2.04783 0.388968 0.00333401 2.74056 0 5.51631L0 38.7175C0.00333401 41.7937 2.49607 44.2865 5.57151 44.2891L44.6906 44.2891C47.4667 44.2861 49.818 42.2416 50.2069 39.4929C49.9506 39.5288 49.6916 39.5473 49.4323 39.5473Z" transform="translate(0 0.062975794)" id="Path" fill="#D4E1F4" stroke="none" />
    <path d="M50.2621 5.57151L50.2621 38.7727C50.2588 41.8489 47.7661 44.3417 44.6906 44.3443L5.57151 44.3443C2.49607 44.3417 0.00333401 41.8489 0 38.7727L0 5.57151C0.00333401 2.49607 2.49607 0.00333409 5.57151 0L44.6906 0C47.7661 0.00333409 50.2588 2.49607 50.2621 5.57151ZM48.6025 5.57151L48.6025 11.6279L1.6596 11.6279L1.6596 5.57151C1.66182 3.41181 3.41181 1.66219 5.57151 1.6596L44.6906 1.6596C46.8503 1.66219 48.6003 3.41181 48.6025 5.57151ZM48.6025 38.7727L48.6025 13.2875L1.6596 13.2875L1.6596 38.7727C1.66182 40.9324 3.41181 42.6828 5.57151 42.6847L44.6906 42.6847C46.8503 42.6828 48.6003 40.9324 48.6025 38.7727Z" transform="translate(0 0.0077793445)" id="Shape" fill="#0635C9" fill-rule="evenodd" stroke="none" />
    <g id="Group" transform="translate(3.4140313 3.9830365)">
      <path d="M6.75138 4.7579L1.38139 0.185858C1.03169 -0.0986449 0.518992 -0.0512278 0.22634 0.291805C-0.0659424 0.635209 -0.0303796 1.14939 0.306726 1.44945L4.93323 5.38951L0.306726 9.33032C0.0729749 9.51999 -0.0396407 9.82116 0.0125922 10.1175C0.0644546 10.4142 0.273016 10.6591 0.557148 10.7576C0.84165 10.8566 1.1569 10.794 1.38139 10.5939L6.75138 6.02149C6.9366 5.86369 7.04366 5.63327 7.04366 5.38951C7.04366 5.1465 6.9366 4.91534 6.75138 4.7579L6.75138 4.7579Z" transform="translate(26.172392 17.4922)" id="Path" fill="#FE7C77" stroke="none" />
      <path d="M4.34703 0.0179823C3.89879 -0.0764815 3.45907 0.210614 3.36461 0.658854L0.0179991 16.5488C-0.0764647 16.9966 0.210261 17.4364 0.6585 17.5316C0.714808 17.543 0.772227 17.549 0.830387 17.549C1.22232 17.5486 1.56091 17.2741 1.64203 16.89L4.98827 1.00078C5.082 0.552536 4.79527 0.112446 4.34703 0.0179823Z" transform="translate(18.985516 14.164177)" id="Path" fill="#FE7C77" stroke="none" />
      <path d="M2.63017 5.25182L2.62165 5.25182C1.17173 5.24923 -0.00221643 4.07195 6.29337e-06 2.62165C0.00222892 1.17173 1.17988 -0.00221634 2.63017 6.29283e-06L2.63721 6.29283e-06C4.0838 0.00630395 5.25404 1.17914 5.25553 2.62573L5.25553 2.63388C5.25071 4.08121 4.07677 5.25108 2.63017 5.25182ZM2.6324 1.6596L2.63017 1.6596C2.09636 1.65886 1.66294 2.09043 1.66183 2.62425C1.66109 3.15769 2.09303 3.59111 2.62647 3.59222L2.63017 3.59222C3.16362 3.59259 3.59667 3.16065 3.59704 2.62721C3.59815 2.09377 3.16584 1.66035 2.6324 1.6596Z" transform="translate(16.202936 0.11446153)" id="Shape" fill="#FE7C77" fill-rule="evenodd" stroke="none" />
      <path d="M0 5.38951C0 5.63253 0.106688 5.86369 0.291912 6.0215L5.6619 10.5939C6.0116 10.878 6.5243 10.831 6.81695 10.4872C7.10923 10.1442 7.07367 9.63038 6.73656 9.33032L2.11006 5.38951L6.73656 1.44945C7.07367 1.14939 7.10923 0.635209 6.81695 0.291805C6.5243 -0.0512278 6.0116 -0.0986449 5.6619 0.185858L0.291912 4.7579C0.106688 4.91571 0 5.1465 0 5.38951L0 5.38951Z" transform="translate(10.218386 17.4922)" id="Path" fill="#FE7C77" stroke="none" />
      <path d="M2.61758 5.25144C1.16839 5.24515 -0.00221641 4.06713 6.31123e-06 2.61757C0.0051926 1.17098 1.17877 0.000370517 2.62573 0L2.63425 0C4.08084 0.00518629 5.25108 1.17876 5.25145 2.62609L5.25145 2.63424C5.24552 4.08046 4.07195 5.24996 2.62573 5.25144L2.61758 5.25144ZM2.62573 1.6596C2.37012 1.65849 2.12526 1.75999 1.94522 1.94077C1.66775 2.21564 1.58366 2.63165 1.73221 2.9932C1.88039 3.35476 2.23231 3.5911 2.62314 3.59185L2.62573 3.59185C3.15917 3.59296 3.59259 3.16139 3.5937 2.6272C3.59482 2.09376 3.16288 1.66034 2.62906 1.6596L2.62573 1.6596Z" transform="translate(8.137954 0.08964791)" id="Shape" fill="#FE7C77" fill-rule="evenodd" stroke="none" />
      <path d="M2.94833e-05 2.61797C0.00410441 1.16731 1.18398 -0.00478629 2.63427 2.94833e-05C4.08494 0.00225211 5.25888 1.1799 5.25666 2.63057C5.25444 4.08086 4.07679 5.25481 2.62575 5.25258L2.6176 5.25258C1.16731 5.24777 -0.00478629 4.06827 2.94833e-05 2.61797ZM2.62279 3.59299L2.62575 3.59299C3.15993 3.59373 3.59373 3.16179 3.59484 2.62797C3.59558 2.09379 3.16364 1.66037 2.62946 1.65963L2.62575 1.65963C2.09194 1.65852 1.65852 2.09083 1.65778 2.62464C1.65666 3.15845 2.0886 3.59188 2.62279 3.59299Z" transform="translate(0.06961439 0.06368725)" id="Shape" fill="#FE7C77" fill-rule="evenodd" stroke="none" />
    </g>
  </g>
</svg>