<?xml version="1.0" encoding="utf-8"?>
<svg width="121px" height="98px" viewBox="0 0 121 98" version="1.1" xmlns:xlink="http://www.w3.org/1999/xlink" xmlns="http://www.w3.org/2000/svg">
  <desc>Created with Lunacy</desc>
  <g id="Group-4">
    <path d="M69.1166 16.2216C78.4189 25.8117 83.2424 39.6354 77.5576 47.7568C71.8729 55.8782 55.766 58.2974 46.4637 67.6284C37.1614 76.9593 34.7497 93.1158 29.8401 95.6213C24.9305 98.2132 17.437 86.9815 16.5757 77.7369C15.7143 68.4059 21.3991 60.8893 17.2647 49.312C13.1304 37.7347 -0.823141 21.9238 0.0381861 12.3336C0.899513 2.65708 16.6618 -0.798843 31.3905 0.151535C46.1192 1.18831 59.9004 6.63138 69.1166 16.2216Z" id="Path" fill="#E9F0F9" fill-rule="evenodd" stroke="none" />
    <g id="1336796" transform="translate(31 20)">
      <path d="M43.3881 52.3514C43.3893 51.5355 43.435 50.7195 43.5252 49.909L12.3569 49.909C8.78414 49.9054 5.88839 47.0102 5.88413 43.4375L5.88413 0C2.55389 0.307125 0.00426566 3.09928 0 6.44414L0 49.321C0.004875 52.8938 2.89941 55.7889 6.47217 55.7938L43.6593 55.7938C43.4789 54.6542 43.3881 53.5043 43.3881 52.3514Z" transform="translate(2.5161092 2.60325)" id="Path" fill="#E9F0F9" fill-rule="evenodd" stroke="none" />
      <path d="M68.9971 9.16073L68.9971 32.9916C68.5608 32.9641 68.1202 32.9507 67.6754 32.9507C67.2019 32.9507 66.7345 32.9666 66.2683 32.9977L66.2683 18.5823L2.72878 18.5823L2.72878 51.7688C2.73305 55.3203 5.61052 58.1971 9.16073 58.2008L46.1151 58.2008C46.2278 58.9241 46.3777 59.6408 46.563 60.3488C46.6141 60.5438 46.669 60.7388 46.725 60.9296L9.16073 60.9296C4.10353 60.9247 0.00609375 56.826 0 51.7688L0 9.16073C0.00548437 4.10353 4.10353 0.00548434 9.16073 0L59.8364 0C64.8936 0.00609383 68.991 4.10353 68.9971 9.16073L68.9971 9.16073ZM66.2683 15.8535L66.2683 9.16073C66.264 5.61052 63.3866 2.73305 59.8364 2.72878L9.16073 2.72878C5.60991 2.73244 2.73244 5.60991 2.72878 9.16073L2.72878 15.8535L66.2683 15.8535Z" transform="translate(4.4337868E-15 0.0365625)" id="Shape" fill="#0635C9" stroke="none" />
      <g id="Group" transform="translate(4.68 5.46)">
        <path d="M23.1465 0.0408282C22.7102 0.0134063 22.2696 0 21.8248 0C21.3513 0 20.8839 0.0158438 20.4177 0.0469218C13.9114 0.478359 7.93712 3.79153 4.12487 9.08273C0.312619 14.3733 -0.938427 21.0893 0.71237 27.3981C0.763557 27.5931 0.818401 27.7881 0.874463 27.9788C3.99507 38.6161 14.5921 45.2254 25.5176 43.3491C36.4431 41.4734 44.2278 31.7076 43.6215 20.6389C43.0158 9.57084 34.2115 0.713578 23.1465 0.0408282L23.1465 0.0408282ZM21.8248 40.9305C13.1522 40.9317 5.56604 35.0903 3.35218 26.7046C3.3211 26.5834 3.28942 26.4633 3.26017 26.3396C1.8842 20.6529 3.18826 14.65 6.79942 10.0462C10.4112 5.44294 15.9309 2.74706 21.7821 2.72878L21.8248 2.72878C32.3743 2.72878 40.9256 11.2808 40.9256 21.8296C40.9256 32.3791 32.3743 40.9305 21.8248 40.9305L21.8248 40.9305Z" transform="translate(41.17058 27.527296)" id="Shape" fill="#FE7C77" stroke="none" />
        <path d="M22.8113 0C22.0581 0.00121883 21.4475 0.611203 21.4469 1.36439C21.4469 8.05594 15.4933 11.619 11.1954 11.619C8.49767 11.619 6.2052 10.4983 4.53734 9.10406L6.84626 9.16256C7.60006 9.18206 8.22589 8.58548 8.24478 7.83291C8.26428 7.07911 7.66831 6.45328 6.91512 6.43439L1.72264 6.30338C1.25037 6.17541 0.744591 6.30947 0.399075 6.65559C0.0529503 7.00233 -0.0805029 7.5075 0.0480753 7.97977L0.179091 13.1698C0.197982 13.9096 0.8037 14.5001 1.54348 14.4995L1.57822 14.4995C2.33079 14.48 2.92615 13.8554 2.90787 13.1022L2.86034 11.2716C5.19181 13.2429 8.1424 14.3319 11.1954 14.3477C18.96 14.3477 24.1757 7.63486 24.1757 1.36439C24.1757 0.611203 23.5651 8.86757e-15 22.8113 8.86757e-15L22.8113 0Z" transform="translate(51.878597 47.992546)" id="Path" fill="#00AF96" fill-rule="evenodd" stroke="none" />
        <path d="M2.72878 13.0953C2.72878 8.79797 6.2918 2.84377 12.9827 2.84377C15.681 2.84377 17.9729 3.96441 19.6395 5.35744L17.3318 5.29894L17.2965 5.29894C16.5622 5.31661 15.9735 5.91197 15.9644 6.64627C15.9559 7.38118 16.5299 7.99116 17.263 8.0259L22.4555 8.1563C22.9277 8.28427 23.4323 8.1496 23.7772 7.80286C24.1227 7.45674 24.2568 6.95157 24.1282 6.48052L23.9972 1.29169C23.9576 0.554348 23.3385 -0.0178552 22.6011 0.000426082C21.8625 0.0187073 21.2733 0.621989 21.2708 1.36055L21.3153 3.18868C18.9845 1.21857 16.0351 0.130832 12.9827 0.114989C5.21747 0.114989 0 6.82664 0 13.0953C0 13.8491 0.611812 14.4597 1.36439 14.4597C2.11819 14.4597 2.72878 13.8491 2.72878 13.0953L2.72878 13.0953Z" transform="translate(49.936455 36.261654)" id="Path" fill="#0DAE96" fill-rule="evenodd" stroke="none" />
        <path d="M3.80739 7.62634L3.81897 7.62634C5.92436 7.62999 7.63488 5.92557 7.63792 3.81957C7.64097 1.71296 5.93594 0.00305498 3.82994 8.14619e-06L3.81897 8.14619e-06C1.71297 -0.00303869 0.00306278 1.70138 1.59431e-05 3.80738C-0.00424972 5.91338 1.70078 7.62329 3.80739 7.62634ZM3.05298 3.04445C3.2553 2.84091 3.53195 2.72757 3.81897 2.72818L3.82019 2.72818C4.4192 2.7294 4.90488 3.21507 4.90427 3.81409C4.90366 4.4131 4.41798 4.89816 3.81897 4.89756L3.8147 4.89756C3.37656 4.89695 2.98108 4.63126 2.81472 4.22602C2.64775 3.82018 2.74159 3.3534 3.05298 3.04445Z" transform="translate(22.066671 0.15294501)" id="Shape" fill="#FE7C77" stroke="none" />
        <path d="M6.5252 1.12674C5.81405 0.406461 4.84454 0.000617479 3.83359 8.14329e-06L3.81957 8.14329e-06C1.71418 -0.00303869 0.00366432 1.70199 8.14329e-06 3.80738C-0.00303869 5.91338 1.70199 7.62329 3.80738 7.62634L3.81957 7.62634C5.9207 7.62512 7.62512 5.92618 7.63426 3.82566C7.64096 2.8141 7.24121 1.84154 6.5252 1.12674ZM4.90548 3.81835C4.90243 4.41615 4.41737 4.89877 3.81957 4.89816L3.81774 4.89816C3.21812 4.89816 2.73366 4.41127 2.73427 3.81226C2.73488 3.21385 3.22056 2.72818 3.81957 2.72879L3.82384 2.72879C4.42285 2.73001 4.9073 3.21751 4.90548 3.81652L4.90548 3.81835Z" transform="translate(11.063195 0.11760119)" id="Shape" fill="#FE7C77" stroke="none" />
        <path d="M7.63304 3.82384C7.63913 1.71784 5.93715 0.00549606 3.83054 1.17204e-05L3.81896 1.17204e-05C1.71296 -0.00364461 0.00305498 1.70139 8.14619e-06 3.808C-0.00303869 5.914 1.70138 7.6239 3.80738 7.62695L3.81896 7.62695C5.91948 7.6239 7.62329 5.92436 7.63304 3.82384ZM3.81896 4.89817L3.8153 4.89817C3.2169 4.89451 2.73366 4.40701 2.73549 3.80861C2.7361 3.21081 3.22116 2.72757 3.81896 2.72879L3.82262 2.72879C4.42163 2.73062 4.90609 3.2169 4.90426 3.81592C4.90121 4.41371 4.41676 4.89634 3.81896 4.89817Z" transform="translate(0.06336685 0.08469144)" id="Shape" fill="#FE7C77" stroke="none" />
      </g>
    </g>
  </g>
</svg>