<?xml version="1.0" encoding="utf-8"?>
<svg width="87px" height="79px" viewBox="0 0 87 79" version="1.1" xmlns:xlink="http://www.w3.org/1999/xlink" xmlns="http://www.w3.org/2000/svg">
  <desc>Created with Lunacy</desc>
  <g id="Group">
    <path d="M54.3209 10.2326C63.4926 17.8437 70.3078 29.4202 69.9893 40.7409C69.6071 51.9977 62.1551 62.8707 52.9833 70.034C43.7478 77.1974 32.9201 80.5873 24.3215 78.2847C15.7867 75.9822 9.48111 67.9874 7.06078 60.824C4.64045 53.6606 6.04169 47.3287 4.44937 39.4617C2.85705 31.5308 -1.72883 22.0649 0.691497 14.4538C3.11182 6.90671 12.5384 1.21437 23.1114 0.191031C33.6207 -0.896269 45.1491 2.68542 54.3209 10.2326Z" transform="translate(17 0)" id="Path" fill="#E9F0F9" fill-rule="evenodd" stroke="none" />
    <g id="1336791" transform="translate(0 24)">
      <path d="M49.4323 39.5473L10.3132 39.5473C7.23778 39.5448 4.74504 37.052 4.74171 33.9758L4.74171 0.774603C4.74208 0.515291 4.7606 0.256719 4.79691 0C2.04783 0.388968 0.00333401 2.74056 0 5.51631L0 38.7175C0.00333401 41.7937 2.49607 44.2865 5.57151 44.2891L44.6906 44.2891C47.4667 44.2861 49.818 42.2416 50.2069 39.4929C49.9506 39.5288 49.6916 39.5473 49.4323 39.5473Z" transform="translate(0 0.062975794)" id="Path" fill="#E9F0F9" fill-rule="evenodd" stroke="none" />
      <path d="M50.2621 5.57151L50.2621 38.7727C50.2588 41.8489 47.7661 44.3417 44.6906 44.3443L5.57151 44.3443C2.49607 44.3417 0.00333401 41.8489 0 38.7727L0 5.57151C0.00333401 2.49607 2.49607 0.00333409 5.57151 0L44.6906 0C47.7661 0.00333409 50.2588 2.49607 50.2621 5.57151ZM48.6025 38.7727L48.6025 13.2875L1.6596 13.2875L1.6596 38.7727C1.66182 40.9324 3.41181 42.6828 5.57151 42.6847L44.6906 42.6847C46.8503 42.6828 48.6003 40.9324 48.6025 38.7727ZM48.6025 11.6279L48.6025 5.57151C48.6003 3.41181 46.8503 1.66219 44.6906 1.6596L5.57151 1.6596C3.41181 1.66219 1.66182 3.41181 1.6596 5.57151L1.6596 11.6279L48.6025 11.6279Z" transform="translate(0 0.0077793445)" id="Shape" fill="#0635C9" stroke="none" />
      <g id="Group" transform="translate(3.4140313 3.9830365)">
        <path d="M6.75138 4.7579L1.38139 0.185858C1.03169 -0.0986449 0.518992 -0.0512278 0.22634 0.291805C-0.0659424 0.635209 -0.0303796 1.14939 0.306726 1.44945L4.93323 5.38951L0.306726 9.33032C0.0729749 9.51999 -0.0396407 9.82116 0.0125922 10.1175C0.0644546 10.4142 0.273016 10.6591 0.557148 10.7576C0.841651 10.8566 1.1569 10.794 1.38139 10.5939L6.75138 6.02149C6.9366 5.86369 7.04366 5.63327 7.04366 5.38951C7.04366 5.1465 6.9366 4.91534 6.75138 4.7579L6.75138 4.7579Z" transform="translate(26.172392 17.4922)" id="Path" fill="#FE7C77" fill-rule="evenodd" stroke="none" />
        <path d="M4.34703 0.0179823C3.89879 -0.0764815 3.45907 0.210614 3.36461 0.658854L0.0179991 16.5488C-0.0764647 16.9966 0.210261 17.4364 0.6585 17.5316C0.714808 17.543 0.772227 17.549 0.830387 17.549C1.22232 17.5486 1.56091 17.2741 1.64203 16.89L4.98827 1.00078C5.082 0.552536 4.79527 0.112446 4.34703 0.0179823Z" transform="translate(18.985516 14.164177)" id="Path" fill="#FE7C77" fill-rule="evenodd" stroke="none" />
        <path d="M2.62165 5.25182L2.63017 5.25182C4.07677 5.25108 5.25071 4.08121 5.25553 2.63388L5.25553 2.62573C5.25404 1.17914 4.0838 0.00630395 2.63721 6.29283e-06L2.63017 6.29283e-06C1.17988 -0.00221634 0.00222892 1.17173 6.29337e-06 2.62165C-0.00221643 4.07195 1.17173 5.24923 2.62165 5.25182ZM2.63017 1.6596L2.6324 1.6596C3.16584 1.66035 3.59815 2.09377 3.59704 2.62721C3.59667 3.16065 3.16362 3.59259 2.63017 3.59222L2.62647 3.59222C2.09303 3.59111 1.66109 3.15769 1.66183 2.62425C1.66294 2.09043 2.09636 1.65886 2.63017 1.6596Z" transform="translate(16.202936 0.11446153)" id="Shape" fill="#FE7C77" stroke="none" />
        <path d="M0 5.38951C0 5.63253 0.106688 5.86369 0.291912 6.0215L5.6619 10.5939C6.0116 10.878 6.5243 10.831 6.81695 10.4872C7.10923 10.1442 7.07367 9.63038 6.73656 9.33032L2.11006 5.38951L6.73656 1.44945C7.07367 1.14939 7.10923 0.635209 6.81695 0.291805C6.5243 -0.0512278 6.0116 -0.0986449 5.6619 0.185858L0.291912 4.7579C0.106688 4.91571 0 5.1465 0 5.38951L0 5.38951Z" transform="translate(10.218386 17.4922)" id="Path" fill="#FE7C77" fill-rule="evenodd" stroke="none" />
        <path d="M6.31123e-06 2.61757C-0.00221641 4.06713 1.16839 5.24515 2.61758 5.25144L2.62573 5.25144C4.07195 5.24996 5.24552 4.08046 5.25145 2.63424L5.25145 2.62609C5.25108 1.17876 4.08084 0.00518629 2.63425 0L2.62573 0C1.17877 0.000370517 0.0051926 1.17098 6.31123e-06 2.61757ZM1.94522 1.94077C2.12526 1.75999 2.37012 1.65849 2.62573 1.6596L2.62906 1.6596C3.16288 1.66034 3.59482 2.09376 3.5937 2.6272C3.59259 3.16139 3.15917 3.59296 2.62573 3.59185L2.62314 3.59185C2.23231 3.5911 1.88039 3.35476 1.73221 2.9932C1.58366 2.63165 1.66775 2.21564 1.94522 1.94077Z" transform="translate(8.137954 0.08964791)" id="Shape" fill="#FE7C77" stroke="none" />
        <path d="M2.63427 2.94833e-05C1.18398 -0.00478629 0.00410441 1.16731 2.94833e-05 2.61797C-0.00478629 4.06827 1.16731 5.24777 2.6176 5.25258L2.62575 5.25258C4.07679 5.25481 5.25444 4.08086 5.25666 2.63057C5.25888 1.1799 4.08494 0.00225211 2.63427 2.94833e-05ZM2.62575 3.59299L2.62279 3.59299C2.0886 3.59188 1.65666 3.15845 1.65778 2.62464C1.65852 2.09083 2.09194 1.65852 2.62575 1.65963L2.62946 1.65963C3.16364 1.66037 3.59558 2.09379 3.59484 2.62797C3.59373 3.16179 3.15993 3.59373 2.62575 3.59299Z" transform="translate(0.06961439 0.06368725)" id="Shape" fill="#FE7C77" stroke="none" />
      </g>
    </g>
  </g>
</svg>