<?xml version="1.0" encoding="utf-8"?>
<svg width="64px" height="54px" viewBox="0 0 64 54" version="1.1" xmlns:xlink="http://www.w3.org/1999/xlink" xmlns="http://www.w3.org/2000/svg">
  <desc>Created with Lunacy</desc>
  <g id="1336833">
    <path d="M37.66 35.8498L8.87633 35.8498C6.3093 35.8466 4.22953 33.7668 4.2268 31.2003L4.2268 0C1.83422 0.220938 0.00273434 2.22633 0 4.6293L0 35.4271C0.00328132 37.993 2.0825 40.0728 4.64898 40.0761L36.54 40.0761L37.66 35.8498Z" transform="translate(1.962734 1.759297)" id="Path" fill="#D4E1F4" stroke="none" />
    <path d="M49.56 24.7997L49.56 6.58C49.5551 2.94766 46.6123 0.00437497 42.98 0L6.58 0C2.94766 0.00382813 0.004375 2.94766 0 6.58L0 37.1853C0.00382813 40.8177 2.94766 43.7615 6.58 43.7653L34.3558 43.7653C34.265 43.2616 34.463 42.7492 34.8698 42.438L34.9092 42.4102L35.7979 41.8053L6.58 41.8053C4.02938 41.8026 1.96273 39.7359 1.96 37.1853L1.96 13.3487L47.6 13.3487L47.6 24.7997L49.56 24.7997ZM47.6 6.58L47.6 11.3887L1.96 11.3887L1.96 6.58C1.96328 4.02938 4.02992 1.96273 6.58 1.96L42.98 1.96C45.5301 1.96328 47.5967 4.02992 47.6 6.58Z" transform="translate(0 0.01367187)" id="Shape" fill="#0635C9" fill-rule="evenodd" stroke="none" />
    <g id="Group" transform="translate(3.36 3.92)">
      <path d="M28.3706 9.69784C28.7146 10.2934 28.5609 11.0524 28.0119 11.4675L27.9911 11.4828L25.3158 13.3854C25.3694 13.7715 25.3978 14.1603 25.4011 14.5503C25.3984 14.9451 25.3688 15.3394 25.3131 15.7304L27.8106 17.6314C28.3646 18.0437 28.5205 18.8066 28.1716 19.4027L25.3103 24.3278C24.9702 24.8846 24.2773 25.1142 23.6719 24.8709L23.6216 24.8501L20.6509 23.4824C20.0237 23.9341 19.3516 24.3196 18.645 24.633L18.3464 27.9214C18.2835 28.5946 17.7148 29.107 17.0388 29.1004L11.3169 29.1004C10.6918 29.0867 10.1581 28.6432 10.0306 28.0307L10.0137 27.9635L9.71126 24.6314C9.0118 24.3092 8.34407 23.9226 7.71626 23.4764L4.75931 24.8375C4.45962 25.0147 4.09649 25.0514 3.76673 24.9382C3.4643 24.8277 3.21001 24.6139 3.04868 24.3349L3.04157 24.3224L0.18032 19.3983C0.10157 19.2649 0.0479766 19.1183 0.0217266 18.9657C-0.0690548 18.4621 0.128914 17.9496 0.535789 17.6385L0.575164 17.6106L1.46384 17.0057L3.37188 15.7064C3.31774 15.3235 3.2893 14.9369 3.28657 14.5503C3.2893 14.1603 3.31774 13.7715 3.37188 13.3854L0.683992 11.473C0.123445 11.0612 -0.0340548 10.2912 0.32032 9.69237L3.17774 4.77268C3.47579 4.2362 4.21516 3.9901 4.8211 4.23073L4.86595 4.25042L7.83821 5.61815C8.46493 5.16589 9.13759 4.78034 9.84415 4.46753L10.1411 1.18026C10.2051 0.50651 10.7738 -0.00591172 11.4503 0.000103938L17.1717 0.000103938C17.7979 0.0137759 18.3311 0.457838 18.4585 1.07089L18.4738 1.13651L18.7763 4.46753C19.4763 4.79018 20.1445 5.17737 20.7729 5.62362L23.7282 4.26299C24.2587 3.96768 25.0063 4.04589 25.4405 4.76995L28.3706 9.69784ZM23.3208 13.2733L23.2076 12.4798L26.3964 10.2114L24.0531 6.27057L20.535 7.89042L19.9077 7.41846C19.2116 6.89237 18.4536 6.45323 17.6508 6.11253L16.93 5.80409L16.5811 1.9601L12.0393 1.9601L11.6909 5.80299L10.9702 6.11253C10.1766 6.43135 9.43126 6.85956 8.75641 7.3851L8.12094 7.90573L4.57173 6.27331L2.28688 10.2086L5.48063 12.4798L5.36688 13.2722C5.2072 14.1144 5.20665 14.979 5.36579 15.8212L5.47899 16.6136L4.80579 17.1009L2.31532 18.7962L2.30821 18.8022L2.16001 18.9028L4.44048 22.8272L7.95305 21.2112L8.58032 21.6815C9.27649 22.2076 10.0345 22.6462 10.8367 22.988L11.5581 23.2975L11.9064 27.1404L16.4493 27.1404L16.7982 23.2975L17.5179 22.988C18.3114 22.6686 19.0568 22.2404 19.7327 21.7154L20.3682 21.1948L23.9158 22.8272L26.2105 18.8777L23.2103 16.5912L23.3208 15.8256C23.481 14.9823 23.481 14.1166 23.3208 13.2733Z" transform="translate(30.97405 20.89326)" id="Shape" fill="#FE7C77" fill-rule="evenodd" stroke="none" />
      <path d="M0 7.98875C0 3.50875 3.50984 0 7.9882 0C12.4682 0 15.978 3.50875 15.978 7.98875C15.978 12.4688 12.4671 15.977 7.9882 15.977C3.50984 15.977 0 12.4688 0 7.98875ZM1.96164 7.98766C1.96109 11.317 4.65938 14.0164 7.9882 14.017C9.59273 14.035 11.1366 13.4055 12.2713 12.2713C13.4061 11.1366 14.0355 9.59274 14.018 7.98875C14.018 4.65938 11.3192 1.96055 7.99039 1.96C4.66102 1.96 1.96164 4.65828 1.96164 7.98766Z" transform="translate(37.26242 27.45477)" id="Shape" fill="#FE7C77" fill-rule="evenodd" stroke="none" />
      <path d="M0 4.13735C0 1.85251 1.85172 0.000244723 4.13656 0.000244723C5.23742 -0.0117866 6.29672 0.420245 7.07547 1.19899C7.85367 1.9772 8.2857 3.03649 8.27367 4.13735C8.27367 6.4222 6.42141 8.27446 4.13656 8.27446C1.85172 8.27446 0 6.4222 0 4.13735ZM1.96 4.13735C1.96 5.33939 2.93453 6.31446 4.13656 6.31446C4.71625 6.32048 5.27352 6.09353 5.68312 5.68337C6.09273 5.27376 6.32023 4.71649 6.31367 4.13735C6.31367 2.93478 5.33914 1.96024 4.13656 1.96024C2.93453 1.96024 1.96 2.93478 1.96 4.13735Z" transform="translate(41.11406 31.30616)" id="Shape" fill="#FE7C77" fill-rule="evenodd" stroke="none" />
      <path d="M2.74423 9.13013e-06L2.75243 9.13013e-06C4.26509 0.00219663 5.48954 1.23048 5.48735 2.74313C5.48517 4.25579 4.25688 5.48024 2.74423 5.47806L2.73438 5.47806C1.22173 5.47532 -0.00272521 4.24649 9.12607e-06 2.73384C0.00274347 1.22118 1.23157 -0.00272521 2.74423 9.13013e-06ZM2.74423 3.51806C2.94985 3.51806 3.14727 3.43657 3.29274 3.2911C3.43985 3.14563 3.52243 2.94767 3.52243 2.74095C3.52352 2.31056 3.17571 1.9611 2.74532 1.96001L2.74423 1.96001C2.31384 1.95892 1.96438 2.30727 1.96384 2.73767C1.96274 3.16751 2.3111 3.51696 2.74149 3.51806L2.74423 3.51806Z" transform="translate(15.85062 0.1006159)" id="Shape" fill="#FE7C77" fill-rule="evenodd" stroke="none" />
      <path d="M2.74368 9.12607e-06L2.75352 9.12607e-06C4.26618 0.00219677 5.49063 1.23048 5.48844 2.74313C5.48571 4.25579 4.25743 5.48024 2.74477 5.47806L2.73493 5.47806C1.22227 5.47587 -0.00218179 4.24759 5.8458e-06 2.73438C0.00274019 1.22173 1.23102 -0.00272521 2.74368 9.12607e-06ZM2.74368 3.51806C2.94985 3.51915 3.14837 3.43767 3.29383 3.2911C3.51696 3.06907 3.58477 2.73384 3.46501 2.44235C3.34524 2.15142 3.06141 1.96056 2.74641 1.96001L2.74368 1.96001C2.31438 1.96001 1.96602 2.30727 1.96493 2.73657C1.96438 3.16696 2.31219 3.51642 2.74204 3.51806L2.74368 3.51806Z" transform="translate(7.948276 0.07545955)" id="Shape" fill="#FE7C77" fill-rule="evenodd" stroke="none" />
      <path d="M2.74313 5.84505e-06L2.75133 5.84505e-06C4.26454 0.00274018 5.48899 1.23102 5.48626 2.74368C5.48407 4.25633 4.25579 5.48079 2.74313 5.4786L2.73493 5.4786C1.22227 5.47587 -0.00218179 4.24813 5.8458e-06 2.73493C0.00219321 1.22227 1.23047 -0.00218166 2.74313 5.84505e-06ZM2.74313 3.5186C3.17243 3.5186 3.52079 3.17188 3.52297 2.74258L3.52297 2.74149C3.52297 2.31165 3.17571 1.96274 2.74587 1.96001L2.74313 1.96001C2.53751 1.96001 2.34008 2.04149 2.19462 2.18696C2.04696 2.33188 1.96383 2.5304 1.96493 2.73712C1.96383 3.16696 2.31055 3.51641 2.7404 3.5186L2.74313 3.5186Z" transform="translate(0.04702548 0.04975982)" id="Shape" fill="#FE7C77" fill-rule="evenodd" stroke="none" />
    </g>
  </g>
</svg>