<?xml version="1.0" encoding="utf-8"?>
<svg width="88px" height="78px" viewBox="0 0 88 78" version="1.1" xmlns:xlink="http://www.w3.org/1999/xlink" xmlns="http://www.w3.org/2000/svg">
  <desc>Created with Lunacy</desc>
  <g id="Group-204">
    <path d="M54.8948 0.106937C61.6347 1.04243 66.8909 8.39876 65.8736 15.0322C64.8139 21.6657 57.4806 27.5337 52.0124 32.1687C46.5442 36.8036 42.9835 40.1628 37.5577 45.0104C32.1319 49.9004 24.7986 56.2362 20.1358 54.7905C15.4306 53.3447 13.3959 44.0749 9.4961 36.3784C5.5963 28.6393 -0.0838401 22.4311 0.000938075 16.478C0.128105 10.5249 6.06258 4.78438 12.3362 3.76384C18.6098 2.74331 25.2648 6.44274 32.6829 5.54978C40.0586 4.65681 48.1973 -0.828551 54.8948 0.106937Z" id="Path" fill="#E9F0F9" fill-rule="evenodd" stroke="none" />
    <g id="1336782" transform="translate(22 21)">
      <path d="M8.97982 36.2726C6.38331 36.2695 4.27934 34.1651 4.27577 31.569L4.27577 0.409107C4.27577 0.270805 4.28335 0.135179 4.29495 0C1.86619 0.214145 0.00267687 2.24719 0 4.68532L0 35.8452C0.00312298 38.4413 2.1071 40.5453 4.70361 40.5488L37.719 40.5488L41.9952 36.2726L8.97982 36.2726Z" transform="translate(1.8175577 2.146806)" id="Path" fill="#E9F0F9" fill-rule="evenodd" stroke="none" />
      <path d="M50.458 6.69918L50.458 30.7968L48.4624 32.7923L48.4624 13.5911L1.99557 13.5911L1.99557 37.8591C1.99824 40.4561 4.10222 42.5609 6.69918 42.5631L38.6916 42.5631L37.2863 43.9689C37.2733 43.9814 37.2604 43.997 37.2479 44.0113C37.2403 44.018 37.2341 44.0251 37.2278 44.0327C37.2033 44.0622 37.1805 44.0934 37.1591 44.1251C37.1555 44.1309 37.152 44.1371 37.1479 44.1425C37.1314 44.1692 37.1163 44.1969 37.1024 44.225C37.0962 44.2357 37.0913 44.2469 37.0868 44.2576C37.0739 44.2839 37.0636 44.3107 37.0538 44.3379C37.0511 44.3446 37.0485 44.3508 37.0449 44.3575L36.9784 44.5583L6.69918 44.5583C3.00116 44.5551 0.00401522 41.558 0 37.8591L0 6.69918C0.00401522 3.00116 3.00116 0.00401519 6.69918 0L43.7588 0C47.4568 0.00446142 50.4535 3.00116 50.458 6.69918ZM48.4624 11.5955L48.4624 6.69918C48.4593 4.10311 46.3549 1.99914 43.7588 1.99557L6.69918 1.99557C4.10222 1.99824 1.99824 4.10267 1.99557 6.69918L1.99557 11.5955L48.4624 11.5955Z" transform="translate(-6.502887E-15 0.0981499)" id="Shape" fill="#0635C9" stroke="none" />
      <g id="Group" transform="translate(3.426324 4.1115885)">
        <path d="M24.0063 0.291438C23.6159 -0.0971461 22.9846 -0.0971461 22.5952 0.291438L5.07586 17.8108L3.67053 19.2165C3.65759 19.229 3.64465 19.2446 3.63216 19.2589C3.62458 19.2656 3.61833 19.2727 3.61208 19.2803C3.58755 19.3098 3.56479 19.341 3.54338 19.3727C3.53981 19.3785 3.53624 19.3847 3.53223 19.3901C3.51572 19.4168 3.50055 19.4445 3.48672 19.4726C3.48047 19.4833 3.47557 19.4945 3.4711 19.5052C3.45817 19.5315 3.44791 19.5583 3.43809 19.5855C3.43541 19.5922 3.43274 19.5984 3.42917 19.6051L3.36269 19.8059L0.0514733 29.744C-0.0685372 30.1022 0.0251513 30.4975 0.292387 30.7648C0.559176 31.032 0.954452 31.1248 1.31315 31.0052L11.4502 27.6262C11.456 27.6244 11.4601 27.6217 11.4659 27.6199C11.4953 27.6088 11.5256 27.5972 11.5538 27.5842C11.5618 27.5798 11.5703 27.5767 11.5783 27.5731C11.6131 27.5561 11.647 27.537 11.68 27.516C11.68 27.5151 11.6805 27.5147 11.6809 27.5147C11.713 27.4928 11.7442 27.4696 11.7737 27.4446C11.7822 27.4379 11.7906 27.4308 11.7996 27.4219C11.8138 27.4107 11.8272 27.3978 11.8406 27.3848L30.7639 8.46153C31.1534 8.07249 31.1534 7.44032 30.7639 7.05084L24.0063 0.291438ZM2.57393 28.4814L4.81219 21.7675L9.28782 26.2432L2.57393 28.4814ZM11.1353 25.2679L8.46113 22.5942L5.78744 19.9219L6.19476 19.5141L16.55 9.15884L19.5833 6.126L24.9311 11.4738L11.1353 25.2679ZM26.3423 10.0623L20.9944 4.71443L23.3005 2.40835L28.6474 7.75618L26.3423 10.0623Z" transform="translate(30.189404 20.738962)" id="Shape" fill="#FE7C77" stroke="none" />
        <path d="M2.78568 5.5776L2.79415 5.5776C4.32975 5.57626 5.57625 4.33377 5.58205 2.79817L5.58205 2.78835C5.58027 1.25275 4.33823 0.00669589 2.80263 3.82335e-06L2.79237 3.82335e-06C1.25231 -0.00178072 0.0022328 1.24472 2.15197e-06 2.78568C-0.00133628 4.32574 1.24517 5.57536 2.78568 5.5776ZM2.2338 2.22667C2.38281 2.07855 2.58402 1.99557 2.79415 1.99557L2.79504 1.99557C3.23315 1.99602 3.58872 2.35114 3.58783 2.78925C3.58738 3.22735 3.23226 3.58203 2.79415 3.58203L2.79147 3.58203C2.35292 3.58114 1.99914 3.22467 2.00003 2.78657C2.00048 2.57599 2.0848 2.37523 2.2338 2.22667Z" transform="translate(16.132273 0.06468585)" id="Shape" fill="#FE7C77" stroke="none" />
        <path d="M2.78479 5.57715L2.7946 5.57715C4.33109 5.57492 5.57626 4.33243 5.58295 2.79683L5.58295 2.78791C5.58072 1.25231 4.33912 0.00669792 2.80352 5.97038e-06L2.79371 5.97038e-06C1.25365 -0.00222468 0.00312883 1.24428 5.96886e-06 2.78434C-0.0022248 4.3244 1.24473 5.57492 2.78479 5.57715ZM2.2347 2.22489C2.38326 2.07721 2.58403 1.99513 2.79371 1.99557L2.79639 1.99557C3.23449 1.99646 3.58872 2.35293 3.58738 2.79059C3.58515 3.22825 3.23048 3.58203 2.79371 3.58203L2.79192 3.58203C2.47115 3.58069 2.18206 3.38618 2.06026 3.0895C1.93847 2.79237 2.00762 2.45152 2.2347 2.22489Z" transform="translate(8.086654 0.040592425)" id="Shape" fill="#FE7C77" stroke="none" />
        <path d="M2.78434 5.57715L2.79282 5.57715C4.32842 5.57492 5.57447 4.33332 5.5825 2.79772L5.5825 2.78925C5.58072 1.25276 4.33779 0.00669804 2.80129 5.97038e-06L2.79282 5.97038e-06C1.25276 -0.00222468 0.00223662 1.24428 5.97099e-06 2.78434C-0.00222479 4.3244 1.24428 5.57492 2.78434 5.57715ZM2.23425 2.22622C2.38193 2.07766 2.58358 1.99423 2.79282 1.99557L2.79549 1.99557C3.23405 1.99646 3.58783 2.35248 3.58694 2.79059C3.58471 3.22735 3.23003 3.58114 2.79282 3.58159L2.79014 3.58159C2.57956 3.58159 2.37791 3.49771 2.22979 3.34781C2.08168 3.19835 1.99959 2.99625 2.00048 2.78657C1.99959 2.57555 2.08346 2.37345 2.23425 2.22622Z" transform="translate(0.04237697 0.015162594)" id="Shape" fill="#FE7C77" stroke="none" />
      </g>
    </g>
  </g>
</svg>