<?xml version="1.0" encoding="utf-8"?>
<svg width="36px" height="39px" viewBox="0 0 36 39" version="1.1" xmlns:xlink="http://www.w3.org/1999/xlink" xmlns="http://www.w3.org/2000/svg">
  <desc>Created with Lunacy</desc>
  <g id="явд" fill="#F9F9F9">
    <path d="M22.5 28.6758L29.25 28.6758C30.492 28.6758 31.5 27.6678 31.5 26.4258L31.5 19.6758C31.5 18.4338 30.492 17.4258 29.25 17.4258L22.5 17.4258C21.258 17.4258 20.25 18.4338 20.25 19.6758L20.25 26.4258C20.25 27.6678 21.258 28.6758 22.5 28.6758ZM22.5 19.6758L29.25 19.6758L29.25 26.4258L22.5 26.4258L22.5 19.6758ZM11.25 24.7383C12.1815 24.7383 12.9375 23.9823 12.9375 23.0508C12.9375 22.1193 12.1815 21.3633 11.25 21.3633C10.3185 21.3633 9.5625 22.1193 9.5625 23.0508C9.5625 23.9823 10.3185 24.7383 11.25 24.7383ZM11.25 29.8008C14.976 29.8008 18 26.7768 18 23.0508C18 19.3248 14.976 16.3008 11.25 16.3008C7.52399 16.3008 4.5 19.3248 4.5 23.0508C4.5 26.7768 7.52399 29.8008 11.25 29.8008ZM11.25 18.5508C13.734 18.5508 15.75 20.5668 15.75 23.0508C15.75 25.5348 13.734 27.5508 11.25 27.5508C8.76599 27.5508 6.75 25.5348 6.75 23.0508C6.75268 20.5695 8.76874 18.5535 11.25 18.5508ZM34.875 7.30078L1.125 7.30078C0.503998 7.30078 0 7.80478 0 8.42578L0 30.9258C0 32.7888 1.51199 34.3008 3.375 34.3008L32.625 34.3008C34.488 34.3008 36 32.7888 36 30.9258L36 8.42578C36 7.80478 35.496 7.30078 34.875 7.30078ZM33.75 30.9258C33.75 31.5468 33.246 32.0508 32.625 32.0508L3.375 32.0508C2.754 32.0508 2.25 31.5468 2.25 30.9258L2.25 14.0508L33.75 14.0508L33.75 30.9258ZM33.75 11.8008L2.25 11.8008L2.25 9.55078L33.75 9.55078L33.75 11.8008Z" />
  </g>
</svg>