<?xml version="1.0" encoding="utf-8"?>
<svg width="36px" height="39px" viewBox="0 0 36 39" version="1.1" xmlns:xlink="http://www.w3.org/1999/xlink" xmlns="http://www.w3.org/2000/svg">
  <desc>Created with Lunacy</desc>
  <g id="" fill="#FFFFFF">
    <path d="M12.375 5.05078L4.5 5.05078C2.01798 5.05078 0 7.06876 0 9.55078L0 18.5508C0 21.0328 2.01798 23.0508 4.5 23.0508L9 23.0508L9 24.7383C9 26.911 7.23518 28.6758 5.0625 28.6758L3.9375 28.6758C2.38362 28.6758 1.125 29.9344 1.125 31.4883L1.125 33.7383C1.125 35.2922 2.38362 36.5508 3.9375 36.5508L5.0625 36.5508C11.5734 36.5508 16.875 31.2492 16.875 24.7383L16.875 9.55078C16.875 7.06876 14.857 5.05078 12.375 5.05078ZM14.625 24.7383C14.625 30.0187 10.3429 34.3008 5.0625 34.3008L3.9375 34.3008C3.6281 34.3008 3.375 34.0477 3.375 33.7383L3.375 31.4883C3.375 31.1789 3.6281 30.9258 3.9375 30.9258L5.0625 30.9258C8.47966 30.9258 11.25 28.1554 11.25 24.7383L11.25 20.8008L4.5 20.8008C3.25546 20.8008 2.25 19.7953 2.25 18.5508L2.25 9.55078C2.25 8.30624 3.25546 7.30078 4.5 7.30078L12.375 7.30078C13.6195 7.30078 14.625 8.30624 14.625 9.55078L14.625 24.7383ZM31.5 5.05078L23.625 5.05078C21.143 5.05078 19.125 7.06876 19.125 9.55078L19.125 18.5508C19.125 21.0328 21.143 23.0508 23.625 23.0508L28.125 23.0508L28.125 24.7383C28.125 26.911 26.3602 28.6758 24.1875 28.6758L23.0625 28.6758C21.5086 28.6758 20.25 29.9344 20.25 31.4883L20.25 33.7383C20.25 35.2922 21.5086 36.5508 23.0625 36.5508L24.1875 36.5508C30.6984 36.5508 36 31.2492 36 24.7383L36 9.55078C36 7.06876 33.982 5.05078 31.5 5.05078ZM33.75 24.7383C33.75 30.0187 29.4679 34.3008 24.1875 34.3008L23.0625 34.3008C22.7531 34.3008 22.5 34.0477 22.5 33.7383L22.5 31.4883C22.5 31.1789 22.7531 30.9258 23.0625 30.9258L24.1875 30.9258C27.6047 30.9258 30.375 28.1554 30.375 24.7383L30.375 20.8008L23.625 20.8008C22.3805 20.8008 21.375 19.7953 21.375 18.5508L21.375 9.55078C21.375 8.30624 22.3805 7.30078 23.625 7.30078L31.5 7.30078C32.7445 7.30078 33.75 8.30624 33.75 9.55078L33.75 24.7383Z" />
  </g>
</svg>