<?xml version="1.0" encoding="utf-8"?>
<svg width="45px" height="39px" viewBox="0 0 45 39" version="1.1" xmlns:xlink="http://www.w3.org/1999/xlink" xmlns="http://www.w3.org/2000/svg">
  <desc>Created with Lunacy</desc>
  <g id="" fill="#FFFFFF">
    <path d="M29.899 31.3821C30.2639 31.7509 30.9812 32.0505 31.5 32.0508L36 32.0508C37.242 32.0508 38.25 31.0428 38.25 29.8008L38.25 25.3008L38.25 25.3004C38.25 24.7818 37.9508 24.0651 37.582 23.7005L17.3447 3.64948C16.8767 3.18077 15.9595 2.80044 15.2972 2.80044C14.6349 2.80044 13.7176 3.18077 13.2497 3.64948L9.84794 7.05256C9.37985 7.52353 9 8.44466 9 9.10865L9 9.12115C9.00124 9.78706 9.38995 10.7041 9.86765 11.168L29.899 31.3821ZM20.3527 9.83203L36 25.3008L36 29.8008L31.5 29.8008L16.0383 14.1492L20.3527 9.83203ZM11.4392 8.64304L14.8416 5.23995C14.9462 5.13551 15.1511 5.05078 15.2989 5.05078L15.3 5.05078L15.3023 5.05078C15.4487 5.05078 15.6508 5.13551 15.7535 5.23995L18.8845 8.37167L14.5701 12.6874L11.4392 9.55573C11.3348 9.45135 11.2502 9.24694 11.2502 9.09938C11.2502 8.95182 11.3348 8.74741 11.4392 8.64304ZM9 31.4883C9 31.7988 9.252 32.0508 9.5625 32.0508L27.3945 32.0508L25.1649 29.8008L9.5625 29.8008C9.252 29.8008 9 30.0528 9 30.3633L9 31.4883ZM9.5625 25.3008L20.7063 25.3008L18.4767 23.0508L9.5625 23.0508C9.252 23.0508 9 23.3028 9 23.6133L9 24.7383C9 25.0488 9.252 25.3008 9.5625 25.3008ZM42.75 11.8008L28.7684 11.8008L31.0395 14.0508L42.75 14.0508L42.75 36.5508L2.25 36.5508L2.25 14.0508L9.5625 14.0508L8.29688 12.7767C8.05325 12.533 7.71089 12.0957 7.53257 11.8008L2.25 11.8008C1.008 11.8008 0 12.8088 0 14.0508L0 36.5508C0 37.7928 1.008 38.8008 2.25 38.8008L42.75 38.8008C43.992 38.8008 45 37.7928 45 36.5508L45 14.0508C45 12.8088 43.992 11.8008 42.75 11.8008Z" />
  </g>
</svg>