<?xml version="1.0" encoding="utf-8"?>
<svg width="45px" height="39px" viewBox="0 0 45 39" version="1.1" xmlns:xlink="http://www.w3.org/1999/xlink" xmlns="http://www.w3.org/2000/svg">
  <desc>Created with Lunacy</desc>
  <g id="" fill="#FFFFFF">
    <path d="M37.6875 36.5508L7.3125 36.5508C7.0031 36.5508 6.75 36.8039 6.75 37.1133L6.75 38.2383C6.75 38.5477 7.0031 38.8008 7.3125 38.8008L37.6875 38.8008C37.9969 38.8008 38.25 38.5477 38.25 38.2383L38.25 37.1133C38.25 36.8039 37.9969 36.5508 37.6875 36.5508ZM41.0625 14.0508C38.8898 14.0508 37.125 15.8156 37.125 17.9883C37.125 18.5226 37.2305 19.0289 37.4273 19.493L33.4688 21.8695C33.1031 22.0875 32.7094 22.193 32.3156 22.193C31.5352 22.193 30.7758 21.7852 30.3609 21.061L25.1297 11.9063C25.9242 11.182 26.4375 10.1484 26.4375 8.98828C26.4375 6.8156 24.6727 5.05078 22.5 5.05078C20.3273 5.05078 18.5625 6.8156 18.5625 8.98828C18.5625 10.1484 19.0758 11.182 19.8703 11.8992L14.6391 21.0539C14.2242 21.7852 13.4648 22.186 12.6844 22.186C12.2906 22.186 11.8898 22.0805 11.5313 21.8625L7.57267 19.4859C7.76253 19.0219 7.875 18.5156 7.875 17.9813C7.875 15.8086 6.11018 14.0438 3.9375 14.0438C1.76482 14.0438 0 15.8156 0 17.9883C0 20.161 1.76482 21.9258 3.9375 21.9258C4.07813 21.9258 4.21175 21.8976 4.3453 21.8836L9 34.3008L36 34.3008L40.6547 21.8836C40.7883 21.8976 40.9219 21.9258 41.0625 21.9258C43.2352 21.9258 45 20.161 45 17.9883C45 15.8156 43.2352 14.0508 41.0625 14.0508ZM22.5 7.30078C23.4281 7.30078 24.1875 8.06014 24.1875 8.98828C24.1875 9.91642 23.4281 10.6758 22.5 10.6758C21.5719 10.6758 20.8125 9.91642 20.8125 8.98828C20.8125 8.06014 21.5719 7.30078 22.5 7.30078ZM3.9375 19.6758C3.00936 19.6758 2.25 18.9164 2.25 17.9883C2.25 17.0601 3.00936 16.3008 3.9375 16.3008C4.86564 16.3008 5.625 17.0601 5.625 17.9883C5.625 18.9164 4.86564 19.6758 3.9375 19.6758ZM34.439 32.0508L10.561 32.0508L6.62345 21.5461L10.3781 23.7961C11.0812 24.2179 11.8758 24.436 12.6914 24.436C14.3016 24.436 15.7992 23.564 16.6008 22.1649L21.9164 12.8625C22.1133 12.8906 22.3031 12.9188 22.507 12.9188C22.7109 12.9188 22.9008 12.8906 23.0977 12.8625L28.4063 22.1719C29.2078 23.5711 30.7055 24.436 32.3156 24.436C33.1313 24.436 33.9258 24.2109 34.6289 23.7961L38.3836 21.5461L34.439 32.0508ZM41.0625 19.6758C40.1344 19.6758 39.375 18.9164 39.375 17.9883C39.375 17.0601 40.1344 16.3008 41.0625 16.3008C41.9906 16.3008 42.75 17.0601 42.75 17.9883C42.75 18.9164 41.9906 19.6758 41.0625 19.6758Z" />
  </g>
</svg>