<?xml version="1.0" encoding="utf-8"?>
<svg width="36px" height="39px" viewBox="0 0 36 39" version="1.1" xmlns:xlink="http://www.w3.org/1999/xlink" xmlns="http://www.w3.org/2000/svg">
  <desc>Created with Lunacy</desc>
  <g id="" fill="#FFFFFF">
    <path d="M32.625 7.30078L3.375 7.30078C1.51172 7.30078 0 8.8125 0 10.6758L0 30.9258C0 32.7891 1.51172 34.3008 3.375 34.3008L32.625 34.3008C34.4883 34.3008 36 32.7891 36 30.9258L36 10.6758C36 8.8125 34.4883 7.30078 32.625 7.30078ZM33.75 30.9258C33.75 31.5445 33.2437 32.0508 32.625 32.0508L3.375 32.0508C2.75626 32.0508 2.25 31.5445 2.25 30.9258L2.25 10.6758C2.25 10.057 2.75626 9.55078 3.375 9.55078L32.625 9.55078C33.2437 9.55078 33.75 10.057 33.75 10.6758L33.75 30.9258Z" />
  </g>
</svg>