<?xml version="1.0" encoding="utf-8"?>
<svg width="36px" height="39px" viewBox="0 0 36 39" version="1.1" xmlns:xlink="http://www.w3.org/1999/xlink" xmlns="http://www.w3.org/2000/svg">
  <desc>Created with Lunacy</desc>
  <g id="" fill="#FFFFFF">
    <path d="M4.34317 30.9961L5.57364 29.5793C5.77126 29.359 5.93159 28.9401 5.93159 28.6442C5.93159 28.6269 5.9309 28.5988 5.93015 28.5816L5.93015 28.3488C5.93015 27.832 5.66016 27.5508 5.13281 27.5508L1.125 27.5508C0.814499 27.5508 0.5625 27.8028 0.5625 28.1133L0.5625 29.2383C0.5625 29.5488 0.814499 29.8008 1.125 29.8008L2.73093 29.8008C2.50475 30.0283 2.1582 30.416 1.95749 30.6663L1.56308 31.1585C1.28183 31.515 1.19394 31.8708 1.36615 32.2048L1.44003 32.3405C1.65097 32.7455 1.88299 32.8945 2.30136 32.8945L2.6339 32.8945C3.36024 32.8945 3.75471 33.0661 3.75471 33.5337C3.75471 33.8655 3.45939 34.1116 2.745 34.1116C2.43306 34.1092 1.94575 34.0109 1.65729 33.8923C1.20094 33.6194 0.831802 33.6462 0.560371 34.1116L0.167336 34.7663C-0.0948944 35.1973 -0.0576782 35.5903 0.351563 35.887C0.893669 36.2168 1.78521 36.5508 2.95313 36.5508C5.35501 36.5508 6.36328 34.9512 6.36328 33.4486C6.36115 32.4375 5.72202 31.3561 4.34317 30.9961ZM0.850754 25.3008L5.625 25.3008C5.9355 25.3008 6.1875 25.0488 6.1875 24.7383L6.1875 23.6133C6.1875 23.3028 5.9355 23.0508 5.625 23.0508L2.90602 23.0508C3.13667 22.3273 6.30423 21.7374 6.30423 19.0823C6.30423 17.0391 4.54642 16.3008 3.17745 16.3008C1.67555 16.3008 0.800835 17.0039 0.333298 17.6191C0.0253372 18.0122 0.12236 18.3813 0.529472 18.6999L1.13276 19.1836C1.52717 19.5042 1.9062 19.3572 2.26689 19.012C2.41864 18.863 2.71438 18.742 2.9271 18.742L2.93136 18.742C3.16544 18.742 3.58381 18.8517 3.58381 19.3572C3.58594 20.2517 0 20.8929 0 24.2173L0 24.4985C0 25.0195 0.357193 25.3008 0.850754 25.3008ZM1.125 14.0508L5.625 14.0508C5.9355 14.0508 6.1875 13.7988 6.1875 13.4883L6.1875 12.3633C6.1875 12.0528 5.9355 11.8008 5.625 11.8008L4.5 11.8008L4.5 5.61328C4.5 5.30278 4.248 5.05078 3.9375 5.05078L2.25 5.05078C2.05856 5.05112 1.83362 5.19038 1.74799 5.36156L1.18549 6.48656C1.15267 6.55213 1.12603 6.66495 1.12603 6.73828C1.12603 7.04823 1.37755 7.30023 1.6875 7.30078L2.25 7.30078L2.25 11.8008L1.125 11.8008C0.814499 11.8008 0.5625 12.0528 0.5625 12.3633L0.5625 13.4883C0.5625 13.7988 0.814499 14.0508 1.125 14.0508ZM35.4375 8.42578L11.8125 8.42578C11.502 8.42578 11.25 8.67778 11.25 8.98828L11.25 10.1133C11.25 10.4238 11.502 10.6758 11.8125 10.6758L35.4375 10.6758C35.748 10.6758 36 10.4238 36 10.1133L36 8.98828C36 8.67778 35.748 8.42578 35.4375 8.42578ZM35.4375 30.9258L11.8125 30.9258C11.502 30.9258 11.25 31.1778 11.25 31.4883L11.25 32.6133C11.25 32.9238 11.502 33.1758 11.8125 33.1758L35.4375 33.1758C35.748 33.1758 36 32.9238 36 32.6133L36 31.4883C36 31.1778 35.748 30.9258 35.4375 30.9258ZM35.4375 19.6758L11.8125 19.6758C11.502 19.6758 11.25 19.9278 11.25 20.2383L11.25 21.3633C11.25 21.6738 11.502 21.9258 11.8125 21.9258L35.4375 21.9258C35.748 21.9258 36 21.6738 36 21.3633L36 20.2383C36 19.9278 35.748 19.6758 35.4375 19.6758Z" />
  </g>
</svg>