<?xml version="1.0" encoding="utf-8"?>
<svg width="45px" height="39px" viewBox="0 0 45 39" version="1.1" xmlns:xlink="http://www.w3.org/1999/xlink" xmlns="http://www.w3.org/2000/svg">
  <desc>Created with Lunacy</desc>
  <g id="" fill="#FFFFFF">
    <path d="M43.875 5.05078L1.125 5.05078C0.503448 5.05078 0 5.55423 0 6.17578L0 34.3008C0 35.5432 1.00758 36.5508 2.25 36.5508L42.75 36.5508C43.9924 36.5508 45 35.5432 45 34.3008L45 6.17578C45 5.55423 44.4966 5.05078 43.875 5.05078ZM42.75 34.3008L2.25 34.3008L2.25 14.0508L42.75 14.0508L42.75 34.3008ZM42.75 11.8008L2.25 11.8008L2.25 7.30078L42.75 7.30078L42.75 11.8008ZM7.3125 29.8008L17.4375 29.8008C17.7483 29.8008 18 29.5491 18 29.2383L18 28.1133C18 27.8025 17.7483 27.5508 17.4375 27.5508L7.3125 27.5508C7.00172 27.5508 6.75 27.8025 6.75 28.1133L6.75 29.2383C6.75 29.5491 7.00172 29.8008 7.3125 29.8008ZM27.5625 29.8008L37.6875 29.8008C37.9983 29.8008 38.25 29.5491 38.25 29.2383L38.25 28.1133C38.25 27.8025 37.9983 27.5508 37.6875 27.5508L27.5625 27.5508C27.2517 27.5508 27 27.8025 27 28.1133L27 29.2383C27 29.5491 27.2517 29.8008 27.5625 29.8008ZM7.3125 23.0508L21.9375 23.0508C22.2483 23.0508 22.5 22.7991 22.5 22.4883L22.5 21.3633C22.5 21.0525 22.2483 20.8008 21.9375 20.8008L7.3125 20.8008C7.00172 20.8008 6.75 21.0525 6.75 21.3633L6.75 22.4883C6.75 22.7991 7.00172 23.0508 7.3125 23.0508ZM28.125 23.0508L37.125 23.0508C37.7466 23.0508 38.25 22.5473 38.25 21.9258L38.25 17.4258C38.25 16.8042 37.7466 16.3008 37.125 16.3008L28.125 16.3008C27.5034 16.3008 27 16.8042 27 17.4258L27 21.9258C27 22.5473 27.5034 23.0508 28.125 23.0508ZM29.25 18.5508L36 18.5508L36 20.8008L29.25 20.8008L29.25 18.5508Z" />
  </g>
</svg>