<?xml version="1.0" encoding="utf-8"?>
<svg width="36px" height="39px" viewBox="0 0 36 39" version="1.1" xmlns:xlink="http://www.w3.org/1999/xlink" xmlns="http://www.w3.org/2000/svg">
  <desc>Created with Lunacy</desc>
  <g id="" fill="#FFFFFF">
    <path d="M18 3.36328C8.36719 3.36328 0.5625 11.168 0.5625 20.8008C0.5625 30.4336 8.36719 38.2383 18 38.2383C27.6328 38.2383 35.4375 30.4336 35.4375 20.8008C35.4375 11.168 27.6328 3.36328 18 3.36328ZM33.1875 20.8008C33.1875 29.1469 26.4305 35.9883 18 35.9883C9.65389 35.9883 2.8125 29.2313 2.8125 20.8008C2.8125 12.4547 9.5695 5.61328 18 5.61328C26.3461 5.61328 33.1875 12.3703 33.1875 20.8008ZM22.7179 27.0094C23.0977 27.2836 23.625 27.1992 23.8992 26.8266L24.4758 26.0321C24.75 25.6523 24.6727 25.125 24.293 24.8508L19.3359 21.2437L19.3359 10.957C19.3359 10.493 18.9562 10.1133 18.4922 10.1133L17.5078 10.1133C17.0438 10.1133 16.6641 10.493 16.6641 10.957L16.6641 22.1789C16.6641 22.4461 16.7906 22.6992 17.0086 22.8609L22.7179 27.0094Z" />
  </g>
</svg>