<?xml version="1.0" encoding="utf-8"?>
<svg width="32px" height="39px" viewBox="0 0 32 39" version="1.1" xmlns:xlink="http://www.w3.org/1999/xlink" xmlns="http://www.w3.org/2000/svg">
  <desc>Created with Lunacy</desc>
  <g id="" fill="#FFFFFF">
    <path d="M28.125 5.05078L3.375 5.05078C1.51103 5.05078 0 6.56181 0 8.42578L0 33.1758C0 35.0397 1.51103 36.5508 3.375 36.5508L28.125 36.5508C29.989 36.5508 31.5 35.0397 31.5 33.1758L31.5 8.42578C31.5 6.56181 29.989 5.05078 28.125 5.05078ZM29.25 33.1758C29.25 33.7961 28.7453 34.3008 28.125 34.3008L3.375 34.3008C2.75468 34.3008 2.25 33.7961 2.25 33.1758L2.25 8.42578C2.25 7.80547 2.75468 7.30078 3.375 7.30078L28.125 7.30078C28.7453 7.30078 29.25 7.80547 29.25 8.42578L29.25 33.1758ZM23.625 12.6445C23.625 12.1786 23.2472 11.8008 22.7813 11.8008L22.2188 11.8008C21.7528 11.8008 21.375 12.1786 21.375 12.6445L21.375 19.6758L10.125 19.6758L10.125 12.6445C10.125 12.1786 9.74721 11.8008 9.28125 11.8008L8.71875 11.8008C8.25279 11.8008 7.875 12.1786 7.875 12.6445L7.875 28.957C7.875 29.423 8.25279 29.8008 8.71875 29.8008L9.28125 29.8008C9.74721 29.8008 10.125 29.423 10.125 28.957L10.125 21.9258L21.375 21.9258L21.375 28.957C21.375 29.423 21.7528 29.8008 22.2188 29.8008L22.7813 29.8008C23.2472 29.8008 23.625 29.423 23.625 28.957L23.625 12.6445Z" />
  </g>
</svg>