<?xml version="1.0" encoding="utf-8"?>
<svg width="32px" height="39px" viewBox="0 0 32 39" version="1.1" xmlns:xlink="http://www.w3.org/1999/xlink" xmlns="http://www.w3.org/2000/svg">
  <desc>Created with Lunacy</desc>
  <g id="ï³" fill="#FFFFFF">
    <path d="M28.125 7.30078L24.75 7.30078L24.75 3.64453C24.75 3.1805 24.3703 2.80078 23.9063 2.80078L23.3438 2.80078C22.8797 2.80078 22.5 3.1805 22.5 3.64453L22.5 7.30078L9 7.30078L9 3.64453C9 3.1805 8.62029 2.80078 8.15625 2.80078L7.59375 2.80078C7.12971 2.80078 6.75 3.1805 6.75 3.64453L6.75 7.30078L3.375 7.30078C1.51172 7.30078 0 8.8125 0 10.6758L0 35.4258C0 37.2891 1.51172 38.8008 3.375 38.8008L28.125 38.8008C29.9883 38.8008 31.5 37.2891 31.5 35.4258L31.5 10.6758C31.5 8.8125 29.9883 7.30078 28.125 7.30078ZM3.375 9.55078L28.125 9.55078C28.7437 9.55078 29.25 10.057 29.25 10.6758L29.25 14.0508L2.25 14.0508L2.25 10.6758C2.25 10.057 2.75626 9.55078 3.375 9.55078ZM28.125 36.5508L3.375 36.5508C2.75626 36.5508 2.25 36.0445 2.25 35.4258L2.25 16.3008L29.25 16.3008L29.25 35.4258C29.25 36.0445 28.7437 36.5508 28.125 36.5508ZM10.4063 25.3008C10.8703 25.3008 11.25 24.9211 11.25 24.457L11.25 21.6445C11.25 21.1805 10.8703 20.8008 10.4063 20.8008L7.59375 20.8008C7.12971 20.8008 6.75 21.1805 6.75 21.6445L6.75 24.457C6.75 24.9211 7.12971 25.3008 7.59375 25.3008L10.4063 25.3008ZM17.1563 25.3008C17.6203 25.3008 18 24.9211 18 24.457L18 21.6445C18 21.1805 17.6203 20.8008 17.1563 20.8008L14.3438 20.8008C13.8797 20.8008 13.5 21.1805 13.5 21.6445L13.5 24.457C13.5 24.9211 13.8797 25.3008 14.3438 25.3008L17.1563 25.3008ZM23.9063 25.3008C24.3703 25.3008 24.75 24.9211 24.75 24.457L24.75 21.6445C24.75 21.1805 24.3703 20.8008 23.9063 20.8008L21.0938 20.8008C20.6297 20.8008 20.25 21.1805 20.25 21.6445L20.25 24.457C20.25 24.9211 20.6297 25.3008 21.0938 25.3008L23.9063 25.3008ZM17.1563 32.0508C17.6203 32.0508 18 31.6711 18 31.207L18 28.3945C18 27.9305 17.6203 27.5508 17.1563 27.5508L14.3438 27.5508C13.8797 27.5508 13.5 27.9305 13.5 28.3945L13.5 31.207C13.5 31.6711 13.8797 32.0508 14.3438 32.0508L17.1563 32.0508ZM10.4063 32.0508C10.8703 32.0508 11.25 31.6711 11.25 31.207L11.25 28.3945C11.25 27.9305 10.8703 27.5508 10.4063 27.5508L7.59375 27.5508C7.12971 27.5508 6.75 27.9305 6.75 28.3945L6.75 31.207C6.75 31.6711 7.12971 32.0508 7.59375 32.0508L10.4063 32.0508ZM23.9063 32.0508C24.3703 32.0508 24.75 31.6711 24.75 31.207L24.75 28.3945C24.75 27.9305 24.3703 27.5508 23.9063 27.5508L21.0938 27.5508C20.6297 27.5508 20.25 27.9305 20.25 28.3945L20.25 31.207C20.25 31.6711 20.6297 32.0508 21.0938 32.0508L23.9063 32.0508Z" />
  </g>
</svg>