<?xml version="1.0" encoding="utf-8"?>
<svg width="36px" height="39px" viewBox="0 0 36 39" version="1.1" xmlns:xlink="http://www.w3.org/1999/xlink" xmlns="http://www.w3.org/2000/svg">
  <desc>Created with Lunacy</desc>
  <g id="" fill="#FFFFFF">
    <path d="M32.625 7.30078L3.375 7.30078C1.51103 7.30078 0 8.81181 0 10.6758L0 30.9258C0 32.7897 1.51103 34.3008 3.375 34.3008L32.625 34.3008C34.489 34.3008 36 32.7897 36 30.9258L36 10.6758C36 8.81181 34.489 7.30078 32.625 7.30078ZM33.75 30.9258C33.75 31.5461 33.2453 32.0508 32.625 32.0508L3.375 32.0508C2.75468 32.0508 2.25 31.5461 2.25 30.9258L2.25 10.6758C2.25 10.0555 2.75468 9.55078 3.375 9.55078L32.625 9.55078C33.2453 9.55078 33.75 10.0555 33.75 10.6758L33.75 30.9258ZM7.875 19.1133C10.0496 19.1133 11.8125 17.3504 11.8125 15.1758C11.8125 13.0012 10.0496 11.2383 7.875 11.2383C5.70039 11.2383 3.9375 13.0012 3.9375 15.1758C3.9375 17.3504 5.70039 19.1133 7.875 19.1133ZM7.875 13.4883C8.80554 13.4883 9.5625 14.2452 9.5625 15.1758C9.5625 16.1063 8.80554 16.8633 7.875 16.8633C6.94446 16.8633 6.1875 16.1063 6.1875 15.1758C6.1875 14.2452 6.94446 13.4883 7.875 13.4883ZM22.4317 15.1075L15.75 21.7893L13.5683 19.6076C12.9092 18.9486 11.8408 18.9486 11.1818 19.6076L4.99432 25.7951C4.72144 26.0679 4.5 26.6025 4.5 26.9883L4.5 28.957C4.5 29.423 4.87779 29.8008 5.34375 29.8008L30.6563 29.8008C31.1222 29.8008 31.5 29.423 31.5 28.957L31.5 22.4883C31.5 22.0407 31.3222 21.6115 31.0058 21.295L24.8183 15.1075C24.1592 14.4486 23.0908 14.4486 22.4317 15.1075ZM29.25 27.5508L6.75 27.5508L6.75 27.2213L12.375 21.5963L15.75 24.9713L23.625 17.0963L29.25 22.7213L29.25 27.5508Z" />
  </g>
</svg>