<?xml version="1.0" encoding="utf-8"?>
<svg width="27px" height="39px" viewBox="0 0 27 39" version="1.1" xmlns:xlink="http://www.w3.org/1999/xlink" xmlns="http://www.w3.org/2000/svg">
  <desc>Created with Lunacy</desc>
  <g id="" fill="#FFFFFF">
    <path d="M26.4375 24.1758L0.5625 24.1758C0.251724 24.1758 0 24.4275 0 24.7383L0 26.9883C0 27.2991 0.251724 27.5508 0.5625 27.5508L26.4375 27.5508C26.7483 27.5508 27 27.2991 27 26.9883L27 24.7383C27 24.4275 26.7483 24.1758 26.4375 24.1758ZM26.4375 14.0508L0.5625 14.0508C0.251724 14.0508 0 14.3025 0 14.6133L0 16.8633C0 17.1741 0.251724 17.4258 0.5625 17.4258L26.4375 17.4258C26.7483 17.4258 27 17.1741 27 16.8633L27 14.6133C27 14.3025 26.7483 14.0508 26.4375 14.0508Z" />
  </g>
</svg>