<?xml version="1.0" encoding="utf-8"?>
<svg width="45px" height="39px" viewBox="0 0 45 39" version="1.1" xmlns:xlink="http://www.w3.org/1999/xlink" xmlns="http://www.w3.org/2000/svg">
  <desc>Created with Lunacy</desc>
  <g id="" fill="#1D39D7">
    <path d="M41.625 9.55078L16.875 9.55078C15.0138 9.55078 13.5 11.0646 13.5 12.9258L13.5 14.0508L15.75 14.0508L15.75 12.9258C15.75 12.3042 16.2534 11.8008 16.875 11.8008L41.625 11.8008C42.2466 11.8008 42.75 12.3042 42.75 12.9258L42.75 28.6758C42.75 29.2973 42.2466 29.8008 41.625 29.8008L29.25 29.8008L29.25 32.0508L41.625 32.0508C43.4862 32.0508 45 30.5369 45 28.6758L45 12.9258C45 11.0646 43.4862 9.55078 41.625 9.55078ZM6.75 6.17578C6.75 5.55423 7.25345 5.05078 7.875 5.05078L28.125 5.05078C28.7466 5.05078 29.25 5.55423 29.25 6.17578L29.25 7.30078L31.5 7.30078L31.5 6.17578C31.5 4.31463 29.9862 2.80078 28.125 2.80078L7.875 2.80078C6.01385 2.80078 4.5 4.31463 4.5 6.17578L4.5 14.0508L6.75 14.0508L6.75 6.17578ZM39.375 20.8008C39.9966 20.8008 40.5 20.2973 40.5 19.6758L40.5 15.1758C40.5 14.5542 39.9966 14.0508 39.375 14.0508L34.875 14.0508C34.2534 14.0508 33.75 14.5542 33.75 15.1758L33.75 19.6758C33.75 20.2973 34.2534 20.8008 34.875 20.8008L39.375 20.8008ZM36 16.3008L38.25 16.3008L38.25 18.5508L36 18.5508L36 16.3008ZM23.625 16.3008L3.375 16.3008C1.51385 16.3008 0 17.8146 0 19.6758L0 35.4258C0 37.2869 1.51385 38.8008 3.375 38.8008L23.625 38.8008C25.4862 38.8008 27 37.2869 27 35.4258L27 19.6758C27 17.8146 25.4862 16.3008 23.625 16.3008ZM24.75 35.4258C24.75 36.0473 24.2466 36.5508 23.625 36.5508L3.375 36.5508C2.75345 36.5508 2.25 36.0473 2.25 35.4258L2.25 24.8508C3.14999 25.5258 4.5 26.6508 9 29.8008C9.89999 30.4758 11.7 32.0508 13.5 32.0508C15.3 32.0508 17.1 30.4758 18 29.8008C22.5 26.6508 23.85 25.5258 24.75 24.8508L24.75 35.4258ZM24.75 22.1508C22.95 23.5008 23.175 23.5008 16.65 28.2258C15.975 28.4508 14.625 29.8008 13.5 29.8008C12.375 29.8008 11.025 28.4508 10.35 28.0008C3.82503 23.2758 4.04997 23.2758 2.25 21.9258L2.25 19.6758C2.25 19.0542 2.75345 18.5508 3.375 18.5508L23.625 18.5508C24.2466 18.5508 24.75 19.0542 24.75 19.6758L24.75 22.1508Z" />
  </g>
</svg>