<?xml version="1.0" encoding="utf-8"?>
<svg width="36px" height="39px" viewBox="0 0 36 39" version="1.1" xmlns:xlink="http://www.w3.org/1999/xlink" xmlns="http://www.w3.org/2000/svg">
  <desc>Created with Lunacy</desc>
  <g id="" fill="#1D39D7">
    <path d="M35.0115 18.6873L20.1135 3.78928C19.5679 3.24367 18.4987 2.80078 17.7271 2.80078L3.375 2.80078C1.51103 2.80078 0 4.31181 0 6.17578L0 20.5278C0 21.2995 0.442886 22.3687 0.988495 22.9143L15.8865 37.8123C17.2045 39.1302 19.3414 39.1303 20.6594 37.8123L35.0115 23.4602C36.3295 22.1422 36.3295 20.0052 35.0115 18.6873ZM33.4205 21.8693L19.0685 36.2213C18.6295 36.6602 17.9171 36.661 17.4775 36.2213L2.57945 21.3232C2.39763 21.1424 2.25 20.7874 2.25 20.5309L2.25 20.5278L2.25 6.17578C2.25 5.55547 2.75468 5.05078 3.375 5.05078L17.7271 5.05078C18.0275 5.05078 18.3101 5.16779 18.5225 5.38023L33.4205 20.2782C33.8591 20.7169 33.8591 21.4306 33.4205 21.8693ZM10.125 11.5195C10.9004 11.5195 11.5313 12.1504 11.5313 12.9258C11.5313 13.7012 10.9004 14.332 10.125 14.332C9.34957 14.332 8.71875 13.7012 8.71875 12.9258C8.71875 12.1504 9.34957 11.5195 10.125 11.5195ZM10.125 9.55078C8.26103 9.55078 6.75 11.0618 6.75 12.9258C6.75 14.7897 8.26103 16.3008 10.125 16.3008C11.989 16.3008 13.5 14.7897 13.5 12.9258C13.5 11.0618 11.989 9.55078 10.125 9.55078Z" />
  </g>
</svg>