<?xml version="1.0" encoding="utf-8"?>
<svg width="45px" height="39px" viewBox="0 0 45 39" version="1.1" xmlns:xlink="http://www.w3.org/1999/xlink" xmlns="http://www.w3.org/2000/svg">
  <desc>Created with Lunacy</desc>
  <g id="" fill="#FFFFFF">
    <path d="M38.25 18.5508C41.3578 18.5508 43.875 16.0336 43.875 12.9258C43.875 9.81796 41.3578 7.30078 38.25 7.30078C35.1422 7.30078 32.625 9.81796 32.625 12.9258C32.625 16.0336 35.1422 18.5508 38.25 18.5508ZM38.25 9.55078C40.1133 9.55078 41.625 11.0625 41.625 12.9258C41.625 14.7891 40.1133 16.3008 38.25 16.3008C36.3867 16.3008 34.875 14.7891 34.875 12.9258C34.875 11.0625 36.3867 9.55078 38.25 9.55078ZM22.5 20.8008C26.8524 20.8008 30.375 17.2782 30.375 12.9258C30.375 8.57341 26.8524 5.05078 22.5 5.05078C18.1476 5.05078 14.625 8.57341 14.625 12.9258C14.625 17.2782 18.1476 20.8008 22.5 20.8008ZM22.5 7.30078C25.6008 7.30078 28.125 9.82503 28.125 12.9258C28.125 16.0265 25.6008 18.5508 22.5 18.5508C19.3992 18.5508 16.875 16.0265 16.875 12.9258C16.875 9.82503 19.3992 7.30078 22.5 7.30078ZM39.6563 20.8008L36.8438 20.8008C35.775 20.8008 34.7836 21.1383 33.9539 21.7078C34.6148 22.1578 35.2125 22.6851 35.7398 23.2828C36.0844 23.1352 36.457 23.0508 36.8438 23.0508L39.6563 23.0508C41.3578 23.0508 42.75 24.5625 42.75 26.4258C42.75 27.0445 43.2563 27.5508 43.875 27.5508C44.4937 27.5508 45 27.0445 45 26.4258C45 23.325 42.6024 20.8008 39.6563 20.8008ZM6.75 18.5508C9.85783 18.5508 12.375 16.0336 12.375 12.9258C12.375 9.81796 9.85783 7.30078 6.75 7.30078C3.64217 7.30078 1.125 9.81796 1.125 12.9258C1.125 16.0336 3.64217 18.5508 6.75 18.5508ZM6.75 9.55078C8.61328 9.55078 10.125 11.0625 10.125 12.9258C10.125 14.7891 8.61328 16.3008 6.75 16.3008C4.88672 16.3008 3.375 14.7891 3.375 12.9258C3.375 11.0625 4.88672 9.55078 6.75 9.55078ZM28.132 22.207C25.7836 22.207 25.2 23.0508 22.5 23.0508C19.8 23.0508 19.2164 22.207 16.868 22.207C14.3156 22.207 11.8336 23.3461 10.3781 25.5047C9.50626 26.7984 9 28.3524 9 30.0258L9 33.1758C9 35.0391 10.5117 36.5508 12.375 36.5508L32.625 36.5508C34.4883 36.5508 36 35.0391 36 33.1758L36 30.0258C36 28.3524 35.4937 26.7984 34.6219 25.5047C33.1664 23.3461 30.6844 22.207 28.132 22.207ZM33.75 33.1758C33.75 33.7945 33.2437 34.3008 32.625 34.3008L12.375 34.3008C11.7563 34.3008 11.25 33.7945 11.25 33.1758L11.25 30.0258C11.25 28.8586 11.5946 27.7266 12.2414 26.7633C13.2117 25.3219 14.9414 24.457 16.8609 24.457C18.7875 24.457 19.4766 25.3008 22.5 25.3008C25.5234 25.3008 26.2125 24.457 28.132 24.457C30.0516 24.457 31.7813 25.3219 32.7515 26.7633C33.3984 27.7266 33.743 28.8586 33.743 30.0258L33.743 33.1758L33.75 33.1758ZM11.0461 21.7078C10.2094 21.1383 9.21794 20.8008 8.15625 20.8008L5.34375 20.8008C2.39763 20.8008 0 23.325 0 26.4258C0 27.0445 0.506264 27.5508 1.125 27.5508C1.74374 27.5508 2.25 27.0445 2.25 26.4258C2.25 24.5625 3.64217 23.0508 5.34375 23.0508L8.15625 23.0508C8.54297 23.0508 8.91561 23.1352 9.26017 23.2828C9.78751 22.6851 10.3922 22.1578 11.0461 21.7078Z" />
  </g>
</svg>