<?xml version="1.0" encoding="utf-8"?>
<svg width="40px" height="39px" viewBox="0 0 40 39" version="1.1" xmlns:xlink="http://www.w3.org/1999/xlink" xmlns="http://www.w3.org/2000/svg">
  <desc>Created with Lunacy</desc>
  <g id="" fill="#FFFFFF">
    <path d="M38.243 9.55078C37.807 9.55078 37.3641 9.67733 36.9633 9.95158L29.25 14.8664L29.25 10.6617C29.25 8.8055 27.6187 7.30078 25.6078 7.30078L3.64217 7.30078C1.63126 7.30078 0 8.8055 0 10.6617L0 30.9399C0 32.7961 1.63126 34.3008 3.64217 34.3008L25.6078 34.3008C27.6187 34.3008 29.25 32.7961 29.25 30.9399L29.25 26.7352L36.9562 31.65C37.357 31.9312 37.807 32.0508 38.2359 32.0508C39.4032 32.0508 40.493 31.1367 40.493 29.8359L40.493 11.7656C40.5 10.4648 39.4102 9.55078 38.243 9.55078ZM27 30.9399C27 31.5445 26.3602 32.0508 25.6078 32.0508L3.64217 32.0508C2.88982 32.0508 2.25 31.5445 2.25 30.9399L2.25 10.6617C2.25 10.057 2.88982 9.55078 3.64217 9.55078L25.6078 9.55078C26.3602 9.55078 27 10.057 27 10.6617L27 30.9399ZM38.25 29.8359L38.1656 29.7445L29.25 24.0633L29.25 17.5313L38.25 11.8008L38.25 29.8359Z" />
  </g>
</svg>